<?xml version="1.0" encoding="utf-8"?>
<!-- Generator: Adobe Illustrator 26.0.0, SVG Export Plug-In . SVG Version: 6.00 Build 0)  -->
<svg version="1.1" id="Capa_1" xmlns="http://www.w3.org/2000/svg" xmlns:xlink="http://www.w3.org/1999/xlink" x="0px" y="0px"
	 viewBox="0 0 1200 1200" style="enable-background:new 0 0 1200 1200;" xml:space="preserve">
<style type="text/css">
	.st0{fill-rule:evenodd;clip-rule:evenodd;fill:#DB1C8B;}
	.st1{clip-path:url(#SVGID_00000129884816464368508510000005092773886399310993_);}
	.st2{fill:#FFFFFF;}
	.st3{fill-rule:evenodd;clip-rule:evenodd;fill:#35B3E6;}
	.st4{clip-path:url(#SVGID_00000144326457306017162550000001325950449266203791_);}
	.st5{fill:#1E1E1D;}
	.st6{fill:#35B3E6;}
	.st7{fill:#DB1C8B;}
	.st8{fill-rule:evenodd;clip-rule:evenodd;fill:#1EBAC8;}
	.st9{fill:#4BD4DB;}
	.st10{fill:#E240A4;}
	.st11{fill:#41BEE5;}
	.st12{fill:#56CDE8;}
	.st13{fill:#FFFFFF;stroke:#1E1E1D;stroke-width:4.9825;stroke-linecap:round;stroke-linejoin:round;stroke-miterlimit:10;}
	.st14{fill:#1E1E1D;stroke:#1E1E1D;stroke-width:4.9825;stroke-linecap:round;stroke-linejoin:round;stroke-miterlimit:10;}
	.st15{fill:none;stroke:#1E1E1D;stroke-width:4.9825;stroke-linecap:round;stroke-linejoin:round;stroke-miterlimit:10;}
	.st16{fill:none;stroke:#1E1E1D;stroke-width:2.4913;stroke-linecap:round;stroke-linejoin:round;stroke-miterlimit:10;}
	.st17{fill:#FFFFFF;stroke:#1E1E1D;stroke-width:1.9662;stroke-linecap:round;stroke-linejoin:round;stroke-miterlimit:10;}
	.st18{fill:#1E1E1D;stroke:#1E1E1D;stroke-width:1.9662;stroke-linecap:round;stroke-linejoin:round;stroke-miterlimit:10;}
	.st19{fill:none;stroke:#1E1E1D;stroke-width:1.9662;stroke-linecap:round;stroke-linejoin:round;stroke-miterlimit:10;}
	.st20{fill:none;stroke:#1E1E1D;stroke-width:0.9831;stroke-linecap:round;stroke-linejoin:round;stroke-miterlimit:10;}
	.st21{fill:#4B6FB5;}
</style>
<g>
	<g>
		<defs>
			<path id="SVGID_1_" d="M1200-4.4v690.9l-172.9,424c0,0-67.7,148.1-272.6,36.2L557.1,701L857.9-4.4H1200z"/>
		</defs>
		<clipPath id="SVGID_00000164504328552135871670000010340666246610954171_">
			<use xlink:href="#SVGID_1_"  style="overflow:visible;"/>
		</clipPath>
	</g>
	<path class="st0" d="M1200,109.8v581.5c0,2.4-0.5,4.9-1.4,7.1l-171.6,423.1c0,0-66.4,146.1-266.7,39.6c-3.7-2-6.7-5.2-8.5-9.1
		L560.4,717.1c-2.1-4.8-2.1-10.2-0.1-15.1L857.9,0h233C1151.1,0,1200,49.2,1200,109.8z"/>
	<g>
		<defs>
			<path id="SVGID_00000119111459061102410860000000274889032788040369_" d="M1200,7V698l-172.9,424c0,0-67.7,148.1-272.6,36.2
				L557.1,712.4L857.9,7H1200z"/>
		</defs>
		<clipPath id="SVGID_00000010302404419532385740000009632576127698916269_">
			<use xlink:href="#SVGID_00000119111459061102410860000000274889032788040369_"  style="overflow:visible;"/>
		</clipPath>
		<g style="clip-path:url(#SVGID_00000010302404419532385740000009632576127698916269_);">
			<g>
				<path class="st2" d="M1514.4,1232.2c-32.3,0-57.5-10.3-81.8-20.3c-24.3-9.9-47.2-19.3-76.9-19.3c-29.7,0-52.6,9.4-76.9,19.3
					c-24.4,10-49.6,20.3-81.8,20.3c-32.3,0-57.5-10.3-81.8-20.3c-24.3-9.9-47.2-19.3-76.9-19.3c-29.7,0-52.6,9.4-76.9,19.3
					c-24.4,10-49.6,20.3-81.8,20.3c-32.3,0-57.5-10.3-81.8-20.3c-24.3-9.9-47.2-19.3-76.9-19.3c-29.7,0-52.6,9.4-76.9,19.3
					c-24.4,10-49.6,20.3-81.8,20.3c-14.2,0-28.2-2-42.9-6.1l3.6-11.6c13.5,3.8,26.4,5.6,39.4,5.6c29.7,0,52.6-9.4,76.9-19.3
					c24.4-10,49.6-20.3,81.8-20.3c32.3,0,57.5,10.3,81.8,20.3c24.3,9.9,47.2,19.3,76.9,19.3c29.7,0,52.6-9.4,76.9-19.3
					c24.4-10,49.6-20.3,81.8-20.3c32.3,0,57.5,10.3,81.8,20.3c24.3,9.9,47.2,19.3,76.9,19.3c29.7,0,52.6-9.4,76.9-19.3
					c24.4-10,49.6-20.3,81.8-20.3c32.3,0,57.5,10.3,81.8,20.3c24.3,9.9,47.2,19.3,76.9,19.3c13,0,25.8-1.8,39.4-5.6l3.6,11.6
					C1542.6,1230.2,1528.6,1232.2,1514.4,1232.2z"/>
			</g>
			<g>
				<path class="st2" d="M1514.4,1172.7c-32.3,0-57.5-10.3-81.8-20.3c-24.3-9.9-47.2-19.3-76.9-19.3c-29.7,0-52.6,9.4-76.9,19.3
					c-24.4,10-49.6,20.3-81.8,20.3c-32.3,0-57.5-10.3-81.8-20.3c-24.3-9.9-47.2-19.3-76.9-19.3c-29.7,0-52.6,9.4-76.9,19.3
					c-24.4,10-49.6,20.3-81.8,20.3c-32.3,0-57.5-10.3-81.8-20.3c-24.3-9.9-47.2-19.3-76.9-19.3c-29.7,0-52.6,9.4-76.9,19.3
					c-24.4,10-49.6,20.3-81.8,20.3c-14.2,0-28.2-2-42.9-6.1l3.6-11.6c13.5,3.8,26.4,5.6,39.4,5.6c29.7,0,52.6-9.4,76.9-19.3
					c24.4-10,49.6-20.3,81.8-20.3c32.3,0,57.5,10.3,81.8,20.3c24.3,9.9,47.2,19.3,76.9,19.3c29.7,0,52.6-9.4,76.9-19.3
					c24.4-10,49.6-20.3,81.8-20.3c32.3,0,57.5,10.3,81.8,20.3c24.3,9.9,47.2,19.3,76.9,19.3c29.7,0,52.6-9.4,76.9-19.3
					c24.4-10,49.6-20.3,81.8-20.3c32.3,0,57.5,10.3,81.8,20.3c24.3,9.9,47.2,19.3,76.9,19.3c13,0,25.8-1.8,39.4-5.6l3.6,11.6
					C1542.6,1170.7,1528.6,1172.7,1514.4,1172.7z"/>
			</g>
			<g>
				<path class="st2" d="M1514.4,1113.3c-32.3,0-57.5-10.3-81.8-20.3c-24.3-9.9-47.2-19.3-76.9-19.3c-29.7,0-52.6,9.4-76.9,19.3
					c-24.4,10-49.6,20.3-81.8,20.3c-32.3,0-57.5-10.3-81.8-20.3c-24.3-9.9-47.2-19.3-76.9-19.3c-29.7,0-52.6,9.4-76.9,19.3
					c-24.4,10-49.6,20.3-81.8,20.3c-32.3,0-57.5-10.3-81.8-20.3c-24.3-9.9-47.2-19.3-76.9-19.3c-29.7,0-52.6,9.4-76.9,19.3
					c-24.4,10-49.6,20.3-81.8,20.3c-14.2,0-28.2-2-42.9-6.1l3.6-11.6c13.5,3.8,26.4,5.6,39.4,5.6c29.7,0,52.6-9.4,76.9-19.3
					c24.4-10,49.6-20.3,81.8-20.3c32.3,0,57.5,10.3,81.8,20.3c24.3,9.9,47.2,19.3,76.9,19.3c29.7,0,52.6-9.4,76.9-19.3
					c24.4-10,49.6-20.3,81.8-20.3c32.3,0,57.5,10.3,81.8,20.3c24.3,9.9,47.2,19.3,76.9,19.3c29.7,0,52.6-9.4,76.9-19.3
					c24.4-10,49.6-20.3,81.8-20.3c32.3,0,57.5,10.3,81.8,20.3c24.3,9.9,47.2,19.3,76.9,19.3c13,0,25.8-1.8,39.4-5.6l3.6,11.6
					C1542.6,1111.3,1528.6,1113.3,1514.4,1113.3z"/>
			</g>
			<g>
				<path class="st2" d="M1514.4,1053.9c-32.3,0-57.5-10.3-81.8-20.3c-24.3-9.9-47.2-19.3-76.9-19.3c-29.7,0-52.6,9.4-76.9,19.3
					c-24.4,10-49.6,20.3-81.8,20.3c-32.3,0-57.5-10.3-81.8-20.3c-24.3-9.9-47.2-19.3-76.9-19.3c-29.7,0-52.6,9.4-76.9,19.3
					c-24.4,10-49.6,20.3-81.8,20.3c-32.3,0-57.5-10.3-81.8-20.3c-24.3-9.9-47.2-19.3-76.9-19.3c-29.7,0-52.6,9.4-76.9,19.3
					c-24.4,10-49.6,20.3-81.8,20.3c-14.2,0-28.2-2-42.9-6.1l3.6-11.6c13.5,3.8,26.4,5.6,39.4,5.6c29.7,0,52.6-9.4,76.9-19.3
					c24.4-10,49.6-20.3,81.8-20.3c32.3,0,57.5,10.3,81.8,20.3c24.3,9.9,47.2,19.3,76.9,19.3c29.7,0,52.6-9.4,76.9-19.3
					c24.4-10,49.6-20.3,81.8-20.3c32.3,0,57.5,10.3,81.8,20.3c24.3,9.9,47.2,19.3,76.9,19.3c29.7,0,52.6-9.4,76.9-19.3
					c24.4-10,49.6-20.3,81.8-20.3c32.3,0,57.5,10.3,81.8,20.3c24.3,9.9,47.2,19.3,76.9,19.3c13,0,25.8-1.8,39.4-5.6l3.6,11.6
					C1542.6,1051.9,1528.6,1053.9,1514.4,1053.9z"/>
			</g>
			<g>
				<path class="st2" d="M1514.4,994.5c-32.3,0-57.5-10.3-81.8-20.3c-24.3-9.9-47.2-19.3-76.9-19.3c-29.7,0-52.6,9.4-76.9,19.3
					c-24.4,10-49.6,20.3-81.8,20.3c-32.3,0-57.5-10.3-81.8-20.3c-24.3-9.9-47.2-19.3-76.9-19.3c-29.7,0-52.6,9.4-76.9,19.3
					c-24.4,10-49.6,20.3-81.8,20.3c-32.3,0-57.5-10.3-81.8-20.3c-24.3-9.9-47.2-19.3-76.9-19.3c-29.7,0-52.6,9.4-76.9,19.3
					c-24.4,10-49.6,20.3-81.8,20.3c-14.2,0-28.2-2-42.9-6.1l3.6-11.6c13.5,3.8,26.4,5.6,39.4,5.6c29.7,0,52.6-9.4,76.9-19.3
					c24.4-10,49.6-20.3,81.8-20.3c32.3,0,57.5,10.3,81.8,20.3c24.3,9.9,47.2,19.3,76.9,19.3c29.7,0,52.6-9.4,76.9-19.3
					c24.4-10,49.6-20.3,81.8-20.3c32.3,0,57.5,10.3,81.8,20.3c24.3,9.9,47.2,19.3,76.9,19.3c29.7,0,52.6-9.4,76.9-19.3
					c24.4-10,49.6-20.3,81.8-20.3c32.3,0,57.5,10.3,81.8,20.3c24.3,9.9,47.2,19.3,76.9,19.3c13,0,25.9-1.8,39.4-5.6l3.6,11.6
					C1542.6,992.5,1528.6,994.5,1514.4,994.5z"/>
			</g>
			<g>
				<path class="st2" d="M1514.4,935.1c-32.3,0-57.5-10.3-81.8-20.3c-24.3-9.9-47.2-19.3-76.9-19.3c-29.7,0-52.6,9.4-76.9,19.3
					c-24.4,10-49.6,20.3-81.8,20.3c-32.3,0-57.5-10.3-81.8-20.3c-24.3-9.9-47.2-19.3-76.9-19.3c-29.7,0-52.6,9.4-76.9,19.3
					c-24.4,10-49.6,20.3-81.8,20.3c-32.3,0-57.5-10.3-81.8-20.3c-24.3-9.9-47.2-19.3-76.9-19.3c-29.7,0-52.6,9.4-76.9,19.3
					c-24.4,10-49.6,20.3-81.8,20.3c-14.2,0-28.2-2-42.9-6.1l3.6-11.6c13.5,3.8,26.4,5.6,39.4,5.6c29.7,0,52.6-9.4,76.9-19.3
					c24.4-10,49.6-20.3,81.8-20.3c32.3,0,57.5,10.3,81.8,20.3c24.3,9.9,47.2,19.3,76.9,19.3c29.7,0,52.6-9.4,76.9-19.3
					c24.4-10,49.6-20.3,81.8-20.3c32.3,0,57.5,10.3,81.8,20.3c24.3,9.9,47.2,19.3,76.9,19.3c29.7,0,52.6-9.4,76.9-19.3
					c24.4-10,49.6-20.3,81.8-20.3c32.3,0,57.5,10.3,81.8,20.3c24.3,9.9,47.2,19.3,76.9,19.3c13,0,25.8-1.8,39.4-5.6l3.6,11.6
					C1542.6,933.1,1528.6,935.1,1514.4,935.1z"/>
			</g>
		</g>
	</g>
	<path class="st3" d="M0,378.6h307.8c0,0,105.4-12.6,166.1,66.8l299.5,678.5c0,0,55.1,77,117.8,76.2l-445.6,0
		c0,0-77.6-1.1-131.5-112.5L0,378.6z"/>
	<g>
		<g>
			<path class="st2" d="M317.1,710.1h32.6l24,66.9l24.2-66.9h32L387,816.6h-27.2L317.1,710.1z"/>
			<path class="st2" d="M436,757.6h22.6c20.7,0,32.8,11.9,32.8,28.8v0.2c0,16.9-12.2,29.3-33.1,29.3H436V757.6z M452.1,771.8v29.7
				h6.6c9.7,0,16.2-5.3,16.2-14.7v-0.2c0-9.4-6.4-14.8-16.2-14.8H452.1z"/>
			<path class="st2" d="M499.8,757.6h46.9v13.7h-30.9v8.9h28v12.7h-28v9.2H547v13.7h-47.3V757.6z"/>
			<path class="st2" d="M292.8,840.1h18l13.2,36.9l13.3-36.9h17.6l-23.6,58.7h-15L292.8,840.1z"/>
			<path class="st2" d="M354.9,869.4v-0.2c0-16.7,13.5-30.3,31.5-30.3s31.3,13.5,31.3,30.1v0.2c0,16.7-13.5,30.3-31.5,30.3
				S354.9,886,354.9,869.4z M401.2,869.4v-0.2c0-8.5-6-15.7-14.9-15.7c-8.9,0-14.8,7.2-14.8,15.6v0.2c0,8.3,6.1,15.7,15,15.7
				C395.2,884.9,401.2,877.8,401.2,869.4z"/>
			<path class="st2" d="M426,840.1h16.2v44.1h28.2v14.2H426V840.1z"/>
			<path class="st2" d="M475.1,872.8v-32.7h16.3v32.4c0,8.4,4.2,12.4,10.7,12.4c6.7,0,10.8-3.7,10.8-12v-32.8h16.3v32.3
				c0,18.7-10.7,27.1-27.3,27.1C485.5,899.4,475.1,891.1,475.1,872.8z"/>
			<path class="st2" d="M538.9,840.1h15.1l24,30.8v-30.8h16v58.3h-14.1l-25-32v32h-16V840.1z"/>
			<path class="st2" d="M330.1,936.7h-17.4v-14.2h51v14.2h-17.5v44.1h-16.2V936.7z"/>
			<path class="st2" d="M383.4,922.1H399l24.8,58.7h-17.3l-4.2-10.5h-22.6l-4.2,10.5h-16.9L383.4,922.1z M397.6,957.7l-6.5-16.5
				l-6.6,16.5H397.6z"/>
			<path class="st2" d="M429.5,922.5H457c9,0,15.1,2.3,19,6.2c3.4,3.4,5.2,8,5.2,13.6v0.2c0,9-4.7,14.9-12,18l13.9,20.3h-18.6
				l-11.7-17.6h-7.2v17.6h-16.2V922.5z M456.4,950.5c5.4,0,8.7-2.7,8.7-6.9v-0.2c0-4.7-3.4-7-8.7-7h-10.7v14.1H456.4z"/>
			<path class="st2" d="M489.7,922.5h16.2v58.3h-16.2V922.5z"/>
			<path class="st2" d="M514.6,951.8v-0.2c0-16.7,13.5-30.3,31.5-30.3s31.3,13.5,31.3,30.1v0.2c0,16.7-13.5,30.3-31.5,30.3
				S514.6,968.5,514.6,951.8z M560.8,951.8v-0.2c0-8.5-6-15.7-14.9-15.7c-8.9,0-14.8,7.2-14.8,15.6v0.2c0,8.3,6.1,15.7,15,15.7
				C554.9,967.4,560.8,960.2,560.8,951.8z"/>
		</g>
	</g>
	<g>
		<defs>
			<path id="SVGID_00000016760153184431502030000002961055192499093413_" d="M1200,0v695l-172.9,426.5c0,0-67.7,149-272.6,36.4
				L557.1,709.5L857.9,0H1200z"/>
		</defs>
		<clipPath id="SVGID_00000052795121811860783640000017824012133727059604_">
			<use xlink:href="#SVGID_00000016760153184431502030000002961055192499093413_"  style="overflow:visible;"/>
		</clipPath>
		<g style="clip-path:url(#SVGID_00000052795121811860783640000017824012133727059604_);">
			<g>
				<path class="st5" d="M989.7,357.5c-8.5-0.5-18.6,1.8-38.7,6.4c-18.1,4.1-23.1,6.9-25.3,11.6c-3.7,7.8,1.8,17.3,3.4,20.2
					c9.3,16.2,26.2,18.4,37.4,25.8c36.1,24,17.7,64.7,47.7,90.2c28.5,24.3,55.2-4.2,106.5,18.9c40.4,18.2-26.7,65.6,6.2,75.9
					c40.2,12.6,79.7,36.7,105.3-14c11.7-23.2,26.4-53.1,7.9-76.9c-8.6-11.2-22.2-17.7-30.8-28.9c-10.3-13.5-12.4-32.8-25.6-43.5
					c-12.6-10.3-31.3-9.2-45-18.1c-13.6-8.8-19.5-25.7-30.6-37.5c-10.4-11.1-25.6-17.6-40.9-17.4c-13.6,0.2-27.8,5.1-41,0.1
					C1013.6,365.3,1004.1,358.3,989.7,357.5z"/>
				<g>
					<path class="st2" d="M903.4,604.8c-17.2,105.3-19.2,106.8-21.5,117.8c0,0-6.8,31-8.7,60.9c-1.6,25.9,3.2,181.5,83.7,215.8
						c29,12.4,37.5-10.4,99.3-7.9c63.4,2.5,76.2,25.1,103.9,17.2c59.9-17.1,79.4-145.5,76.1-224.9C1233.5,719,1201.3,658,1137,536
						c-9.8-18.6-25.5-47-50.7-50.6c-11.6-1.7-16.2,0.1-62.7,12.9c-50.6,13.9-63.4-0.9-85.1,12.8C915.9,525.2,912,552.1,903.4,604.8z
						"/>
					<path class="st5" d="M1148.5,1012c-8.7,0-16.7-2.7-26.5-6.1c-15-5.1-33.7-11.5-65.9-12.8c-30.4-1.2-47.5,3.6-61.1,7.5
						c-13.7,3.9-23.6,6.7-38.8,0.2c-34.1-14.5-59.6-53.3-73.6-112.2c-10.6-44.5-12.1-90.1-11.1-105.3c1.9-29.7,8.7-60.8,8.7-61.1
						c0.4-1.8,0.8-3.4,1.2-5.3c2.2-9.3,6-24.9,20.3-112.5l1.7,0.3l-1.7-0.3l0.5-3.3c8.4-51.5,12.6-77.4,35.2-91.6
						c11.2-7,20-6.8,32.2-6.6c12.5,0.3,28,0.6,53.4-6.4l12-3.3c35.9-9.9,40.5-11.2,51.4-9.6c26.9,3.9,43.3,34.9,52,51.5
						c64.4,122.1,96.7,183.4,99.4,248.5c1.9,45.1-3.5,96-14.4,136.3c-9.7,35.8-28.5,80.5-62.9,90.3
						C1156.2,1011.5,1152.3,1012,1148.5,1012z M1047,989.4c2.9,0,6,0.1,9.2,0.2c32.7,1.3,52.5,8,66.9,12.9c14.1,4.8,23.5,8,36.5,4.3
						c57.3-16.4,78.3-140.3,74.8-223.1c-2.7-64.2-34.9-125.3-99-247c-8.5-16.1-24.3-46.1-49.5-49.7c-10.1-1.4-14.7-0.2-50,9.5
						l-12,3.3c-25.9,7.1-41.7,6.8-54.4,6.5c-12.1-0.2-20-0.4-30.3,6.1c-21.3,13.4-25.4,38.8-33.7,89.3l-0.5,3.3
						c-14.3,87.7-18.1,103.4-20.3,112.7c-0.4,1.8-0.8,3.4-1.2,5.2c-0.1,0.3-6.8,31.2-8.7,60.6c-0.9,15,0.5,60.1,11,104.3
						c9.6,40.3,29.8,92,71.6,109.8c14.1,6,23,3.5,36.5-0.4C1005.8,993.9,1021.5,989.4,1047,989.4z"/>
				</g>
				<g>
					<g>
						<polygon class="st2" points="1175.9,1187.4 1183.1,1248.7 1206.1,1247.9 1206.1,1187.4 						"/>
						<path d="M1183.1,1250.5c-0.9,0-1.6-0.7-1.7-1.5l-7.2-61.4c-0.1-0.5,0.1-1,0.4-1.4c0.3-0.4,0.8-0.6,1.3-0.6h30.2
							c1,0,1.7,0.8,1.7,1.7v60.6c0,0.9-0.7,1.7-1.7,1.7L1183.1,1250.5C1183.2,1250.5,1183.1,1250.5,1183.1,1250.5z M1177.8,1189.1
							l6.8,57.8l19.7-0.7v-57.2H1177.8z"/>
					</g>
					<path class="st5" d="M956.4,705.4c0,0,2.4,187.3,10.3,309.3c7.9,121.9,23.4,215.2,23.4,215.2s26.7,9.6,44.3,4.6
						c0,0,14.5-107,17.8-143.1c3.3-36.2-5.5-54.1-6.2-83.7c-0.7-29.6,12.8-160.3,12.8-160.3s100.7,295.4,112.2,360.6
						c0,0,24.4,4.1,41.6-5.3c0,0,0.5-116.2-1.9-134.1c-4.5-33.3-30.5-66-35.2-101.3c-4.7-35.3-7.4-124-20.2-177.1
						c-12.8-53.2-38-112.9-38-112.9L956.4,705.4z"/>
					<path class="st2" d="M1127.9,774.8c-0.2,0-0.4,0-0.7-0.1c-34.2-14-44.1-46.6-44.5-48c-0.3-0.9,0.3-1.9,1.2-2.2
						c0.9-0.3,1.9,0.3,2.2,1.2c0.1,0.3,9.8,32.3,42.5,45.7c0.9,0.4,1.3,1.4,1,2.3C1129.3,774.4,1128.6,774.8,1127.9,774.8z"/>
					<path class="st2" d="M1158.3,862.1c-0.9,0-1.6-0.6-1.7-1.5c-11.5-88.4-45.9-147.4-46.3-148c-0.5-0.8-0.2-1.9,0.6-2.4
						c0.8-0.5,1.9-0.2,2.4,0.6c0.4,0.6,35.2,60.2,46.8,149.3c0.1,1-0.5,1.8-1.5,2C1158.5,862.1,1158.4,862.1,1158.3,862.1z"/>
				</g>
				<g>
					<g>
						<path class="st2" d="M765.5,446.5l-20.1-20.9c-3.4-3.6-9.2,0.4-7,4.9l6.2,12.8c0,0-4.2,2-6.3,2.1c-4.6,0.3-9-1.7-12.2-5
							c-3.7-3.8-9.6-9.9-11.6-11.4c-3-2.2-6.8-5.7-11.1-6l-0.1,0c-4.4-0.3-7.4,4.6-4.9,8.3l8.4,13c6.1,9.4,15,16.6,25.5,20.6
							l27.1,10.3l2,77.4l35.2-26.9l-15.8-51.2C777.7,464.1,772.5,454.6,765.5,446.5z"/>
						<path class="st5" d="M761.4,554.2c-0.3,0-0.5-0.1-0.8-0.2c-0.6-0.3-1-0.9-1-1.5l-2-76.2l-26-9.9c-10.9-4.1-20-11.5-26.4-21.3
							l-8.4-13c-1.5-2.3-1.5-5.2-0.1-7.5c1.4-2.3,4-3.7,6.7-3.5c4.3,0.3,7.9,3.1,10.9,5.4c0.4,0.3,0.9,0.7,1.3,1
							c2,1.5,7.5,7.2,11.8,11.6c3,3.1,6.9,4.7,10.8,4.5c0.9-0.1,2.6-0.6,4.1-1.2l-5.4-11.1c-1.3-2.7-0.5-5.9,2-7.6
							c2.5-1.7,5.7-1.4,7.8,0.8l20.1,20.9c0,0,0,0,0.1,0.1c7.1,8.4,12.4,17.9,15.7,28.4l15.8,51.2c0.2,0.7,0,1.5-0.6,1.9l-35.2,26.9
							C762.2,554,761.8,554.2,761.4,554.2z M703,424.6c-1.4,0-2.5,0.7-3.2,1.8c-0.7,1.2-0.7,2.7,0.1,3.9l8.4,13
							c5.9,9.2,14.5,16.1,24.7,19.9l27.1,10.3c0.7,0.3,1.1,0.9,1.1,1.6l1.9,74l31.6-24.1l-15.5-50c-3.1-10-8.1-19.2-15-27.2
							l-20-20.9c-1.1-1.2-2.5-0.9-3.3-0.3c-0.9,0.6-1.6,1.8-0.8,3.2l6.2,12.8c0.2,0.4,0.2,0.9,0.1,1.3c-0.2,0.4-0.5,0.8-0.9,1
							c-0.5,0.2-4.6,2.1-6.9,2.3c-5,0.3-9.9-1.7-13.5-5.5c-5.8-6.1-10-10.2-11.4-11.2c-0.4-0.3-0.9-0.7-1.3-1
							c-2.5-2-5.7-4.4-8.9-4.7C703.2,424.6,703.1,424.6,703,424.6z"/>
					</g>
					<g>
						<polygon class="st2" points="803.8,509.1 715.9,578.8 755.1,619.4 829.7,557.3 						"/>
						<path class="st5" d="M755.1,621.2c-0.5,0-0.9-0.2-1.3-0.5L714.7,580c-0.3-0.4-0.5-0.8-0.5-1.3c0-0.5,0.3-0.9,0.7-1.2
							l87.9-69.7c0.4-0.3,0.9-0.4,1.4-0.3c0.5,0.1,0.9,0.4,1.2,0.9l25.8,48.2c0.4,0.7,0.2,1.6-0.4,2.2l-74.6,62.1
							C755.9,621,755.5,621.2,755.1,621.2z M718.5,579l36.7,38.1l72.2-60.2l-24.2-45.1L718.5,579z"/>
					</g>
					<g>
						<path class="st2" d="M938,498.3c0,0,60.1-8.6,119.3-10.3c0,0,74.2,193.6,74.2,206.6c0,13.1-31.7,29.8-74.2,19.1
							c-42.5-10.7-96.5-11.7-126.9-4.6C884.9,719.8,938,498.3,938,498.3z"/>
						<path class="st5" d="M1084,718.9c-8.2,0-17.4-1-27.2-3.5c-40.1-10.1-94.3-12-126.1-4.6c-4.7,1.1-8.7,0-11.9-3.2
							c-26.2-26.4,15.6-202.3,17.4-209.7c0.2-0.7,0.7-1.2,1.4-1.3c0.6-0.1,60.9-8.6,119.5-10.3c0.7,0,1.4,0.4,1.7,1.1
							c3,7.9,74.3,194,74.3,207.2c0,4.2-2.8,8.7-7.8,12.6C1117.5,713.4,1103.1,718.9,1084,718.9z M978.2,702.9
							c26.4,0,55.5,3.2,79.6,9.2c29.2,7.3,54,1.5,65.6-7.6c4.1-3.2,6.4-6.7,6.4-9.9c0-10-47.9-137.7-73.6-204.8
							c-53.5,1.6-108,8.9-116.7,10.1c-3.6,15.5-41.9,181.4-18.1,205.3c2.3,2.3,5.1,3,8.6,2.2C943.1,704.4,960,702.9,978.2,702.9z"/>
					</g>
					<path class="st2" d="M907.2,509.5c-0.9,1.3-1.6,3.1-2.3,5.4c-11.3,12.3-36,37.2-49.7,35.9c-18.1-1.8-29.1-18.6-29.1-18.6
						L725.1,610c88.6,69.8,150.7,43,179.2,21.6l-5.4,124.9c0,0,30.7,18.2,30.7,16.6c0-1.6,13.4-279.7,13.4-279.7
						S918.2,493.7,907.2,509.5z"/>
					<path class="st5" d="M835,656.6c-29.4,0-66.9-10.7-110.9-45.3c-0.4-0.3-0.7-0.8-0.7-1.4c0-0.5,0.3-1,0.7-1.4L825,530.7
						c0.4-0.3,0.9-0.4,1.4-0.3c0.5,0.1,0.9,0.4,1.2,0.8c0.1,0.2,10.8,16.1,27.9,17.8c9.2,0.9,26.6-11.8,47.9-35
						c0.7-2.4,1.5-4.2,2.4-5.5c11.4-16.3,36.2-16.9,37.2-16.9c0.5,0,0.9,0.2,1.3,0.5c0.3,0.3,0.5,0.8,0.5,1.3l-4.8,98.7
						c0,1-0.9,1.7-1.8,1.7c-1,0-1.7-0.9-1.7-1.8l4.7-96.8c-5.8,0.5-23.9,2.9-32.6,15.3c-0.7,1.1-1.4,2.7-2,4.8
						c-0.1,0.3-0.2,0.5-0.4,0.7c-13,14.2-37,37.9-51.1,36.4c-15.6-1.6-26.1-13.6-29.3-17.9L728,610c64.3,49.9,114,47.6,144.4,36.9
						c0.9-0.3,1.9,0.2,2.2,1.1c0.3,0.9-0.2,1.9-1.1,2.2C862.9,653.9,850,656.6,835,656.6z"/>
					<g>
						<g>
							<polygon class="st2" points="995.7,565 882.2,584.7 768.8,565 883.5,545 							"/>
							<path class="st5" d="M882.2,586.4c-0.1,0-0.2,0-0.3,0l-113.4-19.7c-0.8-0.1-1.4-0.9-1.4-1.7c0-0.8,0.6-1.6,1.4-1.7l114.7-20
								c0.2,0,0.4,0,0.6,0l112.2,20c0.8,0.1,1.4,0.9,1.4,1.7c0,0.8-0.6,1.6-1.4,1.7l-113.5,19.7
								C882.4,586.4,882.3,586.4,882.2,586.4z M778.9,565l103.3,18l103.5-18l-102.2-18.2L778.9,565z"/>
						</g>
						<g>
							<polygon class="st2" points="882.2,751.8 882.2,584.5 996.2,564.9 996.2,731.7 							"/>
							<path class="st5" d="M882.2,753.6c-0.4,0-0.8-0.1-1.1-0.4c-0.4-0.3-0.6-0.8-0.6-1.3V584.5c0-0.8,0.6-1.6,1.4-1.7l114-19.6
								c0.5-0.1,1,0.1,1.4,0.4c0.4,0.3,0.6,0.8,0.6,1.3v166.8c0,0.8-0.6,1.6-1.4,1.7l-114,20.1C882.4,753.6,882.3,753.6,882.2,753.6
								z M884,586v163.7l110.5-19.5V567L884,586z"/>
						</g>
						<g>
							<polygon class="st2" points="882.2,751.8 882.2,584.5 769.2,564.9 769.2,731.8 							"/>
							<path class="st5" d="M882.2,753.6c-0.1,0-0.2,0-0.3,0l-113-20c-0.8-0.1-1.4-0.9-1.4-1.7V564.9c0-0.5,0.2-1,0.6-1.3
								c0.4-0.3,0.9-0.5,1.4-0.4l113,19.6c0.8,0.1,1.4,0.9,1.4,1.7v167.3c0,0.5-0.2,1-0.6,1.3C883,753.4,882.6,753.6,882.2,753.6z
								 M771,730.4l109.5,19.4V586L771,567V730.4z"/>
						</g>
					</g>
					<g>
						<g>
							<path class="st2" d="M999.9,612.9l-1.3,15.3l-46.5-8.5c0,0-1.1,1.5-1.7,4c-0.9,3.3-1,8.4,3.3,13.7c2,2.5,10.1,2.6,9.4,7.6
								c-0.5,4.4,17.6,7.8,33.4,10.7c17.6,3.3,16.1-21.8,11.8-34.7C1004.9,611.1,999.9,612.9,999.9,612.9z"/>
							<path class="st5" d="M999.4,657.8c-1,0-2.1-0.1-3.3-0.3c-24.2-4.5-35.5-7.2-34.8-12.6c0.2-1.6-1-2.3-4.4-3.6
								c-1.9-0.7-3.6-1.4-4.6-2.7c-4.7-5.9-4.6-11.5-3.6-15.2c0.7-2.8,1.9-4.5,2-4.6c0.4-0.6,1.1-0.8,1.7-0.7l44.7,8.1l1.1-13.4
								c0.1-0.7,0.5-1.3,1.1-1.5c0.2-0.1,2-0.7,4.3,0.4c2.7,1.3,4.8,4.3,6.4,8.9c3,8.8,5.2,25.7-1.4,33.3
								C1006.8,655.8,1004,657.8,999.4,657.8z M953,621.7c-0.3,0.6-0.7,1.5-0.9,2.5c-0.8,2.9-0.9,7.4,3,12.1
								c0.4,0.6,1.9,1.1,3.2,1.6c2.9,1.1,7.2,2.8,6.6,7.3c0.9,3,21.9,6.9,32,8.8c4,0.7,6.9-0.1,9-2.5c5.4-6.2,3.7-21.3,0.8-29.9
								c-1.7-4.9-3.7-6.7-5.1-7.1l-1.1,13.8c0,0.5-0.3,0.9-0.7,1.2c-0.4,0.3-0.9,0.4-1.4,0.3L953,621.7z"/>
						</g>
						<path class="st2" d="M1005.7,655.2l9.3-14.2c0,0,46.3,9.4,67.7,0c37.3-16.4,30.3-73.7,23.9-102.2
							c-6.3-28.5-16.3-48.4-16.3-48.4s30.2,14.3,53.5,56.9c23.3,42.6,30.8,137.9-46.9,155.1C1045.9,713.7,1005.7,655.2,1005.7,655.2
							z"/>
						<path class="st5" d="M1083.8,705.6c-45,0-79.2-48.9-79.6-49.5c-0.4-0.6-0.4-1.4,0-1.9l9.3-14.2c0.4-0.6,1.1-0.9,1.8-0.8
							c0.5,0.1,46,9.2,66.6,0.1c15.7-6.9,24.8-22,27.3-45c0.1-1,0.9-1.7,1.9-1.5c1,0.1,1.6,1,1.5,1.9c-2.6,24.3-12.5,40.4-29.4,47.9
							c-20,8.8-60.1,1.8-67.6,0.3l-8,12.2c5.5,7.4,43,55.7,88.6,45.6c59.5-13.2,62.7-70.7,61.3-94.8c-0.1-1,0.7-1.8,1.6-1.8
							c1,0,1.8,0.7,1.8,1.6c1.5,25-1.9,84.6-64,98.4C1092.7,705.2,1088.2,705.6,1083.8,705.6z"/>
					</g>
				</g>
				<g>
					<g>
						<path class="st2" d="M993.1,416.5c-1.2,0.7-2.6,0.2-3.1-1c-2.4-5.9-6.3-17.4-14.2-19.2c-10.1-2.3-26.6-5.4-28,2.7
							c-1.2,7,0.2,19.2-7.2,27.9c-0.7,0.8-0.1,2.2,0.8,2.9l4.7,3.9c1,0.7,1.8,3.2,1.9,4.5c0.4,3.8,0.9,11.9,2.2,13
							c2.6,2,15.4,1.2,15.4,1.2l10.3,35.4c0.4,1.3-0.4,2.7-1.7,3.1l-12.2,4.2c0,0,9.8,13.8,40.5,11.7c19.6-1.3,34-15.2,34-15.2
							s-38.2-5.4-43.3-50.5c-0.1-1,0.3-2,1.1-2.6c3-2.3,11.2-9,9.8-15.9C1002.4,415.3,997,414.2,993.1,416.5z"/>
						<path class="st5" d="M996.2,508.6c-26.4,0-35.4-12.1-35.8-12.6c-0.3-0.4-0.4-1-0.2-1.5c0.2-0.5,0.6-0.9,1.1-1.1l12.2-4.2
							c0.4-0.1,0.5-0.3,0.6-0.4c0.1-0.1,0.1-0.3,0.1-0.6l-9.9-34c-4.1,0.2-12.7,0.3-15.2-1.7c-1.5-1.2-2-4.5-2.6-12.2
							c-0.1-0.7-0.1-1.4-0.2-2c-0.1-1.1-0.9-2.9-1.3-3.3l-4.7-4c-0.9-0.7-1.6-1.8-1.7-2.9c-0.1-0.9,0.1-1.7,0.7-2.4
							c5.2-6.1,5.7-14.3,6.2-20.8c0.2-2.3,0.3-4.4,0.6-6.3c0.3-1.9,1.4-3.5,3.1-4.6c5.7-3.8,18.1-1.5,27,0.6
							c8.1,1.9,12.1,12,14.8,18.6l0.7,1.6c0.1,0.2,0.2,0.2,0.3,0.3c0.1,0,0.2,0,0.4,0c2.6-1.5,5.5-1.8,8-0.7c2,0.9,4.5,2.9,5.5,7.8
							c1.5,7.3-5.9,14.2-10.5,17.6c-0.3,0.2-0.5,0.6-0.4,1c4.9,43.3,41.5,48.9,41.8,49c0.7,0.1,1.2,0.6,1.4,1.2
							c0.2,0.6,0,1.3-0.4,1.8c-0.6,0.6-15,14.3-35.1,15.6C1000.3,508.5,998.2,508.6,996.2,508.6z M965,495.7
							c3.9,3.5,14.8,10.7,37.3,9.2c14.1-1,25.5-8.7,30.3-12.5c-9.8-2.7-37-13.6-41.3-51.2c-0.2-1.6,0.5-3.2,1.8-4.2
							c3.1-2.4,10.3-8.5,9.1-14.1c-0.6-2.8-1.8-4.6-3.5-5.4c-1.4-0.6-3.2-0.5-4.8,0.5c-1,0.6-2.2,0.7-3.3,0.4
							c-1.1-0.4-1.9-1.2-2.4-2.2l-0.7-1.7c-2.4-6-6-15.1-12.3-16.5c-12.7-2.9-20.9-3.3-24.3-1.1c-0.9,0.6-1.4,1.3-1.6,2.3
							c-0.3,1.7-0.4,3.7-0.6,5.9c-0.5,7-1.1,15.7-6.9,22.7c0.1,0.1,0.2,0.3,0.4,0.5l4.7,4c1.5,1.1,2.4,4.2,2.6,5.6
							c0.1,0.6,0.1,1.3,0.2,2c0.2,2.6,0.7,8.5,1.4,9.8c1.5,0.9,8.4,1.2,14.1,0.8c0.8-0.1,1.6,0.5,1.8,1.3l10.3,35.4
							c0.3,1.1,0.2,2.3-0.4,3.3c-0.6,1-1.5,1.7-2.6,2L965,495.7z M951.4,449.8L951.4,449.8L951.4,449.8z M993.1,416.5L993.1,416.5
							L993.1,416.5z"/>
					</g>
				</g>
			</g>
			<path class="st5" d="M796.7,655c-2.3-5-3.5-11.5,0.5-15.2c3.9-3.6,10.6-2.2,15,1c4.4,3.2,7.6,7.6,10.7,12
				c1.7-4.4,3.9-8.7,6.5-12.7c1.8-2.7,3.9-5.4,7-6.5c5.3-1.9,11.4,2.1,14.1,7.1c1.5,2.9,2.3,6.2,2.1,9.5c-0.3,6.5-4,12.3-8.2,17.3
				c-3.6,4.4-7.6,8.5-12,12.2c-1.5,1.2-3,2.5-4.9,3c-4.8,1.3-14-6.9-17.5-10C804.4,667.7,799.8,661.7,796.7,655z"/>
		</g>
	</g>
</g>
</svg>
