<?xml version="1.0" encoding="utf-8"?>
<!-- Generator: Adobe Illustrator 26.0.0, SVG Export Plug-In . SVG Version: 6.00 Build 0)  -->
<svg version="1.1" id="Capa_1" xmlns="http://www.w3.org/2000/svg" xmlns:xlink="http://www.w3.org/1999/xlink" x="0px" y="0px"
	 viewBox="0 0 1200 1010.9" style="enable-background:new 0 0 1200 1010.9;" xml:space="preserve">
<style type="text/css">
	.st0{fill-rule:evenodd;clip-rule:evenodd;fill:#DB1C8B;}
	.st1{clip-path:url(#SVGID_00000032614810604921172170000009537165965316639391_);}
	.st2{fill:#FFFFFF;}
	.st3{fill-rule:evenodd;clip-rule:evenodd;fill:#35B3E6;}
	.st4{clip-path:url(#SVGID_00000039103094664357910980000011748243890432245147_);}
	.st5{fill:#1E1E1D;}
	.st6{fill:#35B3E6;}
	.st7{fill:#DB1C8B;}
	.st8{fill-rule:evenodd;clip-rule:evenodd;fill:#1EBAC8;}
	.st9{fill:#4BD4DB;}
	.st10{fill:#E240A4;}
	.st11{fill:#41BEE5;}
	.st12{fill:#56CDE8;}
	.st13{fill:#FFFFFF;stroke:#1E1E1D;stroke-width:4.9825;stroke-linecap:round;stroke-linejoin:round;stroke-miterlimit:10;}
	.st14{fill:#1E1E1D;stroke:#1E1E1D;stroke-width:4.9825;stroke-linecap:round;stroke-linejoin:round;stroke-miterlimit:10;}
	.st15{fill:none;stroke:#1E1E1D;stroke-width:4.9825;stroke-linecap:round;stroke-linejoin:round;stroke-miterlimit:10;}
	.st16{fill:none;stroke:#1E1E1D;stroke-width:2.4913;stroke-linecap:round;stroke-linejoin:round;stroke-miterlimit:10;}
	.st17{fill:#FFFFFF;stroke:#1E1E1D;stroke-width:1.9662;stroke-linecap:round;stroke-linejoin:round;stroke-miterlimit:10;}
	.st18{fill:#1E1E1D;stroke:#1E1E1D;stroke-width:1.9662;stroke-linecap:round;stroke-linejoin:round;stroke-miterlimit:10;}
	.st19{fill:none;stroke:#1E1E1D;stroke-width:1.9662;stroke-linecap:round;stroke-linejoin:round;stroke-miterlimit:10;}
	.st20{fill:none;stroke:#1E1E1D;stroke-width:0.9831;stroke-linecap:round;stroke-linejoin:round;stroke-miterlimit:10;}
	.st21{fill:#4B6FB5;}
</style>
<g>
	<g id="Volunteering_00000036239428015542637860000013048205567824607651_">
		<g>
			<g>
				<g>
					<path class="st2" d="M528.1,129.7c-3.8-1.6-6.5-3.8-11.2-3.5c-10.8,0.6-18,13.7-20.2,17.4c-11.6,19.8-47.7,58.3-84.6,72.3
						c-37.1,14.1-80.5,5.5-111.6-14.6c-12.2-7.9-61.8-39.9-55.4-88.7c4.4-33.1,33.2-62.6,62.5-66.1c32.6-3.9,40.3,27.2,77.3,26.5
						c41.7-0.8,59.2-40.8,87.6-30.7c18,6.4,18.6,24.5,39.1,27.7c10.1,1.6,25-0.9,36.9-8.5c8.6-5.5,12.6-11.8,18.9-10.6
						c6.4,1.2,9.9,9.2,11.8,13.6c2.1,4.9,13.4,30.8-3,51C563.9,131,541.5,135.2,528.1,129.7z"/>
				</g>
				<g>
					<path d="M373.1,223.9c-25,0-51.2-7.4-73.1-21.6c-51.7-33.4-58.9-67.3-56-89.8c4.4-33.4,32.9-63.5,63.6-67.2
						c16.8-2,27,4.9,37.9,12.3c10.5,7.1,21.5,14.5,39.5,14.2c20.2-0.4,34.7-10.2,47.5-18.8c13.7-9.2,25.5-17.2,40.6-11.9
						c8.6,3,13.3,8.6,17.9,13.9c5.3,6.2,10.3,12.1,21,13.7c9.2,1.5,23.9-0.5,36.1-8.3c2.8-1.8,5.1-3.6,7.1-5.3
						c4.4-3.6,7.9-6.4,12.7-5.5c7,1.3,10.7,9.7,12.7,14.3c5.1,11.8,11.5,34.2-3.1,52.3c-13.2,16.3-36.1,20.2-49.8,14.6c0,0,0,0,0,0
						c-1-0.4-1.9-0.9-2.8-1.3c-2.5-1.2-4.7-2.3-7.9-2.1c-9.7,0.6-16.6,12.4-18.9,16.3l-0.3,0.4c-10.6,18.2-46.6,58.1-85.2,72.8
						C400.4,221.6,386.9,223.9,373.1,223.9z M313.3,47.4c-1.7,0-3.5,0.1-5.3,0.3c-29.1,3.5-57.3,33.3-61.5,65
						c-2.9,21.9,4.3,54.8,54.9,87.5c33.4,21.6,76.8,27.2,110.5,14.4c38-14.4,73.4-53.9,83.9-71.8l0.3-0.4
						c2.4-4.2,9.8-16.9,20.9-17.5c3.8-0.2,6.5,1.1,9.1,2.4c0.8,0.4,1.7,0.8,2.6,1.2c12.9,5.4,34.8,1.1,46.9-13.9
						c13.8-17.1,7.7-38.5,2.8-49.7c-1.8-4.1-5.1-11.8-10.9-12.9c-3.6-0.7-6.6,1.7-10.7,5c-2.1,1.7-4.5,3.6-7.3,5.4
						c-12.7,8.1-28.1,10.2-37.8,8.6c-11.6-1.8-17.1-8.3-22.5-14.6c-4.4-5.1-8.9-10.4-16.8-13.2c-13.9-4.9-25.2,2.7-38.4,11.6
						c-13.1,8.8-27.9,18.8-48.8,19.2c-18.8,0.3-30.1-7.3-40.9-14.6C334.9,53.4,326.1,47.4,313.3,47.4z"/>
				</g>
			</g>
			<g>
				<g>
					<path d="M616,86.5l41.2,42.1c3,3.1,7.5,3.6,9.9,1.2l4-4c2.5-2.4,2-6.9-1-9.9L629,73.8L616,86.5z"/>
				</g>
				<g>
					<path d="M721.6,37.5c4.7,9.5,3.7,19.5-2.1,22.3c-5.8,2.8-14.3-2.5-18.9-12c-4.7-9.5-3.7-19.5,2.1-22.3
						C708.4,22.6,716.9,28,721.6,37.5z"/>
				</g>
				<g>
					<path d="M603.4,85.5l8.2,16.7c1.3,2.6,5.6,3,9.6,1.1l-12.8-26C604.4,79.2,602.1,82.9,603.4,85.5z"/>
				</g>
				<g>
					<g>
						<path class="st2" d="M697.8,30.3c-4.1,13.9-11.5,26.9-22,37.6c-16,16.3-37.4,25.6-59.7,26.8l4.6,9.4l98.2-14.4l6.5-3.2
							L697.8,30.3z"/>
					</g>
				</g>
				<g>
					<g>
						<polygon class="st2" points="685.8,6 679.3,9.2 607.9,78.1 620.6,104.1 718.9,89.7 725.3,86.5 						"/>
					</g>
					<g>
						<path d="M620.6,105.3c-0.5,0-0.9-0.3-1.1-0.7l-12.8-26c-0.2-0.5-0.1-1.1,0.2-1.4l71.4-68.9c0.1-0.1,0.2-0.2,0.3-0.2l6.5-3.2
							c0.3-0.1,0.6-0.2,0.9-0.1c0.3,0.1,0.6,0.3,0.7,0.6l39.5,80.5c0.3,0.6,0,1.3-0.6,1.6l-6.5,3.2c-0.1,0.1-0.2,0.1-0.4,0.1
							l-98.2,14.4C620.8,105.3,620.7,105.3,620.6,105.3z M609.4,78.3l12,24.4l97.1-14.3l5.2-2.6L685.2,7.6l-5.2,2.6L609.4,78.3z"/>
					</g>
				</g>
				<g>
					<g>
						<path class="st2" d="M728.5,89.5l-5.4,2.7c-2.3,1.2-5.2,0-6-2.5c-9.5-27.6-22.4-54-38.9-79.1c-1.4-2.2-0.6-5.1,1.7-6.3
							l5.4-2.7c1.9-1,4.3-0.3,5.5,1.5c17.2,25.5,30.5,52.6,39.9,81.1C731.3,86.3,730.4,88.5,728.5,89.5z"/>
					</g>
					<g>
						<path d="M721.1,93.8c-0.7,0-1.4-0.1-2.1-0.4c-1.5-0.6-2.6-1.8-3.1-3.3c-9.5-27.5-22.5-54-38.7-78.8c-0.9-1.3-1.1-3-0.7-4.5
							c0.4-1.5,1.5-2.8,2.9-3.5l5.4-2.7c2.5-1.2,5.5-0.4,7.1,1.9c17.2,25.6,30.7,52.9,40,81.4c0.9,2.6-0.4,5.5-2.8,6.7l-5.4,2.7
							C722.8,93.6,722,93.8,721.1,93.8z M687.2,2.5c-0.5,0-0.9,0.1-1.4,0.3l-5.4,2.7c-0.8,0.4-1.4,1.1-1.6,2
							c-0.2,0.9-0.1,1.8,0.4,2.5c16.3,24.9,29.5,51.6,39,79.3c0.3,0.8,0.9,1.5,1.8,1.9c0.8,0.3,1.7,0.3,2.5-0.1l5.4-2.7
							c1.4-0.7,2.1-2.3,1.6-3.7c-9.3-28.3-22.6-55.5-39.7-80.8C689.2,2.9,688.2,2.5,687.2,2.5z"/>
					</g>
				</g>
			</g>
			<g>
				<g>
					<path class="st2" d="M683.2,118.5c-6-13.1-25.8-16-25.8-16L645,119c4.3,3.9,9.4-0.5,9.4-0.5l1.3,4.8c6,0.7,8.4-10.2,8.4-10.2
						s7.4,12.6,11.7,14.5c1.2,0.5,2.3,0.1,3.2-0.9c21.4,8.5,32.1,27.1,28.3,40.7c-3.2,11.4-16.4,18.2-26.8,19.7
						c-22,3.1-46.8-15.8-46.8-15.8L590.9,228c0,0,97.2,55.9,153.9-6.9C784.6,177.2,731.1,130.4,683.2,118.5z"/>
				</g>
				<g>
					<path d="M674,252.1c-8.8,0-18.1-0.9-27.7-2.8c-31.2-6.1-55.8-20.1-56.1-20.2c-0.3-0.2-0.5-0.5-0.6-0.8c-0.1-0.3,0-0.7,0.2-1
						l42.9-56.7c0.2-0.3,0.5-0.4,0.8-0.5c0.3,0,0.7,0,0.9,0.2c0.2,0.2,24.6,18.5,45.8,15.5c10.6-1.5,22.9-8.4,25.8-18.8
						c3.4-12.1-5.9-30.2-26.9-38.9c-1.6,1.2-3,1-3.9,0.6c-3.5-1.5-8.4-8.7-10.8-12.6c-1.3,3.5-4,8.9-8.9,8.4
						c-0.5-0.1-0.9-0.4-1.1-0.9l-0.9-3.1c-2.4,1.4-6.2,2.3-9.5-0.6c-0.5-0.4-0.5-1.1-0.2-1.7l12.4-16.5c0.3-0.4,0.7-0.5,1.2-0.5
						c0.8,0.1,20,3,26.5,16.1c30.3,7.7,65.2,30.2,73.9,58.5c4.8,15.9,0.6,31.8-12.2,46C727.7,241.9,703.2,252.1,674,252.1z
						 M592.7,227.6c5.3,2.9,27.2,14,54.1,19.3c28.3,5.5,68.1,5.4,97-26.6c12.4-13.7,16.4-28.4,11.7-43.6c-8.4-27.7-43-49.6-72.7-57
						c-0.4-0.1-0.7-0.3-0.8-0.7c-5.1-11-20.6-14.5-24.1-15.1l-11.3,14.9c3.2,1.9,6.7-1,6.9-1.2c0.3-0.3,0.8-0.4,1.2-0.2
						c0.4,0.1,0.7,0.4,0.8,0.9l1.1,3.9c4.2-0.6,6.3-9.1,6.3-9.2c0.1-0.5,0.5-0.9,1-0.9c0.5-0.1,1,0.2,1.3,0.6
						c2,3.4,7.9,12.6,11.1,14c0.3,0.1,0.9,0.4,1.9-0.6c0.3-0.3,0.9-0.4,1.3-0.3c23,9.2,32.8,28.6,29,42.1
						c-3.4,11.9-16.8,19-27.8,20.6c-20,2.8-41.8-11.8-46.7-15.3L592.7,227.6z"/>
				</g>
			</g>
			<g>
				<g>
					<path class="st2" d="M455.3,192.8l-21.5-84.6c-91.1-19-171.6,30.6-188.5,42c-5.7-4.2-21.2-15.2-30.9-16.4c0,0,0.7,6.1,5.3,7.6
						c0,0-11.6-1.9-21.1,0c0,0,2.8,6.3,8,6.2l-10.7,4.3c0,0,2.1,6.3,10,4.9c7.8-1.4,13.9-4.6,13.9-4.6s9.4,9.1,15.6,10.8
						c0,0-5,15-0.4,18.7c0,0,8.7-10.7,11.6-22C403.2,147,455.3,192.8,455.3,192.8z"/>
				</g>
				<g>
					<path d="M455.3,194c-0.3,0-0.6-0.1-0.8-0.3c-0.1-0.1-13.3-11.5-45.4-21.2c-29.5-8.9-81.5-18.2-161.6-11.8
						c-3.1,11.1-11.2,21.2-11.6,21.6c-0.4,0.5-1.2,0.6-1.7,0.2c-4.5-3.5-1.6-14.9-0.4-18.8c-5.4-2-12.2-8.1-14.3-10.1
						c-1.9,0.9-7.1,3.2-13.4,4.4c-7,1.3-10.5-3.2-11.3-5.7c-0.2-0.6,0.1-1.3,0.7-1.5l7.3-2.9c-3.4-1.9-5.2-5.7-5.2-5.9
						c-0.2-0.3-0.1-0.7,0-1.1c0.2-0.3,0.5-0.6,0.9-0.6c6-1.2,12.7-0.9,17-0.5c-1.8-2.5-2.2-5.5-2.2-5.7c0-0.4,0.1-0.8,0.4-1
						c0.3-0.3,0.6-0.4,1-0.3c9.6,1.2,24.2,11.3,30.8,16.2c17.2-11.4,98-60.7,188.7-41.7c0.5,0.1,0.8,0.4,0.9,0.9l21.5,84.6
						c0.1,0.5-0.1,1.1-0.5,1.4C455.8,194,455.5,194,455.3,194z M298.5,156.2c52.3,0,88.6,7.2,111.5,14.1
						c24.3,7.4,37.8,15.6,43.2,19.4l-20.5-80.4c-90.8-18.6-171.5,31.7-186.8,42c-0.4,0.3-1,0.3-1.4,0c-4.4-3.3-18.8-13.6-28.5-15.9
						c0.5,1.7,1.7,4.1,4.1,4.9c0.6,0.2,1,0.8,0.8,1.5c-0.2,0.6-0.8,1-1.4,0.9c-0.1,0-10.2-1.6-19-0.3c1.1,1.6,3.2,4,6.1,4.1
						c0,0,0,0,0,0c0.6,0,1.1,0.4,1.2,1c0.1,0.6-0.2,1.2-0.7,1.4l-9.5,3.8c0.9,1.5,3.2,3.9,8,3c7.5-1.4,13.4-4.5,13.5-4.5
						c0.5-0.2,1.1-0.2,1.4,0.2c0.1,0.1,9.3,8.9,15.1,10.4c0.3,0.1,0.6,0.3,0.8,0.6c0.2,0.3,0.2,0.7,0.1,1c-1.6,4.9-3.2,13-1.6,16.3
						c2.3-3.1,8.2-11.6,10.4-20.3c0.1-0.5,0.6-0.9,1.1-0.9C265.3,156.8,282.6,156.2,298.5,156.2z"/>
				</g>
			</g>
			<g>
				<path d="M428.7,104.5l23,94.2l-45.4,137.5l187.5,9.4l-0.3-108l52.4-70.2c0,0-63.2-12.9-102.1-31.6
					C501.6,115.5,484.9,109.4,428.7,104.5z"/>
			</g>
			<g>
				<g>
					<g>
						<path class="st2" d="M601,107.1l-6.1-13.2c1.4-1.6,2.7-5.5-1.1-7.1c-3.8-1.6-14-14.3-14-14.3c-11.5-9.5-11.6,6.7-18.5,9.2
							c-4.8,1.7-7,5.2-4,11.4c3,6.2-1.1,3.5-5.1,2.3c-4-1.2-6.2,0.6-3.2,6.2c1.6,2.9,4.4,4.9,6.8,6.1L527,128.9
							c5,16.3,35.4,15.3,35.4,15.3l17.2-24.2c8.1-0.6,19.5-7.1,21.2-9.7C601.4,109.3,601.5,108.1,601,107.1z"/>
					</g>
					<g>
						<path d="M561.2,145.5c-6,0-30.7-0.9-35.4-16.2c-0.2-0.5,0-1,0.4-1.3l27.3-20.2c-2.6-1.6-4.5-3.5-5.7-5.7
							c-1.7-3.2-2-5.6-0.8-7.1c0.6-0.7,2.1-1.8,5.4-0.8c0.7,0.2,1.5,0.5,2.2,0.8c0.7,0.3,1.7,0.6,2.3,0.8c-0.1-0.4-0.3-1-0.8-2.1
							c-1.6-3.2-1.9-6-1-8.3c0.9-2.1,2.8-3.7,5.7-4.8c2.1-0.8,3.6-3.2,5-5.7c1.8-2.9,3.6-5.9,6.7-6.5c2.3-0.4,4.9,0.6,7.9,3.2
							c0.1,0.1,0.1,0.1,0.2,0.2c4,5,10.9,12.9,13.5,14c2.1,0.9,2.9,2.4,3.1,3.5c0.4,1.8-0.2,3.6-1.1,4.9l5.8,12.5
							c0.7,1.4,0.6,3.1-0.3,4.4c-1.9,2.9-13.1,9.4-21.6,10.2L563.4,145c-0.2,0.3-0.6,0.5-1,0.5C562.3,145.5,561.8,145.5,561.2,145.5
							z M528.4,129.4c5,13.2,29.2,13.6,33.3,13.6l16.8-23.7c0.2-0.3,0.5-0.5,0.9-0.5c7.9-0.6,18.8-6.9,20.3-9.2
							c0.4-0.6,0.4-1.4,0.1-2l-6.1-13.2c-0.2-0.4-0.1-1,0.2-1.3c0.7-0.8,1.3-2.3,1-3.4c-0.2-0.8-0.7-1.3-1.7-1.8
							c-3.9-1.7-13-12.9-14.4-14.6c-2.4-2-4.4-2.8-5.9-2.6c-2,0.3-3.5,2.8-5,5.3c-1.7,2.8-3.4,5.6-6.3,6.7c-2.2,0.8-3.6,1.9-4.2,3.4
							c-0.7,1.6-0.3,3.7,0.9,6.3c1.1,2.2,1.6,4,0.6,5c-1.1,1.2-2.9,0.5-5.1-0.3c-0.7-0.2-1.4-0.5-2.1-0.7c-1.6-0.5-2.5-0.3-2.8,0
							c-0.4,0.5-0.3,1.9,1,4.4c1.4,2.7,4.2,4.5,6.3,5.6c0.4,0.2,0.6,0.6,0.7,1c0,0.4-0.2,0.8-0.5,1.1L528.4,129.4z"/>
					</g>
				</g>
				<g>
					<path d="M579.3,121.3c-9.4,0-12.1-7.4-12.1-7.5c-0.2-0.6,0.1-1.3,0.7-1.6c0.6-0.2,1.3,0.1,1.6,0.7c0.1,0.3,2.2,5.8,9.8,5.8
						c0.1,0,0.2,0,0.3,0c0.7,0,1.2,0.5,1.2,1.2c0,0.7-0.5,1.2-1.2,1.2C579.5,121.3,579.4,121.3,579.3,121.3z"/>
				</g>
			</g>
		</g>
		<g>
			<g>
				<g>
					<g>
						<polygon class="st2" points="1170.2,906.4 1168.3,942.8 1143.9,946.9 1141.7,903.9 						"/>
					</g>
					<g>
						<path d="M1143.9,948.1c-0.3,0-0.6-0.1-0.8-0.3c-0.3-0.2-0.4-0.5-0.5-0.9l-2.2-43c0-0.4,0.1-0.7,0.4-0.9c0.3-0.2,0.6-0.4,1-0.3
							l28.5,2.4c0.7,0.1,1.2,0.6,1.1,1.3l-2,36.4c0,0.6-0.5,1.1-1,1.1l-24.4,4.1C1144,948.1,1144,948.1,1143.9,948.1z M1143,905.3
							l2,40.2l22-3.7l1.9-34.3L1143,905.3z"/>
					</g>
				</g>
				<g>
					<g>
						<path class="st2" d="M1143.2,1010.2c10.3,0.9,27.1,1.3,46.6-2.4c6.4-1.2,10.4-7.7,8.5-13.9c-5.2-17.4-14.4-50.4-27.9-65.2
							l-2.8,8.5l-4.8-7.7c-0.7-1.1-1.8-1.7-3-1.8l-9.7-0.7c-2-0.2-3.8,1.3-4.1,3.3l-1.2,7.4l-3.8-9.4l-7.7,70.1
							C1132.8,1004.4,1137.2,1009.7,1143.2,1010.2z"/>
					</g>
					<g>
						<path d="M1157.8,1012.1c-5.7,0-10.6-0.3-14.7-0.6c-6.6-0.6-11.6-6.5-11-13.1l7.7-70.2c0.1-0.6,0.5-1,1.1-1.1
							c0.6-0.1,1.1,0.2,1.3,0.8l2.2,5.3l0.5-3c0.4-2.6,2.8-4.5,5.4-4.3l9.7,0.7c1.6,0.1,3.1,1,4,2.4l3.4,5.4l1.9-6
							c0.1-0.4,0.5-0.7,0.9-0.8c0.4-0.1,0.9,0,1.2,0.4c12.8,14,21.8,44,27.1,61.9l1.1,3.7c1,3.3,0.5,6.9-1.3,9.8
							c-1.8,3-4.8,5-8.2,5.7C1178,1011.3,1167,1012.1,1157.8,1012.1z M1141.7,933.2l-7.2,65.3c-0.4,5.3,3.5,10,8.8,10.4
							c10.5,0.9,27.1,1.3,46.3-2.4c2.7-0.5,5.1-2.2,6.5-4.5c1.4-2.3,1.8-5.2,1-7.8l-1.1-3.7c-5.1-17-13.4-45.1-25.1-59.3l-2.1,6.5
							c-0.1,0.5-0.5,0.8-1,0.8c-0.5,0.1-0.9-0.2-1.2-0.6l-4.8-7.7c-0.4-0.7-1.2-1.2-2.1-1.2l-9.7-0.7c-1.4-0.1-2.6,0.9-2.8,2.2
							l-1.2,7.4c-0.1,0.5-0.5,1-1.1,1c-0.6,0.1-1.1-0.2-1.3-0.8L1141.7,933.2z"/>
					</g>
				</g>
				<g>
					<path d="M1165.5,1000c-13.9,0-24.5-2.4-24.6-2.4c-0.7-0.2-1.1-0.8-0.9-1.5c0.2-0.7,0.8-1.1,1.5-0.9c0.3,0.1,25.8,5.8,49.6-0.9
						c0.7-0.2,1.3,0.2,1.5,0.9c0.2,0.7-0.2,1.3-0.9,1.5C1182.7,999.2,1173.5,1000,1165.5,1000z"/>
				</g>
				<g>
					<path d="M1152.6,973.1c-0.7,0-1.2-0.5-1.2-1.2c0-0.7,0.5-1.2,1.2-1.3l23-0.4c0.7,0,1.2,0.5,1.3,1.2c0,0.7-0.5,1.2-1.2,1.3
						L1152.6,973.1C1152.6,973.1,1152.6,973.1,1152.6,973.1z"/>
				</g>
				<g>
					<g>
						<polygon class="st2" points="1054.5,892.9 1053.5,945.9 1024,947.4 1020,894.6 						"/>
					</g>
					<g>
						<path d="M1024,948.6c-0.6,0-1.2-0.5-1.2-1.1l-4-52.8c0-0.3,0.1-0.7,0.3-0.9c0.2-0.2,0.5-0.4,0.9-0.4l34.5-1.7
							c0.4,0,0.7,0.1,0.9,0.3c0.2,0.2,0.4,0.6,0.4,0.9l-1,53.1c0,0.6-0.5,1.2-1.2,1.2L1024,948.6C1024,948.6,1024,948.6,1024,948.6z
							 M1021.3,895.8l3.9,50.4l27.1-1.4l1-50.6L1021.3,895.8z"/>
					</g>
				</g>
				<g>
					<g>
						<path d="M1062.7,975.4c0.3,5-2.9,9.6-7.7,10.9c-16.8,4.8-54.5,15.5-65.3,17.7c-14,2.8-31.6-0.6-39.5-8.5
							c-7.9-7.9,15.3-28.9,26.4-36.6c16.5-11.5,31.8-33.4,38.7-34.7c6.8-1.3,20.7,18,20.7,18l20.5-9.9
							C1056.5,932.3,1061,950,1062.7,975.4z"/>
					</g>
					<g>
						<path d="M979.5,1006.2c-12,0-24.1-3.7-30.2-9.9c-1.5-1.5-2.1-3.4-1.9-5.7c0.9-10.4,19.6-26.6,28.5-32.8
							c8.1-5.7,15.9-13.8,22.7-21c7-7.4,12.6-13.2,16.4-13.9c6.8-1.3,18.3,13.6,21.3,17.6l19.6-9.4c0.3-0.2,0.7-0.2,1.1,0
							c0.3,0.2,0.6,0.5,0.7,0.8c0,0.2,4.6,18.2,6.3,43.4c0.4,5.5-3.2,10.7-8.6,12.2c-16,4.6-54.5,15.5-65.4,17.7
							C986.6,1005.9,983,1006.2,979.5,1006.2z M1016,925.3c-0.2,0-0.3,0-0.5,0c-3,0.6-8.9,6.7-15.1,13.2
							c-6.9,7.3-14.8,15.5-23.1,21.3c-9.2,6.4-26.7,22.1-27.5,31c-0.1,1.6,0.3,2.8,1.2,3.7c7.4,7.4,24.3,11,38.4,8.2
							c10.8-2.2,49.2-13.1,65.2-17.7c4.2-1.2,7.1-5.3,6.8-9.7c-1.4-20.9-4.7-36.7-5.8-41.4l-19.1,9.2c-0.5,0.3-1.2,0.1-1.5-0.4
							C1030,935.9,1020.6,925.3,1016,925.3z"/>
					</g>
				</g>
				<g>
					<path d="M978.3,996.6c-9.1,0-17-1.7-22.5-6.2c-0.5-0.4-0.6-1.2-0.2-1.7c0.4-0.5,1.2-0.6,1.7-0.2c23.1,18.8,96.3-15.2,97-15.5
						c0.6-0.3,1.3,0,1.6,0.6c0.3,0.6,0,1.3-0.6,1.6C1053,976.2,1009.2,996.6,978.3,996.6z"/>
				</g>
				<g>
					<path d="M1013.2,962.8c-0.3,0-0.5-0.1-0.8-0.3l-15.7-12.8c-0.5-0.4-0.6-1.2-0.2-1.7c0.4-0.5,1.2-0.6,1.7-0.2l15.7,12.8
						c0.5,0.4,0.6,1.2,0.2,1.7C1013.9,962.6,1013.6,962.8,1013.2,962.8z"/>
				</g>
				<g>
					<path d="M1160.2,541.9c0,0,17.5,164.9,25.1,221.7c7.7,56.8-3.7,149.4-3.7,149.4l-45.6-0.1c0,0-8.7-111.4-13.7-142.2
						c0,0-21.3-41-28.9-78.2c-7.6-37.2-30-95.3-30-95.3s-0.9,296-1.2,319.3c0,0-35.6,3.4-48.8-4c0,0-28.1-106.5-27.8-165.3
						c0.3-58.7-10.6-204.1-10.6-204.1L1160.2,541.9z"/>
				</g>
				<g>
					<path class="st2" d="M1130.7,771.5c-0.7,0-1.2-0.5-1.2-1.2c0-0.7,0.5-1.3,1.2-1.3l13.9-0.7c0.7,0,1.3,0.5,1.3,1.2
						c0,0.7-0.5,1.3-1.2,1.3L1130.7,771.5C1130.8,771.5,1130.8,771.5,1130.7,771.5z"/>
				</g>
				<g>
					<path class="st2" d="M1036,862.3c-0.6,0-1.2-0.5-1.2-1.1c-1.8-26.5-34.9-74.9-35.2-75.4c-0.4-0.6-0.2-1.3,0.3-1.7
						c0.6-0.4,1.3-0.2,1.7,0.3c1.4,2,33.8,49.4,35.7,76.6C1037.3,861.7,1036.7,862.3,1036,862.3C1036,862.3,1036,862.3,1036,862.3z"
						/>
				</g>
			</g>
			<g>
				<g>
					<g>
						<path class="st2" d="M868.6,266.2l13.7,90l49.1,5.1c0,0,33.6,43.9,36,204.1c0,0,131.7-22.9,202.8-19.7
							c-1.8-33.4,3.5-233.3-54.4-297.8c-18.6-20.7-33.9-26.6-38.6-28.3c-37.6-13.4-79.9,4.7-113.7,19.1
							c-19.4,8.3-35.6,17.6-64.8,23.5C886.3,264.7,875.8,265.7,868.6,266.2z"/>
					</g>
					<g>
						<path d="M967.4,566.5c-0.3,0-0.6-0.1-0.8-0.3c-0.3-0.2-0.4-0.6-0.4-0.9c-2.2-150-32.1-198.1-35.4-202.9l-48.5-5
							c-0.6-0.1-1-0.5-1.1-1l-13.7-90c-0.1-0.3,0-0.7,0.3-1c0.2-0.3,0.5-0.4,0.9-0.5c10-0.7,20.1-2,30-4c23-4.6,38.1-11.5,52.7-18.1
							c3.9-1.8,7.9-3.6,11.9-5.3c34.1-14.6,76.5-32.7,114.5-19.2c12.8,4.6,26.3,14.5,39.1,28.6c50.6,56.4,53.2,217,54.2,277.5
							c0.2,9.3,0.3,16.6,0.5,21c0,0.3-0.1,0.7-0.4,0.9c-0.2,0.2-0.6,0.4-0.9,0.4c-70.2-3.1-201.2,19.5-202.6,19.7
							C967.5,566.5,967.5,566.5,967.4,566.5z M883.4,355.1l48.1,5c0.3,0,0.6,0.2,0.9,0.5c1.4,1.8,33.7,45.7,36.2,203.4
							c14.4-2.4,133.6-22.2,200.3-19.6c-0.2-4.5-0.3-11.3-0.4-19.7c-1-60.2-3.5-220.2-53.6-275.9c-15.7-17.5-29.4-24.9-38.1-27.9
							c-37.2-13.2-79.1,4.7-112.8,19.1c-4,1.7-8,3.5-11.9,5.3c-14.7,6.7-29.9,13.6-53.2,18.3c-9.5,1.9-19.3,3.3-29,4L883.4,355.1z"
							/>
					</g>
				</g>
				<g>
					<path d="M1026.6,341.6c-0.2,0-0.5-0.1-0.7-0.2l-8.6-6c-0.3-0.2-0.5-0.5-0.5-0.8c-0.1-0.3,0-0.7,0.2-0.9
						c13.2-18.4,19.6-39.4,23.7-55.7c0.2-0.7,0.8-1.1,1.5-0.9c0.7,0.2,1.1,0.8,0.9,1.5c-4.1,16.2-10.4,37-23.3,55.5l7.6,5.3
						c0.6,0.4,0.7,1.2,0.3,1.7C1027.4,341.4,1027,341.6,1026.6,341.6z"/>
				</g>
				<g>
					<path d="M1107.3,389.6c-0.2,0-0.3,0-0.5-0.1l-8.3-3.7c-0.6-0.3-0.9-1-0.6-1.6c0.3-0.6,1-0.9,1.6-0.6l7.5,3.4
						c18.8-23.8,18.4-59.9,18.4-60.3c0-0.7,0.5-1.2,1.2-1.3c0,0,0,0,0,0c0.7,0,1.2,0.5,1.2,1.2c0,0.4,0.4,38.1-19.5,62.6
						C1108,389.5,1107.7,389.6,1107.3,389.6z"/>
				</g>
			</g>
			<g>
				<g>
					<g>
						<path class="st2" d="M1013.2,211.2L978.5,181c0,0,4.1,2.3,7.1,0.7c4.3-2.4-2.5-20.4-7.1-20.4c-4.6,0.1-5.2,3.7-5.2,3.7
							l-22.3-11.7l-32.7,26.1c4.5,13.6,13.9,16.2,17,21.6c3.7,6.5,3.2,10.8,5.1,18.6l5.6-0.4c14,11.8,16,9.4,20.7,8.8
							c2.1-0.3,5-1.2,8.2-3.6l4.1,5.4L962.1,242c0,0,35,10.7,101.2-24.1L1013.2,211.2z"/>
					</g>
					<g>
						<path d="M977.3,244.8c-9.8,0-15-1.5-15.6-1.7c-0.4-0.1-0.8-0.5-0.9-1c-0.1-0.5,0.1-0.9,0.5-1.2l15.6-11.5l-2.6-3.4
							c-2.5,1.7-5.1,2.7-7.8,3.1c-0.6,0.1-1.1,0.2-1.6,0.3c-3.9,0.7-7.3,1.4-19.7-9l-5,0.4c-0.6,0-1.2-0.3-1.3-0.9
							c-0.6-2.6-1-4.8-1.3-6.8c-0.7-4.1-1.2-7.3-3.6-11.5c-1-1.7-2.7-3.1-4.7-4.8c-4.1-3.5-9.3-7.7-12.3-16.9c-0.2-0.5,0-1,0.4-1.4
							l32.7-26.1c0.4-0.3,0.9-0.4,1.3-0.1l21.1,11.1c0.8-1.5,2.6-3.2,5.9-3.2c0,0,0,0,0,0c4,0,7.6,7.9,8.9,12.9
							c0.8,3,1.7,8.2-1.2,9.8c-0.9,0.5-1.9,0.7-2.9,0.7l30.5,26.6l49.6,6.6c0.5,0.1,1,0.5,1,1c0.1,0.5-0.2,1.1-0.6,1.3
							C1022.7,240.6,993.6,244.8,977.3,244.8z M965,241.4c9,1.6,41.3,4.3,94.2-22.8l-46.1-6.2c-0.2,0-0.5-0.1-0.6-0.3l-34.8-30.2
							c-0.5-0.4-0.6-1.1-0.2-1.6c0.4-0.5,1.1-0.7,1.6-0.4c1,0.5,4,1.7,5.9,0.7c0.8-0.4,1.1-3,0-7c-1.6-6-4.9-11.1-6.5-11.1
							c0,0,0,0,0,0c-3.6,0-4,2.6-4.1,2.7c-0.1,0.4-0.3,0.7-0.7,0.9c-0.4,0.2-0.8,0.2-1.1,0l-21.6-11.3l-31.4,25
							c2.9,8,7.5,11.9,11.3,15c2.2,1.9,4.1,3.5,5.3,5.5c2.6,4.6,3.2,8.2,3.9,12.4c0.3,1.7,0.6,3.5,1,5.6l4.5-0.4
							c0.3,0,0.6,0.1,0.9,0.3c11.8,10,14.6,9.4,18,8.8c0.5-0.1,1.1-0.2,1.7-0.3c2.6-0.4,5.2-1.5,7.7-3.4c0.3-0.2,0.6-0.3,0.9-0.2
							c0.3,0,0.6,0.2,0.8,0.5l4.1,5.4c0.2,0.3,0.3,0.6,0.2,0.9c0,0.3-0.2,0.6-0.5,0.8L965,241.4z"/>
					</g>
				</g>
				<g>
					<path d="M974.6,225.5c-0.4,0-0.7-0.2-1-0.5c-0.4-0.5-0.3-1.3,0.2-1.7c1.6-1.2,5.4-5.2,6.9-7.2c0.4-0.5,1.2-0.7,1.7-0.2
						c0.5,0.4,0.7,1.2,0.2,1.7c-1.5,2-5.4,6.2-7.4,7.7C975.1,225.5,974.9,225.5,974.6,225.5z"/>
				</g>
				<g>
					<path d="M973.1,165c0,0-3.5,1.4-4.1,4.5c-0.1,0.6-0.1,1.3,0.3,2.8c1.3,4.9,4.2,6,3.8,8.3c-0.3,1.9-2.8,3.8-5,3.8
						c-3,0-4.3-3.2-8.2-6.6c-2.8-2.4-7.3-5.3-10.9-5.7c-9.8-1.2-13.1,15.5-25.3,17.7c-10.7,1.9-23.6-8.3-23.1-15.1
						c0.4-4.8,7.3-4.8,17-14.3c8.4-8.4,6.7-11.9,13.6-18.2c0.9-0.8,17.5-15.6,31.2-8.6C971.5,138.2,976.5,151.3,973.1,165z"/>
				</g>
			</g>
		</g>
		<g>
			<g>
				<g>
					<g>
						<path class="st7" d="M349.9,317.4c37.5-40.5,88.8-62.7,144.5-62.6c41.7,0.1,79.8,13.4,113.4,39.4c16.9,13.2,32.3,29.3,45.8,48
							c13.6-18.7,29-34.7,46-47.8c33.6-25.9,71.8-39,113.5-38.9c55.8,0.1,107,22.6,144.3,63.2c36.8,40.2,57.1,95,57,154.4
							c-0.1,61.1-23,117-72,175.9c-43.8,52.7-106.7,106.1-179.6,168c-24.9,21.1-53.1,45.1-82.4,70.6c-7.7,6.8-17.7,10.5-27.9,10.4
							c-10.3,0-20.2-3.8-27.9-10.5c-29.2-25.6-57.3-49.7-82.1-71c-72.6-62.2-135.3-115.9-178.9-168.8
							c-48.7-59.1-71.4-115.1-71.2-176.2C292.5,412.1,312.9,357.4,349.9,317.4z"/>
					</g>
				</g>
				<g>
					<path d="M652.6,899.2C652.5,899.2,652.5,899.2,652.6,899.2c-10.7,0-20.9-3.9-28.8-10.9c-28.9-25.4-56.8-49.3-81.4-70.4
						l-0.7-0.6c-72.7-62.2-135.4-116-179.1-168.9c-48.9-59.3-71.7-115.6-71.5-177c0.1-59.7,20.7-114.7,57.9-154.9
						c37.6-40.6,89.1-63,145-63c0.2,0,0.3,0,0.5,0c42,0.1,80.3,13.4,114.1,39.7c16.6,12.9,31.7,28.7,45,46.9
						c13.4-18.2,28.6-33.9,45.2-46.7c33.8-26,72-39.2,113.8-39.2c0.1,0,0.3,0,0.4,0c56.1,0.1,107.7,22.7,145.2,63.6
						c37.1,40.4,57.4,95.5,57.3,155.2c-0.1,61.4-23.1,117.5-72.2,176.7C899.4,702.5,836.5,756,763.6,817.9
						c-24.9,21.1-53.1,45.1-82.4,70.6C673.3,895.4,663.1,899.2,652.6,899.2z M350.8,318.2c-36.8,39.8-57.1,94.2-57.3,153.3
						c-0.1,60.8,22.4,116.6,71,175.4c43.5,52.8,106.2,106.5,178.7,168.6l0.7,0.6c24.6,21.1,52.5,45,81.4,70.4
						c7.5,6.6,17.1,10.2,27.1,10.2c0,0,0.1,0,0.1,0c9.9,0,19.5-3.6,27-10.1c29.3-25.5,57.5-49.5,82.4-70.6
						c72.8-61.8,135.7-115.2,179.4-167.8c48.8-58.7,71.6-114.3,71.7-175.1c0.1-59.1-20-113.6-56.6-153.5
						c-37.1-40.4-88-62.7-143.4-62.8c-0.1,0-0.3,0-0.4,0c-41.2,0-79,13-112.3,38.7c-16.8,13-32.2,29-45.7,47.6
						c-0.2,0.3-0.6,0.5-1,0.5c0,0,0,0,0,0c-0.4,0-0.8-0.2-1-0.5c-13.4-18.6-28.7-34.7-45.5-47.8c-33.3-25.9-71.2-39.1-112.6-39.2
						c-0.2,0-0.3,0-0.5,0C438.8,256,387.9,278.1,350.8,318.2z"/>
				</g>
			</g>
		</g>
		<g>
			<g>
				<path d="M145.9,842.9c-15.9,0.4-17.7-29.2-47-36.9c-30.2-8-47.2,18.4-70.8,8.4c-20.8-8.9-32.5-39.8-26.6-62.1
					c4.7-18.1,17.1-16.3,30.3-36.8c24.4-37.8-1.4-69.5,23.1-98.3c15-17.6,27.1-8.4,41.1-27.6c16.2-22.2,3.6-39.2,22-65.8
					c4.3-6.2,16.3-23.5,35.4-24.9c9.3-0.7,23.3,2.1,27.5,11.2c5.7,12.3-9.4,24.5-15.2,42.3c-10.5,32.2,16.9,61.3,30.1,89.2
					C234.5,723.6,177.4,842,145.9,842.9z"/>
			</g>
			<g>
				<g>
					<polygon points="300.9,1012.1 283.9,765.8 174.2,793.6 94.4,1012.1 					"/>
				</g>
				<g>
					<path class="st2" d="M280.5,1010.6c-0.6,0-1.2-0.5-1.2-1.2l-10.2-168.7c0-0.7,0.5-1.3,1.2-1.3c0.7,0,1.3,0.5,1.3,1.2
						l10.2,168.7C281.8,1010,281.3,1010.6,280.5,1010.6C280.6,1010.6,280.5,1010.6,280.5,1010.6z"/>
				</g>
				<g>
					<path class="st2" d="M269.3,824.7c-0.6,0-1.2-0.5-1.2-1.2l-1.1-18.3c0-0.7,0.5-1.3,1.2-1.3c0.7,0,1.3,0.5,1.3,1.2l1.1,18.3
						C270.5,824.1,270,824.6,269.3,824.7C269.3,824.7,269.3,824.7,269.3,824.7z"/>
				</g>
				<g>
					<path d="M256.5,1010.6c-0.7,0-1.2-0.5-1.2-1.2l-0.3-15.6c0-0.7,0.5-1.2,1.2-1.3c0,0,0,0,0,0c0.7,0,1.2,0.5,1.2,1.2l0.3,15.6
						C257.7,1010,257.2,1010.6,256.5,1010.6C256.5,1010.6,256.5,1010.6,256.5,1010.6z"/>
				</g>
				<g>
					<path class="st2" d="M256,983.8c-0.7,0-1.2-0.5-1.2-1.2l-3-170.8c0-0.7,0.5-1.2,1.2-1.3c0,0,0,0,0,0c0.7,0,1.2,0.5,1.2,1.2
						l3,170.8C257.3,983.3,256.7,983.8,256,983.8C256.1,983.8,256,983.8,256,983.8z"/>
				</g>
				<g>
					<path class="st2" d="M191.3,1010.6c0,0-0.1,0-0.2,0c-0.7-0.1-1.2-0.7-1.1-1.4l23.7-194.8c0.1-0.7,0.7-1.2,1.4-1.1
						c0.7,0.1,1.2,0.7,1.1,1.4l-23.7,194.8C192.5,1010.2,191.9,1010.6,191.3,1010.6z"/>
				</g>
				<g>
					<path class="st2" d="M162.6,992.5c-0.1,0-0.2,0-0.2,0c-0.7-0.1-1.1-0.8-1-1.4l18.5-96.7c0.1-0.7,0.8-1.1,1.4-1
						c0.7,0.1,1.1,0.8,1,1.4l-18.5,96.7C163.7,992.1,163.1,992.5,162.6,992.5z"/>
				</g>
			</g>
			<g>
				<g>
					<path class="st2" d="M161,583.3c0,0,7.6,4.3,17.4,2L161,583.3z"/>
				</g>
				<g>
					<path d="M172.4,587.2c-7,0-11.8-2.7-12.1-2.8c-0.6-0.3-0.8-1.1-0.5-1.7c0.3-0.6,1.1-0.8,1.7-0.5c0.1,0,7.4,4,16.5,1.9
						c0.7-0.2,1.3,0.3,1.5,0.9c0.2,0.7-0.3,1.3-0.9,1.5C176.4,587,174.4,587.2,172.4,587.2z"/>
				</g>
			</g>
			<g>
				<g>
					<g>
						<path class="st2" d="M363.7,508.3c-8,1.6-16,3.1-24.1,4.7c4.1,8.5,23.8,51.6,5.5,73.7c-0.8,1-1.6,1.8-2.6,2.7
							c-17,14.4-38.5,13.8-62.7,13.9c-14.7,0.1-38.2,0.2-62.1,3.8c-4.8,0.7-28.5,4.4-57.3,15.3c-20.1,7.6-48.1,18.2-69.6,37.6
							C53,694.3,29.3,761.7,53.3,821.9c17.7,44.6,55,66.8,70,74.6c6.9-7.7,13.8-15.4,20.7-23.1c-8-6.6-32.1-28-40-64.7
							c-10.9-50.5,17.5-89.3,22-95.1c5.8,25.3,11.6,50.6,17.4,75.8c3.4,15,20,23.2,33.8,16.4c4.1-2.1,7.7-2.7,9.7-3.9
							c19.1-11.5,51.5-23,79.6-25.1c15-1.1,21,1,25.4-4.1c6-7,1.3-18.7-4.1-40.5c-2.9-11.7-6.6-28.9-9.3-50.6c0-0.3,0-0.7,0-1.1
							c0-0.4,0-0.9,0-1.5c21.3,3,66.8,4.7,95.7-29.2C405.3,613.3,403.5,551.5,363.7,508.3z"/>
					</g>
					<g>
						<path d="M123.3,897.8c-0.2,0-0.4,0-0.6-0.1c-19.2-10-53.8-33.1-70.6-75.3c-11.3-28.4-12.9-60-4.5-91.5
							c7.5-28.1,22.9-54.2,42.4-71.8c21.6-19.6,49.6-30.2,69.9-37.9c26.7-10.1,49.1-14.1,57.5-15.4c24-3.6,48-3.7,62.3-3.8l3.2,0
							c23-0.1,42.8-0.1,58.7-13.6c0.9-0.7,1.7-1.5,2.5-2.5c16.9-20.5-0.1-60.6-5.7-72.3c-0.2-0.3-0.2-0.7,0-1.1
							c0.2-0.3,0.5-0.6,0.9-0.7l24.1-4.7c0.4-0.1,0.9,0.1,1.1,0.4c38.6,41.9,43.1,104.8,10.4,143.1c-28.2,33-71.2,33-95.3,29.8
							c0,0,0,0.1,0,0.1c0,0.3,0,0.7,0,1c2.1,17.2,5.3,34.2,9.3,50.4c0.9,3.8,1.9,7.4,2.7,10.6c4.1,15.4,6.5,24.7,1.1,31
							c-3.4,4-7.8,4.1-15,4.1c-3,0-6.8,0.1-11.2,0.4c-29.5,2.2-61.6,14.5-79,24.9c-1.1,0.7-2.5,1.1-4.1,1.7
							c-1.7,0.6-3.6,1.2-5.7,2.3c-6.8,3.4-14.7,3.4-21.6,0.1c-7.1-3.4-12.2-9.7-13.9-17.3l-16.8-73.2c-8.9,12.5-29.8,47.5-20.2,92
							c7.2,33.4,27.9,54.5,39.6,64.1c0.3,0.2,0.4,0.5,0.4,0.9c0,0.3-0.1,0.7-0.3,0.9l-20.7,23.1C124,897.7,123.7,897.8,123.3,897.8z
							 M341.5,513.9c7.6,16.4,21.6,53.1,4.7,73.5c-0.9,1.1-1.8,2-2.8,2.9c-16.6,14.1-36.8,14.1-60.3,14.2l-3.2,0
							c-14.3,0.1-38.1,0.2-62,3.7c-8.3,1.3-30.6,5.3-57,15.3c-20.2,7.6-47.9,18.1-69.2,37.4c-36.1,32.6-61.4,100-37.3,160.6
							c16.3,40.9,49.6,63.5,68.6,73.6l19.2-21.4c-12.1-10.1-32.3-31.4-39.4-64.6c-10.4-48.4,14.4-85.8,22.2-96.1
							c0.3-0.4,0.8-0.6,1.2-0.5c0.5,0.1,0.8,0.5,0.9,0.9l17.4,75.8c1.6,6.9,6.2,12.6,12.6,15.6c6.3,3,13.4,2.9,19.5-0.1
							c2.2-1.1,4.3-1.8,6-2.4c1.5-0.5,2.7-0.9,3.6-1.5c17.6-10.6,50.2-23,80.1-25.3c4.6-0.3,8.3-0.4,11.4-0.4
							c7-0.1,10.4-0.1,13.1-3.3c4.6-5.3,2.2-14.2-1.6-28.8c-0.8-3.2-1.8-6.8-2.7-10.6c-4-16.3-7.2-33.4-9.3-50.8c0-0.1,0-0.1,0-0.2
							c0-0.3,0-0.7,0-1c0-0.4,0-0.9,0-1.5c0-0.4,0.1-0.7,0.4-0.9c0.3-0.2,0.6-0.4,1-0.3c23.3,3.3,66.6,4,94.6-28.7
							c31.8-37.2,27.4-98.3-9.9-139.3L341.5,513.9z"/>
					</g>
				</g>
				<g>
					<g>
						<g>
							<path class="st2" d="M127.4,893.9l20.9,8.1c0,0,12.9,3.9,20.8-6.5c7.9-10.4,28.8-14.4,28.8-14.4s-14.2-10.8-19.9-12.5
								c-5.7-1.7-26.1,11.2-26.1,11.2l-9.4-4.6L127.4,893.9z"/>
						</g>
						<g>
							<path d="M153.9,903.9c-3.5,0-6-0.7-6-0.7l-20.9-8.2c-0.4-0.1-0.6-0.5-0.7-0.8c-0.1-0.4,0-0.8,0.2-1.1l15.1-18.6
								c0.4-0.4,1-0.6,1.5-0.3l8.8,4.3c3.9-2.4,20.9-12.7,26.6-10.9c5.8,1.8,19.7,12.3,20.3,12.7c0.4,0.3,0.6,0.8,0.5,1.3
								c-0.1,0.5-0.5,0.8-1,0.9c-0.2,0-20.6,4-28.1,13.9C165.2,902.6,158.7,903.9,153.9,903.9z M129.4,893.3l19.3,7.5
								c0.4,0.1,12.1,3.5,19.4-6.1c6.5-8.5,20.9-12.8,26.9-14.3c-4.2-3-13.3-9.5-17.4-10.7c-3.7-1.1-17.4,6.2-25.1,11
								c-0.4,0.2-0.8,0.3-1.2,0.1l-8.5-4.1L129.4,893.3z"/>
						</g>
					</g>
				</g>
				<g>
					<g>
						<g>
							<path class="st2" d="M342.2,512.5l-7.7-14.1c-4.6-8.4-0.6-19.1,8.4-22.1c0.3-0.1,0.6-0.2,1-0.3c11.8-3.2,22.7-20,22.7-20
								s4.3,16.2,3.8,21.7c-0.5,5.5-18.9,18.8-18.9,18.8l9.4,12.8L342.2,512.5z"/>
						</g>
						<g>
							<path d="M342.2,513.7c-0.4,0-0.9-0.2-1.1-0.6l-7.7-14.1c-2.4-4.4-2.7-9.7-0.9-14.4c1.8-4.5,5.4-8,10-9.5
								c0.3-0.1,0.7-0.2,1-0.3c11.2-3,21.8-19.3,22-19.5c0.3-0.4,0.7-0.6,1.2-0.5c0.5,0.1,0.9,0.4,1,0.9c0.2,0.7,4.4,16.5,3.9,22.1
								c-0.5,5.3-14.3,15.9-18.4,18.9l8.7,11.8c0.3,0.3,0.3,0.8,0.2,1.2c-0.2,0.4-0.5,0.7-0.9,0.8l-18.7,3.2
								C342.4,513.7,342.3,513.7,342.2,513.7z M366.1,458.9c-3.5,4.8-12.2,15.7-21.8,18.2c-0.3,0.1-0.6,0.2-0.9,0.3
								c-3.9,1.3-6.9,4.2-8.5,8c-1.6,4-1.3,8.5,0.7,12.3l7.2,13.3l15.9-2.7l-8.2-11.2c-0.2-0.3-0.3-0.6-0.2-0.9
								c0.1-0.3,0.2-0.6,0.5-0.8c6.9-5,18.1-14.3,18.4-17.9C369.6,473.6,367.3,463.6,366.1,458.9z"/>
						</g>
					</g>
				</g>
			</g>
			<g>
				<g>
					<g>
						<path class="st2" d="M190,613.1c-13.6-13.6-11-27.9-11-27.9c4.4-0.5,8.2-1.6,11.6-3.1c2-0.9,3-3.2,2.3-5.4c-2-6-4-15.9-5.1-18
							c1.2-2.5,4.7-3.1,3.7-7.5c-8-2.4-12.6-15.6-17.5-19.9c-2.4-2.1-4.1-2.7-7-4.9c-15.2,0.5,5.2,20.8-16.3,27.7
							c0.7,1.4,0.4,4.1-0.2,6.6c-0.4,1.8-0.8,3.3-1.3,4.5c-2.7-4.9-6.7-7.1-9-6.1c-2.4,1-2.8,5.3-2.3,7.9
							c1.2,7.2,10.1,10.2,10.8,10.4c0,0,2.2,34.3-1.8,48.2c-16.9,7.1-26.2,13.8-26.2,13.8c87.9,11.3,104.5-31,104.5-31
							C214.7,608.6,199.3,611.5,190,613.1z"/>
					</g>
					<g>
						<path d="M148.7,642.4c-8.4,0-17.7-0.6-28-1.9c-0.5-0.1-0.9-0.4-1-0.9c-0.1-0.5,0.1-1,0.5-1.3c0.4-0.3,9.4-6.6,25.9-13.7
							c3.4-12.6,2-41.2,1.7-46.4c-2.5-1-9.6-4.2-10.8-11.1c-0.5-2.9-0.1-7.9,3-9.2c2.7-1.1,6.3,0.7,9.1,4.4c0.2-0.7,0.3-1.3,0.5-2
							c0.9-4.1,0.5-5.4,0.3-5.7c-0.2-0.3-0.2-0.7-0.1-1c0.1-0.3,0.4-0.6,0.8-0.7c10.8-3.4,10.1-10.1,9.5-16.6
							c-0.4-3.5-0.7-6.8,1.2-9c1.2-1.4,3.1-2.1,5.9-2.2c0.3,0,0.6,0.1,0.8,0.2c1.2,0.9,2.2,1.6,3.2,2.2c1.3,0.8,2.4,1.6,3.9,2.8
							c1.9,1.7,3.7,4.5,5.6,7.6c3.2,5,6.8,10.7,11.4,12.1c0.4,0.1,0.7,0.5,0.8,0.9c0.8,3.6-0.9,5.2-2.3,6.6
							c-0.4,0.4-0.9,0.8-1.2,1.3c0.5,1.4,1.2,4,2.2,7.7c0.8,3.3,1.8,7.1,2.7,9.9c0.9,2.7-0.4,5.7-3,6.9c-3.3,1.5-7,2.6-11,3.1
							c-0.3,3.2-0.3,14.6,10.3,25.5l2.6-0.5c9.5-1.7,22.6-4,32.2-4.3c0.4,0,0.8,0.2,1.1,0.5c0.2,0.3,0.3,0.8,0.1,1.2
							c-0.2,0.4-4.5,11.1-19.8,20.3C195.8,635.6,177.6,642.4,148.7,642.4z M124.3,638.4c72.8,8.4,94.6-21.2,98.9-28.9
							c-9.2,0.6-21,2.7-29.7,4.2l-3.3,0.6c-0.4,0.1-0.8-0.1-1.1-0.3c-13.9-13.9-11.5-28.4-11.4-29c0.1-0.5,0.5-0.9,1.1-1
							c4.1-0.5,7.9-1.5,11.3-3c1.4-0.7,2.2-2.3,1.7-3.8c-0.9-2.9-1.9-6.7-2.8-10c-0.9-3.4-1.7-6.9-2.2-7.8c-0.2-0.3-0.2-0.8,0-1.1
							c0.5-1,1.3-1.8,2-2.4c1.1-1.1,1.9-1.8,1.7-3.6c-5.1-2-8.8-7.7-12-12.9c-1.8-2.9-3.5-5.6-5.2-7c-1.3-1.1-2.3-1.8-3.6-2.6
							c-0.9-0.5-1.8-1.2-3-2c-1.8,0.1-3,0.5-3.7,1.3c-1.2,1.4-0.9,4-0.6,7.1c0.6,6.2,1.5,14.6-10,18.8c0.3,1.4,0.1,3.5-0.5,6.1
							c-0.4,1.5-0.8,3.3-1.4,4.7c-0.2,0.4-0.6,0.7-1.1,0.8c-0.5,0-0.9-0.2-1.2-0.6c-2.5-4.6-6-6.2-7.4-5.6c-1.5,0.6-2,4-1.6,6.6
							c1.1,6.5,9.6,9.3,9.9,9.4c0.5,0.2,0.8,0.6,0.9,1.1c0.1,1.4,2.2,34.7-1.9,48.6c-0.1,0.4-0.4,0.6-0.7,0.8
							C136.2,631.4,128.2,636,124.3,638.4z"/>
					</g>
				</g>
				<g>
					<g>
						<path class="st2" d="M154.8,578.2c0,0,9.3,9.8,24.2,6.9L154.8,578.2z"/>
					</g>
					<g>
						<path d="M173.5,586.9c-11.9,0-19.2-7.5-19.6-7.9c-0.5-0.5-0.4-1.3,0-1.7c0.5-0.5,1.3-0.4,1.7,0c0.1,0.1,9.1,9.3,23.1,6.6
							c0.7-0.1,1.3,0.3,1.4,1c0.1,0.7-0.3,1.3-1,1.4C177.2,586.8,175.3,586.9,173.5,586.9z"/>
					</g>
				</g>
			</g>
		</g>
		<g>
			<g>
				<g>
					<path class="st2" d="M858.9,382.2c0,0,105.6,47.4,175.6-36.9l55.7,34.9c0,0-95.1,118.4-234.5,26.9c0,0-36.7,2.3-43.5-2.3
						c-6.8-4.7-20.4-25.7-18.4-28.9l-2.9-10.5c-0.3-1.2-0.2-2.4,0.3-3.6c1.3-2.8,4.9-3.7,7.4-1.8l26.8,21.1l2.7,0c4,0,7-3.7,6.1-7.7
						l-3.8-17c-0.4-1.8,1-3.6,2.9-3.6L858.9,382.2z"/>
				</g>
				<g>
					<path d="M960.8,443.1c-3.2,0-6.5-0.1-9.7-0.3c-31.6-2-63.8-13.5-95.7-34.4c-5.3,0.3-37.1,2.1-43.9-2.6
						c-6.2-4.2-20.3-24.4-19-29.9l-2.8-10.1c-0.4-1.5-0.3-3,0.4-4.4c0.8-1.7,2.3-2.9,4.1-3.4c1.8-0.4,3.7,0,5.2,1.1l26.5,20.9l2.2,0
						c1.5,0,3-0.7,3.9-1.9c1-1.2,1.3-2.8,1-4.3l-3.8-17c-0.3-1.2,0-2.5,0.8-3.5c0.8-1,2-1.6,3.3-1.6c0.4,0,0.7,0.2,0.9,0.4l25.4,29
						c2.7,1.2,28.2,11.7,60.9,13c31.8,1.2,77.2-6.5,113-49.6c0.4-0.5,1.1-0.6,1.6-0.3l55.7,34.9c0.3,0.2,0.5,0.5,0.6,0.8
						c0.1,0.3,0,0.7-0.3,1c-0.2,0.3-24.4,30.1-65.4,48.1C1004.7,438.4,982.9,443.1,960.8,443.1z M855.7,406c0.2,0,0.5,0.1,0.7,0.2
						c71.6,47,131.1,37.2,168.4,20.8c36.1-15.9,58.9-40.9,63.6-46.4l-53.6-33.6c-36.4,43.2-82.2,50.8-114.4,49.6
						c-35-1.3-61.7-13.1-62-13.3c-0.2-0.1-0.3-0.2-0.4-0.3l-25.2-28.7c-0.3,0.1-0.6,0.3-0.9,0.6c-0.3,0.4-0.5,0.9-0.3,1.5l3.8,17
						c0.5,2.2,0,4.5-1.5,6.3c-1.4,1.8-3.6,2.8-5.8,2.8l-2.7,0c-0.2,0-0.5-0.1-0.8-0.3l-26.8-21.1c-0.9-0.7-2-0.9-3.1-0.7
						c-1.1,0.3-2,1-2.4,2c-0.4,0.8-0.5,1.8-0.2,2.7l2.9,10.5c0.1,0.3,0,0.7-0.1,1c-0.9,2.6,10.9,22.3,18.1,27.2
						C818.2,407.5,845.5,406.6,855.7,406C855.6,406,855.6,406,855.7,406z"/>
				</g>
			</g>
		</g>
		<g>
			<g>
				<path class="st2" d="M777.8,240.6c0,0-29.4,5.5-34.5,11.8c-3.6,4.4-9.4,18.3-4.6,29c4.4,9.5,16.5,12,24.8,5.6
					c4.3-3.4,8.8-9,11.6-18.3c1.6-5.3,5.2-9.9,10.3-12c1.3-0.5,2.6-0.9,4.1-1.1c2.1-0.3,3.4-2.3,2.7-4.3
					C790.9,247,787.2,241.1,777.8,240.6z"/>
			</g>
			<g>
				<path d="M753.2,291.7c-1.4,0-2.9-0.2-4.3-0.5c-5.1-1.2-9.2-4.7-11.3-9.4c-5-10.9,0.7-25.3,4.7-30.2c5.2-6.5,32.2-11.6,35.2-12.2
					c0.1,0,0.2,0,0.3,0c10.4,0.6,14.2,7.4,15.6,11.5c0.4,1.3,0.3,2.7-0.5,3.9c-0.7,1.2-1.9,1.9-3.3,2.1c-1.2,0.2-2.5,0.5-3.8,1
					c-4.6,1.9-8.1,6-9.6,11.2c-2.5,8.3-6.5,14.7-12.1,19C761.1,290.4,757.2,291.7,753.2,291.7z M777.9,241.8
					c-8.2,1.5-29.7,6.5-33.6,11.3c-3.7,4.6-8.9,17.8-4.4,27.7c1.8,4,5.4,6.9,9.7,8c4.6,1.1,9.4,0.1,13.2-2.8
					c5.1-3.9,8.9-9.9,11.2-17.7c1.8-5.9,5.8-10.6,11-12.7c1.5-0.6,2.9-1,4.4-1.2c0.6-0.1,1.2-0.4,1.5-0.9c0.3-0.5,0.4-1.2,0.2-1.8
					C789.7,247.4,786.3,242.3,777.9,241.8z"/>
			</g>
		</g>
		<g>
			<g>
				<g>
					<polygon class="st2" points="941.3,1012.1 804,1012.1 804,760.6 933.8,739 					"/>
				</g>
				<g>
					<path d="M941.3,1013.3H804c-0.7,0-1.2-0.6-1.2-1.2V760.6c0-0.6,0.4-1.1,1-1.2l129.8-21.6c0.3-0.1,0.7,0,1,0.3s0.4,0.6,0.4,0.9
						l7.5,273.1c0,0.3-0.1,0.7-0.3,0.9C942,1013.2,941.6,1013.3,941.3,1013.3z M805.2,1010.9h134.8l-7.4-270.5l-127.4,21.2V1010.9z"
						/>
				</g>
			</g>
			<g>
				<g>
					<polygon class="st2" points="1099,1012.1 933.8,1012.1 933.8,739 1099,757.4 					"/>
				</g>
				<g>
					<path d="M1099,1013.3H933.8c-0.7,0-1.2-0.6-1.2-1.2V739c0-0.3,0.1-0.7,0.4-0.9c0.3-0.2,0.6-0.3,1-0.3l165.1,18.5
						c0.6,0.1,1.1,0.6,1.1,1.2v254.7C1100.2,1012.8,1099.7,1013.3,1099,1013.3z M935.1,1010.9h162.7V758.5l-162.7-18.2V1010.9z"/>
				</g>
			</g>
			<g>
				<g>
					<polygon class="st2" points="888.6,746.5 848.1,753.3 848.1,810.1 888.6,806.1 					"/>
				</g>
				<g>
					<path d="M848.1,811.4c-0.3,0-0.6-0.1-0.8-0.3c-0.3-0.2-0.4-0.6-0.4-0.9v-56.9c0-0.6,0.4-1.1,1-1.2l40.5-6.7
						c0.4-0.1,0.7,0,1,0.3c0.3,0.2,0.4,0.6,0.4,0.9v59.6c0,0.6-0.5,1.2-1.1,1.2l-40.5,4C848.2,811.4,848.2,811.4,848.1,811.4z
						 M849.4,754.3v54.5l38-3.8v-57L849.4,754.3z"/>
				</g>
			</g>
			<g>
				<g>
					<path d="M868.4,797.7c-0.7,0-1.2-0.6-1.2-1.2v-46.6c0-0.7,0.6-1.2,1.2-1.2c0.7,0,1.2,0.6,1.2,1.2v46.6
						C869.6,797.2,869,797.7,868.4,797.7z"/>
				</g>
			</g>
		</g>
		<g>
			<g>
				<g>
					<polygon class="st2" points="722.6,1012.1 643.4,1012.1 643.4,864.1 704.2,846 					"/>
				</g>
				<g>
					<path d="M722.6,1013.3h-79.2c-0.7,0-1.2-0.6-1.2-1.2V864.1c0-0.5,0.4-1,0.9-1.2l60.9-18.1c0.3-0.1,0.7,0,1,0.2
						c0.3,0.2,0.5,0.5,0.5,0.9l18.3,166.1c0,0.3-0.1,0.7-0.3,1S722.9,1013.3,722.6,1013.3z M644.6,1010.9h76.6l-18-163.3L644.6,865
						V1010.9z"/>
				</g>
			</g>
			<g>
				<g>
					<polygon class="st2" points="870.4,1012.1 704.2,1012.1 704.2,846 870.4,863.5 					"/>
				</g>
				<g>
					<path d="M870.4,1013.3H704.3c-0.7,0-1.2-0.6-1.2-1.2V846c0-0.3,0.1-0.7,0.4-0.9c0.3-0.2,0.6-0.3,1-0.3l166.1,17.5
						c0.6,0.1,1.1,0.6,1.1,1.2v148.6C871.6,1012.8,871,1013.3,870.4,1013.3z M705.5,1010.9h163.6V864.7l-163.6-17.3V1010.9z"/>
				</g>
			</g>
			<g>
				<g>
					<rect x="722.6" y="962.8" class="st2" width="81.4" height="31.5"/>
				</g>
				<g>
					<path d="M804,995.5h-81.4c-0.7,0-1.2-0.6-1.2-1.2v-31.5c0-0.7,0.6-1.2,1.2-1.2H804c0.7,0,1.2,0.6,1.2,1.2v31.5
						C805.2,995,804.7,995.5,804,995.5z M723.8,993.1h79V964h-79V993.1z"/>
				</g>
			</g>
		</g>
	</g>
	<g>
		<polygon class="st17" points="582.8,537.3 670.9,393 730.7,622.8 676.2,636.5 		"/>
		<polygon class="st18" points="504.9,436.5 487.6,460.4 508.7,454.6 		"/>
		<polygon class="st18" points="582.8,537.3 622.7,562.5 594.8,565.1 		"/>
		<polygon class="st18" points="674.6,552 717.6,621.8 689.3,629.7 		"/>
		<polygon class="st17" points="682.5,620.7 922.8,598.2 736.5,688.4 711.3,705.7 		"/>
		<polygon class="st17" points="587,565.1 674.6,552 715,711 		"/>
		<polygon class="st17" points="504.9,436.5 512.8,429.2 529.7,442.5 586.6,546.6 531.5,579.2 		"/>
		<line class="st19" x1="521.3" y1="440.7" x2="504.9" y2="436.5"/>
		<polygon class="st17" points="582.8,537.3 449,639.6 715,711 		"/>
		<line class="st20" x1="531.8" y1="626.2" x2="630" y2="610.2"/>
		<line class="st20" x1="452.6" y1="639.1" x2="522.4" y2="627.8"/>
		<line class="st20" x1="712.5" y1="668.1" x2="707.1" y2="663.8"/>
		<line class="st20" x1="732.8" y1="684.8" x2="716.9" y2="671.8"/>
		<line class="st20" x1="661.9" y1="529.5" x2="661" y2="545.7"/>
		<line class="st20" x1="669.4" y1="407.2" x2="662.5" y2="520"/>
	</g>
</g>
</svg>
