<svg id="Capa_1" data-name="Capa 1" xmlns="http://www.w3.org/2000/svg" viewBox="0 0 3401.57 2875.98"><defs><style>.cls-1{fill:#fff;}.cls-2{fill:#010101;}.cls-3{fill:#d62a87;}</style></defs><g id="Volunteering"><path class="cls-1" d="M1495.39,378.39c-10.68-4.43-18.38-10.68-31.59-9.91-30.55,1.8-51,38.82-57,49.09-32.78,55.88-134.85,164.76-239,204.32-104.75,39.78-227.63,15.53-315.35-41.14-34.53-22.3-174.79-112.9-156.6-250.57,12.37-93.6,93.75-176.87,176.78-186.82,92.08-11,113.93,76.75,218.44,74.85,117.92-2.16,167.31-115.37,247.62-86.91,51,18.08,52.45,69.17,110.49,78.35,28.45,4.5,70.67-2.42,104.4-24,24.34-15.53,35.75-33.22,53.38-30,18.09,3.29,27.93,25.89,33.36,38.37,6,13.72,37.87,87-8.34,144.17C1596.49,382.15,1533.11,394,1495.39,378.39Z"/><path class="cls-2" d="M1057.2,644.7c-70.76,0-144.67-21-206.63-61-146-94.32-166.59-190.16-158.15-254,12.45-94.27,93.12-179.42,179.81-189.82,47.46-5.69,76.44,13.95,107.14,34.73,29.8,20.17,60.68,41,111.64,40.1,57-1,98-28.7,134.21-53.1C1264,135.52,1297.41,113,1339.86,128c24.18,8.56,37.55,24.2,50.49,39.33,15,17.52,29.13,34.07,59.38,38.85,26,4.13,67.66-1.53,102-23.44a216.91,216.91,0,0,0,20.1-14.91c12.48-10.08,22.34-18,35.77-15.61,19.91,3.62,30.33,27.54,35.93,40.39,14.46,33.23,32.54,96.58-8.82,147.77-37.21,46-102,57.22-140.64,41.2h0c-2.8-1.17-5.38-2.44-7.87-3.66-7.1-3.5-13.21-6.53-22.19-6-27.55,1.62-47.06,35.11-53.46,46.12l-.74,1.26c-30.09,51.31-131.61,164.35-240.76,205.81C1134.43,638.29,1096.29,644.69,1057.2,644.7Zm-169-498.82a126.86,126.86,0,0,0-15.11.93c-82.32,9.87-161.88,94.05-173.75,183.83-8.16,61.8,12.1,154.85,155,247.19,94.4,61,217,77,312.23,40.8,107.53-40.83,207.57-152.25,237.23-202.82l.72-1.24c6.88-11.8,27.8-47.73,59.07-49.56,10.79-.63,18.36,3.09,25.67,6.7,2.39,1.17,4.87,2.39,7.46,3.47,36.51,15.13,98.49,3,132.57-39.15,39-48.33,21.68-108.83,7.85-140.59-5.08-11.68-14.53-33.39-30.79-36.34-10.31-1.86-18.63,4.86-30.16,14.17a223,223,0,0,1-20.73,15.36c-35.86,22.9-79.5,28.78-106.82,24.45-32.78-5.18-48.44-23.49-63.58-41.2-12.34-14.43-25.1-29.35-47.52-37.3-39.16-13.89-71.26,7.76-108.44,32.81-37,25-78.94,53.21-138,54.29-53.13.92-85-20.51-115.67-41.29C949.35,162.71,924.49,145.88,888.17,145.88Z"/><path class="cls-2" d="M1743.86,256.25l116.49,118.91c8.53,8.71,21.08,10.26,28,3.47l11.42-11.2c6.94-6.79,5.65-19.37-2.88-28.08l-116.5-118.91Z"/><path class="cls-2" d="M2042.18,117.82c13.17,26.82,10.56,55.09-5.83,63.14s-40.36-7.16-53.53-34-10.57-55.09,5.82-63.14S2029,91,2042.18,117.82Z"/><path class="cls-2" d="M1708.08,253.46l23.2,47.23c3.57,7.27,15.75,8.61,27.21,3l-36.14-73.57C1710.89,235.73,1704.5,246.19,1708.08,253.46Z"/><path class="cls-1" d="M1974.87,97.59a253.33,253.33,0,0,1-62.25,106.35,254.25,254.25,0,0,1-168.76,75.65l13,26.51,277.58-40.79,18.37-9Z"/><polygon class="cls-1" points="1941.05 28.75 1922.69 37.77 1720.75 232.53 1756.88 306.1 2034.46 265.31 2052.83 256.29 1941.05 28.75"/><path class="cls-2" d="M1756.88,309.58a3.47,3.47,0,0,1-3.12-1.95l-36.14-73.56a3.49,3.49,0,0,1,.71-4L1920.27,35.27a3.59,3.59,0,0,1,.88-.62l18.37-9a3.46,3.46,0,0,1,2.66-.17,3.5,3.5,0,0,1,2,1.76L2056,254.76a3.48,3.48,0,0,1-1.59,4.65l-18.37,9a3.34,3.34,0,0,1-1,.32l-277.57,40.78A2.92,2.92,0,0,1,1756.88,309.58ZM1725,233.28l33.9,69L2033.41,262l14.76-7.25L1939.47,33.41l-14.76,7.24Z"/><path class="cls-1" d="M2061.63,264.81l-15.33,7.53a12.23,12.23,0,0,1-17-7A998.07,998.07,0,0,0,1919.51,41.83a12.24,12.24,0,0,1,4.82-17.71l15.32-7.53a12.25,12.25,0,0,1,15.55,4.14Q2028.19,129,2067.87,250A12.24,12.24,0,0,1,2061.63,264.81Z"/><path class="cls-2" d="M2040.91,277.08A15.75,15.75,0,0,1,2026,266.44,999.4,999.4,0,0,0,1916.6,43.73,15.71,15.71,0,0,1,1922.8,21l15.32-7.53a15.77,15.77,0,0,1,20,5.32,931.15,931.15,0,0,1,113.1,230.15,15.78,15.78,0,0,1-8,19l-15.33,7.54A15.64,15.64,0,0,1,2040.91,277.08ZM1945,18.82a8.71,8.71,0,0,0-3.84.89l-15.32,7.53a8.61,8.61,0,0,0-4.58,5.54,8.78,8.78,0,0,0,1.13,7.14,1006.58,1006.58,0,0,1,110.2,224.26,8.83,8.83,0,0,0,5,5.28,8.58,8.58,0,0,0,7.18-.24l15.34-7.53a8.79,8.79,0,0,0,4.47-10.58A924.3,924.3,0,0,0,1952.31,22.68,8.78,8.78,0,0,0,1945,18.82Z"/><path class="cls-1" d="M1933.76,346.73c-17-37.11-72.88-45.08-72.88-45.08l-35.18,46.56c12.16,11.05,26.53-1.38,26.53-1.38l3.69,13.64c16.95,1.88,23.83-28.79,23.83-28.79s20.82,35.66,33.07,40.94c3.33,1.43,6.4.17,9.1-2.42,60.36,24,90.81,76.51,79.94,114.9-9.12,32.18-46.46,51.57-75.8,55.72-62.11,8.78-132.16-44.6-132.16-44.6L1672.73,656.36s274.64,157.91,435.05-19.46C2220.19,512.61,2069.19,380.34,1933.76,346.73Z"/><path class="cls-2" d="M1907.76,724.51a409.84,409.84,0,0,1-78.33-8c-88.25-17.22-157.74-56.79-158.44-57.18a3.5,3.5,0,0,1-1-5.12l121.18-160.14a3.49,3.49,0,0,1,2.3-1.34,3.41,3.41,0,0,1,2.58.68c.69.52,69.62,52.36,129.56,43.92,30-4.23,64.62-23.88,72.94-53.23,9.66-34.08-16.67-85.47-76-109.93-4.45,3.29-8.44,2.75-11.12,1.59-9.9-4.26-23.71-24.66-30.61-35.66-3.53,9.83-11.39,25.28-25.29,23.78a3.48,3.48,0,0,1-3-2.55l-2.41-8.88c-6.89,3.95-17.66,6.59-26.8-1.72a3.48,3.48,0,0,1-.44-4.67l35.19-46.56a3.47,3.47,0,0,1,3.26-1.35c2.33.34,56.44,8.46,74.83,45.56,85.54,21.7,184.3,85.21,208.78,165.41,13.7,44.9,1.73,89.87-34.62,130.06C2059.34,695.65,1990.21,724.51,1907.76,724.51Zm-229.83-69.26c15,8.08,77,39.71,153,54.51,80,15.58,192.53,15.18,274.26-75.19,35.11-38.82,46.25-80.33,33.12-123.37C2114.45,433,2016.93,371,1932.92,350.11a3.47,3.47,0,0,1-2.32-1.92c-14.28-31.08-58.3-40.91-68.22-42.75l-31.8,42.08c9.14,5.38,18.93-2.93,19.37-3.32a3.48,3.48,0,0,1,5.64,1.72l3,11.07c11.93-1.56,17.71-25.81,17.77-26.07a3.48,3.48,0,0,1,6.4-1c5.63,9.64,22.25,35.54,31.43,39.49.73.31,2.42,1.05,5.33-1.73a3.49,3.49,0,0,1,3.69-.72c65.09,25.92,92.81,80.9,82,119.08-9.55,33.71-47.47,53.81-78.65,58.21-56.52,8-118-33.21-131.94-43.2Z"/><path class="cls-1" d="M1289.58,556.83l-60.89-239c-257.57-53.72-484.91,86.51-532.83,118.77-16-11.92-59.79-42.92-87.3-46.46,0,0,2,17.1,15.06,21.42,0,0-32.89-5.3-59.63,0,0,0,7.78,17.68,22.66,17.52l-30.32,12.15s6,17.84,28.12,13.81a150.34,150.34,0,0,0,39.17-13.09s26.65,25.84,44.2,30.4c0,0-14.07,42.49-1,52.76,0,0,24.68-30.17,32.73-62.14C1142.19,427.27,1289.58,556.83,1289.58,556.83Z"/><path class="cls-2" d="M1289.58,560.31a3.47,3.47,0,0,1-2.29-.86c-.37-.33-37.73-32.44-128.41-59.81-83.45-25.2-230.33-51.39-456.61-33.42-8.7,31.4-31.76,59.85-32.76,61.07a3.5,3.5,0,0,1-4.85.54c-12.71-10-4.49-42.18-1.19-53.24-15.31-5.71-34.53-22.92-40.47-28.46a155.6,155.6,0,0,1-37.93,12.31c-19.81,3.63-29.62-9-32-16.11a3.48,3.48,0,0,1,2-4.34l20.6-8.26c-9.65-5.28-14.56-16.18-14.83-16.79a3.49,3.49,0,0,1,.1-3,3.44,3.44,0,0,1,2.41-1.8c16.9-3.36,35.91-2.62,48.13-1.54a37.27,37.27,0,0,1-6.34-16.08,3.51,3.51,0,0,1,1-2.88,3.57,3.57,0,0,1,2.89-1c27.06,3.49,68.44,32,87,45.66,48.5-32.26,276.94-171.42,533.44-117.91a3.47,3.47,0,0,1,2.67,2.54L1293,556a3.46,3.46,0,0,1-1.55,3.82A3.42,3.42,0,0,1,1289.58,560.31Zm-443.26-107c147.84,0,250.48,20.23,315.24,39.85,68.82,20.85,106.81,44,122.18,54.81l-57.88-227.22C969.15,268.27,741,410.36,697.8,439.45a3.47,3.47,0,0,1-4-.09c-12.44-9.28-53.23-38.53-80.64-44.89,1.48,4.71,4.75,11.5,11.57,13.75a3.48,3.48,0,0,1-1.64,6.74c-.31,0-28.81-4.53-53.65-.83,3,4.61,9,11.41,17.19,11.45h0a3.47,3.47,0,0,1,1.29,6.7L561.11,443c2.62,4.18,9.13,11,22.72,8.56A148.67,148.67,0,0,0,622,438.86a3.47,3.47,0,0,1,4,.57c.26.25,26.2,25.26,42.65,29.54a3.48,3.48,0,0,1,2.43,4.46c-4.56,13.8-9.12,36.68-4.39,46.08,6.48-8.66,23.2-32.67,29.43-57.41a3.48,3.48,0,0,1,3.1-2.62C752.56,455.19,801.52,453.33,846.32,453.33Z"/><path class="cls-2" d="M1214.45,307.14l65.12,266.37L1151.13,962.18l529.95,26.5-.74-305.16,148-198.42s-178.71-36.43-288.59-89.35C1420.55,338.31,1373.2,321,1214.45,307.14Z"/><path class="cls-1" d="M1701.35,314.54,1684,277.31c3.9-4.46,7.69-15.57-3.13-20.13s-39.49-40.49-39.49-40.49c-32.4-26.88-32.7,18.79-52.3,25.92-13.56,4.93-19.71,14.75-11.32,32.15s-3.22,9.94-14.41,6.46-17.5,1.78-9,17.46c4.39,8.14,12.5,13.79,19.29,17.36l-81.55,60.28c14,46.11,100.14,43.27,100.14,43.27l48.55-68.5c23-1.64,55.15-20,60-27.45A9.4,9.4,0,0,0,1701.35,314.54Z"/><path class="cls-2" d="M1588.77,423.12c-16.9,0-86.88-2.64-100-45.79a3.45,3.45,0,0,1,1.26-3.8l77.27-57.13c-7.36-4.61-12.74-10-16-16.07-4.94-9.14-5.68-15.92-2.2-20.16,1.72-2.09,6-5.16,15.32-2.27,2.08.65,4.18,1.43,6.16,2.17a61.65,61.65,0,0,0,6.42,2.13,32.19,32.19,0,0,0-2.35-5.92c-4.4-9.15-5.31-17-2.7-23.46,2.43-6,7.8-10.5,16-13.48,5.89-2.14,10.14-9.18,14.25-16,5-8.27,10.14-16.81,19-18.32,6.48-1.1,13.82,1.84,22.41,9a3,3,0,0,1,.5.51c11.3,14.16,30.78,36.35,38.12,39.45,6,2.55,8.15,6.74,8.86,9.81,1.14,5-.56,10.24-3,14l16.46,35.32a12.83,12.83,0,0,1-.85,12.47c-5.23,8.08-37,26.45-61,28.89l-47.62,67.19a3.49,3.49,0,0,1-2.73,1.46C1592,423.08,1590.71,423.12,1588.77,423.12Zm-92.59-45.51c14.07,37.35,82.5,38.56,94.21,38.53l47.53-67.06a3.46,3.46,0,0,1,2.59-1.46c22.29-1.59,53.16-19.47,57.3-25.87a5.92,5.92,0,0,0,.39-5.75l-17.35-37.22a3.47,3.47,0,0,1,.53-3.77c2-2.25,3.67-6.41,2.92-9.67-.5-2.19-2.07-3.81-4.78-5-11.07-4.67-36.73-36.36-40.63-41.24-6.72-5.52-12.3-8-16.54-7.24-5.76,1-9.89,7.81-14.26,15-4.73,7.84-9.62,16-17.82,18.93-6.25,2.27-10.25,5.49-11.91,9.56-1.84,4.52-1,10.51,2.53,17.81,3.06,6.35,4.53,11.2,1.76,14.25-3.06,3.36-8.12,1.47-14.52-.91-1.87-.7-3.85-1.44-5.81-2-4.61-1.44-7.12-.88-7.88,0-1,1.28-.91,5.3,3,12.43,4.08,7.56,12,12.84,17.85,15.94a3.47,3.47,0,0,1,.45,5.87Z"/><path class="cls-2" d="M1640,354.58c-26.49,0-34.2-20.86-34.28-21.07a3.48,3.48,0,0,1,6.55-2.34c.28.74,6.33,16.45,27.73,16.45h.76a3.48,3.48,0,0,1,.06,7Z"/><polygon class="cls-1" points="3310.22 2573.62 3304.64 2676.59 3235.79 2688.2 3229.66 2566.75 3310.22 2573.62"/><path class="cls-2" d="M3235.79,2691.68a3.49,3.49,0,0,1-3.48-3.3l-6.12-121.46a3.48,3.48,0,0,1,3.77-3.64l80.56,6.87a3.47,3.47,0,0,1,3.17,3.65l-5.58,103a3.48,3.48,0,0,1-2.89,3.24l-68.85,11.61A3.79,3.79,0,0,1,3235.79,2691.68Zm-2.45-121.13,5.73,113.57,62.25-10.5,5.25-96.82Z"/><path class="cls-1" d="M3233.87,2867.06a484.3,484.3,0,0,0,131.75-6.7,31,31,0,0,0,24-39.34c-14.74-49.11-40.57-142.37-79-184.26l-7.79,24.17-13.54-21.7a11,11,0,0,0-8.5-5.15l-27.36-2.08a11,11,0,0,0-11.71,9.26l-3.29,20.79-10.84-26.53-21.71,198.2A30.91,30.91,0,0,0,3233.87,2867.06Z"/><path class="cls-2" d="M3275,2872.34c-16,0-30-.79-41.46-1.81a34.49,34.49,0,0,1-31.14-37.09l21.72-198.3a3.48,3.48,0,0,1,6.68-.94l6.13,15,1.35-8.5a14.52,14.52,0,0,1,15.4-12.18l27.36,2.08a14.58,14.58,0,0,1,11.2,6.77l9.57,15.35,5.49-17a3.49,3.49,0,0,1,5.88-1.29c36.32,39.64,61.52,124.4,76.57,175l3.16,10.57a34.49,34.49,0,0,1-26.66,43.76A490.39,490.39,0,0,1,3275,2872.34Zm-45.46-222.82-20.21,184.58a27.5,27.5,0,0,0,24.83,29.5,479.35,479.35,0,0,0,130.79-6.66,27.52,27.52,0,0,0,21.29-34.92l-3.16-10.59c-14.31-48.16-37.91-127.52-71-167.73l-5.9,18.29a3.48,3.48,0,0,1-6.26.78l-13.54-21.7a7.56,7.56,0,0,0-5.81-3.52l-27.37-2.08a7.52,7.52,0,0,0-8,6.33l-3.29,20.79a3.49,3.49,0,0,1-3,2.91,3.43,3.43,0,0,1-3.62-2.14Z"/><path class="cls-2" d="M3296.85,2838.29c-39.34,0-69.15-6.76-69.62-6.86a3.48,3.48,0,0,1,1.57-6.78c.73.17,72.91,16.49,140.09-2.43a3.48,3.48,0,1,1,1.89,6.7C3345.52,2836,3319.59,2838.29,3296.85,2838.29Z"/><path class="cls-2" d="M3260.33,2762.15a3.48,3.48,0,0,1-.06-7l65-1.13a3.6,3.6,0,0,1,3.54,3.41,3.46,3.46,0,0,1-3.41,3.54l-65,1.13Z"/><polygon class="cls-1" points="2983.08 2535.44 2980.24 2685.44 2896.91 2689.64 2885.49 2540.36 2983.08 2535.44"/><path class="cls-2" d="M2896.9,2693.12a3.48,3.48,0,0,1-3.46-3.22L2882,2540.62a3.48,3.48,0,0,1,.86-2.56,3.52,3.52,0,0,1,2.44-1.18l97.59-4.92a3.35,3.35,0,0,1,2.6,1,3.47,3.47,0,0,1,1,2.56l-2.84,150a3.48,3.48,0,0,1-3.3,3.41l-83.34,4.2Zm-7.67-149.47L2900.12,2686l76.7-3.87,2.71-143Z"/><path class="cls-2" d="M3006.27,2768.72a30.12,30.12,0,0,1-21.73,30.93c-47.35,13.57-154,43.84-184.57,50-39.66,8-89.38-1.8-111.67-24.1S2731.58,2744,2763,2722c46.7-32.59,90-94.54,109.3-98.2s58.38,50.86,58.38,50.86l58-27.88S3001.59,2697.06,3006.27,2768.72Z"/><path class="cls-2" d="M2771.17,2855.86c-33.93,0-68-10.52-85.33-27.88-4.19-4.19-6-9.62-5.44-16.12,2.59-29.33,55.44-75.11,80.62-92.69,23-16.05,44.91-39.05,64.25-59.34,19.9-20.88,35.62-37.38,46.39-39.42,19.08-3.66,51.6,38.33,60.13,49.88l55.4-26.63a3.57,3.57,0,0,1,3,0,3.52,3.52,0,0,1,1.9,2.29c.13.51,13,51.4,17.67,122.56a33.76,33.76,0,0,1-24.24,34.5c-45.3,13-154,43.85-184.84,50A150.14,150.14,0,0,1,2771.17,2855.86Zm103.18-228.75a7.92,7.92,0,0,0-1.4.13c-8.57,1.63-25.12,19-42.65,37.39-19.56,20.53-41.72,43.79-65.3,60.25-26,18.13-75.45,62.45-77.67,87.59-.39,4.42.73,7.89,3.43,10.59,21,21,68.65,31.17,108.52,23.15,30.6-6.14,139.08-36.95,184.31-49.9A26.8,26.8,0,0,0,3002.8,2769c-3.85-58.95-13.38-103.74-16.48-117.15l-54.12,26a3.49,3.49,0,0,1-4.34-1.11C2913.76,2657.06,2887.38,2627.11,2874.35,2627.11Z"/><path class="cls-2" d="M2767.78,2828.52c-25.63,0-48.12-4.92-63.65-17.58a3.48,3.48,0,0,1,4.39-5.4c65.17,53.14,272.16-42.9,274.24-43.88a3.48,3.48,0,0,1,3,6.3C2979,2771.1,2855.23,2828.52,2767.78,2828.52Z"/><path class="cls-2" d="M2866.39,2733a3.43,3.43,0,0,1-2.19-.79l-44.32-36.09a3.48,3.48,0,1,1,4.4-5.4l44.31,36.1a3.48,3.48,0,0,1-2.2,6.18Z"/><path class="cls-2" d="M3282,1543.45s49.38,466,71,626.6-10.39,422.19-10.39,422.19l-129-.28s-24.71-314.82-38.68-401.88c0,0-60.32-115.95-81.76-221s-84.74-269.46-84.74-269.46-2.46,836.75-3.45,902.53c0,0-100.64,9.57-138-11.36,0,0-79.42-301.05-78.57-467.07s-30-576.84-30-576.84Z"/><path class="cls-1" d="M3198.63,2192.34a3.48,3.48,0,0,1-.17-7l39.32-2a3.48,3.48,0,0,1,.35,6.95l-39.32,2Z"/><path class="cls-1" d="M2930.78,2449.16a3.48,3.48,0,0,1-3.47-3.24c-5.16-75-98.61-211.69-99.55-213.06a3.48,3.48,0,1,1,5.73-3.94c3.89,5.66,95.47,139.59,100.76,216.52a3.48,3.48,0,0,1-3.23,3.71Z"/><path class="cls-1" d="M2457.78,764.13l38.77,254.48,138.67,14.28s95.07,123.94,101.74,576.77c0,0,372.24-64.69,573.25-55.8-5.18-94.32,10-659.36-153.74-841.64-52.48-58.42-95.76-75.24-109-79.94-106.3-37.77-225.86,13.33-321.23,54.09-54.9,23.47-100.54,49.69-183.21,66.39A646.11,646.11,0,0,1,2457.78,764.13Z"/><path class="cls-2" d="M2737,1613.14a3.48,3.48,0,0,1-3.48-3.43c-6.24-423.86-90.82-559.78-100.19-573.53l-137.09-14.11a3.48,3.48,0,0,1-3.09-2.94l-38.76-254.48a3.43,3.43,0,0,1,.73-2.7,3.48,3.48,0,0,1,2.48-1.3,642,642,0,0,0,84.81-11.3c65-13.13,107.62-32.48,148.83-51.18,10.91-5,22.19-10.07,33.71-15,96.31-41.16,216.16-92.39,323.76-54.16,36.24,12.87,74.42,40.84,110.39,80.89,143.13,159.34,150.44,613.46,153.19,784.42.42,26.28.76,47,1.43,59.34a3.48,3.48,0,0,1-1,2.64,3.39,3.39,0,0,1-2.63,1c-198.38-8.78-568.78,55.12-572.5,55.76A3,3,0,0,1,2737,1613.14Zm-237.37-597.72,136,14a3.48,3.48,0,0,1,2.4,1.35c3.9,5.08,95.29,129.3,102.4,574.78,40.58-6.87,377.49-62.69,566.17-55.33-.56-12.67-.87-32-1.25-55.79-2.74-170.25-10-622.48-151.42-779.89-44.47-49.5-83-70.27-107.54-79-105-37.31-223.5,13.32-318.7,54-11.44,4.89-22.68,10-33.56,14.93-41.57,18.87-84.55,38.38-150.33,51.67a650.9,650.9,0,0,1-82,11.17Z"/><path class="cls-2" d="M2904.25,977.25a3.43,3.43,0,0,1-2-.63L2878,959.68a3.52,3.52,0,0,1-1.44-2.27,3.45,3.45,0,0,1,.6-2.61c37.27-52,55.34-111.46,66.91-157.41a3.48,3.48,0,0,1,6.74,1.7c-11.51,45.7-29.38,104.6-66,156.88l21.4,14.95a3.48,3.48,0,0,1-2,6.33Z"/><path class="cls-2" d="M3132.4,1113.13a3.55,3.55,0,0,1-1.42-.3l-23.57-10.58a3.48,3.48,0,1,1,2.85-6.34l21.11,9.47c53.1-67.36,52-169.39,52-170.42a3.48,3.48,0,0,1,3.42-3.54h0a3.48,3.48,0,0,1,3.48,3.42c0,1.07,1.16,107.69-55.25,177A3.49,3.49,0,0,1,3132.4,1113.13Z"/><path class="cls-1" d="M2866.49,608.76l-98.25-85.44s11.65,6.54,19.93,1.95c12-6.67-7.08-57.71-20.13-57.55s-14.84,10.57-14.84,10.57L2690,445.21l-92.38,73.64c12.8,38.43,39.34,45.82,48,60.94,10.51,18.41,8.95,30.56,14.33,52.67l15.69-1.23c39.46,33.23,45.25,26.55,58.41,24.86,6-.91,14.19-3.37,23.27-10.22l11.5,15.26-46.93,34.69s99,30.34,285.89-68.15Z"/><path class="cls-2" d="M2765,703.9c-27.74,0-42.54-4.28-44.07-4.75a3.48,3.48,0,0,1-1.05-6.13l44.11-32.6-7.34-9.75a53.83,53.83,0,0,1-22,8.86c-1.6.21-3,.48-4.41.74-11.06,2.07-20.62,3.85-55.67-25.46l-14.27,1.11a3.5,3.5,0,0,1-3.65-2.64c-1.78-7.29-2.82-13.59-3.74-19.16-1.92-11.56-3.43-20.7-10.23-32.6-2.7-4.72-7.66-8.87-13.41-13.68-11.67-9.76-26.19-21.9-34.85-47.88a3.5,3.5,0,0,1,1.13-3.83l92.39-73.65a3.51,3.51,0,0,1,3.78-.36l59.69,31.27c2.35-4.32,7.4-9,16.66-9.15h.1c11.31,0,21.44,22.32,25.17,36.44,2.23,8.38,4.73,23.12-3.42,27.64a17.28,17.28,0,0,1-8.21,2L2868,605.45l140.28,18.78a3.47,3.47,0,0,1,1.15,6.52C2893.17,692,2811.14,703.9,2765,703.9ZM2730.16,694c25.37,4.4,116.8,12,266.26-64.38L2866,612.2a3.48,3.48,0,0,1-1.82-.82L2766,526a3.48,3.48,0,0,1,4-5.66c2.78,1.54,11.18,4.92,16.54,1.94,2.3-1.27,3.06-8.47.07-19.77-4.47-16.87-13.86-31.26-18.45-31.26h0c-10,.11-11.39,7.37-11.45,7.68a3.48,3.48,0,0,1-5,2.5l-61.16-32L2601.74,520c8.12,22.56,21.28,33.57,31.93,42.47,6.25,5.23,11.66,9.75,15,15.56,7.42,13,9.1,23.15,11,34.91.81,4.92,1.65,10,3,15.77l12.72-1a3.54,3.54,0,0,1,2.51.81c33.42,28.15,41.17,26.7,51,24.86,1.51-.29,3.06-.57,4.72-.79a48,48,0,0,0,21.63-9.55,3.5,3.5,0,0,1,2.58-.66,3.46,3.46,0,0,1,2.29,1.35l11.5,15.25a3.49,3.49,0,0,1-.71,4.89Z"/><path class="cls-2" d="M2757.34,649.35a3.48,3.48,0,0,1-2.13-6.23c4.49-3.48,15.23-14.68,19.48-20.32a3.48,3.48,0,0,1,5.56,4.19c-4.29,5.69-15.35,17.43-20.79,21.63A3.45,3.45,0,0,1,2757.34,649.35Z"/><path class="cls-2" d="M2753.2,478.29s-9.79,4.08-11.46,12.71c-.31,1.6-.4,3.68.75,7.91,3.78,13.92,11.77,17.08,10.88,23.43-.78,5.5-7.83,10.66-14.08,10.74-8.44.11-12.1-9.08-23.23-18.73-7.89-6.83-20.71-14.92-30.82-16.17-27.59-3.39-37.06,43.93-71.5,50-30.27,5.36-66.82-23.42-65.36-42.64,1-13.69,20.67-13.56,47.93-40.55,23.85-23.6,19-33.74,38.36-51.47,2.43-2.22,49.54-44.2,88.06-24.43C2748.59,402.41,2762.61,439.44,2753.2,478.29Z"/><path class="cls-3" d="M991.74,908.92C1097.6,794.49,1242.67,731.67,1400.26,732c117.79.26,225.59,37.77,320.41,111.48,47.85,37.2,91.18,82.68,129.36,135.74,38.37-52.87,81.9-98.18,129.91-135.17C2075,770.78,2183,733.74,2300.78,734c157.59.35,302.42,63.82,407.83,178.71,104.14,113.55,161.32,268.49,161,436.3-.35,172.71-65,330.66-203.39,497.1C2542.38,1995,2364.55,2146,2158.61,2320.89c-70.31,59.72-150,127.42-232.79,199.53a119.72,119.72,0,0,1-157.74-.32c-82.48-72.49-162-140.57-232.07-200.63-205.2-175.75-382.43-327.54-505.65-477-137.74-167-201.73-325.27-201.38-498C829.32,1176.69,887.12,1022,991.74,908.92Z"/><path class="cls-2" d="M1847.14,2553.39h-.28a123.13,123.13,0,0,1-81.08-30.67c-81.7-71.82-160.54-139.36-230.1-198.95l-1.93-1.66c-205.38-175.9-382.68-327.76-506.07-477.42C889.4,1677,825.15,1518.06,825.5,1344.47c.34-168.66,58.47-324.18,163.69-437.91,106.23-114.83,251.72-178,409.76-178h1.32c118.57.26,227.09,38,322.54,112.2,46.81,36.4,89.6,81,127.23,132.58,37.84-51.43,80.81-95.83,127.78-132,95.39-73.51,203.64-110.78,321.72-110.78h1.25c158.57.35,304.31,64.21,410.38,179.83,104.75,114.21,162.25,270,161.91,438.65-.35,173.57-65.24,332.23-204.2,499.33-124.05,149.15-302,300.25-508,475.2-70.29,59.69-149.95,127.35-232.77,199.5A123,123,0,0,1,1847.14,2553.39ZM994.29,911.28c-104,112.45-161.5,266.3-161.83,433.21-.34,171.88,63.39,329.42,200.58,495.78,123,149.19,300.1,300.87,505.15,476.49l2,1.73c69.57,59.6,148.43,127.16,230.16,199a116.15,116.15,0,0,0,76.51,28.94h.26a116.11,116.11,0,0,0,76.39-28.63c82.86-72.19,162.54-139.86,232.83-199.56,205.79-174.75,383.51-325.66,507.17-474.35,137.87-165.78,202.24-323,202.59-494.89.33-166.91-56.52-321-160.08-433.94C2601.3,800.9,2457.38,737.83,2300.78,737.48h-1.24c-116.52,0-223.33,36.78-317.48,109.34-47.61,36.68-91.09,81.92-129.22,134.45a3.45,3.45,0,0,1-2.81,1.44h0a3.45,3.45,0,0,1-2.81-1.45c-37.92-52.7-81.21-98.13-128.67-135-94.2-73.22-201.29-110.48-318.29-110.74H1399C1242.86,735.49,1099.2,797.89,994.29,911.28Z"/><path class="cls-2" d="M415,2394.16c-44.94,1.27-50-82.48-132.83-104.36-85.28-22.51-133.3,52.11-200,23.63C23.52,2288.4-9.58,2200.8,7,2137.78c13.41-51.12,48.31-46,85.68-104,68.91-106.9-4-196.54,65.23-277.75,42.5-49.84,76.52-23.78,116.24-78.1,45.84-62.7,10.12-110.77,62.11-185.9,12.06-17.42,45.95-66.39,100-70.39,26.34-2,65.78,6,77.7,31.7C530,1488.13,487.33,1522.62,471,1573c-29.6,91.1,47.75,173.19,85,252C665.45,2057,504,2391.67,415,2394.16Z"/><polygon class="cls-2" points="853.04 2872.5 805.25 2176.32 494.99 2254.91 269.63 2872.5 853.04 2872.5"/><path class="cls-1" d="M795.55,2868.24a3.47,3.47,0,0,1-3.46-3.27l-28.85-476.82a3.47,3.47,0,0,1,3.26-3.68,3.55,3.55,0,0,1,3.68,3.26L799,2864.55a3.48,3.48,0,0,1-3.26,3.69Z"/><path class="cls-1" d="M763.76,2342.73a3.47,3.47,0,0,1-3.47-3.27l-3.12-51.64a3.48,3.48,0,0,1,3.26-3.69,3.53,3.53,0,0,1,3.68,3.26l3.13,51.65a3.48,3.48,0,0,1-3.27,3.68Z"/><path class="cls-2" d="M727.69,2868.24a3.48,3.48,0,0,1-3.48-3.42l-.77-44.18a3.48,3.48,0,0,1,3.42-3.54h.06a3.48,3.48,0,0,1,3.48,3.42l.77,44.18a3.48,3.48,0,0,1-3.42,3.54Z"/><path class="cls-1" d="M726.37,2792.58a3.47,3.47,0,0,1-3.47-3.42l-8.39-482.76a3.48,3.48,0,0,1,3.42-3.54H718a3.47,3.47,0,0,1,3.48,3.41L729.85,2789a3.47,3.47,0,0,1-3.41,3.54Z"/><path class="cls-1" d="M543.47,2868.24a3,3,0,0,1-.42,0,3.48,3.48,0,0,1-3-3.88l67.06-550.66a3.44,3.44,0,0,1,3.87-3,3.48,3.48,0,0,1,3,3.87l-67.07,550.67A3.47,3.47,0,0,1,543.47,2868.24Z"/><path class="cls-1" d="M462.17,2817.11a3.68,3.68,0,0,1-.66-.06,3.48,3.48,0,0,1-2.76-4.07l52.41-273.39a3.48,3.48,0,1,1,6.83,1.31l-52.41,273.39A3.47,3.47,0,0,1,462.17,2817.11Z"/><path class="cls-1" d="M457.63,1660.46a73.3,73.3,0,0,0,49.05,5.62Z"/><path class="cls-2" d="M490.11,1671.5a75,75,0,0,1-34.19-8,3.48,3.48,0,0,1,3.4-6.07,70.59,70.59,0,0,0,46.56,5.28,3.48,3.48,0,0,1,1.61,6.77A75.5,75.5,0,0,1,490.11,1671.5Z"/><path class="cls-1" d="M1030.8,1448.64l-68,13.19c11.47,24.07,67.25,145.8,15.6,208.2a60,60,0,0,1-7.44,7.63c-48.08,40.74-108.77,39-177.17,39.31-41.53.17-107.9.45-175.62,10.63-13.66,2.05-80.47,12.49-161.94,43.34-56.82,21.51-135.9,51.46-196.59,106.39-107.1,96.92-174,287.37-106.24,457.67,50.16,126,155.58,188.83,198,210.93l58.5-65.21c-22.71-18.6-90.68-79.16-113.06-183-30.77-142.83,49.57-252.34,62.12-268.87q24.6,107.16,49.21,214.33c9.75,42.47,56.58,65.55,95.6,46.21,11.72-5.8,21.69-7.58,27.46-11,54-32.45,145.46-65,224.9-70.91,42.32-3.15,59.31,2.88,71.75-11.64,17.05-19.92,3.61-52.86-11.64-114.49a1219,1219,0,0,1-26.3-143.11c0-1,0-2,0-3,0-1.23,0-2.68-.07-4.34,60.2,8.59,188.74,13.21,270.4-82.43C1148.33,1745.2,1143,1570.59,1030.8,1448.64Z"/><path class="cls-2" d="M351.33,2549.41a3.54,3.54,0,0,1-1.61-.39c-54.15-28.24-152.08-93.43-199.59-212.74-32-80.31-36.33-169.71-12.6-258.53,21.2-79.33,64.84-153.32,119.73-203,61.19-55.38,140.09-85.25,197.7-107.07,75.37-28.53,138.85-39.94,162.65-43.52,67.93-10.22,135.62-10.5,176.06-10.67l9.11,0c64.88-.18,120.91-.34,165.89-38.46a55.28,55.28,0,0,0,7-7.19c47.89-57.88-.19-171.15-16.07-204.48a3.49,3.49,0,0,1,0-3.07,3.44,3.44,0,0,1,2.44-1.84l68-13.19a3.44,3.44,0,0,1,3.22,1.06c109,118.45,122,296.08,29.47,404.4-79.61,93.25-201.34,93.26-269.49,84.19v.3c0,.94,0,1.88,0,2.8a1223.2,1223.2,0,0,0,26.2,142.48c2.67,10.8,5.34,20.92,7.69,29.84,11.51,43.62,18.45,69.95,3.21,87.75-9.71,11.34-22,11.47-42.37,11.7-8.51.09-19.09.21-31.76,1.15-83.34,6.21-174.21,40.86-223.36,70.42-3.08,1.84-7,3.19-11.53,4.74a128.07,128.07,0,0,0-16.18,6.45,69.77,69.77,0,0,1-61.19.4A71.6,71.6,0,0,1,404.7,2244l-47.5-207c-25.26,35.29-84.09,134.37-57,260C320.53,2391.47,379,2451,412,2478a3.48,3.48,0,0,1,.38,5l-58.5,65.22A3.5,3.5,0,0,1,351.33,2549.41Zm616.48-1085c21.5,46.24,60.93,150.22,13.24,207.85a63,63,0,0,1-7.89,8.06c-46.91,39.76-104.12,39.92-170.36,40.11l-9,0c-40.31.17-107.68.45-175.12,10.59-23.57,3.54-86.47,14.85-161.21,43.15-57.1,21.62-135.29,51.22-195.5,105.71C160,1972.15,88.45,2162.55,156.59,2333.71c46,115.49,140.22,179.44,194,207.89l54.28-60.51c-34.15-28.63-91.22-88.7-111.46-182.63-29.45-136.68,40.59-242.53,62.75-271.72a3.48,3.48,0,0,1,6.16,1.33l49.21,214.33A64.71,64.71,0,0,0,447,2286.63a62.86,62.86,0,0,0,55.12-.35,135.22,135.22,0,0,1,17-6.8c4.16-1.43,7.75-2.66,10.19-4.13,49.84-30,142-65.09,226.43-71.39,12.89-1,23.6-1.08,32.2-1.17,19.65-.22,29.51-.32,37.17-9.26,12.87-15,6.27-40-4.65-81.45-2.36-8.95-5-19.1-7.72-29.94a1228.25,1228.25,0,0,1-26.38-143.53,3.25,3.25,0,0,1,0-.44c0-1,0-2,0-2.94,0-1.21,0-2.64-.07-4.27a3.48,3.48,0,0,1,4-3.53c65.88,9.4,188.2,11.33,267.25-81.26,89.87-105.25,77.48-277.84-28-393.74Z"/><path class="cls-1" d="M362.77,2538.33l59,23s36.5,11.1,58.83-18.34S562,2502.33,562,2502.33s-40.24-30.5-56.24-35.36-73.86,31.59-73.86,31.59l-26.49-12.93Z"/><path class="cls-2" d="M437.77,2566.77a66.66,66.66,0,0,1-17.06-2.1l-59.2-23.1a3.48,3.48,0,0,1-1.44-5.43l42.66-52.7a3.5,3.5,0,0,1,4.23-.94l24.75,12.09c10.9-6.76,59.12-35.76,75.09-31,16.4,5,55.66,34.65,57.32,35.92a3.47,3.47,0,0,1-1.45,6.18c-.58.11-58.1,11.32-79.35,39.35C469.77,2563,451.17,2566.77,437.77,2566.77Zm-69.3-29.95L423,2558.1c1.14.33,34.23,9.89,54.79-17.22,18.26-24.08,59.07-36.16,76-40.3-11.77-8.59-37.46-26.76-49.05-30.28-10.53-3.24-49.14,17.43-71,31.2a3.45,3.45,0,0,1-3.38.18l-24-11.71Z"/><path class="cls-1" d="M970,1460.29l-21.67-39.93c-12.89-23.75-1.82-54.11,23.84-62.54.89-.29,1.79-.56,2.72-.81,33.45-9,64.08-56.47,64.08-56.47s12.25,45.75,10.83,61.38S996.32,1415,996.32,1415l26.64,36.19Z"/><path class="cls-2" d="M970,1463.76a3.46,3.46,0,0,1-3-1.81L945.3,1422a48,48,0,0,1-2.41-40.73,45.81,45.81,0,0,1,28.23-26.78c1-.31,1.91-.59,2.91-.86,31.74-8.55,61.74-54.53,62-55a3.42,3.42,0,0,1,3.47-1.55,3.47,3.47,0,0,1,2.82,2.53c.5,1.89,12.4,46.54,10.93,62.59-1.37,15-40.31,44.81-52.1,53.5l24.57,33.38a3.47,3.47,0,0,1-2.21,5.49l-52.93,9.11A2.88,2.88,0,0,1,970,1463.76Zm67.49-155c-9.8,13.52-34.53,44.26-61.69,51.58-.88.23-1.72.49-2.54.75a38.84,38.84,0,0,0-23.93,22.74,41,41,0,0,0,2.06,34.84l20.48,37.73,44.92-7.73L993.52,1417a3.47,3.47,0,0,1,.77-4.89c19.64-14.11,51.14-40.32,52.07-50.55C1047.38,1350.43,1040.86,1322.24,1037.52,1308.79Z"/><path class="cls-1" d="M539.8,1744.73c-38.53-38.44-31.12-79-31.12-79a109.16,109.16,0,0,0,32.84-8.89,12.39,12.39,0,0,0,6.56-15.12c-5.56-17-11.32-45.06-14.34-51,3.44-7,13.21-8.87,10.32-21.08-22.5-6.83-35.61-44-49.34-56.22-6.74-6-11.45-7.67-19.71-13.92-43.1,1.4,14.8,58.88-46,78.22,2.11,3.84,1.06,11.7-.52,18.59a87.81,87.81,0,0,1-3.69,12.83c-7.57-13.83-18.89-20-25.38-17.22s-7.77,14.84-6.49,22.31c3.48,20.31,28.56,28.72,30.48,29.33,0,0,6.19,97-5.14,136.12-47.73,20.19-74.05,38.91-74.05,38.91,248.53,31.8,295.33-87.75,295.33-87.75C609.4,1732.13,565.91,1740.23,539.8,1744.73Z"/><path class="cls-2" d="M422.92,1827.43a625.26,625.26,0,0,1-79.18-5.34,3.48,3.48,0,0,1-1.57-6.29c1.07-.77,26.61-18.76,73.16-38.62,9.51-35.69,5.52-116.43,4.71-131.06-7.19-2.73-27.27-12-30.58-31.26-1.39-8.08-.29-22.32,8.56-26.09,7.6-3.23,17.87,2,25.68,12.35.5-1.85.95-3.75,1.36-5.54,2.66-11.59,1.33-15.28.86-16.14a3.48,3.48,0,0,1,2-5c30.56-9.71,28.65-28.58,26.81-46.83-1-9.88-1.93-19.2,3.46-25.36,3.42-3.91,8.88-5.93,16.71-6.18a3.12,3.12,0,0,1,2.21.7c3.47,2.63,6.27,4.4,9,6.12a77.21,77.21,0,0,1,11,8c5.37,4.78,10.48,12.84,15.89,21.38,8.94,14.13,19.09,30.15,32.14,34.11a3.48,3.48,0,0,1,2.38,2.53c2.38,10.08-2.52,14.76-6.46,18.52a26.57,26.57,0,0,0-3.35,3.61c1.53,4,3.39,11.19,6.08,21.76,2.37,9.34,5.06,19.94,7.67,27.91a15.85,15.85,0,0,1-8.43,19.37,111.71,111.71,0,0,1-31.14,8.82c-.74,9-.9,41.23,29.18,72.11l7.45-1.3c27-4.71,63.91-11.17,90.91-12.28a3.36,3.36,0,0,1,3,1.46,3.51,3.51,0,0,1,.41,3.29c-.5,1.26-12.63,31.28-55.9,57.51C556.24,1808.21,504.76,1827.43,422.92,1827.43Zm-68.84-11.1c205.77,23.62,267.26-59.86,279.62-81.65-25.88,1.7-59.22,7.53-84.05,11.87l-9.25,1.61a3.48,3.48,0,0,1-3-1c-39.37-39.27-32.41-80.31-32.1-82a3.49,3.49,0,0,1,3-2.83,106.39,106.39,0,0,0,31.8-8.59,8.88,8.88,0,0,0,4.7-10.88c-2.67-8.2-5.39-18.91-7.79-28.36s-4.93-19.37-6.34-22.14a3.51,3.51,0,0,1,0-3.11,24.56,24.56,0,0,1,5.57-6.86c3.21-3.06,5.45-5.2,4.83-10.06-14.46-5.53-24.8-21.86-34-36.34-5.14-8.12-10-15.79-14.64-19.91a70,70,0,0,0-10.05-7.3c-2.44-1.55-5.18-3.28-8.43-5.69-5.13.32-8.57,1.55-10.51,3.76-3.4,3.88-2.64,11.39-1.76,20.08,1.76,17.47,4.15,41.19-28.35,53,.72,4.08.23,9.75-1.47,17.17a92.45,92.45,0,0,1-3.85,13.35,3.48,3.48,0,0,1-3,2.17,3.52,3.52,0,0,1-3.25-1.8c-7-12.86-16.87-17.45-21-15.69s-5.68,11.19-4.42,18.52c3.17,18.47,27.09,26.28,28.11,26.6a3.49,3.49,0,0,1,2.41,3.1c.26,4,6.1,98-5.27,137.3a3.46,3.46,0,0,1-2,2.24C387.6,1796.47,365.15,1809.43,354.08,1816.33Z"/><path class="cls-1" d="M440.34,1646.18s26.38,27.83,68.34,19.6Z"/><path class="cls-2" d="M493.09,1670.8c-33.76,0-54.3-21.19-55.28-22.22a3.48,3.48,0,0,1,5.05-4.8c.25.27,25.67,26.34,65.15,18.58a3.48,3.48,0,0,1,1.34,6.83A84.35,84.35,0,0,1,493.09,1670.8Z"/><path class="cls-1" d="M2430.16,1092.19s298.45,133.93,496.37-104.2l157.35,98.65s-268.68,334.73-662.77,76.09c0,0-103.62,6.59-123-6.56s-57.59-72.56-52.08-81.54l-8.11-29.55a14.73,14.73,0,0,1,.84-10.06,13.66,13.66,0,0,1,20.85-5l75.87,59.71,7.55,0a17.79,17.79,0,0,0,17.27-21.67l-10.75-48.16a8.35,8.35,0,0,1,8.15-10.18Z"/><path class="cls-2" d="M2718.23,1264.28q-13.74,0-27.52-.85c-89.44-5.54-180.45-38.23-270.54-97.16-15.07.92-104.81,5.81-124-7.22-17.43-11.85-57.36-69-53.76-84.54L2234.6,1046a18.21,18.21,0,0,1,1-12.44,17.15,17.15,0,0,1,26.16-6.27l74.92,59,6.33,0a14.32,14.32,0,0,0,13.9-17.44l-10.75-48.15a11.81,11.81,0,0,1,11.54-14.41,3.48,3.48,0,0,1,2.61,1.18l71.92,81.91c7.7,3.31,79.6,33.19,172.23,36.61,89.82,3.37,218.1-18.32,319.37-140.15a3.48,3.48,0,0,1,4.52-.73l157.35,98.65a3.49,3.49,0,0,1,.87,5.13c-.68.84-69,84.94-184.92,136C2842.28,1251.06,2780.69,1264.28,2718.23,1264.28Zm-297.12-105a3.53,3.53,0,0,1,1.91.57c202.26,132.75,370.41,105.18,475.86,58.68,102-45,166.53-115.69,179.76-131l-151.39-94.91c-102.84,122-232.45,143.7-323.26,140.31-98.88-3.69-174.5-37.16-175.25-37.5a3.43,3.43,0,0,1-1.19-.87l-71.22-81.11a4.74,4.74,0,0,0-2.4,1.62,4.87,4.87,0,0,0-1,4.11l10.75,48.16a21.26,21.26,0,0,1-20.65,25.9l-7.55,0a4.51,4.51,0,0,1-2.16-.74l-75.87-59.7a10.17,10.17,0,0,0-15.54,3.72,11.18,11.18,0,0,0-.64,7.68l8.11,29.55a3.45,3.45,0,0,1-.4,2.73c-2.63,7.24,30.73,63,51.07,76.85,15.07,10.25,92.31,7.78,120.8,6Z"/><path class="cls-1" d="M2201.06,691.82s-83.2,15.49-97.54,33.28c-10.14,12.57-26.59,51.8-12.87,81.83,12.3,26.92,46.68,34,70.11,15.91,12.29-9.49,25-25.34,32.85-51.8,4.45-15,14.73-27.85,29.18-33.81a44.23,44.23,0,0,1,11.56-3.08,9.27,9.27,0,0,0,7.73-12.21C2238,709.93,2227.6,693.27,2201.06,691.82Z"/><path class="cls-2" d="M2131.68,836.35a50.81,50.81,0,0,1-12.15-1.48,47.56,47.56,0,0,1-32-26.5c-14-30.72,2-71.45,13.32-85.46,14.72-18.26,91-32.9,99.61-34.51a3.82,3.82,0,0,1,.83,0c29.37,1.6,40.25,21,44.13,32.47a12.76,12.76,0,0,1-10.61,16.79,40.64,40.64,0,0,0-10.66,2.84c-12.88,5.32-22.79,16.83-27.16,31.58-7,23.48-18.44,41.5-34.06,53.56A51,51,0,0,1,2131.68,836.35Zm69.6-141c-23.11,4.33-84,18.28-95.06,32-10.37,12.87-25.19,50.21-12.41,78.2a40.62,40.62,0,0,0,27.39,22.63,43.76,43.76,0,0,0,37.43-8c14.45-11.14,25.09-28,31.64-50,5-16.77,16.35-29.91,31.19-36a47.72,47.72,0,0,1,12.48-3.32,5.86,5.86,0,0,0,4.28-2.68,5.8,5.8,0,0,0,.57-5C2234.77,711.18,2225,696.77,2201.28,695.32Z"/><polygon class="cls-1" points="2663.23 2872.5 2275.17 2872.5 2275.17 2161.63 2642.12 2100.49 2663.23 2872.5"/><path class="cls-2" d="M2663.23,2876H2275.17a3.48,3.48,0,0,1-3.48-3.48V2161.63a3.48,3.48,0,0,1,2.91-3.43l367-61.14a3.54,3.54,0,0,1,2.78.75,3.45,3.45,0,0,1,1.26,2.59l21.12,772a3.48,3.48,0,0,1-1,2.52A3.44,3.44,0,0,1,2663.23,2876Zm-384.58-7h381l-20.9-764.44-360.1,60Z"/><polygon class="cls-1" points="3108.83 2872.5 2642.12 2872.5 2642.12 2100.49 3108.83 2152.69 3108.83 2872.5"/><path class="cls-2" d="M3108.83,2876H2642.12a3.48,3.48,0,0,1-3.48-3.48v-772a3.47,3.47,0,0,1,3.86-3.46l466.72,52.2a3.47,3.47,0,0,1,3.09,3.45V2872.5A3.48,3.48,0,0,1,3108.83,2876Zm-463.24-7h459.76V2155.81l-459.76-51.42Z"/><polygon class="cls-1" points="2514.24 2121.8 2399.82 2140.86 2399.82 2301.61 2514.24 2290.27 2514.24 2121.8"/><path class="cls-2" d="M2399.82,2305.09a3.49,3.49,0,0,1-3.48-3.48V2140.87a3.48,3.48,0,0,1,2.91-3.44l114.42-19.06a3.48,3.48,0,0,1,4,3.43v168.46a3.48,3.48,0,0,1-3.13,3.47l-114.42,11.34Zm3.48-161.28v154l107.47-10.65V2125.91Z"/><path class="cls-2" d="M2457,2266.52a3.47,3.47,0,0,1-3.48-3.48V2131.33a3.48,3.48,0,1,1,7,0V2263A3.47,3.47,0,0,1,2457,2266.52Z"/><polygon class="cls-1" points="2045.03 2872.5 1821.13 2872.5 1821.13 2454.03 1993.19 2403 2045.03 2872.5"/><path class="cls-2" d="M2045,2876H1821.13a3.47,3.47,0,0,1-3.47-3.48V2454a3.46,3.46,0,0,1,2.49-3.33l172-51a3.48,3.48,0,0,1,4.45,2.95l51.83,469.5A3.49,3.49,0,0,1,2045,2876Zm-220.41-7h216.53l-51-461.5-165.58,49.11Z"/><polygon class="cls-1" points="2462.68 2872.5 1993.19 2872.5 1993.19 2403 2462.68 2452.6 2462.68 2872.5"/><path class="cls-2" d="M2462.68,2876H1993.19a3.48,3.48,0,0,1-3.48-3.48V2403a3.5,3.5,0,0,1,3.85-3.46l469.49,49.6a3.47,3.47,0,0,1,3.11,3.46v419.9A3.48,3.48,0,0,1,2462.68,2876Zm-466-7h462.54V2455.73l-462.54-48.86Z"/><rect class="cls-1" x="2045.02" y="2733.05" width="230.14" height="89.09"/><path class="cls-2" d="M2275.17,2825.62H2045a3.48,3.48,0,0,1-3.48-3.48v-89.09a3.48,3.48,0,0,1,3.48-3.48h230.15a3.48,3.48,0,0,1,3.48,3.48v89.09A3.48,3.48,0,0,1,2275.17,2825.62Zm-226.67-7h223.19v-82.14H2048.5Z"/></g></svg>