<?xml version="1.0" encoding="utf-8"?>
<!-- Generator: Adobe Illustrator 26.0.0, SVG Export Plug-In . SVG Version: 6.00 Build 0)  -->
<svg version="1.1" id="Capa_1" xmlns="http://www.w3.org/2000/svg" xmlns:xlink="http://www.w3.org/1999/xlink" x="0px" y="0px"
	 viewBox="0 0 1200 1200" style="enable-background:new 0 0 1200 1200;" xml:space="preserve">
<style type="text/css">
	.st0{fill-rule:evenodd;clip-rule:evenodd;fill:#DB1C8B;}
	.st1{clip-path:url(#SVGID_00000029004243857202957050000010264056678147253637_);}
	.st2{fill:#FFFFFF;}
	.st3{fill-rule:evenodd;clip-rule:evenodd;fill:#35B3E6;}
	.st4{clip-path:url(#SVGID_00000168106642089293730970000005556843788616341429_);}
	.st5{fill:#1E1E1D;}
	.st6{fill:#35B3E6;}
	.st7{fill:#DB1C8B;}
	.st8{fill-rule:evenodd;clip-rule:evenodd;fill:#1EBAC8;}
	.st9{fill:#4BD4DB;}
	.st10{fill:#E240A4;}
	.st11{fill:#41BEE5;}
	.st12{fill:#56CDE8;}
	.st13{fill:#FFFFFF;stroke:#1E1E1D;stroke-width:4.9825;stroke-linecap:round;stroke-linejoin:round;stroke-miterlimit:10;}
	.st14{fill:#1E1E1D;stroke:#1E1E1D;stroke-width:4.9825;stroke-linecap:round;stroke-linejoin:round;stroke-miterlimit:10;}
	.st15{fill:none;stroke:#1E1E1D;stroke-width:4.9825;stroke-linecap:round;stroke-linejoin:round;stroke-miterlimit:10;}
	.st16{fill:none;stroke:#1E1E1D;stroke-width:2.4913;stroke-linecap:round;stroke-linejoin:round;stroke-miterlimit:10;}
	.st17{fill:#FFFFFF;stroke:#1E1E1D;stroke-width:1.9662;stroke-linecap:round;stroke-linejoin:round;stroke-miterlimit:10;}
	.st18{fill:#1E1E1D;stroke:#1E1E1D;stroke-width:1.9662;stroke-linecap:round;stroke-linejoin:round;stroke-miterlimit:10;}
	.st19{fill:none;stroke:#1E1E1D;stroke-width:1.9662;stroke-linecap:round;stroke-linejoin:round;stroke-miterlimit:10;}
	.st20{fill:none;stroke:#1E1E1D;stroke-width:0.9831;stroke-linecap:round;stroke-linejoin:round;stroke-miterlimit:10;}
	.st21{fill:#4B6FB5;}
</style>
<g>
	<g>
		<path class="st6" d="M1124.7,314.8L929.4,538.4L355.5,55.1c36.6-17.1,224.1-100.4,445-22.1
			C1011.1,107.5,1104.7,276.6,1124.7,314.8z"/>
		<path class="st11" d="M1148.9,357.1L659.6,931l225.5,195.3c50.3-26.7,180.1-104.1,257.7-263.8
			C1259.3,623.1,1164.3,392.9,1148.9,357.1z"/>
		<path class="st7" d="M536.7,269.2L50.9,838.4c-17.5-39.3-92.6-219.1-19.6-432.9C104.3,192,273.3,95.6,311.2,75.2
			C386.4,139.9,461.6,204.5,536.7,269.2z"/>
		<path class="st12" d="M268.4,659.2L75.5,886.7c19.2,33.9,149.1,255.2,415,304c163,30,294.6-20.1,348.3-44.3
			C648.6,984,458.5,821.6,268.4,659.2z"/>
	</g>
	<g>
		<path class="st2" d="M95,507l8.9-10.4l53.4,17.2l-9.9,11.6l-9.4-3.2l-13,15.1l4.6,8.8l-9.7,11.3L95,507z M126.9,518l-14.7-5.1
			l7.2,13.9L126.9,518z"/>
		<path class="st2" d="M138,497.1l-0.1-0.1c-11.3-9.8-12.8-26.1-2.6-37.9c6.8-7.9,14.6-10.2,22.3-9.6l-0.7,13.5
			c-4.6-0.1-8.6,0.8-11.9,4.6c-4.7,5.4-3.3,13.3,2.3,18.2l0.1,0.1c5.8,5,13.7,5.1,18.4-0.3c3.5-4.1,3.6-8,2.8-12.8l12.8-3.1
			c1.9,8.1,1.4,16.2-6,24.7C165.8,505.5,149.6,507.1,138,497.1z"/>
		<path class="st2" d="M172.1,437l-10,11.6l-9.4-8.1l29.3-34l9.4,8.1l-10,11.7l29.4,25.4l-9.3,10.8L172.1,437z"/>
		<path class="st2" d="M207.5,421l-21.8-18.8l9.4-10.9l21.6,18.6c5.6,4.8,10.7,4.3,14.4,0c3.8-4.4,3.7-9.4-1.8-14.1l-21.9-18.8
			l9.4-10.9l21.6,18.6c12.5,10.8,11.9,22.7,2.4,33.8C231.3,429.4,219.8,431.5,207.5,421z"/>
		<path class="st2" d="M232.3,347.5l8.9-10.4l53.4,17.2l-9.9,11.6l-9.4-3.2l-13,15.1l4.6,8.8l-9.7,11.3L232.3,347.5z M264.2,358.6
			l-14.7-5.1l7.2,13.9L264.2,358.6z"/>
		<path class="st2" d="M259,317l15.8-18.4c5.2-6,10.2-8.7,15.1-9.1c4.2-0.3,8.3,1.1,12,4.4l0.1,0.1c6,5.2,7.3,11.7,5.1,18.3
			l21.5,2.4l-10.7,12.4l-18.5-2.3l-4.1,4.8l11.8,10.1l-9.3,10.8L259,317z M293.1,315.2c3.1-3.6,3.2-7.3,0.4-9.7l-0.1-0.1
			c-3.1-2.7-6.6-1.7-9.7,1.8l-6.1,7.1l9.4,8.1L293.1,315.2z"/>
	</g>
	<g>
		<g>
			<path class="st2" d="M654.3,76.5l16.7,14.4c9.8,8.4,11.8,18.9,4.4,27.5l-0.1,0.1c-7.9,9.2-19.2,8-28.8-0.3l-5.4-4.6l-9.6,11.1
				l-10.8-9.3L654.3,76.5z M653.6,109.5c3.8,3.3,7.9,3.3,10.6,0.2l0.1-0.1c2.9-3.3,2-7.1-1.9-10.4l-5.1-4.4l-8.8,10.3L653.6,109.5z"
				/>
			<path class="st2" d="M691.7,108.7l10.8,9.3l-25.4,29.4l18.8,16.2l-8.1,9.4l-29.6-25.5L691.7,108.7z"/>
			<path class="st2" d="M739.7,149.5l10.4,8.9l-17.2,53.4l-11.6-9.9l3.2-9.4l-15.1-13l-8.8,4.6l-11.3-9.7L739.7,149.5z M728.7,181.4
				l5.1-14.7l-13.9,7.2L728.7,181.4z"/>
			<path class="st2" d="M770.2,176.2l10.1,8.7l-1.7,34.3l17.7-20.6l10.7,9.2l-33.5,38.9l-9.4-8.1l1.7-35.7l-18.4,21.3l-10.7-9.2
				L770.2,176.2z"/>
			<path class="st2" d="M813.8,213.8l31.3,26.9l-7.8,9.1l-20.6-17.7l-5.1,5.9l18.7,16.1l-7.3,8.5l-18.7-16.1l-5.3,6.2l20.9,18
				l-7.9,9.2l-31.6-27.2L813.8,213.8z"/>
			<path class="st2" d="M864.6,257l10.4,8.9l-17.2,53.4l-11.6-9.9l3.2-9.4l-15.1-13l-8.8,4.6l-11.3-9.7L864.6,257z M853.5,288.9
				l5.1-14.7l-13.9,7.2L853.5,288.9z"/>
			<path class="st2" d="M895,283.8l18.4,15.8c6,5.2,8.7,10.2,9.1,15.1c0.3,4.2-1.1,8.3-4.4,12l-0.1,0.1c-5.2,6-11.7,7.3-18.3,5.1
				l-2.4,21.5l-12.4-10.7l2.3-18.5l-4.8-4.1l-10.1,11.8l-10.8-9.3L895,283.8z M896.9,317.9c3.6,3.1,7.3,3.2,9.7,0.4l0.1-0.1
				c2.7-3.1,1.7-6.6-1.8-9.7l-7.1-6.1l-8.1,9.4L896.9,317.9z"/>
		</g>
	</g>
	<g>
		<g>
			<path class="st2" d="M1094.3,696.5l-9.3,10.8l-14.6-12.5l-11.9,13.8l14.6,12.5l-9.3,10.8l-38.9-33.5l9.3-10.8l14.8,12.7
				l11.9-13.8l-14.8-12.7l9.3-10.8L1094.3,696.5z"/>
			<path class="st2" d="M1046.6,752.5l-8.9,10.4l-53.4-17.2l9.9-11.6l9.4,3.2l13-15.1l-4.6-8.8l9.7-11.3L1046.6,752.5z
				 M1014.7,741.4l14.7,5.1l-7.2-13.9L1014.7,741.4z"/>
			<path class="st2" d="M1003.6,762.3l0.1,0.1c11.3,9.8,12.8,26.1,2.6,37.9c-6.8,7.9-14.6,10.2-22.3,9.6l0.7-13.5
				c4.6,0.1,8.6-0.8,11.9-4.6c4.7-5.4,3.3-13.3-2.3-18.2l-0.1-0.1c-5.8-5-13.7-5.1-18.4,0.3c-3.5,4.1-3.6,8-2.8,12.8l-12.8,3.1
				c-1.9-8.1-1.4-16.2,6-24.7C975.8,754,992,752.3,1003.6,762.3z"/>
			<path class="st2" d="M987.1,821l-26.9,31.3l-9.1-7.8l17.7-20.6l-5.9-5.1l-16.1,18.7l-8.5-7.3l16.1-18.7l-6.2-5.3l-18,20.9
				l-9.2-7.9l27.2-31.6L987.1,821z"/>
			<path class="st2" d="M955.1,858.2l-15.8,18.4c-5.2,6-10.2,8.7-15.1,9.1c-4.2,0.3-8.3-1.1-12-4.4l-0.1-0.1
				c-6-5.2-7.3-11.7-5.1-18.3l-21.5-2.4l10.7-12.4l18.5,2.3l4.1-4.8l-11.8-10.1l9.3-10.8L955.1,858.2z M921,860
				c-3.1,3.6-3.2,7.3-0.4,9.7l0.1,0.1c3.1,2.7,6.6,1.7,9.7-1.8l6.1-7.1l-9.4-8.1L921,860z"/>
		</g>
	</g>
	<g>
		<g>
			<path class="st2" d="M266.2,821.7l12,10.3l-12.4,32.2l30.1-17l11.8,10.1L258.2,883l-10-8.6L266.2,821.7z"/>
			<path class="st2" d="M311.4,860.7l31.3,26.9l-7.8,9.1L314.3,879l-5.1,5.9l18.7,16.1l-7.3,8.5l-18.7-16.1l-5.3,6.2l20.9,18
				l-7.9,9.2L278,899.6L311.4,860.7z"/>
			<path class="st2" d="M348.6,892.7l18.4,15.8c6,5.2,8.7,10.2,9.1,15.1c0.3,4.2-1.1,8.3-4.4,12l-0.1,0.1c-5.2,6-11.7,7.3-18.3,5.1
				l-2.4,21.5l-12.4-10.7l2.3-18.5l-4.8-4.1l-10.1,11.8l-10.8-9.3L348.6,892.7z M350.4,926.8c3.6,3.1,7.3,3.2,9.7,0.4l0.1-0.1
				c2.7-3.1,1.7-6.6-1.8-9.7l-7.1-6.1l-8.1,9.4L350.4,926.8z"/>
			<path class="st2" d="M388.8,927.3l10.8,9.3l-33.5,38.9l-10.8-9.3L388.8,927.3z"/>
			<path class="st2" d="M406.7,942.7l31.1,26.8l-8.1,9.4l-20.3-17.5l-5.7,6.6l18.4,15.8l-7.7,8.9L395.9,977l-12,13.9l-10.8-9.3
				L406.7,942.7z"/>
			<path class="st2" d="M443,974l10.8,9.3l-33.5,38.9l-10.8-9.3L443,974z"/>
			<path class="st2" d="M442.8,1007.8l0.1-0.1c9.8-11.3,26.1-12.8,37.9-2.6c7.9,6.8,10.2,14.6,9.6,22.3l-13.5-0.7
				c0.1-4.6-0.8-8.6-4.6-11.9c-5.4-4.7-13.3-3.3-18.2,2.3l-0.1,0.1c-5,5.8-5.1,13.7,0.3,18.4c4.1,3.5,8,3.6,12.8,2.8l3.1,12.8
				c-8.1,1.8-16.2,1.4-24.7-6C434.4,1035.7,432.8,1019.5,442.8,1007.8z"/>
			<path class="st2" d="M514.8,1035.4l10.4,8.9l-17.2,53.4l-11.6-9.9l3.2-9.4l-15.1-13l-8.8,4.6l-11.3-9.7L514.8,1035.4z
				 M503.8,1067.3l5.1-14.7l-13.9,7.2L503.8,1067.3z"/>
			<path class="st2" d="M545.3,1062.1l18.4,15.8c6,5.2,8.7,10.2,9.1,15.1c0.3,4.2-1.1,8.3-4.4,12l-0.1,0.1c-5.2,6-11.7,7.3-18.3,5.1
				l-2.4,21.5l-12.4-10.7l2.3-18.5l-4.8-4.1l-10.1,11.8l-10.8-9.3L545.3,1062.1z M547.2,1096.2c3.6,3.1,7.3,3.2,9.7,0.4l0.1-0.1
				c2.7-3.1,1.7-6.6-1.8-9.7l-7.1-6.1l-8.1,9.4L547.2,1096.2z"/>
		</g>
	</g>
</g>
</svg>
