<svg id="Capa_1" data-name="Capa 1" xmlns="http://www.w3.org/2000/svg" viewBox="0 0 3401.57 2258.57"><defs><style>.cls-1{fill:#fff;}.cls-2{fill:#1f1f1e;}</style></defs><polygon class="cls-1" points="1002.84 1026.99 1616.63 22.27 2033.13 1622.51 1653.16 1717.51 1002.84 1026.99"/><path class="cls-2" d="M1653.16,1719.44a1.92,1.92,0,0,1-1.41-.61l-650.33-690.51a1.93,1.93,0,0,1-.24-2.34L1615,21.26a1.94,1.94,0,0,1,3.53.52L2035,1622a2,2,0,0,1-.21,1.48,1.93,1.93,0,0,1-1.2.89l-380,95A1.83,1.83,0,0,1,1653.16,1719.44Zm-647.9-692.71,648.54,688.62,377-94.24L1615.9,27.18Z"/><polygon class="cls-2" points="460.81 324.82 340.41 491.46 487.23 450.89 460.81 324.82"/><path class="cls-2" d="M340.41,492a.49.49,0,0,1-.39-.77l120.4-166.64a.47.47,0,0,1,.49-.19.48.48,0,0,1,.38.37L487.71,450.8a.48.48,0,0,1-.35.56L340.54,491.93ZM460.56,326,341.62,490.63l145-40.08Z"/><polygon class="cls-2" points="1002.84 1026.99 1280.5 1202.36 1086.87 1220.63 1002.84 1026.99"/><path class="cls-2" d="M1086.87,1221.11a.48.48,0,0,1-.45-.29l-84-193.64a.49.49,0,0,1,.13-.56.47.47,0,0,1,.57,0L1280.76,1202a.47.47,0,0,1,.21.52.48.48,0,0,1-.42.37l-193.64,18.27Zm-83-192.87,83.26,191.87L1279,1202Z"/><polygon class="cls-2" points="1642.2 1129.29 1941.79 1615.21 1744.5 1670.01 1642.2 1129.29"/><path class="cls-2" d="M1744.5,1670.49a.43.43,0,0,1-.25-.07.5.5,0,0,1-.23-.32l-102.29-540.72a.49.49,0,0,1,.3-.55.5.5,0,0,1,.59.2L1942.2,1615a.48.48,0,0,1-.28.72l-197.29,54.81Zm-101.33-538.72,101.71,537.63L1941,1614.91Z"/><polygon class="cls-1" points="1697.01 1607.9 3370.32 1450.8 2073.32 2079.2 1897.95 2199.77 1697.01 1607.9"/><path class="cls-2" d="M1898,2201.71a1.81,1.81,0,0,1-.61-.1,1.94,1.94,0,0,1-1.23-1.22l-200.94-591.87a1.93,1.93,0,0,1,1.65-2.55l1673.32-157.1a1.92,1.92,0,0,1,2.05,1.4,2,2,0,0,1-1,2.27L2074.3,2080.88l-175.25,120.49A2,2,0,0,1,1898,2201.71ZM1699.63,1609.6,1899,2196.72l173.26-119.12a2,2,0,0,1,.25-.14l1287.34-623.73Z"/><polygon class="cls-1" points="1032.06 1220.63 1642.2 1129.29 1923.52 2236.3 1032.06 1220.63"/><path class="cls-2" d="M1923.52,2238.24a1.88,1.88,0,0,1-1.45-.66L1030.6,1221.9a2,2,0,0,1-.36-1.94,1.91,1.91,0,0,1,1.54-1.25l610.13-91.34a1.93,1.93,0,0,1,2.17,1.44l281.32,1107a1.94,1.94,0,0,1-1,2.19A2,2,0,0,1,1923.52,2238.24ZM1035.86,1222,1919.65,2229l-278.9-1097.5Z"/><polygon class="cls-1" points="460.81 324.82 515.57 274.28 633.5 366.94 1029.4 1091.36 646.13 1318.8 460.81 324.82"/><path class="cls-2" d="M646.13,1320.74a1.9,1.9,0,0,1-.8-.18,1.93,1.93,0,0,1-1.1-1.41l-185.32-994a1.91,1.91,0,0,1,.59-1.78l54.75-50.55a2,2,0,0,1,2.52-.1l117.92,92.66a2.09,2.09,0,0,1,.51.6l395.9,724.42a1.93,1.93,0,0,1-.71,2.6L647.12,1320.46A1.92,1.92,0,0,1,646.13,1320.74ZM462.92,325.52l184.61,990.19,379.27-225.06L632,368.22,515.67,276.83Z"/><path class="cls-2" d="M574.53,356.24a2,2,0,0,1-.48-.06L460.33,326.7a1.94,1.94,0,0,1,1-3.76L575,352.42a1.94,1.94,0,0,1-.49,3.82Z"/><polygon class="cls-1" points="1002.84 1026.99 71.18 1739.42 1923.52 2236.3 1002.84 1026.99"/><path class="cls-2" d="M1923.52,2238.24a2.2,2.2,0,0,1-.5-.06L70.68,1741.3a1.94,1.94,0,0,1-.67-3.42l931.65-712.43a1.89,1.89,0,0,1,1.43-.39,2,2,0,0,1,1.29.75l920.69,1209.32a1.94,1.94,0,0,1-1.55,3.11Zm-1848-499.67L1918.54,2233,1002.47,1029.71Z"/><path class="cls-2" d="M648.11,1648a1.94,1.94,0,0,1-.31-3.86l683.54-111.23a1.94,1.94,0,1,1,.62,3.83L648.42,1648A1.63,1.63,0,0,1,648.11,1648Z"/><path class="cls-2" d="M96.76,1737.71a1.94,1.94,0,0,1-.31-3.85l485.55-79a1.94,1.94,0,0,1,.62,3.83l-485.55,79Z"/><path class="cls-2" d="M1906,1939.82a2,2,0,0,1-1.23-.44L1867.49,1909a1.94,1.94,0,1,1,2.46-3l37.22,30.38a1.94,1.94,0,0,1-1.22,3.45Z"/><path class="cls-2" d="M2047.74,2055.57a1.89,1.89,0,0,1-1.22-.44l-110.92-90.55a1.94,1.94,0,1,1,2.45-3L2049,2052.13a1.94,1.94,0,0,1-1.23,3.44Z"/><path class="cls-2" d="M1547.21,1087.38h-.12a1.94,1.94,0,0,1-1.82-2.05l6.86-113.07a1.93,1.93,0,0,1,2-1.82,2,2,0,0,1,1.82,2.06l-6.85,113.06A2,2,0,0,1,1547.21,1087.38Z"/><path class="cls-2" d="M1558.05,908.57h-.12a1.94,1.94,0,0,1-1.82-2.05l47.62-785.72a1.94,1.94,0,0,1,3.87.23L1560,906.75A1.93,1.93,0,0,1,1558.05,908.57Z"/></svg>