<svg id="Capa_1" data-name="Capa 1" xmlns="http://www.w3.org/2000/svg" viewBox="0 0 3401.57 2258.57"><defs><style>.cls-1{fill:#fff;}.cls-1,.cls-2,.cls-3,.cls-4{stroke:#1f1f1e;stroke-linecap:round;stroke-linejoin:round;}.cls-2{fill:#1f1f1e;}.cls-3,.cls-4{fill:none;}.cls-4{stroke-width:0.5px;}</style></defs><polygon class="cls-1" points="960.58 1031.7 1593.43 -4.21 2022.86 1645.72 1631.1 1743.66 960.58 1031.7"/><polygon class="cls-2" points="401.73 307.74 277.59 479.55 428.97 437.73 401.73 307.74"/><polygon class="cls-2" points="960.58 1031.7 1246.87 1212.52 1047.22 1231.36 960.58 1031.7"/><polygon class="cls-2" points="1619.8 1137.18 1928.69 1638.19 1725.27 1694.69 1619.8 1137.18"/><polygon class="cls-1" points="1676.3 1630.65 3401.57 1468.67 2064.3 2116.59 1883.49 2240.9 1676.3 1630.65"/><polygon class="cls-1" points="990.71 1231.36 1619.8 1137.18 1909.86 2278.57 990.71 1231.36"/><polygon class="cls-1" points="401.73 307.74 458.18 255.63 579.77 351.16 987.97 1098.08 592.8 1332.58 401.73 307.74"/><line class="cls-3" x1="518.98" y1="338.13" x2="401.73" y2="307.74"/><polygon class="cls-1" points="960.58 1031.7 0 1766.27 1909.86 2278.57 960.58 1031.7"/><line class="cls-4" x1="594.84" y1="1670" x2="1299.61" y2="1555.31"/><line class="cls-4" x1="26.37" y1="1762.5" x2="526.99" y2="1681.04"/><line class="cls-4" x1="1891.73" y1="1970.88" x2="1853.35" y2="1939.55"/><line class="cls-4" x1="2037.93" y1="2090.22" x2="1923.57" y2="1996.87"/><line class="cls-4" x1="1528.92" y1="975.4" x2="1521.86" y2="1091.98"/><line class="cls-4" x1="1582.13" y1="97.5" x2="1533.03" y2="907.62"/></svg>