<?xml version="1.0" encoding="utf-8"?>
<!-- Generator: Adobe Illustrator 26.0.0, SVG Export Plug-In . SVG Version: 6.00 Build 0)  -->
<svg version="1.1" id="Capa_1" xmlns="http://www.w3.org/2000/svg" xmlns:xlink="http://www.w3.org/1999/xlink" x="0px" y="0px"
	 viewBox="0 0 1200 775.9" style="enable-background:new 0 0 1200 775.9;" xml:space="preserve">
<style type="text/css">
	.st0{fill:#1E1E1D;}
	.st1{fill:#FFFFFF;}
	.st2{fill:#4B6FB5;}
</style>
<g>
	<g>
		<g>
			<polygon class="st0" points="598,427.7 876.7,452.1 1167.6,510.8 1020.9,528.7 732,502.2 			"/>
			<path class="st0" d="M1020.9,531h-0.2l-289.4-26.6l-0.4-0.2l-143.3-79.7l289.3,25.3l304.9,61.5L1020.9,531z M732.6,500
				l288.2,26.4l132.5-16.2l-277.1-55.9l-267.8-23.4L732.6,500z"/>
		</g>
		<g>
			<polygon class="st1" points="1167.6,510.8 1020.6,522.8 736.7,494.1 694,436.1 876.7,452.1 			"/>
			<path class="st0" d="M1020.6,527.4h-0.4l-285.9-28.9l-49.9-67.7l193.2,16.9l322.4,65.1L1020.6,527.4z M739.2,489.7l281.5,28.5
				l114.4-9.3L876,456.6l-172.4-15.1L739.2,489.7z"/>
		</g>
	</g>
	<g>
		<polygon class="st2" points="511.5,432.8 284.8,2.1 476.9,524.4 		"/>
		<path class="st0" d="M476.9,530.9l-2.1-5.7L282.7,2.9l4.1-1.8L514,432.6L476.9,530.9z M298.8,33.6l178.1,484.3l32.1-85L298.8,33.6
			z"/>
	</g>
	<g>
		<polygon class="st1" points="511.5,432.8 284.8,2.1 476.9,524.4 		"/>
		<path class="st0" d="M476.9,537.4L280.6,3.7l8.3-3.7l227.7,432.5L476.9,537.4z M312.8,65L477,511.4l29.6-78.3L312.8,65z"/>
	</g>
	<g>
		<polygon class="st2" points="584.9,323.6 721.7,453.6 781.6,233.4 790.8,243.6 802.6,243 721.3,749 696.7,741.6 675.5,772.8 		"/>
		<path class="st0" d="M675.5,775.1c-0.1,0-0.3,0-0.4,0c-0.9-0.2-1.6-0.9-1.8-1.8L582.7,324c-0.2-1,0.3-2,1.1-2.4
			c0.9-0.5,1.9-0.3,2.7,0.3l134.1,127.5l58.9-216.6c0.2-0.8,0.9-1.4,1.7-1.6c0.8-0.2,1.7,0.1,2.2,0.7l8.4,9.3l10.7-0.5
			c0.8,0,1.3,0.2,1.8,0.8c0.5,0.5,0.7,1.2,0.6,1.9l-81.3,506.1c-0.1,0.6-0.5,1.2-1,1.6c-0.6,0.3-1.2,0.4-1.9,0.2l-23.1-7l-20.2,29.9
			C677,774.8,676.3,775.1,675.5,775.1z M588.5,330.2l88.2,436.9l18.1-26.8c0.6-0.8,1.6-1.2,2.5-0.9l22.2,6.7l80.4-500.7l-9,0.4
			c-0.8,0-1.3-0.2-1.8-0.7l-6.4-7.1l-58.8,216.2c-0.2,0.8-0.8,1.4-1.6,1.6s-1.6,0-2.2-0.5L588.5,330.2z"/>
	</g>
	<g>
		<polygon class="st1" points="587.2,325.9 721.7,453.6 781.6,233.4 790.8,243.6 802.6,243 721.3,749 696.7,741.6 675.6,771.3 		"/>
		<path class="st0" d="M675.6,775.9c-0.3,0-0.6,0-0.9-0.1c-1.8-0.4-3.2-1.8-3.5-3.6l-88.4-445.4c-0.4-1.9,0.5-3.9,2.3-4.9
			c1.7-1,3.9-0.7,5.3,0.7l129,122.5l57.9-212.9c0.4-1.6,1.7-2.8,3.3-3.2s3.3,0.1,4.4,1.4l7.7,8.6l9.7-0.5c1.4,0,2.7,0.5,3.6,1.5
			c0.9,1,1.3,2.4,1.1,3.8l-81.3,506.1c-0.2,1.3-1,2.4-2.1,3.1c-1.1,0.7-2.5,0.9-3.7,0.5l-21.5-6.5l-19.2,27
			C678.5,775.2,677.1,775.9,675.6,775.9z M594.5,339.1l83.5,421l14.9-21.1c1.1-1.6,3.2-2.3,5-1.7l19.7,6l79.6-495.4l-6.2,0.3
			c-1.4,0-2.7-0.5-3.6-1.5l-3.6-4l-57.7,212.2c-0.4,1.5-1.6,2.8-3.2,3.2c-1.5,0.4-3.2,0-4.4-1.1L594.5,339.1z"/>
	</g>
	<g>
		<polygon class="st1" points="675.6,771.3 781.6,233.4 683.1,461.4 703.6,503.6 		"/>
		<path class="st0" d="M675.6,775.9c-0.2,0-0.5,0-0.7-0.1c-2.4-0.4-4.1-2.5-3.8-5l27.8-266.5l-19.9-41c-0.6-1.2-0.6-2.6-0.1-3.8
			l98.6-228c0.9-2.1,3.3-3.2,5.5-2.5s3.6,2.9,3.1,5.2l-106,537.9C679.7,774.4,677.8,775.9,675.6,775.9z M688.1,461.3l19.6,40.3
			c0.4,0.8,0.5,1.6,0.4,2.5l-17.5,168L769,274.2L688.1,461.3z"/>
	</g>
	<g>
		<polygon class="st1" points="802.6,243 843.8,309.6 783,261.6 781.6,233.4 790.8,243.6 		"/>
		<path class="st0" d="M843.8,314.1c-1,0-2-0.3-2.8-1l-60.8-48c-1-0.8-1.7-2-1.7-3.4l-1.4-28.2c-0.1-1.9,1-3.7,2.8-4.4
			s3.8-0.3,5.1,1.2l7.7,8.6l9.7-0.5c1.6-0.1,3.2,0.7,4.1,2.1l41.2,66.6c1.2,1.9,0.8,4.3-0.8,5.8C846,313.8,844.9,314.1,843.8,314.1z
			 M787.4,259.3l39,30.7l-26.2-42.4l-9.1,0.4c-1.4,0-2.7-0.5-3.6-1.5l-0.6-0.7L787.4,259.3z"/>
	</g>
	<g>
		<polygon class="st0" points="790.8,243.6 843.8,309.6 802.6,243 		"/>
		<path class="st0" d="M842.1,311l-55.8-69.5l17.6-0.9l41.9,67.8L842.1,311z M795.4,245.6l27,33.7l-21-34L795.4,245.6z"/>
	</g>
	<g>
		<path class="st1" d="M689.3,506.5L585.5,323c-0.3-0.5-1-0.6-1.4-0.3L436,435.2c-0.3,0.2-0.4,0.6-0.3,0.9L497,719.2
			c0.1,0.5,0.7,0.8,1.2,0.7l83-23.8c0.3-0.1,0.6,0,0.9,0.2l92.1,73.9c0.6,0.5,1.5,0.1,1.6-0.7L689.4,507
			C689.4,506.9,689.4,506.7,689.3,506.5z"/>
		<path class="st0" d="M589.6,330L589.6,330L589.6,330 M582.2,335.6l98,173.4l-12.7,244.2l-79.7-63.9c-1.8-1.4-4-2.2-6.3-2.2
			c-0.9,0-1.9,0.1-2.8,0.4L504,708.8l-58.4-269.5L582.2,335.6 M584.7,322.5c-0.2,0-0.4,0.1-0.6,0.2L436,435.2
			c-0.3,0.2-0.4,0.6-0.3,0.9L497,719.2c0.1,0.4,0.5,0.7,0.9,0.7c0.1,0,0.2,0,0.3,0l83-23.8c0.1,0,0.2,0,0.3,0c0.2,0,0.4,0.1,0.6,0.2
			l92.1,73.9c0.2,0.1,0.4,0.2,0.6,0.2c0.5,0,0.9-0.4,1-0.9L689.4,507c0-0.2,0-0.3-0.1-0.5L585.5,323
			C585.3,322.7,585,322.5,584.7,322.5L584.7,322.5z"/>
	</g>
	<g>
		<path class="st2" d="M685,505.1l-249.5-69.5l-239,56.4l-192,96.2l409.2-5.5l271.2-77C685.3,505.5,685.3,505.1,685,505.1z"/>
		<path class="st0" d="M4.5,590.4c-1,0-2-0.7-2.2-1.7c-0.3-1,0.2-2.1,1.2-2.6l191.9-96.2c0.2-0.1,0.3-0.1,0.5-0.2l239-56.4
			c0.4-0.1,0.8-0.1,1.1,0l249.5,69.5c1,0.3,1.9,1.4,1.9,2.4s-0.9,2.2-1.9,2.5l-271.2,77c-0.2,0.1-0.4,0.1-0.6,0.1L4.5,590.4
			C4.6,590.4,4.6,590.4,4.5,590.4z M197.2,494.1L14.4,585.8l399-5.4l264.1-75l-242.1-67.5L197.2,494.1z M684.4,507.3L684.4,507.3
			L684.4,507.3z"/>
	</g>
	<g>
		<polygon class="st1" points="682.9,505.3 435.5,435.5 196.4,492 4.5,588.2 413.8,582.6 		"/>
		<path class="st0" d="M4.5,592.7c-2.1,0-3.9-1.4-4.4-3.5s0.5-4.2,2.4-5.1l191.9-96.2c0.3-0.2,0.6-0.3,1-0.4l239-56.4
			c0.7-0.2,1.5-0.2,2.3,0L684.1,501c2,0.6,3.3,2.3,3.3,4.4c0,2-1.3,3.8-3.3,4.4L415,587c-0.4,0.1-0.8,0.2-1.2,0.2L4.5,592.7
			C4.6,592.7,4.6,592.7,4.5,592.7z M198,496.3L24.3,583.4l388.8-5.3l253.1-72.7l-230.9-65.2L198,496.3z"/>
	</g>
</g>
</svg>
