<?xml version="1.0" encoding="utf-8"?>
<!-- Generator: Adobe Illustrator 26.0.0, SVG Export Plug-In . SVG Version: 6.00 Build 0)  -->
<svg version="1.1" id="Capa_1" xmlns="http://www.w3.org/2000/svg" xmlns:xlink="http://www.w3.org/1999/xlink" x="0px" y="0px"
	 viewBox="0 0 1200 775.9" style="enable-background:new 0 0 1200 775.9;" xml:space="preserve">
<style type="text/css">
	.st0{fill-rule:evenodd;clip-rule:evenodd;fill:#DB1C8B;}
	.st1{clip-path:url(#SVGID_00000030479211192968756540000007533270369281045687_);}
	.st2{fill:#FFFFFF;}
	.st3{fill-rule:evenodd;clip-rule:evenodd;fill:#35B3E6;}
	.st4{clip-path:url(#SVGID_00000119096225114189751910000011335257690624401834_);}
	.st5{fill:#1E1E1D;}
	.st6{fill:#35B3E6;}
	.st7{fill:#DB1C8B;}
	.st8{fill-rule:evenodd;clip-rule:evenodd;fill:#1EBAC8;}
	.st9{fill:#4BD4DB;}
	.st10{fill:#E240A4;}
	.st11{fill:#41BEE5;}
	.st12{fill:#56CDE8;}
	.st13{fill:#FFFFFF;stroke:#1E1E1D;stroke-width:4.9825;stroke-linecap:round;stroke-linejoin:round;stroke-miterlimit:10;}
	.st14{fill:#1E1E1D;stroke:#1E1E1D;stroke-width:4.9825;stroke-linecap:round;stroke-linejoin:round;stroke-miterlimit:10;}
	.st15{fill:none;stroke:#1E1E1D;stroke-width:4.9825;stroke-linecap:round;stroke-linejoin:round;stroke-miterlimit:10;}
	.st16{fill:none;stroke:#1E1E1D;stroke-width:2.4913;stroke-linecap:round;stroke-linejoin:round;stroke-miterlimit:10;}
	.st17{fill:#FFFFFF;stroke:#1E1E1D;stroke-width:1.9662;stroke-linecap:round;stroke-linejoin:round;stroke-miterlimit:10;}
	.st18{fill:#1E1E1D;stroke:#1E1E1D;stroke-width:1.9662;stroke-linecap:round;stroke-linejoin:round;stroke-miterlimit:10;}
	.st19{fill:none;stroke:#1E1E1D;stroke-width:1.9662;stroke-linecap:round;stroke-linejoin:round;stroke-miterlimit:10;}
	.st20{fill:none;stroke:#1E1E1D;stroke-width:0.9831;stroke-linecap:round;stroke-linejoin:round;stroke-miterlimit:10;}
	.st21{fill:#4B6FB5;}
</style>
<g>
	<g>
		<defs>
			<path id="SVGID_00000119111459061102410860000000274889032788040369_" d="M-20-198V493l-172.9,424c0,0-67.7,148.1-272.6,36.2
				l-197.4-445.8L-362.1-198H-20z"/>
		</defs>
		<clipPath id="SVGID_00000123406356681830688380000017221929661397591978_">
			<use xlink:href="#SVGID_00000119111459061102410860000000274889032788040369_"  style="overflow:visible;"/>
		</clipPath>
		<g style="clip-path:url(#SVGID_00000123406356681830688380000017221929661397591978_);">
			<g>
				<path class="st2" d="M294.4,789.5c-32.3,0-57.5-10.3-81.8-20.3c-24.3-9.9-47.2-19.3-76.9-19.3c-29.7,0-52.6,9.4-76.9,19.3
					c-24.4,10-49.6,20.3-81.8,20.3c-32.3,0-57.5-10.3-81.8-20.3c-24.3-9.9-47.2-19.3-76.9-19.3c-29.7,0-52.6,9.4-76.9,19.3
					c-24.4,10-49.6,20.3-81.8,20.3c-32.3,0-57.5-10.3-81.8-20.3c-24.3-9.9-47.2-19.3-76.9-19.3c-29.7,0-52.6,9.4-76.9,19.3
					c-24.4,10-49.6,20.3-81.8,20.3c-14.2,0-28.2-2-42.9-6.1l3.6-11.6c13.5,3.8,26.4,5.6,39.4,5.6c29.7,0,52.6-9.4,76.9-19.3
					c24.4-10,49.6-20.3,81.8-20.3s57.5,10.3,81.8,20.3c24.3,9.9,47.2,19.3,76.9,19.3c29.7,0,52.6-9.4,76.9-19.3
					c24.4-10,49.6-20.3,81.8-20.3c32.3,0,57.5,10.3,81.8,20.3c24.3,9.9,47.2,19.3,76.9,19.3c29.7,0,52.6-9.4,76.9-19.3
					c24.4-10,49.6-20.3,81.8-20.3c32.3,0,57.5,10.3,81.8,20.3c24.3,9.9,47.2,19.3,76.9,19.3c13,0,25.9-1.8,39.4-5.6l3.6,11.6
					C322.6,787.5,308.6,789.5,294.4,789.5z"/>
			</g>
			<g>
				<path class="st2" d="M294.4,730.1c-32.3,0-57.5-10.3-81.8-20.3c-24.3-9.9-47.2-19.3-76.9-19.3c-29.7,0-52.6,9.4-76.9,19.3
					c-24.4,10-49.6,20.3-81.8,20.3c-32.3,0-57.5-10.3-81.8-20.3c-24.3-9.9-47.2-19.3-76.9-19.3c-29.7,0-52.6,9.4-76.9,19.3
					c-24.4,10-49.6,20.3-81.8,20.3c-32.3,0-57.5-10.3-81.8-20.3c-24.3-9.9-47.2-19.3-76.9-19.3c-29.7,0-52.6,9.4-76.9,19.3
					c-24.4,10-49.6,20.3-81.8,20.3c-14.2,0-28.2-2-42.9-6.1l3.6-11.6c13.5,3.8,26.4,5.6,39.4,5.6c29.7,0,52.6-9.4,76.9-19.3
					c24.4-10,49.6-20.3,81.8-20.3s57.5,10.3,81.8,20.3c24.3,9.9,47.2,19.3,76.9,19.3c29.7,0,52.6-9.4,76.9-19.3
					c24.4-10,49.6-20.3,81.8-20.3c32.3,0,57.5,10.3,81.8,20.3c24.3,9.9,47.2,19.3,76.9,19.3c29.7,0,52.6-9.4,76.9-19.3
					c24.4-10,49.6-20.3,81.8-20.3c32.3,0,57.5,10.3,81.8,20.3c24.3,9.9,47.2,19.3,76.9,19.3c13,0,25.8-1.8,39.4-5.6l3.6,11.6
					C322.6,728.1,308.6,730.1,294.4,730.1z"/>
			</g>
		</g>
	</g>
	<g>
		<defs>
			<path id="SVGID_00000016760153184431502030000002961055192499093413_" d="M-20-205v695l-172.9,426.5c0,0-67.7,149-272.6,36.4
				l-197.4-448.4L-362.1-205H-20z"/>
		</defs>
		<clipPath id="SVGID_00000090990331609992292570000010202687903518279087_">
			<use xlink:href="#SVGID_00000016760153184431502030000002961055192499093413_"  style="overflow:visible;"/>
		</clipPath>
		<g style="clip-path:url(#SVGID_00000090990331609992292570000010202687903518279087_);">
			<g>
				<path class="st5" d="M-230.3,152.5c-8.5-0.5-18.6,1.8-38.7,6.4c-18.1,4.1-23.1,6.9-25.3,11.6c-3.7,7.8,1.8,17.3,3.4,20.2
					c9.3,16.2,26.2,18.4,37.4,25.8c36.1,24,17.7,64.7,47.7,90.2c28.5,24.3,55.2-4.2,106.5,18.9c40.4,18.2-26.7,65.6,6.2,75.9
					c40.2,12.6,79.7,36.7,105.3-14c11.7-23.2,26.4-53.1,7.9-76.9c-8.6-11.2-22.2-17.7-30.8-28.9c-10.3-13.5-12.4-32.8-25.6-43.5
					c-12.6-10.3-31.3-9.2-45-18.1c-13.6-8.8-19.5-25.7-30.6-37.5c-10.4-11.1-25.6-17.6-40.9-17.4c-13.6,0.2-27.8,5.1-41,0.1
					C-206.4,160.3-215.9,153.3-230.3,152.5z"/>
				<g>
					<path class="st2" d="M-316.6,399.7c-17.2,105.3-19.2,106.8-21.5,117.8c0,0-6.8,31-8.7,60.9c-1.6,25.9,3.2,181.5,83.7,215.8
						c29,12.4,37.5-10.4,99.3-7.9c63.4,2.5,76.2,25.1,103.9,17.2C-0.1,786.4,19.4,658,16.2,578.7C13.5,514-18.7,453-83,330.9
						c-9.8-18.6-25.5-47-50.7-50.6c-11.6-1.7-16.2,0.1-62.7,12.9c-50.6,13.9-63.4-0.9-85.1,12.8C-304.1,320.2-308,347.1-316.6,399.7
						z"/>
					<path class="st5" d="M-71.5,807c-8.7,0-16.7-2.7-26.5-6.1c-15-5.1-33.7-11.5-65.9-12.8c-30.4-1.2-47.5,3.6-61.1,7.5
						c-13.7,3.9-23.6,6.7-38.8,0.2c-34.1-14.5-59.6-53.3-73.6-112.2c-10.6-44.5-12.1-90.1-11.1-105.3c1.9-29.7,8.7-60.8,8.7-61.1
						c0.4-1.8,0.8-3.4,1.2-5.3c2.2-9.3,6-24.9,20.3-112.5l1.7,0.3l-1.7-0.3l0.5-3.3c8.4-51.5,12.6-77.4,35.2-91.6
						c11.2-7,20-6.8,32.2-6.6c12.5,0.3,28,0.6,53.4-6.4l12-3.3c35.9-9.9,40.5-11.2,51.4-9.6c26.9,3.9,43.3,34.9,52,51.5
						c64.4,122.1,96.7,183.4,99.4,248.5c1.9,45.1-3.5,96-14.4,136.3c-9.7,35.8-28.5,80.5-62.9,90.3C-63.8,806.4-67.7,807-71.5,807z
						 M-173,784.4c2.9,0,6,0.1,9.2,0.2c32.7,1.3,52.5,8,66.9,12.9c14.1,4.8,23.5,8,36.5,4.3c57.3-16.4,78.3-140.3,74.8-223.1
						c-2.7-64.2-34.9-125.3-99-247c-8.5-16.1-24.3-46.1-49.5-49.7c-10.1-1.4-14.7-0.2-50,9.5l-12,3.3c-25.9,7.1-41.7,6.8-54.4,6.5
						c-12.1-0.2-20-0.4-30.3,6.1c-21.3,13.4-25.4,38.8-33.7,89.3l-0.5,3.3c-14.3,87.7-18.1,103.4-20.3,112.7
						c-0.4,1.8-0.8,3.4-1.2,5.2c-0.1,0.3-6.8,31.2-8.7,60.6c-0.9,15,0.5,60.1,11,104.3c9.6,40.3,29.8,92,71.6,109.8
						c14.1,6,23,3.5,36.5-0.4C-214.2,788.9-198.5,784.4-173,784.4z"/>
				</g>
				<g>
				</g>
			</g>
		</g>
	</g>
</g>
<g>
	<g>
		<g>
			<polygon class="st5" points="598,427.7 876.7,452.1 1167.6,510.8 1020.9,528.7 732,502.2 			"/>
			<path class="st5" d="M1020.9,531l-0.2,0l-289.4-26.6l-0.4-0.2l-143.3-79.7l289.3,25.3l304.9,61.5L1020.9,531z M732.6,500
				l288.2,26.4l132.5-16.2l-277.1-55.9l-267.8-23.4L732.6,500z"/>
		</g>
		<g>
			<polygon class="st2" points="1167.6,510.8 1020.6,522.8 736.7,494.1 694,436.1 876.7,452.1 			"/>
			<path class="st5" d="M1020.6,527.4l-0.4,0l-285.9-28.9l-49.9-67.7l193.2,16.9l322.4,65.1L1020.6,527.4z M739.2,489.7l281.5,28.5
				l114.4-9.3l-259.1-52.3l-172.4-15.1L739.2,489.7z"/>
		</g>
	</g>
	<g>
		<polygon class="st21" points="511.5,432.8 284.8,2.1 476.9,524.4 		"/>
		<path class="st5" d="M476.9,530.9l-2.1-5.7L282.7,2.9l4.1-1.8L514,432.6L476.9,530.9z M298.8,33.6l178.1,484.3l32.1-85L298.8,33.6
			z"/>
	</g>
	<g>
		<polygon class="st2" points="511.5,432.8 284.8,2.1 476.9,524.4 		"/>
		<path class="st5" d="M476.9,537.4L280.6,3.7l8.3-3.7l227.7,432.5L476.9,537.4z M312.8,65L477,511.4l29.6-78.3L312.8,65z"/>
	</g>
	<g>
		<polygon class="st21" points="584.9,323.6 721.7,453.6 781.6,233.4 790.8,243.6 802.6,243 721.3,749 696.7,741.6 675.5,772.8 		
			"/>
		<path class="st5" d="M675.5,775.1c-0.1,0-0.3,0-0.4,0c-0.9-0.2-1.6-0.9-1.8-1.8L582.7,324c-0.2-1,0.3-2,1.1-2.4
			c0.9-0.5,1.9-0.3,2.7,0.3l134.1,127.5l58.9-216.6c0.2-0.8,0.9-1.4,1.7-1.6c0.8-0.2,1.7,0.1,2.2,0.7l8.4,9.3l10.7-0.5
			c0.8,0,1.3,0.2,1.8,0.8c0.5,0.5,0.7,1.2,0.6,1.9l-81.3,506.1c-0.1,0.6-0.5,1.2-1,1.6c-0.6,0.3-1.2,0.4-1.9,0.2l-23.1-7l-20.2,29.9
			C677,774.8,676.3,775.1,675.5,775.1z M588.5,330.2l88.2,436.9l18.1-26.8c0.6-0.8,1.6-1.2,2.5-0.9l22.2,6.7l80.4-500.7l-9,0.4
			c-0.8,0-1.3-0.2-1.8-0.7l-6.4-7.1l-58.8,216.2c-0.2,0.8-0.8,1.4-1.6,1.6c-0.8,0.2-1.6,0-2.2-0.5L588.5,330.2z"/>
	</g>
	<g>
		<polygon class="st2" points="587.2,325.9 721.7,453.6 781.6,233.4 790.8,243.6 802.6,243 721.3,749 696.7,741.6 675.6,771.3 		"/>
		<path class="st5" d="M675.6,775.9c-0.3,0-0.6,0-0.9-0.1c-1.8-0.4-3.2-1.8-3.5-3.6l-88.4-445.4c-0.4-1.9,0.5-3.9,2.3-4.9
			c1.7-1,3.9-0.7,5.3,0.7l129,122.5l57.9-212.9c0.4-1.6,1.7-2.8,3.3-3.2c1.6-0.4,3.3,0.1,4.4,1.4l7.7,8.6l9.7-0.5
			c1.4,0,2.7,0.5,3.6,1.5c0.9,1,1.3,2.4,1.1,3.8l-81.3,506.1c-0.2,1.3-1,2.4-2.1,3.1c-1.1,0.7-2.5,0.9-3.7,0.5l-21.5-6.5L679.3,774
			C678.5,775.2,677.1,775.9,675.6,775.9z M594.5,339.1l83.5,421l14.9-21.1c1.1-1.6,3.2-2.3,5-1.7l19.7,6l79.6-495.4l-6.2,0.3
			c-1.4,0-2.7-0.5-3.6-1.5l-3.6-4l-57.7,212.2c-0.4,1.5-1.6,2.8-3.2,3.2c-1.5,0.4-3.2,0-4.4-1.1L594.5,339.1z"/>
	</g>
	<g>
		<polygon class="st2" points="675.6,771.3 781.6,233.4 683.1,461.4 703.6,503.6 		"/>
		<path class="st5" d="M675.6,775.9c-0.2,0-0.5,0-0.7-0.1c-2.4-0.4-4.1-2.5-3.8-5l27.8-266.5l-19.9-41c-0.6-1.2-0.6-2.6-0.1-3.8
			l98.6-228c0.9-2.1,3.3-3.2,5.5-2.5c2.2,0.7,3.6,2.9,3.1,5.2l-106,537.9C679.7,774.4,677.8,775.9,675.6,775.9z M688.1,461.3
			l19.6,40.3c0.4,0.8,0.5,1.6,0.4,2.5l-17.5,168L769,274.2L688.1,461.3z"/>
	</g>
	<g>
		<polygon class="st2" points="802.6,243 843.8,309.6 783,261.6 781.6,233.4 790.8,243.6 		"/>
		<path class="st5" d="M843.8,314.1c-1,0-2-0.3-2.8-1l-60.8-48c-1-0.8-1.7-2-1.7-3.4l-1.4-28.2c-0.1-1.9,1-3.7,2.8-4.4
			c1.8-0.7,3.8-0.3,5.1,1.2l7.7,8.6l9.7-0.5c1.6-0.1,3.2,0.7,4.1,2.1l41.2,66.6c1.2,1.9,0.8,4.3-0.8,5.8
			C846,313.8,844.9,314.1,843.8,314.1z M787.4,259.3l39,30.7l-26.2-42.4l-9.1,0.4c-1.4,0-2.7-0.5-3.6-1.5l-0.6-0.7L787.4,259.3z"/>
	</g>
	<g>
		<polygon class="st5" points="790.8,243.6 843.8,309.6 802.6,243 		"/>
		<path class="st5" d="M842.1,311l-55.8-69.5l17.6-0.9l41.9,67.8L842.1,311z M795.4,245.6l27,33.7l-21-34L795.4,245.6z"/>
	</g>
	<g>
		<path class="st2" d="M689.3,506.5L585.5,323c-0.3-0.5-1-0.6-1.4-0.3L436,435.2c-0.3,0.2-0.4,0.6-0.3,0.9L497,719.2
			c0.1,0.5,0.7,0.8,1.2,0.7l83-23.8c0.3-0.1,0.6,0,0.9,0.2l92.1,73.9c0.6,0.5,1.5,0.1,1.6-0.7L689.4,507
			C689.4,506.9,689.4,506.7,689.3,506.5z"/>
		<path class="st5" d="M589.6,330L589.6,330L589.6,330 M582.2,335.6l98,173.4l-12.7,244.2l-79.7-63.9c-1.8-1.4-4-2.2-6.3-2.2
			c-0.9,0-1.9,0.1-2.8,0.4L504,708.8l-58.4-269.5L582.2,335.6 M584.7,322.5c-0.2,0-0.4,0.1-0.6,0.2L436,435.2
			c-0.3,0.2-0.4,0.6-0.3,0.9L497,719.2c0.1,0.4,0.5,0.7,0.9,0.7c0.1,0,0.2,0,0.3,0l83-23.8c0.1,0,0.2,0,0.3,0c0.2,0,0.4,0.1,0.6,0.2
			l92.1,73.9c0.2,0.1,0.4,0.2,0.6,0.2c0.5,0,0.9-0.4,1-0.9L689.4,507c0-0.2,0-0.3-0.1-0.5L585.5,323
			C585.3,322.7,585,322.5,584.7,322.5L584.7,322.5z"/>
	</g>
	<g>
		<path class="st21" d="M685,505.1l-249.5-69.5l-239,56.4L4.5,588.2l409.2-5.5l271.2-77C685.3,505.5,685.3,505.1,685,505.1z"/>
		<path class="st5" d="M4.5,590.4c-1,0-2-0.7-2.2-1.7c-0.3-1,0.2-2.1,1.2-2.6l191.9-96.2c0.2-0.1,0.3-0.1,0.5-0.2l239-56.4
			c0.4-0.1,0.8-0.1,1.1,0l249.5,69.5c1,0.3,1.9,1.4,1.9,2.4c0,1-0.9,2.2-1.9,2.5l-271.2,77c-0.2,0.1-0.4,0.1-0.6,0.1L4.5,590.4
			C4.6,590.4,4.6,590.4,4.5,590.4z M197.2,494.1L14.4,585.8l399-5.4l264.1-75l-242.1-67.5L197.2,494.1z M684.4,507.3L684.4,507.3
			L684.4,507.3z"/>
	</g>
	<g>
		<polygon class="st2" points="682.9,505.3 435.5,435.5 196.4,492 4.5,588.2 413.8,582.6 		"/>
		<path class="st5" d="M4.5,592.7c-2.1,0-3.9-1.4-4.4-3.5c-0.5-2.1,0.5-4.2,2.4-5.1l191.9-96.2c0.3-0.2,0.6-0.3,1-0.4l239-56.4
			c0.7-0.2,1.5-0.2,2.3,0L684.1,501c2,0.6,3.3,2.3,3.3,4.4c0,2-1.3,3.8-3.3,4.4L415,587c-0.4,0.1-0.8,0.2-1.2,0.2L4.5,592.7
			C4.6,592.7,4.6,592.7,4.5,592.7z M198,496.3L24.3,583.4l388.8-5.3l253.1-72.7l-230.9-65.2L198,496.3z"/>
	</g>
</g>
</svg>
