<?xml version="1.0" encoding="utf-8"?>
<!-- Generator: Adobe Illustrator 26.0.0, SVG Export Plug-In . SVG Version: 6.00 Build 0)  -->
<svg version="1.1" id="Capa_1" xmlns="http://www.w3.org/2000/svg" xmlns:xlink="http://www.w3.org/1999/xlink" x="0px" y="0px"
	 viewBox="0 0 1200 633" style="enable-background:new 0 0 1200 633;" xml:space="preserve">
<style type="text/css">
	.st0{fill-rule:evenodd;clip-rule:evenodd;fill:#DB1C8B;}
	.st1{clip-path:url(#SVGID_00000001653487426668893280000003789711758270629257_);}
	.st2{fill:#FFFFFF;}
	.st3{fill-rule:evenodd;clip-rule:evenodd;fill:#35B3E6;}
	.st4{clip-path:url(#SVGID_00000066499079936103285140000003109387433822602634_);}
	.st5{fill:#1E1E1D;}
	.st6{fill:#35B3E6;}
	.st7{fill:#DB1C8B;}
	.st8{fill-rule:evenodd;clip-rule:evenodd;fill:#1EBAC8;}
	.st9{fill:#4BD4DB;}
	.st10{fill:#E240A4;}
	.st11{fill:#41BEE5;}
	.st12{fill:#56CDE8;}
	.st13{fill:#FFFFFF;stroke:#1E1E1D;stroke-width:4.9825;stroke-linecap:round;stroke-linejoin:round;stroke-miterlimit:10;}
	.st14{fill:#1E1E1D;stroke:#1E1E1D;stroke-width:4.9825;stroke-linecap:round;stroke-linejoin:round;stroke-miterlimit:10;}
	.st15{fill:none;stroke:#1E1E1D;stroke-width:4.9825;stroke-linecap:round;stroke-linejoin:round;stroke-miterlimit:10;}
	.st16{fill:none;stroke:#1E1E1D;stroke-width:2.4913;stroke-linecap:round;stroke-linejoin:round;stroke-miterlimit:10;}
	.st17{fill:#FFFFFF;stroke:#1E1E1D;stroke-width:1.9662;stroke-linecap:round;stroke-linejoin:round;stroke-miterlimit:10;}
	.st18{fill:#1E1E1D;stroke:#1E1E1D;stroke-width:1.9662;stroke-linecap:round;stroke-linejoin:round;stroke-miterlimit:10;}
	.st19{fill:none;stroke:#1E1E1D;stroke-width:1.9662;stroke-linecap:round;stroke-linejoin:round;stroke-miterlimit:10;}
	.st20{fill:none;stroke:#1E1E1D;stroke-width:0.9831;stroke-linecap:round;stroke-linejoin:round;stroke-miterlimit:10;}
	.st21{fill:#4B6FB5;}
</style>
<path class="st2" d="M1193.1,283.8c-7.1-12.3-20.1-19.5-34.3-19.5c-20.7,0-44.1,7.8-62.2,20.1c-12.3,8.4-27.9,21.4-43.4,42.1V128.3
	c0-31.1-25.3-57-57-57c-12.9,0-25.3,4.5-34.3,11.7V57c0-31.1-25.3-57-57-57c-31.1,0-57,25.3-57,57v3.2c-8.4-6.5-18.8-9.7-29.8-9.7
	c-27.9,0-50.9,22.4-51.8,50.1c-6-19.3-19.7-36.2-39.3-45.7c-37.8-18.3-83.2-2.5-101.5,35.2l-74.1-68c-7.3-6.7-18.6-6.2-25.3,1.1
	l-60.2,65.6c-2.6,2.9-4.2,6.5-4.6,10.4c-1,9.8,6.2,18.6,16.1,19.6c17.8,1.8,32.3,15,35.5,32.6c0.7,4.1,0.9,8.1,0.4,12
	c-6.6-21-26.3-36.4-49.4-36.4c-11,0-21.4,3.3-29.8,9.1v-33.7c0-28.5-23.3-51.8-51.8-51.8c-11,0-21.4,3.3-29.8,9.7V57
	c0-31.7-25.9-57-57-57c-31.7,0-57,25.9-57,57V83c-9.1-7.1-21.4-11.7-34.3-11.7c-31.7,0-57,25.9-57,57v198.3
	c-15.5-20.7-31.1-33.7-43.4-42.1c-18.1-12.3-41.5-20.1-62.2-20.1c-14.2,0-27.2,7.1-34.3,19.5c-5,8.3-6.9,17.9-6.9,26.6
	c0,8.3,1.7,15.6,4.3,20.1c5.9,9.7,12.3,20.7,22.7,29.2c7.8,6.5,16.2,18.1,24,32.4c3.9,7.8,25.9,42.8,62.9,100.4
	c12.3,19.4,23.3,36.3,27.2,42.8c33.7,60.3,101.7,97.8,176.9,97.8c76.9,0,165.3-16,191.1-130.6l39,35.8c7.3,6.7,18.6,6.1,25.3-1.1
	l93.4-101.7c4.8,7.7,10.8,14.4,17.8,19.9v1.4C695.5,613,795.9,633,882.1,633c75.2,0,143.2-37.6,176.9-97.8
	c3.9-6.5,14.9-23.3,27.2-42.8c36.9-57.7,59-92.7,62.8-100.4c7.8-14.3,16.2-25.9,24-32.4c10.3-8.4,16.8-19.5,22.7-29.2
	c2.5-4.4,4.3-11.8,4.3-20.1C1200,301.7,1198.1,292.1,1193.1,283.8z M754.1,169.3c1.5,2.8,2.4,6,2.4,9.5v31.7l-23.9-21.9
	C740.9,183.6,748.2,177,754.1,169.3z M443.6,178.8c0-11,8.4-19.4,19.4-19.4c11,0,19.5,8.4,19.5,19.4v18.9c-0.6,0.2-1.2,0.3-1.9,0.4
	c-14.2,2.6-28-2.5-37-12.5V178.8z M361.9,102.4c0-11,8.4-19.4,19.4-19.4c11,0,19.5,8.4,19.5,19.4v57.1l-38.9,42.4V102.4z
	 M317.9,600.6c-64.1,0-121.2-31.1-149-81.6l-0.6-0.6c-3.9-6.5-14.3-23.3-27.2-43.4c-20.1-31.7-57.7-90.7-61.5-98.5
	c-9.7-18.8-20.7-33.7-32.4-42.8c-6.5-5.2-10.4-12.3-14.3-18.8c-0.6-2.6-1.3-10.4,2-15.6c1.3-1.3,2.6-3.3,7.1-3.3
	c13.6,0,31.1,5.9,44,14.9c13,9.1,32.4,25.9,48.6,54.4c5.8,10.4,15.6,16.8,26.6,18.8l18.8,3.2V127.7c0-13.6,9.1-24.6,22.7-24.6
	c13.6,0,24.6,11,24.6,24.6v157.4c0,11.7,9.7,21.4,21.4,21.4c11.7,0,21.4-9.7,21.4-21.4V56.4c0-13.6,11-24.6,24.6-24.6
	c13.6,0,24.6,11,24.6,24.6v192.1l-27.6,30.1c-6.7,7.3-6.2,18.7,1.1,25.3l94.1,86.4c3,2.8,6.8,4.4,10.9,4.7
	c9.9,0.7,18.4-6.7,19.2-16.6c0.6-9,4.3-17.5,10.5-24.1c14.7-15.5,39-16.7,55.2-2.8v60.8c-5.5,4.6-12.1,7.6-19.2,8.7
	c-4,0.6-7.6,2.6-10.3,5.5c-6.8,7.3-6.3,18.6,0.9,25.3l26.4,24.2C464.7,585.1,393.6,600.6,317.9,600.6z M660.4,389.3L559,499.7
	l-43.7-40.2l-16.4-15c6.3-4.2,11.8-9.2,16.6-15c3-3.6,5.6-7.5,7.9-11.7c15.4-28,11.2-61.5-7.9-84.8c-6-7.3-13.4-13.5-22.1-18.3
	c-3.6-2-7.2-3.6-10.9-4.9c-12.7-4.6-26.1-5.6-38.9-3.3c-12.6,2.2-24.6,7.6-34.7,15.9c-7.4,6-13.7,13.5-18.6,22.3l-42.9-39.4
	l-17.2-15.7l31.8-34.7l38.9-42.4l9.9-10.8c3.2,4.6,6.9,8.9,11.1,12.7c6.6,6.1,13.9,10.7,21.8,14c12.4,5.3,25.8,7.1,38.9,5.5
	c11.6-1.4,23-5.5,33-12.3c4.9-3.2,9.5-7.2,13.7-11.7c28.4-30.9,26.4-78.9-4.5-107.3c-4.2-3.8-8.8-7.2-13.8-10.1l29.4-32l83.4,76.5
	c3.3,3.1,7.8,4.8,12.3,4.7c9.9-0.1,17.8-8.2,17.7-18.1c-0.3-21.2,16-39,37.2-40.5c22.1-1.6,41.3,15,42.9,37.1
	c0.2,2.3,0.1,4.5-0.1,6.7c-1.8,19.2-17.2,34.8-37,36.2c-4.2,0.3-8.1,2.1-11.1,5c-0.3,0.2-0.5,0.5-0.7,0.7
	c-6.3,6.8-6.2,17.1-0.3,23.8c0.4,0.5,0.9,1,1.4,1.5l31.6,29l38.9,35.7l12.8,11.7l-12.8,13.9L719,325.5c-0.5,0.6-1,1.2-1.4,1.8
	c-2.1,2.9-3.2,6.4-3.3,10c-0.1,3.9,1.1,7.5,3.3,10.5c3.2,4.6,8.4,7.6,14.4,7.7c20.4,0.3,37.3,15.8,39.3,36.1
	c2.2,22-13.8,41.7-35.9,43.9c-6.3,0.6-12.3-0.2-17.9-2.3c-13.9-5.1-24.5-17.9-26.1-33.6c-0.4-4.4-2.5-8.5-5.7-11.4
	c-0.4-0.4-0.8-0.7-1.3-1C677.2,381.6,666.7,382.4,660.4,389.3z M1167.2,314.9c-3.9,6.5-7.8,13.6-14.2,18.8
	c-11.7,9.1-22.7,24-32.4,42.8c-3.9,7.8-41.5,66.7-61.6,98.5c-13,20.1-23.3,36.9-27.2,43.4l-0.6,0.6c-27.9,50.5-84.9,81.6-149,81.6
	c-76.9,0-149.1-16.1-163-130.1c31.9,5.3,64.8-10.4,80.1-40.8c18.8-37.4,3.8-83.1-33.7-102l2.7-2.9c2.9,1.5,6.2,2.4,9.6,2.4
	c11.7,0,21.4-9.7,21.4-21.4v-14.8l8.5-9.2c6.7-7.3,6.2-18.6-1.1-25.3l-7.4-6.8V102.4c0-11,8.4-19.4,19.4-19.4
	c11,0,19.5,8.4,19.5,19.4v182.7c0,11.7,9.7,21.4,21.4,21.4c11.7,0,21.4-9.7,21.4-21.4V56.4c0-13.6,11-24.6,24.6-24.6
	c13.6,0,24.6,11,24.6,24.6v228.7c0,11.7,9.7,21.4,21.4,21.4c11.7,0,21.4-9.7,21.4-21.4V127.7c0-13.6,11-24.6,24.6-24.6
	c13.6,0,22.7,11,22.7,24.6v259.8l18.8-3.2c11-2,20.7-8.4,26.6-18.8c16.2-28.5,35.6-45.4,48.6-54.4c13-9.1,30.5-14.9,44.1-14.9
	c4.5,0,5.8,2,7.1,3.3C1168.5,304.5,1167.9,312.3,1167.2,314.9z"/>
</svg>
