<?xml version="1.0" encoding="utf-8"?>
<!-- Generator: Adobe Illustrator 26.0.0, SVG Export Plug-In . SVG Version: 6.00 Build 0)  -->
<svg version="1.1" id="Capa_1" xmlns="http://www.w3.org/2000/svg" xmlns:xlink="http://www.w3.org/1999/xlink" x="0px" y="0px"
	 viewBox="0 0 1200 1188.8" style="enable-background:new 0 0 1200 1188.8;" xml:space="preserve">
<style type="text/css">
	.st0{fill-rule:evenodd;clip-rule:evenodd;fill:#DB1C8B;}
	.st1{clip-path:url(#SVGID_00000147935807472975786200000002919154387405439142_);}
	.st2{fill:#FFFFFF;}
	.st3{fill-rule:evenodd;clip-rule:evenodd;fill:#35B3E6;}
	.st4{clip-path:url(#SVGID_00000160170192596098251790000000531759184415550372_);}
	.st5{fill:#1E1E1D;}
	.st6{fill:#35B3E6;}
	.st7{fill:#DB1C8B;}
	.st8{fill-rule:evenodd;clip-rule:evenodd;fill:#1EBAC8;}
	.st9{fill:#4BD4DB;}
	.st10{fill:#E240A4;}
	.st11{fill:#41BEE5;}
	.st12{fill:#56CDE8;}
	.st13{fill:#FFFFFF;stroke:#1E1E1D;stroke-width:4.9825;stroke-linecap:round;stroke-linejoin:round;stroke-miterlimit:10;}
	.st14{fill:#1E1E1D;stroke:#1E1E1D;stroke-width:4.9825;stroke-linecap:round;stroke-linejoin:round;stroke-miterlimit:10;}
	.st15{fill:none;stroke:#1E1E1D;stroke-width:4.9825;stroke-linecap:round;stroke-linejoin:round;stroke-miterlimit:10;}
	.st16{fill:none;stroke:#1E1E1D;stroke-width:2.4913;stroke-linecap:round;stroke-linejoin:round;stroke-miterlimit:10;}
	.st17{fill:#FFFFFF;stroke:#1E1E1D;stroke-width:1.9662;stroke-linecap:round;stroke-linejoin:round;stroke-miterlimit:10;}
	.st18{fill:#1E1E1D;stroke:#1E1E1D;stroke-width:1.9662;stroke-linecap:round;stroke-linejoin:round;stroke-miterlimit:10;}
	.st19{fill:none;stroke:#1E1E1D;stroke-width:1.9662;stroke-linecap:round;stroke-linejoin:round;stroke-miterlimit:10;}
	.st20{fill:none;stroke:#1E1E1D;stroke-width:0.9831;stroke-linecap:round;stroke-linejoin:round;stroke-miterlimit:10;}
	.st21{fill:#4B6FB5;}
</style>
<g>
	<g>
		<defs>
			<path id="SVGID_00000119111459061102410860000000274889032788040369_" d="M1200-1213V-522L1027.1-98c0,0-67.7,148.1-272.6,36.2
				L557.1-507.6L857.9-1213H1200z"/>
		</defs>
		<clipPath id="SVGID_00000021085353768695889560000017152175001513859462_">
			<use xlink:href="#SVGID_00000119111459061102410860000000274889032788040369_"  style="overflow:visible;"/>
		</clipPath>
		<g style="clip-path:url(#SVGID_00000021085353768695889560000017152175001513859462_);">
			<g>
				<path class="st2" d="M1514.4,12.2c-32.3,0-57.5-10.3-81.8-20.3c-24.3-9.9-47.2-19.3-76.9-19.3c-29.7,0-52.6,9.4-76.9,19.3
					c-24.4,10-49.6,20.3-81.8,20.3c-32.3,0-57.5-10.3-81.8-20.3c-24.3-9.9-47.2-19.3-76.9-19.3c-29.7,0-52.6,9.4-76.9,19.3
					c-24.4,10-49.6,20.3-81.8,20.3c-32.3,0-57.5-10.3-81.8-20.3c-24.3-9.9-47.2-19.3-76.9-19.3c-29.7,0-52.6,9.4-76.9,19.3
					c-24.4,10-49.6,20.3-81.8,20.3c-14.2,0-28.2-2-42.9-6.1l3.6-11.6C536.2-1.8,549,0.1,562,0.1c29.7,0,52.6-9.4,76.9-19.3
					c24.4-10,49.6-20.3,81.8-20.3c32.3,0,57.5,10.3,81.8,20.3c24.3,9.9,47.2,19.3,76.9,19.3c29.7,0,52.6-9.4,76.9-19.3
					c24.4-10,49.6-20.3,81.8-20.3c32.3,0,57.5,10.3,81.8,20.3c24.3,9.9,47.2,19.3,76.9,19.3c29.7,0,52.6-9.4,76.9-19.3
					c24.4-10,49.6-20.3,81.8-20.3c32.3,0,57.5,10.3,81.8,20.3c24.3,9.9,47.2,19.3,76.9,19.3c13,0,25.8-1.8,39.4-5.6l3.6,11.6
					C1542.6,10.2,1528.6,12.2,1514.4,12.2z"/>
			</g>
		</g>
	</g>
	<g>
		<defs>
			<path id="SVGID_00000016760153184431502030000002961055192499093413_" d="M1200-1220v695L1027.1-98.5c0,0-67.7,149-272.6,36.4
				L557.1-510.5L857.9-1220H1200z"/>
		</defs>
		<clipPath id="SVGID_00000038378062681597939120000002012507972511671969_">
			<use xlink:href="#SVGID_00000016760153184431502030000002961055192499093413_"  style="overflow:visible;"/>
		</clipPath>
		<g style="clip-path:url(#SVGID_00000038378062681597939120000002012507972511671969_);">
			<g>
				<g>
					<g>
						<polygon class="st2" points="995.7,-5.7 995.7,45.2 1020.2,43.7 1025,-5.7 						"/>
						<path d="M995.7,46.9c-0.4,0-0.9-0.2-1.2-0.5c-0.3-0.3-0.5-0.8-0.5-1.3V-5.7c0-1,0.8-1.7,1.7-1.7h29.3c0.5,0,1,0.2,1.3,0.6
							c0.3,0.4,0.5,0.9,0.4,1.3l-4.8,49.4c-0.1,0.9-0.8,1.5-1.6,1.6l-24.5,1.5C995.8,46.9,995.7,46.9,995.7,46.9z M997.4-4v47.3
							l21.2-1.3l4.5-46H997.4z"/>
					</g>
					<g>
						<path class="st2" d="M1023.9,108.7c-10,1.1-26.3,1.8-45.3-1.5c-6.2-1.1-10.2-7.3-8.5-13.4c4.8-17,14.2-48.6,21.7-63.7l4.5,8.3
							l3.6-8.7c0.6-1,1.7-1.7,2.9-1.8l9.4-0.9c2-0.2,4.3,1.7,4.7,3.7l6.2,7.7l3.6-9.2l6.7,67.9
							C1033.9,102.9,1029.7,108.1,1023.9,108.7z"/>
						<path d="M1006.8,111.3c-8.3,0-18.1-0.6-28.6-2.4c-3.5-0.6-6.5-2.6-8.4-5.6c-1.9-3-2.4-6.6-1.4-10c3.9-13.9,13.9-48,21.8-64
							c0.3-0.6,0.9-1,1.5-1c0.7,0,1.3,0.3,1.6,0.9l2.8,5.1l2.2-5.4c0-0.1,0.1-0.2,0.1-0.2c0.9-1.5,2.5-2.5,4.2-2.7l9.4-0.9
							c2.7-0.2,5.7,2,6.4,4.6l4.1,5.1l2.5-6.4c0.3-0.8,1.1-1.2,1.9-1.1c0.8,0.1,1.4,0.8,1.5,1.6l6.7,67.9c0.7,6.7-4.3,12.8-11,13.5
							C1019.4,110.9,1013.6,111.3,1006.8,111.3z M1023.9,108.7L1023.9,108.7L1023.9,108.7z M991.9,33.9
							c-7.5,16.7-16.5,47.4-20.1,60.4c-0.7,2.5-0.3,5,1,7.1c1.4,2.1,3.6,3.6,6.1,4c18.7,3.2,34.7,2.6,44.8,1.5
							c4.8-0.5,8.3-4.9,7.9-9.7l-6-60.7l-0.9,2.4c-0.2,0.6-0.7,1-1.4,1.1c-0.6,0.1-1.2-0.1-1.6-0.6l-6.2-7.7
							c-0.2-0.2-0.3-0.5-0.4-0.8c-0.2-1.1-1.7-2.3-2.8-2.3l-9.4,0.9c-0.6,0.1-1.2,0.4-1.5,0.9l-3.6,8.6c-0.3,0.6-0.8,1-1.5,1.1
							c-0.7,0-1.3-0.3-1.6-0.9L991.9,33.9z"/>
					</g>
					<path d="M1000.2,99.8c-7.4,0-15.6-0.7-23.7-2.9c-0.9-0.2-1.5-1.2-1.2-2.1c0.2-0.9,1.2-1.5,2.1-1.2c23.1,6.1,47.6,0.1,47.9,0
						c0.9-0.2,1.9,0.3,2.1,1.3c0.2,0.9-0.3,1.9-1.3,2.1C1025.4,97.1,1014.4,99.8,1000.2,99.8z"/>
					<path d="M1014.1,73.3h-22.4c-1,0-1.7-0.8-1.7-1.7c0-1,0.8-1.7,1.7-1.7h22.4c1,0,1.7,0.8,1.7,1.7
						C1015.9,72.6,1015.1,73.3,1014.1,73.3z"/>
					<g>
						<polygon class="st2" points="1175.9,-32.6 1183.1,28.7 1206.1,27.9 1206.1,-32.6 						"/>
						<path d="M1183.1,30.5c-0.9,0-1.6-0.7-1.7-1.5l-7.2-61.4c-0.1-0.5,0.1-1,0.4-1.4c0.3-0.4,0.8-0.6,1.3-0.6h30.2
							c1,0,1.7,0.8,1.7,1.7v60.6c0,0.9-0.7,1.7-1.7,1.7L1183.1,30.5C1183.2,30.5,1183.1,30.5,1183.1,30.5z M1177.8-30.9l6.8,57.8
							l19.7-0.7v-57.2H1177.8z"/>
					</g>
					<g>
						<path class="st2" d="M1177.7,14.1c0,0-3,27.3-2,38.2c0.7,7.8,11.4,31.5,17.5,44.4c2.5,5.3,7.3,8.7,12.5,8.9
							c6.4,0.3,15.4,0.6,22.6,0.6c9.9,0,16.8-11.3,13.2-21.8c-3.3-9.7-8.5-21.9-16.7-34.9c-6.2-9.8-15.2-36.3-15.2-36.3H1191
							l-3.7,15.5L1177.7,14.1z"/>
						<path d="M1228.3,108C1228.3,108,1228.3,108,1228.3,108c-7.3,0-16.4-0.3-22.7-0.6c-5.9-0.3-11.3-4-14-9.9
							c-6.3-13.3-17-36.9-17.7-45c-0.9-11,1.9-37.4,2-38.6c0.1-0.7,0.6-1.3,1.3-1.5c0.7-0.2,1.5,0.1,1.9,0.7l7.4,11.3l2.7-11.6
							c0.2-0.8,0.9-1.3,1.7-1.3h18.7c0.7,0,1.4,0.5,1.6,1.2c0.1,0.3,9,26.5,15,35.9c7.1,11.2,12.7,23.1,16.8,35.3
							c2,6,1.1,12.5-2.5,17.5C1237.6,105.5,1233.1,108,1228.3,108z M1178.9,19.1c-0.8,8.3-2.2,25.1-1.6,33
							c0.5,5.5,6.8,21.5,17.3,43.8c2.2,4.7,6.4,7.7,11,7.9c6.3,0.3,15.3,0.6,22.5,0.6c0,0,0,0,0,0c3.7,0,7.2-1.9,9.5-5.2
							c2.9-4.1,3.7-9.4,2-14.4c-4-11.9-9.6-23.5-16.5-34.5c-5.5-8.8-13.1-30.2-14.9-35.5h-16.1l-3.4,14.2c-0.2,0.7-0.7,1.2-1.4,1.3
							c-0.7,0.1-1.4-0.2-1.8-0.8L1178.9,19.1z"/>
					</g>
					<path d="M1214,96.3c-8.1,0-15.4-4.7-19.2-12.2c-8.3-16.8-10-19.6-10.3-20.1c-0.6-0.6-0.6-1.6-0.1-2.3c0.6-0.7,1.7-0.9,2.5-0.3
						c0.5,0.4,1,0.8,11.1,21.1c3.1,6.3,9.3,10.3,16.1,10.3c0,0,0,0,0,0l21.3,0c1,0,1.7,0.8,1.7,1.7c0,1-0.8,1.7-1.7,1.7L1214,96.3
						C1214,96.3,1214,96.3,1214,96.3z"/>
					<path class="st5" d="M956.4-514.6c0,0,2.4,187.3,10.3,309.3C974.5-83.4,990.1,9.8,990.1,9.8s26.7,9.6,44.3,4.6
						c0,0,14.5-107,17.8-143.1c3.3-36.2-5.5-54.1-6.2-83.7c-0.7-29.6,12.8-160.3,12.8-160.3s100.7,295.4,112.2,360.6
						c0,0,24.4,4.1,41.6-5.3c0,0,0.5-116.2-1.9-134.1c-4.5-33.3-30.5-66-35.2-101.3s-7.4-124-20.2-177.1
						c-12.8-53.2-38-112.9-38-112.9L956.4-514.6z"/>
				</g>
			</g>
		</g>
	</g>
</g>
<g>
	<g>
		<g>
			<path class="st2" d="M297.4,481l288.4,285.7c4.1,4.1,8.9,6.1,14.2,6.1c5.4,0,10.1-2,14.2-6.1L902.6,481c4.1-4.1,6.2-8.8,6.2-14.1
				c0-5.3-2.1-10-6.2-14.1l-30.9-30.6c-4.1-4.1-8.9-6.1-14.2-6.1c-5.4,0-10.1,2-14.2,6.1L600,663.1L356.8,422.2
				c-4.1-4.1-8.9-6.1-14.2-6.1c-5.4,0-10.1,2-14.2,6.1l-30.9,30.7c-4.1,4.1-6.2,8.8-6.2,14.1C291.2,472.2,293.3,476.9,297.4,481z"/>
		</g>
	</g>
	<path class="st2" d="M600,1188.9c-330.9,0-600-266.7-600-594.5S269.2,0,600,0c330.8,0,600,266.7,600,594.5S930.8,1188.9,600,1188.9
		z M600,70.5c-291.6,0-528.9,235-528.9,524s237.3,524,528.9,524s528.8-235,528.8-524S891.6,70.5,600,70.5z"/>
</g>
</svg>
