<?xml version="1.0" encoding="utf-8"?>
<!-- Generator: Adobe Illustrator 26.0.0, SVG Export Plug-In . SVG Version: 6.00 Build 0)  -->
<svg version="1.1" id="Capa_1" xmlns="http://www.w3.org/2000/svg" xmlns:xlink="http://www.w3.org/1999/xlink" x="0px" y="0px"
	 viewBox="0 0 1200 1157.3" style="enable-background:new 0 0 1200 1157.3;" xml:space="preserve">
<style type="text/css">
	.st0{fill-rule:evenodd;clip-rule:evenodd;fill:#DB1C8B;}
	.st1{clip-path:url(#SVGID_00000058567480606653986290000011557208870877357189_);}
	.st2{fill:#FFFFFF;}
	.st3{fill-rule:evenodd;clip-rule:evenodd;fill:#35B3E6;}
	.st4{clip-path:url(#SVGID_00000103225321060502348540000013800298398192353926_);}
	.st5{fill:#1E1E1D;}
	.st6{fill:#35B3E6;}
	.st7{fill:#DB1C8B;}
	.st8{fill-rule:evenodd;clip-rule:evenodd;fill:#1EBAC8;}
	.st9{fill:#4BD4DB;}
	.st10{fill:#E240A4;}
	.st11{fill:#41BEE5;}
	.st12{fill:#56CDE8;}
	.st13{fill:#FFFFFF;stroke:#1E1E1D;stroke-width:4.9825;stroke-linecap:round;stroke-linejoin:round;stroke-miterlimit:10;}
	.st14{fill:#1E1E1D;stroke:#1E1E1D;stroke-width:4.9825;stroke-linecap:round;stroke-linejoin:round;stroke-miterlimit:10;}
	.st15{fill:none;stroke:#1E1E1D;stroke-width:4.9825;stroke-linecap:round;stroke-linejoin:round;stroke-miterlimit:10;}
	.st16{fill:none;stroke:#1E1E1D;stroke-width:2.4913;stroke-linecap:round;stroke-linejoin:round;stroke-miterlimit:10;}
	.st17{fill:#FFFFFF;stroke:#1E1E1D;stroke-width:1.9662;stroke-linecap:round;stroke-linejoin:round;stroke-miterlimit:10;}
	.st18{fill:#1E1E1D;stroke:#1E1E1D;stroke-width:1.9662;stroke-linecap:round;stroke-linejoin:round;stroke-miterlimit:10;}
	.st19{fill:none;stroke:#1E1E1D;stroke-width:1.9662;stroke-linecap:round;stroke-linejoin:round;stroke-miterlimit:10;}
	.st20{fill:none;stroke:#1E1E1D;stroke-width:0.9831;stroke-linecap:round;stroke-linejoin:round;stroke-miterlimit:10;}
	.st21{fill:#4B6FB5;}
</style>
<g>
	<g>
		<defs>
			<path id="SVGID_00000016760153184431502030000002961055192499093413_" d="M-20-1241.3v695l-172.9,426.5c0,0-67.7,149-272.6,36.4
				l-197.4-448.4l300.8-709.5H-20z"/>
		</defs>
		<clipPath id="SVGID_00000053545918180594672580000017544365619546120115_">
			<use xlink:href="#SVGID_00000016760153184431502030000002961055192499093413_"  style="overflow:visible;"/>
		</clipPath>
		<g style="clip-path:url(#SVGID_00000053545918180594672580000017544365619546120115_);">
			<g>
				<g>
					<g>
						<path class="st2" d="M-42.3-7.2c0,0-3,27.3-2,38.2c0.7,7.8,11.4,31.5,17.5,44.4c2.5,5.3,7.3,8.7,12.5,8.9
							c6.4,0.3,15.4,0.6,22.6,0.6c9.9,0,16.8-11.3,13.2-21.8C18.2,53.3,13,41.2,4.8,28.2C-1.3,18.4-10.3-8.1-10.3-8.1H-29l-3.7,15.5
							L-42.3-7.2z"/>
						<path d="M8.3,86.6C8.3,86.6,8.3,86.6,8.3,86.6C1,86.6-8.1,86.3-14.4,86c-5.9-0.3-11.3-4-14-9.9c-6.3-13.3-17-36.9-17.7-45
							c-0.9-11,1.9-37.4,2-38.6c0.1-0.7,0.6-1.3,1.3-1.5c0.7-0.2,1.5,0.1,1.9,0.7l7.4,11.3l2.7-11.6c0.2-0.8,0.9-1.3,1.7-1.3h18.7
							c0.7,0,1.4,0.5,1.6,1.2c0.1,0.3,9,26.5,15,35.9C13.4,38.5,19,50.3,23.1,62.5c2,6,1.1,12.5-2.5,17.5
							C17.6,84.2,13.1,86.6,8.3,86.6z M-41.1-2.2c-0.8,8.3-2.2,25.1-1.6,33c0.5,5.5,6.8,21.5,17.3,43.8c2.2,4.7,6.4,7.7,11,7.9
							C-8,82.8,1,83.1,8.3,83.1c0,0,0,0,0,0c3.7,0,7.2-1.9,9.5-5.2c2.9-4.1,3.7-9.4,2-14.4c-4-11.9-9.6-23.5-16.5-34.5
							C-2.2,20.4-9.7-1.1-11.6-6.4h-16.1L-31,7.8c-0.2,0.7-0.7,1.2-1.4,1.3c-0.7,0.1-1.4-0.2-1.8-0.8L-41.1-2.2z"/>
					</g>
					<path d="M-6,74.9c-8.1,0-15.4-4.7-19.2-12.2c-8.3-16.8-10-19.6-10.3-20.1c-0.6-0.6-0.6-1.6-0.1-2.3c0.6-0.7,1.7-0.9,2.5-0.3
						c0.5,0.4,1,0.8,11.1,21.1c3.1,6.3,9.3,10.3,16.1,10.3c0,0,0,0,0,0l21.3,0c1,0,1.7,0.8,1.7,1.7c0,1-0.8,1.7-1.7,1.7L-6,74.9
						C-6,74.9-6,74.9-6,74.9z"/>
					<path d="M5.5,52.8H-15c-1,0-1.7-0.8-1.7-1.7s0.8-1.7,1.7-1.7H5.5c1,0,1.7,0.8,1.7,1.7S6.4,52.8,5.5,52.8z"/>
				</g>
			</g>
		</g>
	</g>
</g>
<g>
	<path class="st2" d="M680.4,80.4h-67.5V12.9C612.9,5.8,607.1,0,600,0c-7.1,0-12.9,5.8-12.9,12.9v67.5h-67.5
		c-7.1,0-12.9,5.8-12.9,12.9c0,7.1,5.8,12.9,12.9,12.9h67.5v67.5c0,7.1,5.8,12.9,12.9,12.9c7.1,0,12.9-5.8,12.9-12.9v-67.5h67.5
		c7.1,0,12.9-5.8,12.9-12.9C693.3,86.2,687.5,80.4,680.4,80.4z"/>
	<path class="st2" d="M1088.7,262.7h-49.4v-49.4c0-5.2-4.2-9.4-9.4-9.4s-9.4,4.2-9.4,9.4v49.4h-49.4c-5.2,0-9.4,4.2-9.4,9.4
		c0,5.2,4.2,9.4,9.4,9.4h49.4v49.4c0,5.2,4.2,9.4,9.4,9.4s9.4-4.2,9.4-9.4v-49.4h49.4c5.2,0,9.4-4.2,9.4-9.4
		C1098.1,266.9,1093.9,262.7,1088.7,262.7z"/>
	<path class="st2" d="M227.9,262.7h-49.4v-49.4c0-5.2-4.2-9.4-9.4-9.4c-5.2,0-9.4,4.2-9.4,9.4v49.4h-49.4c-5.2,0-9.4,4.2-9.4,9.4
		c0,5.2,4.2,9.4,9.4,9.4h49.4v49.4c0,5.2,4.2,9.4,9.4,9.4c5.2,0,9.4-4.2,9.4-9.4v-49.4h49.4c5.2,0,9.4-4.2,9.4-9.4
		C237.3,266.9,233,262.7,227.9,262.7z"/>
	<g>
		<path class="st2" d="M598.4,272.1c-131.4,0-238.3,107-238.3,238.4c0,53.2,17.7,102.1,47.2,141.8C349.1,693,314,753.6,314,818.5
			v338.8h66.3V818.5c0-46.2,28-90.1,74.2-118.4c40,30.4,89.7,48.7,143.8,48.7c54.7,0,105-18.7,145.3-49.9
			c47.3,28.3,76,72.5,76,119.5v338.8H886V818.5c0-66-35.9-127.1-95.4-167.7c28.8-39.4,46.1-87.9,46.1-140.3
			C836.7,379.1,729.8,272.1,598.4,272.1z M598.4,682.6c-94.9,0-172-77.2-172-172.1c0-94.9,77.1-172.1,172-172.1
			c94.9,0,172.1,77.2,172.1,172.1C770.4,605.4,693.2,682.6,598.4,682.6z"/>
		<path class="st2" d="M66.3,764.9c0-20.3,11.6-39.7,30.8-54c24.6,16.3,54,25.9,85.6,25.9c85.7,0,155.4-69.7,155.4-155.4
			c0-85.7-69.7-155.4-155.4-155.4c-85.7,0-155.4,69.7-155.4,155.4c0,29.8,8.8,57.4,23.4,81.1C18.8,689.1,0,725.8,0,764.9v196.7h66.3
			V764.9z M182.7,492.4c49.2,0,89.1,40,89.1,89.1c0,49.1-40,89-89.1,89c-49.1,0-89-40-89-89C93.7,532.4,133.7,492.4,182.7,492.4z"/>
		<path class="st2" d="M1147.8,661.5c14.2-23.4,22.9-50.6,22.9-80c0-85.7-69.7-155.4-155.4-155.4c-85.7,0-155.4,69.7-155.4,155.4
			c0,85.7,69.7,155.4,155.4,155.4c32.1,0,62-9.8,86.8-26.5c19.7,14.2,31.6,33.9,31.6,54.6v196.7h66.3V764.9
			C1200,725.1,1180.7,687.9,1147.8,661.5z M1015.3,670.5c-49.2,0-89.1-40-89.1-89c0-49.2,40-89.1,89.1-89.1c49.1,0,89,40,89,89.1
			C1104.3,630.6,1064.4,670.5,1015.3,670.5z"/>
	</g>
</g>
</svg>
