<?xml version="1.0" encoding="utf-8"?>
<!-- Generator: Adobe Illustrator 26.0.0, SVG Export Plug-In . SVG Version: 6.00 Build 0)  -->
<svg version="1.1" id="Capa_1" xmlns="http://www.w3.org/2000/svg" xmlns:xlink="http://www.w3.org/1999/xlink" x="0px" y="0px"
	 viewBox="0 0 1200 1124.7" style="enable-background:new 0 0 1200 1124.7;" xml:space="preserve">
<style type="text/css">
	.st0{fill-rule:evenodd;clip-rule:evenodd;fill:#DB1C8B;}
	.st1{clip-path:url(#SVGID_00000039110538786676191450000014724545225004318137_);}
	.st2{fill:#FFFFFF;}
	.st3{fill-rule:evenodd;clip-rule:evenodd;fill:#35B3E6;}
	.st4{clip-path:url(#SVGID_00000160909795392194050680000004376811635319443085_);}
	.st5{fill:#1E1E1D;}
	.st6{fill:#35B3E6;}
	.st7{fill:#DB1C8B;}
	.st8{fill-rule:evenodd;clip-rule:evenodd;fill:#1EBAC8;}
	.st9{fill:#4BD4DB;}
	.st10{fill:#E240A4;}
	.st11{fill:#41BEE5;}
	.st12{fill:#56CDE8;}
	.st13{fill:#FFFFFF;stroke:#1E1E1D;stroke-width:4.9825;stroke-linecap:round;stroke-linejoin:round;stroke-miterlimit:10;}
	.st14{fill:#1E1E1D;stroke:#1E1E1D;stroke-width:4.9825;stroke-linecap:round;stroke-linejoin:round;stroke-miterlimit:10;}
	.st15{fill:none;stroke:#1E1E1D;stroke-width:4.9825;stroke-linecap:round;stroke-linejoin:round;stroke-miterlimit:10;}
	.st16{fill:none;stroke:#1E1E1D;stroke-width:2.4913;stroke-linecap:round;stroke-linejoin:round;stroke-miterlimit:10;}
	.st17{fill:#FFFFFF;stroke:#1E1E1D;stroke-width:1.9662;stroke-linecap:round;stroke-linejoin:round;stroke-miterlimit:10;}
	.st18{fill:#1E1E1D;stroke:#1E1E1D;stroke-width:1.9662;stroke-linecap:round;stroke-linejoin:round;stroke-miterlimit:10;}
	.st19{fill:none;stroke:#1E1E1D;stroke-width:1.9662;stroke-linecap:round;stroke-linejoin:round;stroke-miterlimit:10;}
	.st20{fill:none;stroke:#1E1E1D;stroke-width:0.9831;stroke-linecap:round;stroke-linejoin:round;stroke-miterlimit:10;}
	.st21{fill:#4B6FB5;}
</style>
<g>
	<path class="st2" d="M1186.4,349.7c-11.3-13.1-26.3-22.5-45-24.4c-24.4-1.9-50.7,9.4-61.9,31.9v1.9L995,554.2l-1.9-1.9
		c-22.5-18.8-54.4-18.8-76.9-1.9l-93.8,76.9c-58.2,7.5-103.2,50.7-112.6,108.8v1.9l-7.5,103.2l-13.1-5.6c-9.4-3.8-20.6,0-24.4,11.3
		l-60,150.1c-3.8,9.4,0,20.6,11.3,24.4c9.4,3.8,20.6,0,24.4-11.3l52.5-131.4l15,5.6c3.8,1.9,5.6,3.8,9.4,3.8l0,0l197,78.8
		l-52.5,131.4c-3.8,9.4,0,20.6,11.3,24.4c1.9,0,3.8,1.9,7.5,1.9c7.5,0,15-3.8,16.9-11.3l60-150.1c3.8-9.4,0-20.6-11.3-24.4l-15-5.6
		l45-50.7c120.1-137,197-304,223.3-484.1C1201.4,381.6,1197.7,364.7,1186.4,349.7z M1162,394.7c-24.4,172.6-99.5,332.1-213.9,463.5
		l-54.4,61.9l-155.7-61.9l7.5-114.5c7.5-41.3,43.2-73.2,84.4-76.9c3.8,0,7.5-1.9,11.3-3.8l99.5-80.7c7.5-7.5,20.6-5.6,28.1,0
		c9.4,7.5,9.4,20.6,1.9,30L865.5,732.5c-7.5,7.5-5.6,18.8,1.9,26.3c7.5,7.5,18.8,5.6,26.3-1.9l105.1-120.1
		c5.6-5.6,7.5-11.3,11.3-16.9l1.9-1.9l101.3-238.3c5.6-9.4,15-13.1,26.3-13.1c7.5,0,13.1,3.8,18.8,9.4
		C1160.1,379.7,1162,387.2,1162,394.7z"/>
	<path class="st2" d="M533.4,847c-1.9-3.8-5.6-7.5-9.4-9.4c-3.8-1.9-9.4-1.9-15,0l-13.1,5.6L488.3,740v-1.9
		C479,680,432.1,636.8,375.8,629.3l-93.8-76.9c-22.5-18.8-54.4-18.8-76.9,1.9c-1.9,0-1.9,1.9-1.9,1.9L120.6,361v-1.9
		c-13.1-22.5-37.5-35.7-61.9-31.9c-16.9,1.9-33.8,11.3-45,24.4s-15,31.9-13.1,48.8c26.3,180.1,103.2,347.2,223.3,484.1l45,50.7
		l-15,5.6c-9.4,3.8-15,15-11.3,24.4l60,150.1c3.8,7.5,9.4,11.3,16.9,11.3c1.9,0,3.8,0,7.5-1.9c9.4-3.8,15-15,11.3-24.4l-52.5-131.4
		l197-78.8l0,0c3.8,0,7.5-1.9,9.4-3.8l15-5.6l52.5,131.4c3.8,9.4,15,15,24.4,11.3c9.4-3.8,15-15,11.3-24.4L533.4,847z M250,858.2
		C135.6,726.9,62.4,565.5,36.1,394.7c-1.9-7.5,0-15,5.6-20.6c3.8-5.6,11.3-9.4,18.8-9.4c9.4-1.9,20.6,3.8,26.3,13.1l101.3,238.3
		c0,1.9,1.9,1.9,1.9,1.9c1.9,5.6,5.6,13.1,11.3,16.9L306.3,755c7.5,7.5,18.8,9.4,26.3,1.9c7.5-7.5,9.4-18.8,1.9-26.3L229.4,610.5
		c-7.5-9.4-7.5-22.5,1.9-30c7.5-7.5,18.8-7.5,28.1,0l99.5,80.7c3.8,1.9,7.5,3.8,11.3,3.8c43.2,3.8,76.9,35.7,84.4,76.9l7.5,114.5
		l-155.7,61.9L250,858.2z"/>
	<path class="st2" d="M497.7,950.2c-3.8-9.4-15-15-24.4-11.3c-9.4,3.8-15,15-11.3,24.4l15,39.4c3.8,7.5,9.4,11.3,16.9,11.3
		c1.9,0,3.8,0,7.5-1.9c9.4-3.8,15-15,11.3-24.4L497.7,950.2z"/>
	<path class="st2" d="M724.8,940.8c-9.4-3.8-20.6,1.9-24.4,11.3l-13.1,39.4c-3.8,9.4,1.9,20.6,11.3,24.4c1.9,0,3.8,1.9,5.6,1.9
		c7.5,0,15-5.6,16.9-13.1l13.1-39.4C739.8,953.9,734.2,942.7,724.8,940.8z"/>
	<path class="st2" d="M599.1,667.5c-2.9,0-9.7,0-16.1-3.7c-0.1,0-0.1-0.1-0.2-0.1H581l-5.3-4.2c-256.9-204.3-366.5-354.3-344.9-472
		c0.3-2.3,1-5,2.5-7.7c16.2-101.7,105-178,208.2-178c60,0,117.2,26,157.3,70.5C638.9,26.1,695.8,0,758.6,0
		c103.2,0,192,76.2,208.2,178c1.5,2.8,2.2,5.5,2.5,7.9c19.6,117.5-93.9,272.4-346.8,473.6l-1.6,1.3l-1.8,0.9
		C614.1,664.2,607.4,667.5,599.1,667.5z M597,626.7h2.6l0.7,0.7c234-186.5,345.4-331.9,331-432.4c-1.7-3-2.4-5.9-2.6-8.4
		c-12.1-84.3-85.2-147.7-170.2-147.7c-58.4,0-110.7,27.7-143.4,75.9l-15.8,23.3l-16.2-23c-32.7-46.5-85.7-74.3-141.7-74.3
		c-85,0-158.1,63.5-170.2,147.7c-0.2,2.5-1,5.5-2.7,8.6C252.8,295.8,363.2,440.4,597,626.7z"/>
</g>
</svg>
