<?xml version="1.0" encoding="utf-8"?>
<!-- Generator: Adobe Illustrator 26.0.0, SVG Export Plug-In . SVG Version: 6.00 Build 0)  -->
<svg version="1.1" id="Capa_1" xmlns="http://www.w3.org/2000/svg" xmlns:xlink="http://www.w3.org/1999/xlink" x="0px" y="0px"
	 viewBox="0 0 1200 1005" style="enable-background:new 0 0 1200 1005;" xml:space="preserve">
<style type="text/css">
	.st0{fill-rule:evenodd;clip-rule:evenodd;fill:#DB1C8B;}
	.st1{clip-path:url(#SVGID_00000072252927721213969180000015210242008425284028_);}
	.st2{fill:#FFFFFF;}
	.st3{fill-rule:evenodd;clip-rule:evenodd;fill:#35B3E6;}
	.st4{clip-path:url(#SVGID_00000092439401138658590130000004263062326306597813_);}
	.st5{fill:#1E1E1D;}
	.st6{fill:#35B3E6;}
	.st7{fill:#DB1C8B;}
	.st8{fill-rule:evenodd;clip-rule:evenodd;fill:#1EBAC8;}
	.st9{fill:#4BD4DB;}
	.st10{fill:#E240A4;}
	.st11{fill:#41BEE5;}
	.st12{fill:#56CDE8;}
	.st13{fill:#FFFFFF;stroke:#1E1E1D;stroke-width:4.9825;stroke-linecap:round;stroke-linejoin:round;stroke-miterlimit:10;}
	.st14{fill:#1E1E1D;stroke:#1E1E1D;stroke-width:4.9825;stroke-linecap:round;stroke-linejoin:round;stroke-miterlimit:10;}
	.st15{fill:none;stroke:#1E1E1D;stroke-width:4.9825;stroke-linecap:round;stroke-linejoin:round;stroke-miterlimit:10;}
	.st16{fill:none;stroke:#1E1E1D;stroke-width:2.4913;stroke-linecap:round;stroke-linejoin:round;stroke-miterlimit:10;}
	.st17{fill:#FFFFFF;stroke:#1E1E1D;stroke-width:1.9662;stroke-linecap:round;stroke-linejoin:round;stroke-miterlimit:10;}
	.st18{fill:#1E1E1D;stroke:#1E1E1D;stroke-width:1.9662;stroke-linecap:round;stroke-linejoin:round;stroke-miterlimit:10;}
	.st19{fill:none;stroke:#1E1E1D;stroke-width:1.9662;stroke-linecap:round;stroke-linejoin:round;stroke-miterlimit:10;}
	.st20{fill:none;stroke:#1E1E1D;stroke-width:0.9831;stroke-linecap:round;stroke-linejoin:round;stroke-miterlimit:10;}
	.st21{fill:#4B6FB5;}
</style>
<g>
	<path class="st6" d="M724.9,226.6c-62.5,0-113.3-50.8-113.3-113.3S662.4,0,724.9,0s113.3,50.8,113.3,113.3S787.3,226.6,724.9,226.6
		z M724.9,20.1c-51.4,0-93.2,41.8-93.2,93.2s41.8,93.2,93.2,93.2c51.4,0,93.2-41.8,93.2-93.2S776.3,20.1,724.9,20.1z"/>
	<path class="st6" d="M134.2,309.5C60.2,309.5,0,249.3,0,175.3S60.2,41.1,134.2,41.1s134.2,60.2,134.2,134.2
		S208.2,309.5,134.2,309.5z M134.2,61.2c-62.9,0-114.1,51.2-114.1,114.1s51.2,114.1,114.1,114.1s114.1-51.2,114.1-114.1
		S197.1,61.2,134.2,61.2z"/>
	<path class="st6" d="M134.2,811.1c-59,0-107-48-107-107c0-59,48-107,107-107c59,0,107,48,107,107
		C241.2,763.1,193.2,811.1,134.2,811.1z M134.2,617.2c-47.9,0-86.9,39-86.9,86.9c0,47.9,39,86.9,86.9,86.9s86.9-39,86.9-86.9
		C221.1,656.2,182.1,617.2,134.2,617.2z"/>
	<path class="st6" d="M817.8,1005c-71.9,0-130.4-58.5-130.4-130.4s58.5-130.4,130.4-130.4s130.4,58.5,130.4,130.4
		S889.7,1005,817.8,1005z M817.8,764.2c-60.8,0-110.3,49.5-110.3,110.3S757,984.9,817.8,984.9c60.8,0,110.3-49.5,110.3-110.3
		S878.6,764.2,817.8,764.2z"/>
	<path class="st6" d="M1056.1,473c-79.4,0-143.9-64.6-143.9-143.9s64.6-143.9,143.9-143.9S1200,249.7,1200,329
		S1135.4,473,1056.1,473z M1056.1,205.2c-68.3,0-123.8,55.6-123.8,123.8s55.6,123.8,123.8,123.8s123.8-55.6,123.8-123.8
		S1124.3,205.2,1056.1,205.2z"/>
	<g>
		<circle class="st6" cx="521.2" cy="473.8" r="194.8"/>
		<g>
			<path class="st2" d="M373.8,446.6L373.8,446.6c0-9.7,7.3-17.2,17.3-17.2c6.7,0,11.1,2.8,13.9,6.8l-6.8,5.3
				c-1.9-2.3-4-3.8-7.2-3.8c-4.6,0-7.8,3.9-7.8,8.7v0.1c0,4.9,3.2,8.8,7.8,8.8c3.4,0,5.4-1.6,7.4-4l6.8,4.9
				c-3.1,4.3-7.3,7.4-14.5,7.4C381.3,463.6,373.8,456.4,373.8,446.6z"/>
			<path class="st2" d="M407.1,446.6L407.1,446.6c0-9.5,7.6-17.2,17.7-17.2c10.1,0,17.6,7.6,17.6,17v0.1c0,9.4-7.6,17.1-17.7,17.1
				C414.6,463.6,407.1,456,407.1,446.6z M433.1,446.6L433.1,446.6c0-4.9-3.4-9-8.4-9c-5,0-8.3,4-8.3,8.8v0.1c0,4.7,3.4,8.9,8.4,8.9
				C429.8,455.4,433.1,451.3,433.1,446.6z"/>
			<path class="st2" d="M447.1,430.1h9.6l7.8,12.7l7.8-12.7h9.6v32.8h-9v-18.8l-8.4,12.8h-0.2l-8.3-12.8v18.8h-8.9V430.1z"/>
			<path class="st2" d="M487.8,430.1h14.1c8.3,0,13.6,4.2,13.6,11.5v0.1c0,7.8-6,11.9-14.1,11.9h-4.5v9.4h-9.1V430.1z M501.3,446.4
				c3.2,0,5.2-1.7,5.2-4.3V442c0-2.8-2-4.3-5.3-4.3h-4.3v8.7H501.3z"/>
			<path class="st2" d="M518.3,446.6L518.3,446.6c0-9.5,7.6-17.2,17.7-17.2c10.1,0,17.6,7.6,17.6,17v0.1c0,9.4-7.6,17.1-17.7,17.1
				C525.8,463.6,518.3,456,518.3,446.6z M544.3,446.6L544.3,446.6c0-4.9-3.4-9-8.4-9c-5,0-8.3,4-8.3,8.8v0.1c0,4.7,3.4,8.9,8.4,8.9
				C541,455.4,544.3,451.3,544.3,446.6z"/>
			<path class="st2" d="M558.4,430.1h15.5c5.1,0,8.5,1.3,10.7,3.5c1.9,1.9,2.9,4.5,2.9,7.6v0.1c0,5.1-2.6,8.4-6.8,10.1l7.8,11.4
				h-10.5l-6.6-9.9h-4v9.9h-9.1V430.1z M573.5,445.9c3,0,4.9-1.5,4.9-3.9v-0.1c0-2.6-1.9-3.9-4.9-3.9h-6v7.9H573.5z"/>
			<path class="st2" d="M600.1,438.1h-9.8v-8H619v8h-9.8v24.9h-9.1V438.1z"/>
			<path class="st2" d="M630.1,429.9h8.8l14,33.1h-9.8l-2.3-5.9h-12.7l-2.3,5.9h-9.5L630.1,429.9z M638.1,449.9l-3.7-9.3l-3.7,9.3
				H638.1z"/>
			<path class="st2" d="M653.2,444.4h15.4v7.8h-15.4V444.4z"/>
			<path class="st2" d="M427.7,483.7h9.6l7.8,12.7l7.8-12.7h9.6v32.8h-9v-18.8l-8.4,12.8H445l-8.3-12.8v18.8h-8.9V483.7z"/>
			<path class="st2" d="M468.7,483.7h9.1v32.8h-9.1V483.7z"/>
			<path class="st2" d="M483.8,483.7h26.4v7.7h-17.4v5h15.8v7.2h-15.8v5.2h17.6v7.7h-26.6V483.7z"/>
			<path class="st2" d="M515.1,483.7h8.5l13.5,17.3v-17.3h9v32.8h-7.9l-14.1-18v18h-9V483.7z"/>
			<path class="st2" d="M559.9,491.7h-9.8v-8h28.7v8H569v24.9h-9.1V491.7z"/>
			<path class="st2" d="M580.4,500.2L580.4,500.2c0-9.5,7.6-17.2,17.7-17.2c10.1,0,17.6,7.6,17.6,17v0.1c0,9.4-7.6,17.1-17.7,17.1
				C587.9,517.2,580.4,509.6,580.4,500.2z M606.4,500.2L606.4,500.2c0-4.9-3.4-9-8.4-9c-5,0-8.3,4-8.3,8.8v0.1
				c0,4.7,3.4,8.9,8.4,8.9C603.1,509,606.4,504.9,606.4,500.2z"/>
		</g>
	</g>
	<g>
		<path class="st6" d="M666.9,109.9l3.6-4.3c2.3,1.8,4.8,2.8,7.5,2.8c1.7,0,2.7-0.6,2.7-1.6v-0.1c0-1-0.8-1.5-3.9-2.2
			c-4.9-1.1-8.7-2.5-8.7-7.2v-0.1c0-4.3,3.4-7.4,8.9-7.4c4,0,7,1.1,9.5,3.1l-3.2,4.5c-2.1-1.5-4.4-2.3-6.5-2.3
			c-1.5,0-2.3,0.6-2.3,1.5v0.1c0,1,0.8,1.5,4,2.2c5.3,1.2,8.6,2.9,8.6,7.2v0.1c0,4.7-3.7,7.5-9.3,7.5
			C673.6,113.7,669.8,112.4,666.9,109.9z"/>
		<path class="st6" d="M697.7,90.1h6.2l9.8,23.2h-6.9l-1.6-4.2h-8.9l-1.6,4.2h-6.7L697.7,90.1z M703.3,104.2l-2.6-6.5l-2.6,6.5
			H703.3z"/>
		<path class="st6" d="M715.9,90.2h11.8c2.9,0,4.9,0.7,6.3,2c0.9,1,1.5,2.2,1.5,3.8v0.1c0,2.7-1.5,4.3-3.6,5.1
			c2.8,0.9,4.6,2.5,4.6,5.6v0.1c0,4-3.2,6.4-8.7,6.4h-11.9V90.2z M729.2,97.3c0-1.3-1-2-2.9-2h-4.2v4.1h4
			C728.1,99.4,729.2,98.8,729.2,97.3L729.2,97.3z M730.1,106c0-1.3-1-2.1-3.1-2.1h-4.9v4.3h4.9C729,108.2,730.1,107.4,730.1,106
			L730.1,106z"/>
		<path class="st6" d="M739.4,90.2H758v5.4h-12.2v3.5h11.1v5h-11.1v3.7h12.4v5.4h-18.7V90.2z"/>
		<path class="st6" d="M761.4,90.2h10.9c3.6,0,6,0.9,7.5,2.5c1.4,1.4,2,3.2,2,5.4v0.1c0,3.6-1.8,5.9-4.7,7.1l5.5,8h-7.3l-4.6-7h-2.8
			v7h-6.4V90.2z M772.1,101.3c2.1,0,3.4-1.1,3.4-2.7v-0.1c0-1.8-1.4-2.8-3.5-2.8h-4.2v5.6H772.1z"/>
		<path class="st6" d="M671.2,123.7h18.6v5.4h-12.2v3.5h11.1v5h-11.1v3.7h12.4v5.4h-18.7V123.7z"/>
		<path class="st6" d="M691.4,143.4l3.6-4.3c2.3,1.8,4.8,2.8,7.5,2.8c1.7,0,2.7-0.6,2.7-1.6v-0.1c0-1-0.8-1.5-3.9-2.2
			c-4.9-1.1-8.7-2.5-8.7-7.2v-0.1c0-4.3,3.4-7.4,8.9-7.4c4,0,7,1.1,9.5,3.1l-3.2,4.5c-2.1-1.5-4.4-2.3-6.5-2.3
			c-1.5,0-2.3,0.6-2.3,1.5v0.1c0,1,0.8,1.5,4,2.2c5.3,1.2,8.6,2.9,8.6,7.2v0.1c0,4.7-3.7,7.5-9.3,7.5
			C698.1,147.2,694.3,145.9,691.4,143.4z"/>
		<path class="st6" d="M719.6,129.3h-6.9v-5.6h20.2v5.6H726v17.5h-6.4V129.3z"/>
		<path class="st6" d="M740.8,123.6h6.2l9.8,23.2h-6.9l-1.6-4.2h-8.9l-1.6,4.2H731L740.8,123.6z M746.4,137.7l-2.6-6.5l-2.6,6.5
			H746.4z"/>
		<path class="st6" d="M759,123.7h10.9c3.6,0,6,0.9,7.5,2.5c1.4,1.4,2,3.2,2,5.4v0.1c0,3.6-1.8,5.9-4.7,7.1l5.5,8h-7.3l-4.6-7h-2.8
			v7H759V123.7z M769.6,134.8c2.1,0,3.4-1.1,3.4-2.7V132c0-1.8-1.4-2.8-3.5-2.8h-4.2v5.6H769.6z"/>
	</g>
	<g>
		<path class="st6" d="M63.8,163.1l4.3-5.2c2.8,2.2,5.9,3.4,9.1,3.4c2.1,0,3.2-0.7,3.2-1.9v-0.1c0-1.2-0.9-1.8-4.8-2.7
			c-5.9-1.4-10.6-3-10.6-8.8v-0.1c0-5.2,4.1-9,10.9-9c4.8,0,8.5,1.3,11.5,3.7l-3.9,5.5c-2.6-1.9-5.3-2.8-7.9-2.8
			c-1.9,0-2.8,0.7-2.8,1.8v0.1c0,1.2,1,1.9,4.9,2.7c6.4,1.4,10.4,3.5,10.4,8.7v0.1c0,5.7-4.5,9.1-11.3,9.1
			C71.9,167.7,67.3,166.1,63.8,163.1z"/>
		<path class="st6" d="M101.1,139h7.5l11.9,28.2h-8.3l-2-5H99.4l-2,5h-8.1L101.1,139z M107.9,156.1l-3.1-7.9l-3.2,7.9H107.9z"/>
		<path class="st6" d="M123.3,139.2h14.4c3.5,0,6,0.9,7.7,2.5c1.1,1.2,1.8,2.6,1.8,4.6v0.1c0,3.2-1.8,5.2-4.3,6.3
			c3.4,1.1,5.6,3,5.6,6.9v0.1c0,4.8-3.9,7.7-10.6,7.7h-14.5V139.2z M139.5,147.8c0-1.6-1.2-2.4-3.5-2.4h-5.1v4.9h4.9
			C138.1,150.4,139.5,149.6,139.5,147.8L139.5,147.8z M140.6,158.3c0-1.6-1.2-2.5-3.8-2.5h-5.9v5.2h6
			C139.3,161,140.6,160.1,140.6,158.3L140.6,158.3z"/>
		<path class="st6" d="M151.9,139.2h22.6v6.6h-14.9v4.3h13.5v6.1h-13.5v4.4h15.1v6.6h-22.8V139.2z"/>
		<path class="st6" d="M178.7,139.2h13.3c4.3,0,7.3,1.1,9.1,3c1.6,1.6,2.5,3.8,2.5,6.5v0.1c0,4.3-2.2,7.2-5.8,8.7l6.7,9.8h-8.9
			l-5.6-8.5h-3.4v8.5h-7.8V139.2z M191.6,152.6c2.6,0,4.2-1.3,4.2-3.3v-0.1c0-2.2-1.6-3.4-4.2-3.4h-5.1v6.8H191.6z"/>
		<path class="st6" d="M64,179.9h7.8v10.5h10v-10.5h7.8v28h-7.8v-10.7h-10V208H64V179.9z"/>
		<path class="st6" d="M104.2,179.7h7.5l11.9,28.2h-8.3l-2-5h-10.9l-2,5h-8.1L104.2,179.7z M111,196.9l-3.1-7.9l-3.2,7.9H111z"/>
		<path class="st6" d="M123.6,194L123.6,194c0-8.3,6.3-14.7,14.7-14.7c5.7,0,9.5,2.4,11.9,5.8l-5.9,4.5c-1.6-2-3.4-3.3-6.1-3.3
			c-3.9,0-6.7,3.4-6.7,7.5v0.1c0,4.2,2.8,7.5,6.7,7.5c2.9,0,4.6-1.4,6.3-3.4l5.8,4.2c-2.7,3.6-6.2,6.3-12.4,6.3
			C130.1,208.5,123.6,202.4,123.6,194z"/>
		<path class="st6" d="M153.8,179.9h22.6v6.6h-14.9v4.3H175v6.1h-13.5v4.4h15.1v6.6h-22.8V179.9z"/>
		<path class="st6" d="M180.6,179.9h13.3c4.3,0,7.3,1.1,9.1,3c1.6,1.6,2.5,3.8,2.5,6.5v0.1c0,4.3-2.2,7.2-5.8,8.7l6.7,9.8h-8.9
			l-5.6-8.5h-3.4v8.5h-7.8V179.9z M193.5,193.4c2.6,0,4.2-1.3,4.2-3.3V190c0-2.2-1.6-3.4-4.2-3.4h-5.1v6.8H193.5z"/>
	</g>
	<g>
		<path class="st6" d="M75.7,711.9l3.6-4.3c2.4,1.9,4.9,2.8,7.6,2.8c1.8,0,2.7-0.6,2.7-1.6v-0.1c0-1-0.8-1.5-4-2.3
			c-4.9-1.1-8.8-2.5-8.8-7.3v-0.1c0-4.4,3.4-7.5,9-7.5c4,0,7.1,1.1,9.6,3.1l-3.2,4.6c-2.1-1.6-4.4-2.3-6.5-2.3
			c-1.6,0-2.3,0.6-2.3,1.5v0.1c0,1,0.8,1.6,4.1,2.3c5.3,1.2,8.7,2.9,8.7,7.3v0.1c0,4.8-3.8,7.6-9.4,7.6
			C82.4,715.7,78.6,714.4,75.7,711.9z"/>
		<path class="st6" d="M106.7,691.9h6.2l9.9,23.5h-6.9l-1.7-4.2h-9l-1.7,4.2h-6.8L106.7,691.9z M112.4,706.1l-2.6-6.6l-2.6,6.6
			H112.4z"/>
		<path class="st6" d="M125.1,692h12c2.9,0,5,0.7,6.4,2.1c0.9,1,1.5,2.2,1.5,3.8v0.1c0,2.7-1.5,4.3-3.6,5.2c2.8,0.9,4.6,2.5,4.6,5.7
			v0.1c0,4-3.2,6.4-8.8,6.4h-12V692z M138.6,699.2c0-1.3-1-2-2.9-2h-4.2v4.1h4.1C137.5,701.3,138.6,700.7,138.6,699.2L138.6,699.2z
			 M139.5,708c0-1.3-1-2.1-3.2-2.1h-4.9v4.3h5C138.4,710.2,139.5,709.4,139.5,708L139.5,708z"/>
		<path class="st6" d="M148.9,692h18.7v5.5h-12.4v3.6h11.2v5.1h-11.2v3.7h12.5v5.5h-18.9V692z"/>
		<path class="st6" d="M171.2,692h11c3.6,0,6,0.9,7.6,2.5c1.4,1.4,2.1,3.2,2.1,5.4v0.1c0,3.6-1.9,6-4.8,7.2l5.6,8.1h-7.4l-4.7-7.1
			h-2.9v7.1h-6.5V692z M181.9,703.2c2.2,0,3.5-1.1,3.5-2.8v-0.1c0-1.9-1.4-2.8-3.5-2.8h-4.3v5.6H181.9z"/>
	</g>
	<g>
		<path class="st6" d="M996.7,323.4l-3.1-2.8c-2.4,1.6-5.3,2.5-8.6,2.5c-8.7,0-15.1-6.5-15.1-14.5v-0.1c0-8.1,6.5-14.6,15.2-14.6
			s15.1,6.5,15.1,14.5v0.1c0,3-0.9,5.7-2.5,8.1l2.9,2.5L996.7,323.4z M987.9,315.7l-3.9-3.3l3.9-4.4l3.8,3.5
			c0.3-0.9,0.5-1.8,0.5-2.8v-0.1c0-4.1-2.9-7.6-7.2-7.6s-7.2,3.6-7.2,7.6v0.1c0,4.1,2.9,7.6,7.2,7.6
			C986.1,316.2,987.1,316,987.9,315.7z"/>
		<path class="st6" d="M1004,310.2v-15.8h7.9V310c0,4.1,2,6,5.2,6c3.2,0,5.2-1.8,5.2-5.8v-15.8h7.9V310c0,9-5.2,13.1-13.2,13.1
			C1009,323.1,1004,319,1004,310.2z"/>
		<path class="st6" d="M1034.7,294.4h22.6v6.6h-14.9v4.3h13.5v6.1h-13.5v4.5h15.1v6.6h-22.8V294.4z"/>
		<path class="st6" d="M1061.6,294.4h13.3c4.3,0,7.3,1.1,9.2,3c1.6,1.6,2.5,3.9,2.5,6.6v0.1c0,4.3-2.3,7.2-5.8,8.7l6.7,9.8h-9
			l-5.7-8.5h-3.5v8.5h-7.8V294.4z M1074.6,307.9c2.6,0,4.2-1.3,4.2-3.3v-0.1c0-2.3-1.6-3.4-4.2-3.4h-5.1v6.8H1074.6z"/>
		<path class="st6" d="M1090.5,294.4h22.6v6.6h-14.9v4.3h13.5v6.1h-13.5v4.5h15.1v6.6h-22.8V294.4z"/>
		<path class="st6" d="M1117.3,294.4h13.3c4.3,0,7.3,1.1,9.2,3c1.6,1.6,2.5,3.9,2.5,6.6v0.1c0,4.3-2.3,7.2-5.8,8.7l6.7,9.8h-9
			l-5.7-8.5h-3.5v8.5h-7.8V294.4z M1130.3,307.9c2.6,0,4.2-1.3,4.2-3.3v-0.1c0-2.3-1.6-3.4-4.2-3.4h-5.1v6.8H1130.3z"/>
		<path class="st6" d="M985.6,334.6h7.8v10.5h10v-10.5h7.8v28.1h-7.8V352h-10v10.7h-7.8V334.6z"/>
		<path class="st6" d="M1025.9,334.4h7.5l12,28.3h-8.4l-2-5.1h-10.9l-2,5.1h-8.2L1025.9,334.4z M1032.8,351.6l-3.1-8l-3.2,8H1032.8z
			"/>
		<path class="st6" d="M1045.4,348.7L1045.4,348.7c0-8.3,6.3-14.7,14.8-14.7c5.7,0,9.5,2.4,11.9,5.8l-5.9,4.5
			c-1.6-2-3.4-3.3-6.1-3.3c-3.9,0-6.7,3.4-6.7,7.5v0.1c0,4.2,2.8,7.5,6.7,7.5c2.9,0,4.6-1.4,6.4-3.4l5.9,4.2
			c-2.7,3.7-6.2,6.3-12.4,6.3C1051.9,363.3,1045.4,357.1,1045.4,348.7z"/>
		<path class="st6" d="M1075.7,334.6h22.6v6.6h-14.9v4.3h13.5v6.1h-13.5v4.5h15.1v6.6h-22.8V334.6z"/>
		<path class="st6" d="M1102.6,334.6h13.3c4.3,0,7.3,1.1,9.2,3c1.6,1.6,2.5,3.9,2.5,6.6v0.1c0,4.3-2.3,7.2-5.8,8.7l6.7,9.8h-9
			l-5.7-8.5h-3.5v8.5h-7.8V334.6z M1115.6,348.1c2.6,0,4.2-1.3,4.2-3.3v-0.1c0-2.3-1.6-3.4-4.2-3.4h-5.1v6.8H1115.6z"/>
	</g>
	<g>
		<path class="st6" d="M746.8,839.9h12.1c7.1,0,11.7,3.6,11.7,9.8v0.1c0,6.7-5.1,10.2-12.1,10.2h-3.9v8h-7.8V839.9z M758.3,853.9
			c2.7,0,4.5-1.4,4.5-3.7v-0.1c0-2.4-1.7-3.7-4.5-3.7h-3.7v7.4H758.3z"/>
		<path class="st6" d="M772.9,854.1L772.9,854.1c0-8.2,6.5-14.7,15.2-14.7s15.1,6.5,15.1,14.5v0.1c0,8.1-6.5,14.6-15.2,14.6
			S772.9,862.1,772.9,854.1z M795.2,854.1L795.2,854.1c0-4.2-2.9-7.7-7.2-7.7s-7.2,3.5-7.2,7.5v0.1c0,4,2.9,7.6,7.2,7.6
			C792.4,861.6,795.2,858.1,795.2,854.1z"/>
		<path class="st6" d="M807.3,839.9h10.9c10,0,15.8,5.7,15.8,13.9v0.1c0,8.2-5.9,14.1-16,14.1h-10.7V839.9z M815.1,846.8v14.3h3.2
			c4.7,0,7.8-2.6,7.8-7.1V854c0-4.5-3.1-7.2-7.8-7.2H815.1z"/>
		<path class="st6" d="M838,839.9h22.6v6.6h-14.9v4.3h13.5v6.1h-13.5v4.5h15.1v6.6H838V839.9z"/>
		<path class="st6" d="M864.9,839.9h13.3c4.3,0,7.3,1.1,9.2,3c1.6,1.6,2.5,3.9,2.5,6.6v0.1c0,4.3-2.3,7.2-5.8,8.7l6.7,9.8h-9
			l-5.7-8.5h-3.5v8.5h-7.8V839.9z M877.9,853.4c2.6,0,4.2-1.3,4.2-3.3V850c0-2.3-1.6-3.4-4.2-3.4h-5.1v6.8H877.9z"/>
		<path class="st6" d="M747.4,880.1h7.8v10.5h10v-10.5h7.8v28.1h-7.8v-10.7h-10v10.7h-7.8V880.1z"/>
		<path class="st6" d="M787.7,879.9h7.5l12,28.3h-8.4l-2-5.1h-10.9l-2,5.1h-8.2L787.7,879.9z M794.5,897.1l-3.1-8l-3.2,8H794.5z"/>
		<path class="st6" d="M807.2,894.3L807.2,894.3c0-8.3,6.3-14.7,14.8-14.7c5.7,0,9.5,2.4,11.9,5.8l-5.9,4.5c-1.6-2-3.4-3.3-6.1-3.3
			c-3.9,0-6.7,3.4-6.7,7.5v0.1c0,4.2,2.8,7.5,6.7,7.5c2.9,0,4.6-1.4,6.4-3.4l5.9,4.2c-2.7,3.7-6.2,6.4-12.4,6.4
			C813.6,908.8,807.2,902.7,807.2,894.3z"/>
		<path class="st6" d="M837.5,880.1h22.6v6.6h-14.9v4.3h13.5v6.1h-13.5v4.5h15.1v6.6h-22.8V880.1z"/>
		<path class="st6" d="M864.3,880.1h13.3c4.3,0,7.3,1.1,9.2,3c1.6,1.6,2.5,3.9,2.5,6.6v0.1c0,4.3-2.3,7.2-5.8,8.7l6.7,9.8h-9
			l-5.7-8.5h-3.5v8.5h-7.8V880.1z M877.3,893.6c2.6,0,4.2-1.3,4.2-3.3v-0.1c0-2.3-1.6-3.4-4.2-3.4h-5.1v6.8H877.3z"/>
	</g>
	
		<rect x="560.7" y="268.1" transform="matrix(0.5428 -0.8399 0.8399 0.5428 61.4495 662.4002)" class="st6" width="156.7" height="13.4"/>
	
		<rect x="292.9" y="217.8" transform="matrix(0.6184 -0.7858 0.7858 0.6184 -131.0071 354.5315)" class="st6" width="13.4" height="188.7"/>
	
		<rect x="201.6" y="591.3" transform="matrix(0.8209 -0.5711 0.5711 0.8209 -287.8384 278.1982)" class="st6" width="196" height="13.4"/>
	
		<rect x="693.8" y="404.7" transform="matrix(0.9441 -0.3296 0.3296 0.9441 -89.8994 292.5391)" class="st6" width="248.1" height="13.4"/>
	
		<rect x="674.9" y="544.6" transform="matrix(0.7955 -0.606 0.606 0.7955 -265.8015 549.8055)" class="st6" width="13.4" height="248.1"/>
</g>
</svg>
