<?xml version="1.0" encoding="utf-8"?>
<!-- Generator: Adobe Illustrator 26.0.0, SVG Export Plug-In . SVG Version: 6.00 Build 0)  -->
<svg version="1.1" id="Capa_1" xmlns="http://www.w3.org/2000/svg" xmlns:xlink="http://www.w3.org/1999/xlink" x="0px" y="0px"
	 viewBox="0 0 1200 805.8" style="enable-background:new 0 0 1200 805.8;" xml:space="preserve">
<style type="text/css">
	.st0{fill-rule:evenodd;clip-rule:evenodd;fill:#DB1C8B;}
	.st1{clip-path:url(#SVGID_00000105397256006810108610000006767259395697950122_);}
	.st2{fill:#FFFFFF;}
	.st3{fill-rule:evenodd;clip-rule:evenodd;fill:#35B3E6;}
	.st4{clip-path:url(#SVGID_00000144320777919452926640000017962888539481886653_);}
	.st5{fill:#1E1E1D;}
	.st6{fill:#35B3E6;}
	.st7{fill:#DB1C8B;}
	.st8{fill-rule:evenodd;clip-rule:evenodd;fill:#1EBAC8;}
	.st9{fill:#4BD4DB;}
	.st10{fill:#E240A4;}
	.st11{fill:#41BEE5;}
	.st12{fill:#56CDE8;}
	.st13{fill:#FFFFFF;stroke:#1E1E1D;stroke-width:4.9825;stroke-linecap:round;stroke-linejoin:round;stroke-miterlimit:10;}
	.st14{fill:#1E1E1D;stroke:#1E1E1D;stroke-width:4.9825;stroke-linecap:round;stroke-linejoin:round;stroke-miterlimit:10;}
	.st15{fill:none;stroke:#1E1E1D;stroke-width:4.9825;stroke-linecap:round;stroke-linejoin:round;stroke-miterlimit:10;}
	.st16{fill:none;stroke:#1E1E1D;stroke-width:2.4913;stroke-linecap:round;stroke-linejoin:round;stroke-miterlimit:10;}
	.st17{fill:#FFFFFF;stroke:#1E1E1D;stroke-width:1.9662;stroke-linecap:round;stroke-linejoin:round;stroke-miterlimit:10;}
	.st18{fill:#1E1E1D;stroke:#1E1E1D;stroke-width:1.9662;stroke-linecap:round;stroke-linejoin:round;stroke-miterlimit:10;}
	.st19{fill:none;stroke:#1E1E1D;stroke-width:1.9662;stroke-linecap:round;stroke-linejoin:round;stroke-miterlimit:10;}
	.st20{fill:none;stroke:#1E1E1D;stroke-width:0.9831;stroke-linecap:round;stroke-linejoin:round;stroke-miterlimit:10;}
	.st21{fill:#4B6FB5;}
</style>
<g>
	<polygon class="st13" points="339.1,365.6 562.4,0 714,582.4 575.7,617 	"/>
	<polygon class="st14" points="141.8,110.1 98,170.8 151.4,156 	"/>
	<polygon class="st14" points="339.1,365.6 440.1,429.5 369.6,436.1 	"/>
	<polygon class="st14" points="571.7,402.9 680.8,579.7 609,599.7 	"/>
	<polygon class="st13" points="591.7,577.1 1200.7,519.9 728.6,748.6 664.8,792.5 	"/>
	<polygon class="st13" points="349.7,436.1 571.7,402.9 674.1,805.8 	"/>
	<polygon class="st13" points="141.8,110.1 161.7,91.7 204.6,125.4 348.7,389.1 209.2,471.8 	"/>
	<line class="st15" x1="183.2" y1="120.8" x2="141.8" y2="110.1"/>
	<polygon class="st13" points="339.1,365.6 0,624.9 674.1,805.8 	"/>
	<line class="st16" x1="210" y1="590.9" x2="458.7" y2="550.5"/>
	<line class="st16" x1="9.3" y1="623.6" x2="186" y2="594.8"/>
	<line class="st16" x1="667.7" y1="697.2" x2="654.2" y2="686.1"/>
	<line class="st16" x1="719.3" y1="739.3" x2="679" y2="706.3"/>
	<line class="st16" x1="539.7" y1="345.8" x2="537.2" y2="386.9"/>
	<line class="st16" x1="558.4" y1="35.9" x2="541.1" y2="321.8"/>
</g>
</svg>
