<svg id="Capa_1" data-name="Capa 1" xmlns="http://www.w3.org/2000/svg" viewBox="0 0 3401.57 985.71"><defs><style>.cls-1{fill:#d62a87;}.cls-2{fill:#37b3e6;}.cls-3{fill:#fff;}</style></defs><path class="cls-1" d="M3.22.54h1734a0,0,0,0,1,0,0V985.71a0,0,0,0,1,0,0H3.22A3.22,3.22,0,0,1,0,982.49V3.76A3.22,3.22,0,0,1,3.22.54Z"/><path class="cls-2" d="M1772.47,0H3398.35a3.22,3.22,0,0,1,3.22,3.22V177.55a0,0,0,0,1,0,0H1772.47a0,0,0,0,1,0,0V0A0,0,0,0,1,1772.47,0Z"/><rect class="cls-2" x="1772.47" y="202.04" width="1629.1" height="177.55"/><rect class="cls-2" x="1772.47" y="404.08" width="1629.1" height="177.55"/><rect class="cls-2" x="1772.47" y="606.12" width="1629.1" height="177.55"/><path class="cls-2" d="M1772.47,808.16h1629.1a0,0,0,0,1,0,0V982.49a3.22,3.22,0,0,1-3.22,3.22H1772.47a0,0,0,0,1,0,0V808.16A0,0,0,0,1,1772.47,808.16Z"/><path class="cls-3" d="M210.55,469.21h37.76c12.31,0,20.64,3.5,26,9.39,4.68,5.14,7.07,12,7.07,20.42v.25c0,13.54-6.38,22.43-16.42,27.07L284,556.91H258.57l-16.08-26.56h-9.81v26.56H210.55Zm36.84,42.09c7.42,0,11.87-4,11.87-10.4v-.25c0-7-4.68-10.52-12-10.52h-14.6V511.3Z"/><path class="cls-3" d="M292.56,469.21h64.21v20.54H314.45v13.41h38.33v19.17H314.45v13.91h42.89v20.67H292.56Z"/><path class="cls-3" d="M388.25,490.51H364.41v-21.3h69.92v21.3h-24v66.4H388.25Z"/><path class="cls-3" d="M444,469.21h37.76c12.32,0,20.64,3.5,26,9.39,4.68,5.14,7.08,12,7.08,20.42v.25c0,13.54-6.39,22.43-16.43,27.07l19.05,30.57H492L476,530.35h-9.81v26.56H444Zm36.85,42.09c7.41,0,11.86-4,11.86-10.4v-.25c0-7-4.68-10.52-12-10.52h-14.6V511.3Z"/><path class="cls-3" d="M523.39,513.31v-.25c0-25.19,18.48-45.61,43.12-45.61s42.88,20.3,42.88,45.36v.25c0,25.18-18.47,45.6-43.11,45.6S523.39,538.37,523.39,513.31Zm63.31,0v-.25c0-12.78-8.22-23.68-20.42-23.68S546,500.15,546,512.81v.25c0,12.53,8.32,23.68,20.53,23.68S586.7,526,586.7,513.31Z"/><path class="cls-3" d="M643.26,468.58h21.33l34,88.33H674.86l-5.7-15.79H638.25l-5.71,15.79H609.39Zm19.39,53.62-8.89-24.8-9,24.8Z"/><path class="cls-3" d="M706.33,469.21h22.13v66.4h38.67v21.3h-60.8Z"/><path class="cls-3" d="M777.27,469.21H799.4v87.7H777.27Z"/><path class="cls-3" d="M814,469.21h23.38l19,34,19-34h23.39v87.7h-22V506.54l-20.41,34.33H856l-20.3-34.2v50.24H814Z"/><path class="cls-3" d="M913,469.21h64.22v20.54H934.89v13.41h38.33v19.17H934.89v13.91h42.89v20.67H913Z"/><path class="cls-3" d="M989.18,469.21h20.64l32.85,46.35V469.21h21.9v87.7H1045.3l-34.22-48.11v48.11h-21.9Z"/><path class="cls-3" d="M1098.21,490.51h-23.84v-21.3h69.92v21.3h-24v66.4h-22.13Z"/><path class="cls-3" d="M1171.32,468.58h21.33l34,88.33h-23.73l-5.7-15.79H1166.3l-5.7,15.79h-23.16Zm19.39,53.62-8.9-24.8-9,24.8Z"/><path class="cls-3" d="M1226.63,513.31v-.25c0-25.56,17.8-45.61,42-45.61,16.19,0,26.91,7.52,33.87,18.17l-16.65,14.16c-4.56-6.14-9.7-10.28-17.45-10.28-11.18,0-19.05,10.53-19.05,23.31v.25c0,13.15,7.87,23.43,19.05,23.43,8.32,0,13.11-4.26,18-10.65l16.65,13c-7.64,11.4-17.68,19.79-35.24,19.79C1245,558.66,1226.63,539.49,1226.63,513.31Z"/><path class="cls-3" d="M1313.2,469.21h22.12v87.7H1313.2Z"/><path class="cls-3" d="M1347.3,513.31v-.25c0-25.19,18.47-45.61,43.11-45.61s42.89,20.3,42.89,45.36v.25c0,25.18-18.48,45.6-43.12,45.6S1347.3,538.37,1347.3,513.31Zm63.3,0v-.25c0-12.78-8.21-23.68-20.42-23.68s-20.3,10.77-20.3,23.43v.25c0,12.53,8.33,23.68,20.53,23.68S1410.6,526,1410.6,513.31Zm-16.54-71.67,20.65,6.89-16.88,13.41h-16.09Z"/><path class="cls-3" d="M1444.7,469.21h20.64l32.85,46.35V469.21h21.9v87.7h-19.28L1466.6,508.8v48.11h-21.9Z"/><path class="cls-3" d="M2378.09,53h49.39V67.25h-35.12V82.42h30.95V96.67h-30.95v27.59h-14.27Z"/><path class="cls-3" d="M2437.4,69.7h14.08v11c2.88-7.43,7.42-12.42,15.85-12V84.86h-.74c-9.36,0-15.11,6.11-15.11,19.25v20.15H2437.4Z"/><path class="cls-3" d="M2472.33,97.29v-.21c0-15.57,10.11-28.4,24.56-28.4,16.59,0,24.19,14.15,24.19,29.62,0,1.22-.1,2.55-.19,4.08h-34.56c1.39,7,5.84,10.68,12.14,10.68,4.72,0,8.06-1.62,12-5.59l8.06,7.84a23.89,23.89,0,0,1-20.29,10.18C2483.36,125.49,2472.33,114,2472.33,97.29Zm35-4.59c-.83-6.92-4.54-11.6-10.47-11.6s-9.64,4.58-10.75,11.6Z"/><path class="cls-3" d="M2529.14,97.29v-.21c0-15.57,10.84-28.4,26-28.4,9.36,0,15.1,3.46,19.83,9.16L2566.39,88c-3.24-3.66-6.21-6-11.3-6C2548,82,2543,88.73,2543,96.88v.2c0,8.45,4.91,15.07,12.6,15.07,4.73,0,8-2.24,11.4-5.8l8.25,9.16c-4.82,5.8-10.38,10-20.3,10C2540.07,125.49,2529.14,112.76,2529.14,97.29Z"/><path class="cls-3" d="M2584.09,105V69.7h14.09v30.44c0,7.33,3.05,11.09,8.52,11.09s8.8-3.76,8.8-11.09V69.7h14.09v54.56H2615.5v-7.73c-3.24,4.58-7.5,8.75-14.54,8.75C2590.21,125.28,2584.09,117.65,2584.09,105Z"/><path class="cls-3" d="M2639.78,97.29v-.21c0-15.57,10.1-28.4,24.56-28.4,16.59,0,24.18,14.15,24.18,29.62,0,1.22-.09,2.55-.18,4.08h-34.57c1.39,7,5.84,10.68,12.14,10.68,4.73,0,8.07-1.62,12.05-5.59l8.06,7.84a23.89,23.89,0,0,1-20.29,10.18C2650.81,125.49,2639.78,114,2639.78,97.29Zm35-4.59c-.83-6.92-4.54-11.6-10.47-11.6s-9.64,4.58-10.75,11.6Z"/><path class="cls-3" d="M2699,69.7h14.08v7.73c3.24-4.58,7.51-8.75,14.55-8.75,10.75,0,16.86,7.63,16.86,20.26v35.32h-14.08V93.82c0-7.33-3.06-11.09-8.53-11.09s-8.8,3.76-8.8,11.09v30.44H2699Z"/><path class="cls-3" d="M2759,108.79V82.93h-5.93V69.7H2759v-14h14.09v14h11.67V82.93h-11.67v23.31c0,3.57,1.48,5.3,4.54,5.3a12.83,12.83,0,0,0,6.95-1.94V122a19.34,19.34,0,0,1-11.12,3.16C2765,125.18,2759,121.41,2759,108.79Z"/><path class="cls-3" d="M2791.38,97.29v-.21c0-15.57,10.1-28.4,24.56-28.4,16.59,0,24.18,14.15,24.18,29.62,0,1.22-.09,2.55-.18,4.08h-34.56c1.39,7,5.83,10.68,12.13,10.68,4.73,0,8.07-1.62,12-5.59l8.06,7.84a23.89,23.89,0,0,1-20.29,10.18C2802.41,125.49,2791.38,114,2791.38,97.29Zm35-4.59c-.83-6.92-4.54-11.6-10.47-11.6s-9.64,4.58-10.75,11.6Z"/><path class="cls-3" d="M2271.53,256.6h25.29c20.39,0,34.48,15.38,34.48,35.43v.2c0,20.06-14.09,35.64-34.48,35.64h-25.29Zm14.27,14.15v43h11c11.59,0,19.56-8.66,19.56-21.28v-.21c0-12.62-8-21.48-19.56-21.48Z"/><path class="cls-3" d="M2342.79,253.55h14.82v13.74h-14.82Zm.37,19.75h14.08v54.57h-14.08Z"/><path class="cls-3" d="M2366.6,320.64l6-10.18c5.47,4.38,10.94,6.51,15.67,6.51,4.07,0,5.93-1.63,5.93-4.07v-.2c0-3.36-4.82-4.38-10.29-6.31-6.95-2.14-14.83-5.81-14.83-16.4v-.2c0-11.1,8.16-17.31,18.17-17.31a32.48,32.48,0,0,1,18.53,6.32l-5.38,10.69c-4.91-3.16-9.82-5.09-13.43-5.09-3.43,0-5.19,1.62-5.19,3.76v.21c0,2.85,4.72,4.68,10.1,6.51,6.95,2.44,15,6.21,15,16.19v.2c0,12.12-8.25,17.62-19,17.62A32.87,32.87,0,0,1,2366.6,320.64Z"/><path class="cls-3" d="M2414.6,300.89v-.21c0-15.57,10.84-28.4,26-28.4,9.36,0,15.11,3.46,19.83,9.16l-8.62,10.18c-3.24-3.66-6.2-6-11.3-6-7,0-12.05,6.72-12.05,14.86v.2c0,8.45,4.91,15.07,12.61,15.07,4.72,0,8-2.24,11.39-5.8l8.25,9.16c-4.82,5.8-10.38,10-20.29,10C2425.54,329.09,2414.6,316.36,2414.6,300.89Z"/><path class="cls-3" d="M2469.92,273.3H2484v11c2.87-7.43,7.41-12.42,15.85-12v16.19h-.75c-9.35,0-15.1,6.11-15.1,19.24v20.16h-14.09Z"/><path class="cls-3" d="M2508.94,253.55h14.82v13.74h-14.82Zm.37,19.75h14.08v54.57h-14.08Z"/><path class="cls-3" d="M2536.64,273.3h14.09V281c3.24-4.59,7.51-8.76,14.64-8.76,6.58,0,11.4,3.05,14,8.65,4.36-5.7,9.55-8.65,16.31-8.65,10.47,0,16.78,6.92,16.78,20.06v35.53h-14.09V297.43c0-7.33-3-11.1-8.25-11.1s-8.52,3.77-8.52,11.1v30.44H2567.5V297.43c0-7.33-3-11.1-8.25-11.1s-8.52,3.77-8.52,11.1v30.44h-14.09Z"/><path class="cls-3" d="M2625,253.55h14.82v13.74H2625Zm.37,19.75h14.08v54.57h-14.08Z"/><path class="cls-3" d="M2652.66,273.3h14.09V281c3.24-4.59,7.5-8.76,14.55-8.76,10.74,0,16.86,7.64,16.86,20.26v35.33h-14.08V297.43c0-7.33-3.06-11.1-8.53-11.1s-8.8,3.77-8.8,11.1v30.44h-14.09Z"/><path class="cls-3" d="M2707.43,312.19V312c0-11.8,8.24-17.4,20-17.4a32.31,32.31,0,0,1,12.14,2.24v-.92c0-6.52-3.61-10-10.65-10a31.89,31.89,0,0,0-13.72,2.95l-3.52-11.81a41.83,41.83,0,0,1,19.27-4.37c7.79,0,13.16,2.14,16.78,6.11s5.37,10.07,5.37,17.4v31.67h-13.62V322a18.21,18.21,0,0,1-15,6.93C2715.12,328.89,2707.43,323.08,2707.43,312.19Zm32.34-3.56v-2.75a20.37,20.37,0,0,0-9-2c-6,0-9.73,2.65-9.73,7.53v.21c0,4.17,3.15,6.61,7.69,6.61C2735.41,318.19,2739.77,314.33,2739.77,308.63Z"/><path class="cls-3" d="M2767.1,312.39V286.53h-5.93V273.3h5.93V259.35h14.09V273.3h11.68v13.23h-11.68v23.32c0,3.56,1.48,5.29,4.54,5.29a12.91,12.91,0,0,0,6.95-1.93v12.42a19.37,19.37,0,0,1-11.12,3.15C2773,328.78,2767.1,325,2767.1,312.39Z"/><path class="cls-3" d="M2799.45,300.89v-.21c0-15.67,11.49-28.4,27-28.4,15.29,0,26.78,12.42,26.78,28.2v.2c0,15.68-11.49,28.41-27,28.41C2810.94,329.09,2799.45,316.67,2799.45,300.89Zm39.84,0v-.21c0-8-5.28-15.06-13.06-15.06-8.07,0-12.89,6.72-12.89,14.86v.2c0,8.05,5.29,15.07,13.07,15.07C2834.47,315.75,2839.29,309,2839.29,300.89Z"/><path class="cls-3" d="M2863.38,273.3h14.09v11c2.87-7.43,7.41-12.42,15.85-12v16.19h-.75c-9.36,0-15.1,6.11-15.1,19.24v20.16h-14.09Z"/><path class="cls-3" d="M2902.4,253.55h14.82v13.74H2902.4Zm.37,19.75h14.08v54.57h-14.08Z"/><path class="cls-3" d="M2927.14,312.19V312c0-11.8,8.25-17.4,20-17.4a32.31,32.31,0,0,1,12.14,2.24v-.92c0-6.52-3.61-10-10.65-10a31.89,31.89,0,0,0-13.72,2.95l-3.52-11.81a41.84,41.84,0,0,1,19.28-4.37c7.78,0,13.15,2.14,16.77,6.11s5.37,10.07,5.37,17.4v31.67H2959.2V322a18.21,18.21,0,0,1-15,6.93C2934.83,328.89,2927.14,323.08,2927.14,312.19Zm32.34-3.56v-2.75a20.37,20.37,0,0,0-9-2c-6,0-9.73,2.65-9.73,7.53v.21c0,4.17,3.15,6.61,7.69,6.61C2955.12,318.19,2959.48,314.33,2959.48,308.63Z"/><path class="cls-3" d="M2442.68,460.21h29.65c8.25,0,14.55,2.44,18.91,7.22,3.7,4.08,5.56,9.47,5.56,16.29v.21c0,11.5-5.66,18.73-13.9,22.09l15.84,25.45h-16.68l-13.9-22.8H2457v22.8h-14.27Zm28.73,34.61c7,0,10.93-4,10.93-10.08v-.2c0-6.82-4.17-10.18-11.21-10.18H2457v20.46Z"/><path class="cls-3" d="M2504.86,504.49v-.2c0-15.58,10.1-28.41,24.56-28.41,16.58,0,24.18,14.15,24.18,29.63,0,1.22-.09,2.55-.18,4.07h-34.57c1.39,7,5.84,10.69,12.14,10.69,4.73,0,8.06-1.63,12.05-5.6l8.06,7.84a23.87,23.87,0,0,1-20.29,10.18C2515.89,532.69,2504.86,521.19,2504.86,504.49Zm35-4.58c-.84-6.92-4.54-11.61-10.47-11.61s-9.64,4.59-10.75,11.61Z"/><path class="cls-3" d="M2561.11,515.79v-.2c0-11.81,8.24-17.41,20-17.41a32.51,32.51,0,0,1,12.14,2.24v-.92c0-6.51-3.61-10-10.65-10a31.75,31.75,0,0,0-13.72,3l-3.52-11.81a41.71,41.71,0,0,1,19.28-4.38c7.78,0,13.15,2.14,16.77,6.11s5.37,10.08,5.37,17.41v31.66h-13.62v-5.91a18.21,18.21,0,0,1-15,6.93C2568.8,532.49,2561.11,526.69,2561.11,515.79Zm32.34-3.56v-2.75a20.51,20.51,0,0,0-9-2c-6,0-9.73,2.65-9.73,7.54v.2c0,4.17,3.15,6.62,7.69,6.62C2589.09,521.8,2593.45,517.93,2593.45,512.23Z"/><path class="cls-3" d="M2619.58,457.15h14.09v74.32h-14.09Z"/><path class="cls-3" d="M2647.19,457.15H2662V470.9h-14.83Zm.37,19.75h14.09v54.57h-14.09Z"/><path class="cls-3" d="M2671,524.24l6-10.18c5.47,4.38,10.94,6.52,15.66,6.52,4.08,0,5.93-1.63,5.93-4.08v-.2c0-3.36-4.82-4.38-10.28-6.31-7-2.14-14.83-5.8-14.83-16.39v-.2c0-11.1,8.15-17.31,18.16-17.31a32.5,32.5,0,0,1,18.54,6.31l-5.38,10.69c-4.91-3.16-9.82-5.09-13.44-5.09-3.42,0-5.18,1.63-5.18,3.77v.2c0,2.85,4.72,4.68,10.1,6.51,7,2.45,15,6.21,15,16.19v.21c0,12.11-8.25,17.61-19,17.61A32.87,32.87,0,0,1,2671,524.24Z"/><path class="cls-3" d="M2722.81,516V490.14h-5.93V476.9h5.93V463h14.08V476.9h11.68v13.24h-11.68v23.31c0,3.56,1.49,5.29,4.55,5.29a12.93,12.93,0,0,0,6.95-1.93v12.42a19.41,19.41,0,0,1-11.12,3.16C2728.74,532.39,2722.81,528.62,2722.81,516Z"/><path class="cls-3" d="M2756,515.79v-.2c0-11.81,8.25-17.41,20-17.41a32.55,32.55,0,0,1,12.14,2.24v-.92c0-6.51-3.62-10-10.66-10a31.74,31.74,0,0,0-13.71,3l-3.52-11.81a41.67,41.67,0,0,1,19.27-4.38c7.78,0,13.16,2.14,16.77,6.11s5.38,10.08,5.38,17.41v31.66h-13.62v-5.91a18.23,18.23,0,0,1-15,6.93C2763.68,532.49,2756,526.69,2756,515.79Zm32.34-3.56v-2.75a20.49,20.49,0,0,0-9-2c-6,0-9.73,2.65-9.73,7.54v.2c0,4.17,3.15,6.62,7.69,6.62C2784,521.8,2788.32,517.93,2788.32,512.23Z"/><path class="cls-3" d="M2393.66,663.81h14.27v71.26h-14.27Z"/><path class="cls-3" d="M2422.66,680.5h14.09v7.74c3.24-4.58,7.51-8.75,14.55-8.75,10.75,0,16.86,7.63,16.86,20.26v35.32h-14.08V704.63c0-7.33-3.06-11.09-8.53-11.09s-8.8,3.76-8.8,11.09v30.44h-14.09Z"/><path class="cls-3" d="M2480.39,680.5h14.09v7.74c3.24-4.58,7.51-8.75,14.64-8.75,6.58,0,11.4,3,14,8.65,4.36-5.7,9.55-8.65,16.31-8.65,10.47,0,16.78,6.92,16.78,20v35.53h-14.09V704.63c0-7.33-3-11.09-8.25-11.09s-8.52,3.76-8.52,11.09v30.44h-14.09V704.63c0-7.33-3-11.09-8.24-11.09s-8.53,3.76-8.53,11.09v30.44h-14.09Z"/><path class="cls-3" d="M2566,708.09v-.2c0-15.58,10.1-28.4,24.56-28.4,16.58,0,24.18,14.15,24.18,29.62,0,1.22-.09,2.55-.18,4.07H2580c1.39,7,5.84,10.69,12.14,10.69,4.73,0,8.06-1.63,12-5.6l8.06,7.84A23.89,23.89,0,0,1,2592,736.29C2577.05,736.29,2566,724.79,2566,708.09Zm35-4.58c-.84-6.92-4.54-11.6-10.47-11.6s-9.64,4.58-10.75,11.6Z"/><path class="cls-3" d="M2623,707.89v-.2c0-18.23,10.84-28.2,22.61-28.2,7.5,0,12.14,3.76,15.47,8.14V660.75h14.09v74.32h-14.09v-7.84c-3.42,5.2-8.06,8.86-15.47,8.86C2634,736.09,2623,726.11,2623,707.89Zm38.27,0v-.2c0-9.06-5.47-15.07-12.05-15.07s-12.14,5.9-12.14,15.07v.2c0,9.06,5.56,15.07,12.14,15.07S2661.28,717,2661.28,707.89Z"/><path class="cls-3" d="M2688.06,660.75h14.83V674.5h-14.83Zm.37,19.75h14.09v54.57h-14.09Z"/><path class="cls-3" d="M2712.8,719.4v-.21c0-11.81,8.25-17.41,20-17.41A32.59,32.59,0,0,1,2745,704v-.91c0-6.52-3.62-10-10.66-10a31.89,31.89,0,0,0-13.72,3l-3.52-11.81a41.87,41.87,0,0,1,19.28-4.38c7.78,0,13.16,2.14,16.77,6.11s5.38,10.08,5.38,17.41v31.66h-13.63v-5.9a18.23,18.23,0,0,1-15,6.92C2720.49,736.09,2712.8,730.29,2712.8,719.4Zm32.34-3.57v-2.75a20.51,20.51,0,0,0-9-2c-6,0-9.73,2.64-9.73,7.53v.2c0,4.18,3.15,6.62,7.69,6.62C2740.79,725.4,2745.14,721.53,2745.14,715.83Z"/><path class="cls-3" d="M2772.48,719.6V693.74h-5.93V680.5h5.93V666.56h14.08V680.5h11.68v13.24h-11.68v23.31c0,3.57,1.49,5.3,4.54,5.3a12.81,12.81,0,0,0,7-1.94v12.42a19.29,19.29,0,0,1-11.12,3.16C2778.41,736,2772.48,732.22,2772.48,719.6Z"/><path class="cls-3" d="M2805.65,719.4v-.21c0-11.81,8.25-17.41,20-17.41a32.55,32.55,0,0,1,12.14,2.24v-.91c0-6.52-3.62-10-10.66-10a31.85,31.85,0,0,0-13.71,3l-3.52-11.81a41.79,41.79,0,0,1,19.27-4.38c7.78,0,13.16,2.14,16.77,6.11s5.38,10.08,5.38,17.41v31.66h-13.62v-5.9a18.25,18.25,0,0,1-15,6.92C2813.34,736.09,2805.65,730.29,2805.65,719.4Zm32.34-3.57v-2.75a20.51,20.51,0,0,0-9-2c-6,0-9.73,2.64-9.73,7.53v.2c0,4.18,3.16,6.62,7.7,6.62C2833.64,725.4,2838,721.53,2838,715.83Z"/><path class="cls-3" d="M2425.77,903.25V903c0-20.26,14.55-36.85,34.56-36.85s34.38,16.39,34.38,36.65v.2c0,20.26-14.55,36.86-34.56,36.86S2425.77,923.51,2425.77,903.25Zm54,0V903c0-12.21-8.15-22.39-19.64-22.39s-19.46,10-19.46,22.19v.2c0,12.22,8.15,22.4,19.64,22.4S2479.79,915.46,2479.79,903.25Z"/><path class="cls-3" d="M2520,931.55v7.13h-14.08V864.36H2520V892c3.43-5.2,8.06-8.86,15.48-8.86,11.58,0,22.61,10,22.61,28.2v.2c0,18.23-10.85,28.2-22.61,28.2C2528,939.69,2523.35,935.93,2520,931.55Zm24-20.06v-.2c0-9.06-5.56-15.07-12.14-15.07s-12,6-12,15.07v.2c0,9.06,5.46,15.07,12,15.07S2544,920.66,2544,911.49Z"/><path class="cls-3" d="M2561.15,954.66V942.54a16.56,16.56,0,0,0,3,.31c3,0,5-1.73,5-6.31V884.11h14.09v53.65c0,12.11-5.47,17.51-15.94,17.51A26.69,26.69,0,0,1,2561.15,954.66Zm7.6-90.3h14.83V878.1h-14.83Z"/><path class="cls-3" d="M2594.05,911.7v-.21c0-15.57,10.1-28.4,24.56-28.4,16.58,0,24.18,14.15,24.18,29.62,0,1.23-.09,2.55-.18,4.08H2608c1.39,7,5.84,10.69,12.14,10.69,4.73,0,8.06-1.63,12.05-5.6l8.06,7.84A23.9,23.9,0,0,1,2620,939.9C2605.08,939.9,2594.05,928.39,2594.05,911.7Zm35-4.58c-.84-6.93-4.54-11.61-10.47-11.61s-9.64,4.58-10.75,11.61Z"/><path class="cls-3" d="M2655.58,923.2V897.34h-5.93V884.11h5.93v-14h14.09v14h11.67v13.23h-11.67v23.32c0,3.56,1.48,5.29,4.54,5.29a12.93,12.93,0,0,0,6.95-1.93v12.42a19.41,19.41,0,0,1-11.12,3.15C2661.51,939.59,2655.58,935.82,2655.58,923.2Z"/><path class="cls-3" d="M2692,864.36h14.82V878.1H2692Zm.37,19.75h14.08v54.57h-14.08Z"/><path class="cls-3" d="M2715.26,884.11h14.92l11.11,36.55,11.22-36.55h14.64l-19.55,55h-12.79Z"/><path class="cls-3" d="M2770,923v-.21c0-11.81,8.25-17.41,20-17.41a32.59,32.59,0,0,1,12.14,2.24v-.91c0-6.52-3.62-10-10.66-10a31.85,31.85,0,0,0-13.71,2.95l-3.53-11.81a41.87,41.87,0,0,1,19.28-4.37c7.78,0,13.16,2.13,16.77,6.1s5.38,10.08,5.38,17.41v31.67h-13.63v-5.91c-3.42,4.17-8.06,6.92-15,6.92C2777.71,939.69,2770,933.89,2770,923Zm32.34-3.57v-2.74a20.37,20.37,0,0,0-9-2c-6,0-9.73,2.65-9.73,7.53v.21c0,4.17,3.15,6.61,7.7,6.61C2798,929,2802.36,925.14,2802.36,919.43Z"/></svg>