<svg xmlns="http://www.w3.org/2000/svg" viewBox="0 0 757.76 199.88"><defs><style>.cls-1{fill:#db1c8b;}.cls-2{fill:#35b3e6;}.cls-3{font-size:25.41px;font-family:Gotham-Black, Gotham;font-weight:800;}.cls-3,.cls-7{fill:#fff;}.cls-4{letter-spacing:-0.04em;}.cls-5{letter-spacing:-0.09em;}.cls-6{letter-spacing:0em;}.cls-7{font-size:20.64px;font-family:Gotham-Bold, Gotham;font-weight:700;}.cls-8{letter-spacing:-0.02em;}.cls-9{letter-spacing:0em;}.cls-10{letter-spacing:-0.01em;}.cls-11{letter-spacing:0em;}.cls-12{letter-spacing:0em;}.cls-13{letter-spacing:-0.02em;}.cls-14{letter-spacing:0em;}</style></defs><g id="Capa_2" data-name="Capa 2"><g id="Capa_1-2" data-name="Capa 1"><path class="cls-1" d="M3.22.11H387a0,0,0,0,1,0,0V199.88a0,0,0,0,1,0,0H3.22A3.22,3.22,0,0,1,0,196.66V3.33A3.22,3.22,0,0,1,3.22.11Z"/><path class="cls-2" d="M394.85,0H754.54a3.22,3.22,0,0,1,3.22,3.22V36a0,0,0,0,1,0,0H394.85a0,0,0,0,1,0,0V0A0,0,0,0,1,394.85,0Z"/><rect class="cls-2" x="394.85" y="40.97" width="362.91" height="36"/><rect class="cls-2" x="394.85" y="81.94" width="362.91" height="36"/><rect class="cls-2" x="394.85" y="122.91" width="362.91" height="36"/><path class="cls-2" d="M394.85,163.88H757.76a0,0,0,0,1,0,0v32.78a3.22,3.22,0,0,1-3.22,3.22H394.85a0,0,0,0,1,0,0v-36A0,0,0,0,1,394.85,163.88Z"/><text class="cls-3" transform="translate(45.33 112.93)">RETR<tspan class="cls-4" x="70.28" y="0">O</tspan><tspan x="90.25" y="0">ALIMEN</tspan><tspan class="cls-5" x="193.4" y="0">T</tspan><tspan class="cls-4" x="207.88" y="0">A</tspan><tspan class="cls-6" x="226.94" y="0">CIÓN</tspan></text><text class="cls-7" transform="translate(528.03 25.2)">F<tspan class="cls-8" x="13.54" y="0">r</tspan><tspan x="21.86" y="0">ecuen</tspan><tspan class="cls-8" x="84.68" y="0">t</tspan><tspan x="92.94" y="0">e </tspan><tspan x="-23.74" y="41.29">Discrimin</tspan><tspan class="cls-9" x="74.36" y="41.29">a</tspan><tspan class="cls-8" x="86.47" y="41.29">t</tspan><tspan x="94.73" y="41.29">oria</tspan><tspan class="cls-10" x="14.39" y="82.57">R</tspan><tspan x="29.11" y="82.57">eali</tspan><tspan class="cls-10" x="66.45" y="82.57">s</tspan><tspan class="cls-11" x="76.61" y="82.57">ta</tspan><tspan x="3.32" y="123.86">Inmedi</tspan><tspan class="cls-12" x="75.55" y="123.86">a</tspan><tspan class="cls-11" x="87.67" y="123.86">ta</tspan><tspan x="11.26" y="165.15">Objeti</tspan><tspan class="cls-13" x="76.43" y="165.15">v</tspan><tspan class="cls-14" x="88.3" y="165.15">a</tspan></text></g></g></svg>