<svg id="Capa_1" data-name="Capa 1" xmlns="http://www.w3.org/2000/svg" viewBox="0 0 3401.57 1503.71"><defs><style>.cls-1{fill:#b3dff0;}.cls-2{fill:#d62a87;}.cls-3{fill:#37b3e6;}.cls-4{fill:#fff;}.cls-5{fill:#010101;}</style></defs><rect class="cls-1" x="1765.4" y="254.75" width="1636.18" height="220.55"/><path class="cls-2" d="M6.82.69H447.34a0,0,0,0,1,0,0v1503a0,0,0,0,1,0,0H6.82a7,7,0,0,1-7-7V7.66a7,7,0,0,1,7-7Z"/><rect class="cls-3" x="479.13" y="0.69" width="1254.93" height="474.62"/><path class="cls-1" d="M1765.4.69H3394.6a7,7,0,0,1,7,7V221.24a0,0,0,0,1,0,0H1765.4a0,0,0,0,1,0,0V.69A0,0,0,0,1,1765.4.69Z"/><rect class="cls-1" x="1765.4" y="514.89" width="1636.18" height="220.55"/><rect class="cls-1" x="1765.4" y="768.95" width="1636.18" height="220.55"/><rect class="cls-1" x="1765.4" y="1032.76" width="1636.18" height="220.55"/><path class="cls-1" d="M1765.4,1286.82H3401.57a0,0,0,0,1,0,0V1500.4a7,7,0,0,1-7,7H1765.4a0,0,0,0,1,0,0V1286.82A0,0,0,0,1,1765.4,1286.82Z"/><rect class="cls-3" x="479.13" y="1029.09" width="1254.93" height="474.62"/><rect class="cls-3" x="479.13" y="514.89" width="1254.93" height="474.62"/><path class="cls-4" d="M249.66,1258.25l-13.95,21.31c6.84,6.27,11.4,12.4,11.4,23,0,14.3-11,24.36-25.07,24.36h-.27c-13.68,0-24.94-10.06-24.94-24.36,0-9.92,4.42-16.49,11-22.32L192.67,1259c-11.4,8.9-19.44,22.62-19.44,43.34,0,30.93,21.45,53.69,48.81,53.69h.26c28,0,48.55-23.49,48.55-52.67C270.85,1280.87,261.86,1268,249.66,1258.25Z"/><path class="cls-4" d="M222,1142.26h-.27c-26.82,0-48.54,23.35-48.54,54.86s21.85,55.15,48.81,55.15h.26c26.82,0,48.55-23.34,48.55-54.86S249,1142.26,222,1142.26Zm0,81.12h-.27c-13.54,0-25.08-10.36-25.08-26s11.67-26.11,25.35-26.11h.26c13.55,0,25.08,10.36,25.08,25.82C247.38,1212.73,235.45,1223.38,222,1223.38Z"/><polygon class="cls-4" points="268.97 1019.12 175.1 1019.12 175.1 1049.03 211.44 1073.4 175.1 1097.76 175.1 1127.67 268.97 1127.67 268.97 1099.95 215.2 1099.95 251.81 1073.98 251.81 1073.4 215.06 1047.28 268.97 1047.28 268.97 1019.12"/><path class="cls-4" d="M269,972.72H242.15V958.57c0-25.24-11.66-43.77-33.92-43.77H208c-20.79,0-32.86,16.63-32.86,42.31V1001H269Zm-47.2,0H197V959.3c0-10.07,4.16-16.34,12.2-16.34h.27c7.51,0,12.34,6.27,12.34,16.19Z"/><polygon class="cls-4" points="268.97 819.96 246.84 819.96 246.84 874.83 231.96 874.83 231.96 825.8 211.44 825.8 211.44 874.83 197.09 874.83 197.09 820.69 175.1 820.69 175.1 902.84 268.97 902.84 268.97 819.96"/><polygon class="cls-4" points="268.97 752.12 197.9 752.12 197.9 721.48 175.1 721.48 175.1 810.92 197.9 810.92 197.9 780.42 268.97 780.42 268.97 752.12"/><polygon class="cls-4" points="268.97 626.21 246.84 626.21 246.84 681.07 231.96 681.07 231.96 632.04 211.44 632.04 211.44 681.07 197.09 681.07 197.09 626.94 175.1 626.94 175.1 709.08 268.97 709.08 268.97 626.21"/><polygon class="cls-4" points="268.97 515.17 175.1 515.17 175.1 543.19 224.72 543.19 175.1 585.21 175.1 611.62 268.97 611.62 268.97 583.61 217.48 583.61 268.97 539.83 268.97 515.17"/><path class="cls-4" d="M222,500.44h.26c28,0,48.55-23.49,48.55-52.67,0-22.47-9-35.31-21.19-45.08L235.71,424c6.84,6.27,11.4,12.4,11.4,23.05,0,14.3-11,24.37-25.07,24.37h-.27c-13.68,0-24.94-10.07-24.94-24.37,0-9.92,4.42-16.49,11-22.32l-15.15-21.3c-11.4,8.9-19.44,22.61-19.44,43.33C173.23,477.68,194.68,500.44,222,500.44Z"/><rect class="cls-4" x="175.1" y="361.4" width="93.87" height="28.31"/><path class="cls-4" d="M269,267V236.65l-94.54,43.48v27.28L269,350.75V321.13l-16.9-7.3V274.29Zm-37.14,38.52L205.28,294l26.55-11.38Z"/><path class="cls-4" d="M203.53,231.11h.27c19.31,0,24.81-16.93,29.37-38.52,3.21-14,5.09-17.37,9.12-17.37h.26c4.16,0,6.44,4.09,6.44,11.82,0,11.68-3.75,22.76-11.26,33.12L255,235.92c10.33-12.84,15.56-29.62,15.56-47.86,0-24.8-11.4-41.29-30.57-41.29h-.27c-17.57,0-24.54,14.59-29.23,37.94-2.82,14.3-5,17.8-9.12,17.8h-.27c-3.62,0-6-3.36-6-10.21a51.53,51.53,0,0,1,9.26-28.6L186,149.55c-8.18,11.08-12.48,24.51-12.48,42C173.49,216.08,186,231.11,203.53,231.11Z"/><path class="cls-5" d="M2402.56,320.07l-1.29-2.92c-6.45,2.68-8.92,6.42-8.92,13.79v8.64h7.09v-9.93h-2.9C2396.22,325.09,2397.94,322.76,2402.56,320.07Z"/><path class="cls-5" d="M2421.89,320.07l-1.29-2.92c-6.44,2.68-8.91,6.42-8.91,13.79v8.64h7.09v-9.93h-2.9C2415.55,325.09,2417.27,322.76,2421.89,320.07Z"/><path class="cls-5" d="M2465,355.6c-17.83-4.09-21.91-9.12-21.91-17.88v-.24c0-8.41,7.19-15.43,18.36-15.43,8.27,0,15.26,2.58,22.45,9.24l3.55-4.79c-7.63-6.67-14.93-9.94-25.78-9.94-14,0-24.17,9.35-24.17,21.51v.23c0,12.5,7.2,18.93,25.35,23,17.08,3.74,21.27,8.77,21.27,17.41V379c0,9.35-7.74,16.24-19,16.24-11.07,0-18.69-3.74-27-12.15l-3.65,4.56c9,8.76,18.25,13.09,30.28,13.09,14.5,0,24.92-9.12,24.92-22.33v-.23C2489.66,366.11,2482.47,359.45,2465,355.6Z"/><path class="cls-5" d="M2526.72,339c-7.63,0-13.43,2-19.44,5.14l1.93,5a34,34,0,0,1,17.18-4.79c11.28,0,18.05,6.07,18.05,18.23v2.57a60.35,60.35,0,0,0-18.15-2.57c-14.18,0-23.95,6.89-23.95,19.4v.23c0,12.51,10.95,18.7,21.15,18.7a24.66,24.66,0,0,0,21-11.34v9.94h5.15V362.37c0-7.13-1.82-12.73-5.58-16.82C2540,341.22,2534.24,339,2526.72,339Zm17.83,38.22c0,10.86-9.56,18.34-20.73,18.34-8.38,0-15.9-5-15.9-13.67v-.23c0-8.42,6.44-13.91,18-13.91a67,67,0,0,1,18.58,2.69Z"/><path class="cls-5" d="M2596.31,338.53c-10.84,0-17.93,6.9-22.55,14.73v-39h-5.26v85.32h5.26V386.68c4.62,7.48,11.6,14.26,22.55,14.26,13.22,0,26.64-11.92,26.64-31.2v-.24C2623,350.1,2609.53,338.53,2596.31,338.53Zm21,31.44c0,15.89-9.45,25.48-21.48,25.48-11.5,0-22.34-10.29-22.34-25.6v-.23c0-15.19,10.84-25.59,22.34-25.59s21.48,10.05,21.48,25.71Z"/><path class="cls-5" d="M2661.62,338.53c-14.83,0-26,13.91-26,31.09v.23c0,18.7,12.46,31.09,26.85,31.09,10.42,0,17.08-4.68,22.67-11.22l-3.65-3.51c-4.62,5.26-10.21,9.35-18.8,9.35-10.63,0-20.62-8.64-21.48-23.49h45.43a15.7,15.7,0,0,0,.11-2.33C2686.75,352.09,2677,338.53,2661.62,338.53Zm-20.41,28.4c.86-13.2,9.34-23.14,20.19-23.14,12.57,0,18.8,11.1,19.66,23.14Z"/><path class="cls-5" d="M2707.37,356.88V339.93h-5.26v59.61h5.26V375.11c0-19.28,11.17-29.8,23.74-29.8h.53V339C2720.69,338.65,2711.77,346.13,2707.37,356.88Z"/><path class="cls-5" d="M2767.52,317.73v9.93h2.9c.32,4.56-1.4,6.9-6,9.59l1.29,2.92c6.44-2.69,8.91-6.43,8.91-13.79v-8.65Z"/><path class="cls-5" d="M2748.18,327.66h2.9c.32,4.56-1.39,6.9-6,9.59l1.29,2.92c6.44-2.69,8.91-6.43,8.91-13.79v-8.65h-7.09Z"/><path class="cls-4" d="M813.12,1230.33,780,1315h17.34l7.06-18.86h32.69l7.07,18.86h17.78l-33.13-84.71Zm-2.65,49.5,10.27-27.27L831,1279.83Z"/><path class="cls-4" d="M905.66,1299.42c-13.25,0-22.42-12-22.42-26.43v-.24c0-14.42,9.39-26.2,22.42-26.2,7.84,0,13.69,3.6,19.76,9.49l10.83-13.58c-7.07-7.69-16-13-30.48-13-23.74,0-40.31,19.58-40.31,43.5v.24c0,24.15,16.9,43.25,39.65,43.25,15,0,23.74-5.76,31.69-15L926,1289.57C919.9,1295.7,914.49,1299.42,905.66,1299.42Z"/><polygon class="cls-4" points="944.86 1247.99 968.38 1247.99 968.38 1315.04 985.39 1315.04 985.39 1247.99 1008.91 1247.99 1008.91 1230.93 944.86 1230.93 944.86 1247.99"/><rect class="cls-4" x="1022.72" y="1230.93" width="17.01" height="84.11"/><polygon class="cls-4" points="1053.53 1247.99 1077.05 1247.99 1077.05 1315.04 1094.05 1315.04 1094.05 1247.99 1117.57 1247.99 1117.57 1230.93 1053.53 1230.93 1053.53 1247.99"/><path class="cls-4" d="M1179.75,1279.11c0,13.46-6.19,20.19-16.68,20.19s-16.67-7-16.67-20.79v-47.58h-17V1279c0,24.88,12.7,37.37,33.46,37.37s33.9-12.49,33.9-38v-47.46h-17Z"/><path class="cls-4" d="M1244.24,1230.93h-30.15V1315h30.15c24.29,0,41.08-18.38,41.08-42v-.24C1285.32,1249.07,1268.53,1230.93,1244.24,1230.93Zm23.3,42.3c0,14.9-9.5,25.11-23.3,25.11H1231.1v-50.71h13.14c13.8,0,23.3,10.46,23.3,25.36Z"/><polygon class="cls-4" points="1317.35 1280.92 1353.79 1280.92 1353.79 1264.45 1317.35 1264.45 1317.35 1247.39 1358.76 1247.39 1358.76 1230.93 1300.45 1230.93 1300.45 1315.04 1359.31 1315.04 1359.31 1298.58 1317.35 1298.58 1317.35 1280.92"/><path class="cls-4" d="M1405.8,1264.69c-13.36-3.84-16.67-5.4-16.67-11v-.24c0-4.21,3.31-7.33,9.94-7.33s13.14,3.12,20.09,8.29l8.84-13.94a42.51,42.51,0,0,0-28.71-10.69c-15.91,0-27.06,10.09-27.06,25.35v.24c0,16.58,9.94,21.51,25.62,25.72,12.92,3.48,15.57,6,15.57,10.69v.24c0,4.93-4.08,7.93-11.15,7.93-8.84,0-16-4-23.08-10.21l-10,13.1a46.25,46.25,0,0,0,32.8,13.45c16.67,0,28.38-9.37,28.38-26.07v-.24C1430.32,1275.27,1421.48,1269.26,1405.8,1264.69Z"/><polygon class="cls-4" points="767.94 751.92 736.58 751.92 736.58 718.64 719.57 718.64 719.57 802.75 736.58 802.75 736.58 768.99 767.94 768.99 767.94 802.75 784.95 802.75 784.95 718.64 767.94 718.64 767.94 751.92"/><path class="cls-4" d="M830,718l-33.12,84.71h17.33l7.07-18.86H854L861,802.75h17.78L845.68,718Zm-2.65,49.51,10.27-27.28,10.27,27.28Z"/><path class="cls-4" d="M942,758.77c5.52-3.12,10.16-8.77,10.16-18.14v-.24a20.41,20.41,0,0,0-5.3-14.3c-4.53-4.93-11.27-7.45-20.21-7.45H890.74v84.11h36.77c17.45,0,28.94-7.69,28.94-23.07v-.24C956.45,768.27,950.92,762.5,942,758.77ZM907.3,734.86h16.79c7.18,0,11.15,3,11.15,8.65v.24c0,6.25-4.74,8.89-12.25,8.89H907.3Zm32.25,42.54c0,6.25-4.53,9.13-12,9.13H907.3V768H927c8.84,0,12.59,3.48,12.59,9.13Z"/><rect class="cls-4" x="971.24" y="718.64" width="17.01" height="84.11"/><polygon class="cls-4" points="1024.58 718.64 1007.58 718.64 1007.58 802.75 1063.12 802.75 1063.12 785.93 1024.58 785.93 1024.58 718.64"/><rect class="cls-4" x="1076.71" y="718.64" width="17.01" height="84.11"/><path class="cls-4" d="M1143.18,718.64H1113v84.11h30.14c24.3,0,41.08-18.38,41.08-42v-.24C1184.26,736.78,1167.48,718.64,1143.18,718.64Zm23.3,42.3c0,14.9-9.49,25.11-23.3,25.11H1130V735.34h13.14c13.81,0,23.3,10.46,23.3,25.36Z"/><path class="cls-4" d="M1220.38,718l-33.13,84.71h17.34l7.06-18.86h32.69l7.07,18.86h17.78L1236.06,718Zm-2.65,49.51L1228,740.27l10.27,27.28Z"/><path class="cls-4" d="M1311.26,718.64h-30.14v84.11h30.14c24.3,0,41.08-18.38,41.08-42v-.24C1352.34,736.78,1335.56,718.64,1311.26,718.64Zm23.3,42.3c0,14.9-9.49,25.11-23.3,25.11h-13.14V735.34h13.14c13.81,0,23.3,10.46,23.3,25.36Z"/><polygon class="cls-4" points="1384.37 768.63 1420.81 768.63 1420.81 752.16 1384.37 752.16 1384.37 735.1 1425.78 735.1 1425.78 718.64 1367.47 718.64 1367.47 802.75 1426.33 802.75 1426.33 786.29 1384.37 786.29 1384.37 768.63"/><path class="cls-4" d="M1472.82,752.4c-13.36-3.84-16.67-5.4-16.67-11v-.24c0-4.21,3.31-7.33,9.94-7.33s13.14,3.12,20.1,8.29l8.83-13.94a42.51,42.51,0,0,0-28.71-10.69c-15.9,0-27.06,10.09-27.06,25.35V743c0,16.58,9.94,21.51,25.62,25.72,12.92,3.48,15.57,6,15.57,10.69v.24c0,4.93-4.08,7.93-11.15,7.93-8.83,0-16-4-23.08-10.21l-10,13.1A46.25,46.25,0,0,0,1469,804c16.67,0,28.38-9.37,28.38-26.07v-.24C1497.34,763,1488.51,757,1472.82,752.4Z"/><path class="cls-4" d="M653,271c-13.25,0-22.42-12-22.42-26.43v-.24c0-14.42,9.39-26.2,22.42-26.2,7.84,0,13.69,3.61,19.77,9.5L683.57,214c-7.07-7.69-16-13-30.48-13-23.74,0-40.3,19.59-40.3,43.5v.24c0,24.15,16.89,43.26,39.64,43.26,15,0,23.74-5.77,31.69-15l-10.82-11.9C667.23,267.25,661.82,271,653,271Z"/><path class="cls-4" d="M733.26,201c-23.85,0-41.18,19.59-41.18,43.5v.24c0,23.91,17.11,43.26,41,43.26s41.19-19.59,41.19-43.5v-.24C774.23,220.39,757.12,201,733.26,201Zm23.2,43.74c0,14.42-9.5,26.19-23.2,26.19s-23.41-12-23.41-26.43v-.24c0-14.42,9.5-26.2,23.19-26.2s23.42,12,23.42,26.44Z"/><polygon class="cls-4" points="841.27 254.27 805.05 202.48 789.37 202.48 789.37 286.6 806.15 286.6 806.15 233.12 843.59 286.6 858.05 286.6 858.05 202.48 841.27 202.48 841.27 254.27"/><path class="cls-4" d="M914.37,201c-23.85,0-41.19,19.59-41.19,43.5v.24c0,23.91,17.12,43.26,41,43.26s41.19-19.59,41.19-43.5v-.24C955.34,220.39,938.22,201,914.37,201Zm23.19,43.74c0,14.42-9.49,26.19-23.19,26.19S891,259,891,244.54v-.24c0-14.42,9.5-26.2,23.19-26.2s23.41,12,23.41,26.44Z"/><path class="cls-4" d="M1007.25,271c-13.26,0-22.42-12-22.42-26.43v-.24c0-14.42,9.38-26.2,22.42-26.2,7.84,0,13.69,3.61,19.76,9.5L1037.83,214c-7.06-7.69-16-13-30.47-13-23.75,0-40.31,19.59-40.31,43.5v.24c0,24.15,16.89,43.26,39.64,43.26,15,0,23.74-5.77,31.7-15l-10.83-11.9C1021.49,267.25,1016.08,271,1007.25,271Z"/><rect class="cls-4" x="1052.74" y="202.48" width="17.01" height="84.11"/><polygon class="cls-4" points="1127.72 238.05 1107.41 202.48 1089.08 202.48 1089.08 286.6 1105.75 286.6 1105.75 232.04 1127.28 267.61 1127.72 267.61 1149.48 231.68 1149.48 286.6 1166.37 286.6 1166.37 202.48 1148.04 202.48 1127.72 238.05"/><rect class="cls-4" x="1185.7" y="202.48" width="17.01" height="84.11"/><polygon class="cls-4" points="1238.93 252.47 1275.37 252.47 1275.37 236.01 1238.93 236.01 1238.93 218.94 1280.34 218.94 1280.34 202.48 1222.04 202.48 1222.04 286.6 1280.89 286.6 1280.89 270.13 1238.93 270.13 1238.93 252.47"/><polygon class="cls-4" points="1347.92 254.27 1311.7 202.48 1296.03 202.48 1296.03 286.6 1312.81 286.6 1312.81 233.12 1350.24 286.6 1364.71 286.6 1364.71 202.48 1347.92 202.48 1347.92 254.27"/><polygon class="cls-4" points="1377.74 219.54 1401.26 219.54 1401.26 286.6 1418.27 286.6 1418.27 219.54 1441.79 219.54 1441.79 202.48 1377.74 202.48 1377.74 219.54"/><path class="cls-4" d="M1489.28,201c-23.86,0-41.19,19.59-41.19,43.5v.24c0,23.91,17.11,43.26,41,43.26s41.19-19.59,41.19-43.5v-.24C1530.25,220.39,1513.13,201,1489.28,201Zm23.19,43.74c0,14.42-9.5,26.19-23.19,26.19s-23.41-12-23.41-26.43v-.24c0-14.42,9.49-26.2,23.19-26.2s23.41,12,23.41,26.44Z"/><path class="cls-4" d="M1576.19,236.25c-13.36-3.85-16.68-5.41-16.68-11.06V225c0-4.2,3.32-7.33,9.94-7.33s13.14,3.13,20.1,8.29l8.83-13.94a42.49,42.49,0,0,0-28.71-10.69c-15.9,0-27.05,10.09-27.05,25.35v.24c0,16.59,9.94,21.51,25.62,25.72,12.92,3.48,15.57,6,15.57,10.69v.24c0,4.93-4.09,7.93-11.16,7.93-8.83,0-16-4-23.08-10.21l-10,13.1a46.24,46.24,0,0,0,32.79,13.46c16.68,0,28.38-9.38,28.38-26.08v-.24C1600.7,246.82,1591.87,240.81,1576.19,236.25Z"/><polygon class="cls-5" points="2268.36 65.55 2251.82 65.55 2251.82 147.36 2305.85 147.36 2305.85 131 2268.36 131 2268.36 65.55"/><path class="cls-5" d="M2344,83.55c-17.93,0-31.25,14.61-31.25,32.61v.23c0,18.11,13.32,32.37,31,32.37,17.94,0,31.25-14.61,31.25-32.6v-.24C2375,97.81,2361.7,83.55,2344,83.55Zm14.93,32.84c0,9.35-5.58,17.06-14.93,17.06-9,0-15.14-8.06-15.14-17.29v-.24c0-9.35,5.58-17.06,14.93-17.06,9,0,15.14,8.06,15.14,17.3Z"/><path class="cls-5" d="M2447,133.45c-8.91,0-14.6-7.6-14.6-17.29v-.24c0-9.35,5.8-17.06,14-17.06,5.91,0,9.34,2.69,13.1,6.89l10-11.68c-5.48-6.55-12.14-10.52-23-10.52-17.62,0-30.19,14.72-30.19,32.61v.23c0,17.76,12.68,32.37,30,32.37,11.49,0,17.94-4.79,23.52-11.45l-9.56-10.52C2456.21,130.88,2452.45,133.45,2447,133.45Z"/><path class="cls-5" d="M2507.23,83.55c-17.94,0-31.26,14.61-31.26,32.61v.23c0,18.11,13.32,32.37,31,32.37,17.94,0,31.26-14.61,31.26-32.6v-.24C2538.27,97.81,2525,83.55,2507.23,83.55Zm14.93,32.84c0,9.35-5.59,17.06-14.93,17.06-9,0-15.15-8.06-15.15-17.29v-.24c0-9.35,5.59-17.06,14.93-17.06,9,0,15.15,8.06,15.15,17.3Z"/><path class="cls-5" d="M2591.65,92.9c-4.41-5.26-9.67-9.35-18.58-9.35-13.22,0-25.57,10.52-25.57,29.22V113c0,18.7,12.14,29.22,25.57,29.22,8.69,0,14-3.74,18.79-10.17v3c0,11.22-5.26,17.06-16.43,17.06-7.74,0-13.43-2.1-19.44-5.73l-5.59,13.33a50.89,50.89,0,0,0,25.46,6.54c11.17,0,19.33-2.45,24.81-8.41,4.83-5.26,7.3-13.56,7.3-24.66V84.72h-16.32Zm.21,20.1c0,8.53-6,14.49-14.07,14.49s-14-5.73-14-14.49v-.23c0-8.54,6-14.5,14-14.5s14.07,6,14.07,14.5Z"/><path class="cls-5" d="M2655.77,83.55c-8.17,0-13.11,4.79-16.87,10V84.72h-16.32v62.64h16.32V112.42c0-8.42,3.87-12.74,10.21-12.74S2659,104,2659,112.42v34.94h16.32V106.81C2675.31,92.31,2668.22,83.55,2655.77,83.55Z"/><rect class="cls-5" x="2689.81" y="62.05" width="17.18" height="15.78"/><rect class="cls-5" x="2690.24" y="84.72" width="16.33" height="62.64"/><path class="cls-5" d="M2740.94,68.71h-16.33v16h-6.87V99.91h6.87V129.6c0,14.49,6.87,18.81,16.76,18.81a22.57,22.57,0,0,0,12.88-3.62V130.53a15,15,0,0,1-8.05,2.22c-3.55,0-5.26-2-5.26-6.08V99.91h13.53V84.72h-13.53Z"/><rect class="cls-5" x="2766.82" y="62.05" width="17.18" height="15.78"/><rect class="cls-5" x="2767.25" y="84.72" width="16.33" height="62.64"/><polygon class="cls-5" points="2823.96 126.67 2811.07 84.72 2793.78 84.72 2816.44 147.83 2831.26 147.83 2853.92 84.72 2836.95 84.72 2823.96 126.67"/><path class="cls-5" d="M2888.62,83.55c-17.94,0-31.26,14.61-31.26,32.61v.23c0,18.11,13.32,32.37,31,32.37,17.94,0,31.26-14.61,31.26-32.6v-.24C2919.66,97.81,2906.34,83.55,2888.62,83.55Zm14.93,32.84c0,9.35-5.59,17.06-14.93,17.06-9,0-15.15-8.06-15.15-17.29v-.24c0-9.35,5.59-17.06,14.93-17.06,9,0,15.15,8.06,15.15,17.3Z"/><polygon class="cls-5" points="2358.31 582.73 2341.77 582.73 2341.77 664.53 2395.79 664.53 2395.79 648.17 2358.31 648.17 2358.31 582.73"/><path class="cls-5" d="M2433.92,600.72c-17.94,0-31.26,14.61-31.26,32.61v.23c0,18.12,13.32,32.37,31.05,32.37,17.93,0,31.25-14.6,31.25-32.6v-.23C2465,615,2451.64,600.72,2433.92,600.72Zm14.93,32.84c0,9.35-5.59,17.07-14.93,17.07-9,0-15.14-8.07-15.14-17.3v-.23c0-9.35,5.58-17.07,14.93-17.07,9,0,15.14,8.07,15.14,17.3Z"/><path class="cls-5" d="M2577.41,600.72c-7.84,0-13.85,3.39-18.9,9.94-3-6.43-8.59-9.94-16.22-9.94-8.27,0-13.21,4.79-17,10v-8.88H2509v62.64h16.33V629.59c0-8.41,3.76-12.74,9.88-12.74s9.56,4.33,9.56,12.74v34.94h16.33V629.59c0-8.41,3.75-12.74,9.88-12.74s9.56,4.33,9.56,12.74v34.94h16.32V623.75C2596.85,608.67,2589.55,600.72,2577.41,600.72Z"/><path class="cls-5" d="M2639.49,600.72c-17.94,0-31.25,14.61-31.25,32.61v.23c0,18.12,13.31,32.37,31,32.37,17.93,0,31.25-14.6,31.25-32.6v-.23C2670.53,615,2657.21,600.72,2639.49,600.72Zm14.93,32.84c0,9.35-5.58,17.07-14.93,17.07-9,0-15.14-8.07-15.14-17.3v-.23c0-9.35,5.58-17.07,14.93-17.07,9,0,15.14,8.07,15.14,17.3Z"/><path class="cls-5" d="M2701.35,585.88H2685v16h-6.87v15.19H2685v29.69c0,14.49,6.87,18.81,16.75,18.81a22.58,22.58,0,0,0,12.89-3.62V647.7a15,15,0,0,1-8.05,2.22c-3.55,0-5.27-2-5.27-6.07V617.08h13.54V601.89h-13.54Z"/><path class="cls-5" d="M2753.77,600.72c-17.94,0-31.26,14.61-31.26,32.61v.23c0,18.12,13.32,32.37,31,32.37,17.94,0,31.26-14.6,31.26-32.6v-.23C2784.81,615,2771.49,600.72,2753.77,600.72Zm14.93,32.84c0,9.35-5.59,17.07-14.93,17.07-9,0-15.15-8.07-15.15-17.3v-.23c0-9.35,5.59-17.07,14.93-17.07,9,0,15.15,8.07,15.15,17.3Z"/><path class="cls-5" d="M2813,614.51V601.89h-16.33v62.64H2813V641.39c0-15.07,6.66-22.09,17.5-22.09h.86V600.72C2821.54,600.26,2816.28,606,2813,614.51Z"/><path class="cls-5" d="M2259.34,850.22l-1.29-2.92c-6.45,2.69-8.92,6.42-8.92,13.79v8.65h7.09V859.8h-2.9C2253,855.24,2254.72,852.91,2259.34,850.22Z"/><path class="cls-5" d="M2240,850.22l-1.28-2.92c-6.45,2.69-8.92,6.42-8.92,13.79v8.65h7.09V859.8H2234C2233.67,855.24,2235.38,852.91,2240,850.22Z"/><path class="cls-5" d="M2302.41,885.75c-17.83-4.09-21.92-9.12-21.92-17.88v-.24c0-8.41,7.2-15.42,18.37-15.42,8.27,0,15.25,2.57,22.45,9.23l3.54-4.79c-7.62-6.66-14.93-9.94-25.77-9.94-14,0-24.17,9.35-24.17,21.51v.23c0,12.51,7.2,18.93,25.35,23,17.07,3.74,21.26,8.77,21.26,17.42v.23c0,9.35-7.73,16.24-19,16.24-11.06,0-18.69-3.73-27-12.15l-3.65,4.56c9,8.76,18.26,13.09,30.29,13.09,14.5,0,24.92-9.12,24.92-22.32v-.24C2327.11,896.26,2319.91,889.6,2302.41,885.75Z"/><path class="cls-5" d="M2364.16,869.15c-7.62,0-13.42,2-19.44,5.14l1.94,5a34,34,0,0,1,17.18-4.79c11.28,0,18,6.07,18,18.23v2.57a60.3,60.3,0,0,0-18.15-2.57c-14.17,0-23.95,6.89-23.95,19.4v.23c0,12.51,11,18.7,21.16,18.7a24.64,24.64,0,0,0,20.94-11.33v9.93H2387V892.52c0-7.12-1.82-12.73-5.58-16.82C2377.48,871.37,2371.68,869.15,2364.16,869.15ZM2382,907.37c0,10.87-9.56,18.35-20.73,18.35-8.38,0-15.89-5-15.89-13.68v-.23c0-8.42,6.44-13.91,18-13.91a67,67,0,0,1,18.58,2.69Z"/><path class="cls-5" d="M2433.76,868.68c-10.85,0-17.94,6.9-22.55,14.73v-39h-5.27v85.31h5.27V916.83c4.61,7.48,11.59,14.26,22.55,14.26,13.21,0,26.64-11.92,26.64-31.2v-.24C2460.4,880.25,2447,868.68,2433.76,868.68Zm20.94,31.44c0,15.89-9.45,25.48-21.48,25.48-11.49,0-22.34-10.29-22.34-25.6v-.23c0-15.19,10.85-25.59,22.34-25.59s21.48,10.05,21.48,25.71Z"/><path class="cls-5" d="M2499.06,868.68c-14.82,0-26,13.91-26,31.09V900c0,18.7,12.46,31.09,26.85,31.09,10.42,0,17.08-4.67,22.66-11.22l-3.65-3.5c-4.62,5.26-10.2,9.35-18.79,9.35-10.64,0-20.63-8.65-21.49-23.5h45.44a15.7,15.7,0,0,0,.11-2.33C2524.2,882.24,2514.42,868.68,2499.06,868.68Zm-20.41,28.4c.86-13.2,9.35-23.14,20.2-23.14,12.56,0,18.79,11.11,19.65,23.14Z"/><path class="cls-5" d="M2544.82,887V870.09h-5.27v59.6h5.27V905.26c0-19.28,11.17-29.8,23.73-29.8h.54v-6.31C2558.13,868.8,2549.22,876.28,2544.82,887Z"/><path class="cls-5" d="M2639.76,868.68c-10,0-16,5.5-19.76,12.51V844.38h-5.26v85.31H2620V895.21c0-12.5,8.27-21.27,19-21.27,11.17,0,17.4,8.07,17.4,20.34v35.41h5.26V893.23C2661.67,878.85,2653.62,868.68,2639.76,868.68Z"/><path class="cls-5" d="M2700.44,869.15c-7.62,0-13.42,2-19.44,5.14l1.94,5a34,34,0,0,1,17.18-4.79c11.28,0,18.05,6.07,18.05,18.23v2.57a60.42,60.42,0,0,0-18.16-2.57c-14.17,0-24,6.89-24,19.4v.23c0,12.51,11,18.7,21.16,18.7a24.67,24.67,0,0,0,21-11.33v9.93h5.15V892.52c0-7.12-1.82-12.73-5.58-16.82C2713.76,871.37,2708,869.15,2700.44,869.15Zm17.83,38.22c0,10.87-9.56,18.35-20.73,18.35-8.37,0-15.89-5-15.89-13.68v-.23c0-8.42,6.44-13.91,18-13.91a66.9,66.9,0,0,1,18.58,2.69Z"/><path class="cls-5" d="M2766.71,925.72c-12.46,0-22.55-11.34-22.55-25.83v-.24c0-14.37,9.66-25.59,22.12-25.59,8.17,0,13.54,4.56,18.26,9.82l3.76-4.21c-5.15-6-11.6-11-21.91-11-15.79,0-27.93,14.5-27.93,31.21v.23c0,16.71,12.14,31,27.93,31,10,0,16.76-4.91,22.34-11.8l-3.65-3.51C2780.46,921.39,2774.45,925.72,2766.71,925.72Z"/><path class="cls-5" d="M2824.17,868.68c-14.82,0-26,13.91-26,31.09V900c0,18.7,12.46,31.09,26.85,31.09,10.42,0,17.08-4.67,22.67-11.22l-3.66-3.5c-4.61,5.26-10.2,9.35-18.79,9.35-10.63,0-20.62-8.65-21.48-23.5h45.43a15.7,15.7,0,0,0,.11-2.33C2849.31,882.24,2839.53,868.68,2824.17,868.68Zm-20.4,28.4c.86-13.2,9.34-23.14,20.19-23.14,12.57,0,18.8,11.11,19.65,23.14Z"/><path class="cls-5" d="M2869.93,887V870.09h-5.26v59.6h5.26V905.26c0-19.28,11.17-29.8,23.74-29.8h.53v-6.31C2883.25,868.8,2874.33,876.28,2869.93,887Z"/><path class="cls-5" d="M2930.07,847.88v9.94h2.9c.33,4.55-1.39,6.89-6,9.58l1.29,2.92c6.44-2.69,8.91-6.43,8.91-13.79v-8.65Z"/><path class="cls-5" d="M2910.74,857.82h2.9c.32,4.55-1.4,6.89-6,9.58l1.29,2.92c6.44-2.69,8.91-6.43,8.91-13.79v-8.65h-7.09Z"/><polygon class="cls-5" points="1931.82 1105.48 1915.28 1105.48 1915.28 1187.28 1969.3 1187.28 1969.3 1170.92 1931.82 1170.92 1931.82 1105.48"/><path class="cls-5" d="M2007.43,1123.47c-17.94,0-31.26,14.61-31.26,32.61v.23c0,18.12,13.32,32.37,31,32.37,17.94,0,31.26-14.6,31.26-32.6v-.23C2038.47,1137.73,2025.15,1123.47,2007.43,1123.47Zm14.93,32.84c0,9.35-5.59,17.07-14.93,17.07-9,0-15.15-8.07-15.15-17.3v-.23c0-9.35,5.59-17.07,14.93-17.07,9,0,15.15,8.07,15.15,17.3Z"/><path class="cls-5" d="M2124.07,1132.82c-3.87-5-9.24-9.35-17.94-9.35-13.64,0-26.21,11.46-26.21,32.38v.23c0,20.92,12.78,32.37,26.21,32.37,8.59,0,14-4.21,17.94-10.17V1206h16.32v-81.34h-16.32Zm.21,23.26c0,10.4-6.33,17.3-14,17.3s-14.07-6.9-14.07-17.3v-.23c0-10.52,6.44-17.3,14.07-17.3s14,6.89,14,17.3Z"/><path class="cls-5" d="M2191,1159.59c0,8.41-3.87,12.73-10.2,12.73s-9.89-4.32-9.89-12.73v-34.95h-16.32v40.55c0,14.5,7.09,23.26,19.55,23.26,8.16,0,13.1-4.79,16.86-10v8.88h16.32v-62.64H2191Z"/><path class="cls-5" d="M2247.58,1123.47c-16.75,0-28.46,14.73-28.46,32.61v.23c0,19.17,12.78,32.37,30.07,32.37,10.42,0,18-4.32,23.52-11.68l-9.34-9c-4.62,4.56-8.49,6.43-14,6.43-7.31,0-12.46-4.21-14.07-12.27h40.06c.11-1.76.21-3.28.21-4.68C2275.61,1139.72,2266.81,1123.47,2247.58,1123.47Zm-12.46,27.58c1.29-8.06,5.59-13.32,12.46-13.32s11.17,5.38,12.14,13.32Z"/><path class="cls-5" d="M2344.78,1149.42c-6.23-2.11-11.71-4.21-11.71-7.48v-.24c0-2.45,2-4.32,6-4.32,4.19,0,9.88,2.22,15.57,5.84l6.23-12.27a37.87,37.87,0,0,0-21.48-7.24c-11.6,0-21,7.13-21,19.86v.24c0,12.15,9.13,16.36,17.18,18.81,6.34,2.22,11.93,3.39,11.93,7.25v.23c0,2.81-2.15,4.68-6.88,4.68-5.48,0-11.81-2.46-18.15-7.48l-7,11.68a38.27,38.27,0,0,0,24.7,9.47c12.46,0,22-6.31,22-20.22V1168C2362.18,1156.55,2352.84,1152.22,2344.78,1149.42Z"/><path class="cls-5" d="M2399.56,1123.47c-16.76,0-28.47,14.73-28.47,32.61v.23c0,19.17,12.79,32.37,30.08,32.37,10.42,0,18-4.32,23.52-11.68l-9.34-9c-4.62,4.56-8.49,6.43-14,6.43-7.3,0-12.46-4.21-14.07-12.27h40.07c.1-1.76.21-3.28.21-4.68C2427.59,1139.72,2418.78,1123.47,2399.56,1123.47Zm-12.46,27.58c1.29-8.06,5.58-13.32,12.46-13.32s11.17,5.38,12.13,13.32Z"/><path class="cls-5" d="M2496.76,1149.42c-6.23-2.11-11.71-4.21-11.71-7.48v-.24c0-2.45,2-4.32,6-4.32,4.19,0,9.89,2.22,15.58,5.84l6.23-12.27a37.87,37.87,0,0,0-21.48-7.24c-11.6,0-21,7.13-21,19.86v.24c0,12.15,9.13,16.36,17.18,18.81,6.34,2.22,11.92,3.39,11.92,7.25v.23c0,2.81-2.15,4.68-6.87,4.68-5.48,0-11.82-2.46-18.15-7.48l-7,11.68a38.27,38.27,0,0,0,24.7,9.47c12.46,0,22-6.31,22-20.22V1168C2514.16,1156.55,2504.81,1152.22,2496.76,1149.42Z"/><rect class="cls-5" x="2526.62" y="1124.64" width="16.33" height="62.64"/><rect class="cls-5" x="2526.19" y="1101.97" width="17.18" height="15.78"/><path class="cls-5" d="M2584,1123.47c-16.76,0-28.46,14.73-28.46,32.61v.23c0,19.17,12.78,32.37,30.07,32.37,10.42,0,18-4.32,23.52-11.68l-9.34-9c-4.62,4.56-8.49,6.43-14,6.43-7.3,0-12.45-4.21-14.07-12.27h40.07c.1-1.76.21-3.28.21-4.68C2612,1139.72,2603.19,1123.47,2584,1123.47Zm-12.46,27.58c1.29-8.06,5.58-13.32,12.46-13.32s11.17,5.38,12.13,13.32Z"/><path class="cls-5" d="M2657.33,1123.47c-8.17,0-13.11,4.79-16.87,10v-8.88h-16.32v62.64h16.32v-34.94c0-8.41,3.87-12.74,10.21-12.74s9.88,4.33,9.88,12.74v34.94h16.32v-40.55C2676.87,1132.24,2669.78,1123.47,2657.33,1123.47Z"/><path class="cls-5" d="M2710.06,1108.63h-16.33v16h-6.87v15.19h6.87v29.69c0,14.49,6.88,18.81,16.76,18.81a22.6,22.6,0,0,0,12.89-3.62v-14.26a15,15,0,0,1-8.06,2.22c-3.54,0-5.26-2-5.26-6.07v-26.77h13.53v-15.19h-13.53Z"/><path class="cls-5" d="M2759.68,1123.47c-16.75,0-28.46,14.73-28.46,32.61v.23c0,19.17,12.78,32.37,30.07,32.37,10.42,0,18.05-4.32,23.52-11.68l-9.34-9c-4.62,4.56-8.49,6.43-14,6.43-7.31,0-12.46-4.21-14.07-12.27h40.06c.11-1.76.21-3.28.21-4.68C2787.71,1139.72,2778.91,1123.47,2759.68,1123.47Zm-12.46,27.58c1.29-8.06,5.59-13.32,12.46-13.32s11.17,5.38,12.14,13.32Z"/><polygon class="cls-5" points="2821.76 1202.24 2835.61 1202.24 2883.2 1094.02 2869.34 1094.02 2821.76 1202.24"/><path class="cls-5" d="M2962.78,1132.82c-3.87-5-9.24-9.35-17.94-9.35-13.64,0-26.2,11.46-26.2,32.38v.23c0,20.92,12.78,32.37,26.2,32.37,8.6,0,14-4.21,17.94-10.17V1206h16.33v-81.34h-16.33Zm.22,23.26c0,10.4-6.34,17.3-14,17.3s-14.07-6.9-14.07-17.3v-.23c0-10.52,6.45-17.3,14.07-17.3s14,6.89,14,17.3Z"/><path class="cls-5" d="M3029.69,1159.59c0,8.41-3.86,12.73-10.2,12.73s-9.88-4.32-9.88-12.73v-34.95h-16.33v40.55c0,14.5,7.09,23.26,19.55,23.26,8.16,0,13.1-4.79,16.86-10v8.88H3046v-62.64h-16.33Z"/><rect class="cls-5" x="3060.95" y="1101.97" width="17.18" height="15.78"/><rect class="cls-5" x="3061.38" y="1124.64" width="16.33" height="62.64"/><path class="cls-5" d="M3118.73,1123.47c-16.76,0-28.46,14.73-28.46,32.61v.23c0,19.17,12.78,32.37,30.07,32.37,10.42,0,18-4.32,23.52-11.68l-9.34-9c-4.62,4.56-8.49,6.43-14,6.43-7.3,0-12.45-4.21-14.07-12.27h40.07c.1-1.76.21-3.28.21-4.68C3146.76,1139.72,3138,1123.47,3118.73,1123.47Zm-12.46,27.58c1.29-8.06,5.58-13.32,12.46-13.32s11.17,5.38,12.14,13.32Z"/><path class="cls-5" d="M3175.22,1137.26v-12.62H3158.9v62.64h16.32v-23.14c0-15.07,6.66-22.09,17.51-22.09h.86v-18.58C3183.82,1123,3178.55,1128.73,3175.22,1137.26Z"/><path class="cls-5" d="M3255.88,1157.48c0-17.76-8.8-34-28-34-16.75,0-28.46,14.73-28.46,32.61v.23c0,19.17,12.78,32.37,30.07,32.37,10.42,0,18.05-4.32,23.53-11.68l-9.35-9c-4.62,4.56-8.48,6.43-14,6.43-7.31,0-12.46-4.21-14.07-12.27h40.06C3255.78,1160.4,3255.88,1158.88,3255.88,1157.48Zm-40.49-6.43c1.29-8.06,5.59-13.32,12.46-13.32s11.17,5.38,12.14,13.32Z"/><path class="cls-5" d="M2210.57,1352.66l-1.29-2.92c-6.44,2.69-8.91,6.43-8.91,13.79v8.65h7.09v-9.93h-2.9C2204.24,1357.69,2206,1355.35,2210.57,1352.66Z"/><path class="cls-5" d="M2229.91,1352.66l-1.29-2.92c-6.45,2.69-8.92,6.43-8.92,13.79v8.65h7.09v-9.93h-2.9C2223.57,1357.69,2225.29,1355.35,2229.91,1352.66Z"/><path class="cls-5" d="M2319.59,1391.23V1391c0-22.33-14.93-42.08-37.7-42.08s-37.92,19.87-37.92,42.31v.23c0,22.32,14.93,42.07,37.7,42.07a34.69,34.69,0,0,0,24.17-9.35l10.63,10.41,4-4.68-10.74-9.93A45.46,45.46,0,0,0,2319.59,1391.23Zm-14,25-14.4-14.26-4,4.79,14.61,13.68a29.84,29.84,0,0,1-20,7.59c-18.58,0-32.12-16.59-32.12-36.81V1391c0-20.22,13.32-36.58,31.9-36.58s32.12,16.59,32.12,36.81v.23A39.65,39.65,0,0,1,2305.63,1416.24Z"/><path class="cls-5" d="M2378,1407c0,12.5-8.27,21.27-19,21.27-11.17,0-17.4-8.07-17.4-20.34v-35.41h-5.27V1409c0,14.38,8.06,24.54,21.91,24.54,10,0,16-5.49,19.77-12.5v11.1h5.26v-59.6H2378Z"/><path class="cls-5" d="M2425.49,1371.13c-14.82,0-26,13.9-26,31.08v.24c0,18.7,12.45,31.08,26.85,31.08,10.42,0,17.07-4.67,22.66-11.21l-3.65-3.51c-4.62,5.26-10.21,9.35-18.8,9.35-10.63,0-20.62-8.65-21.48-23.49h45.43a15.9,15.9,0,0,0,.11-2.34C2450.62,1384.68,2440.85,1371.13,2425.49,1371.13Zm-20.41,28.4c.86-13.21,9.34-23.14,20.19-23.14,12.57,0,18.8,11.1,19.66,23.14Z"/><path class="cls-5" d="M2471.24,1389.48v-17H2466v59.6h5.26v-24.42c0-19.29,11.17-29.8,23.74-29.8h.54v-6.31C2484.56,1371.24,2475.65,1378.72,2471.24,1389.48Z"/><path class="cls-5" d="M2528.49,1371.13c-14.82,0-26,13.9-26,31.08v.24c0,18.7,12.46,31.08,26.85,31.08,10.42,0,17.08-4.67,22.66-11.21l-3.65-3.51c-4.62,5.26-10.2,9.35-18.8,9.35-10.63,0-20.62-8.65-21.48-23.49h45.44a17.48,17.48,0,0,0,.1-2.34C2553.62,1384.68,2543.85,1371.13,2528.49,1371.13Zm-20.41,28.4c.86-13.21,9.35-23.14,20.19-23.14,12.57,0,18.8,11.1,19.66,23.14Z"/><path class="cls-5" d="M2574.24,1389.48v-17H2569v59.6h5.26v-24.42c0-19.29,11.17-29.8,23.74-29.8h.54v-6.31C2587.56,1371.24,2578.65,1378.72,2574.24,1389.48Z"/><path class="cls-5" d="M2669.19,1371.13c-10,0-16,5.49-19.76,12.5v-36.81h-5.27v85.31h5.27v-34.47c0-12.51,8.27-21.27,19-21.27,11.17,0,17.4,8.06,17.4,20.33v35.41h5.26v-36.46C2691.1,1381.3,2683,1371.13,2669.19,1371.13Z"/><path class="cls-5" d="M2729.87,1371.6c-7.62,0-13.42,2-19.44,5.14l1.93,5a34.15,34.15,0,0,1,17.19-4.79c11.28,0,18,6.08,18,18.23v2.57a60.3,60.3,0,0,0-18.15-2.57c-14.18,0-24,6.9-24,19.4v.24c0,12.5,11,18.69,21.16,18.69a24.62,24.62,0,0,0,20.94-11.33v9.93h5.16V1395c0-7.13-1.83-12.74-5.59-16.83C2743.19,1373.82,2737.39,1371.6,2729.87,1371.6Zm17.83,38.21c0,10.87-9.56,18.35-20.73,18.35-8.38,0-15.89-5-15.89-13.67v-.24c0-8.41,6.44-13.91,18-13.91a67.34,67.34,0,0,1,18.58,2.69Z"/><path class="cls-5" d="M2796.14,1428.16c-12.46,0-22.56-11.34-22.56-25.83v-.23c0-14.38,9.67-25.6,22.13-25.6,8.16,0,13.53,4.56,18.26,9.82l3.76-4.21c-5.16-6-11.6-11-21.91-11-15.79,0-27.93,14.49-27.93,31.2v.23c0,16.72,12.14,31,27.93,31,10,0,16.75-4.9,22.34-11.8l-3.65-3.51C2809.89,1423.83,2803.87,1428.16,2796.14,1428.16Z"/><path class="cls-5" d="M2853.6,1371.13c-14.82,0-26,13.9-26,31.08v.24c0,18.7,12.46,31.08,26.85,31.08,10.42,0,17.08-4.67,22.66-11.21l-3.65-3.51c-4.62,5.26-10.2,9.35-18.79,9.35-10.64,0-20.63-8.65-21.49-23.49h45.44a15.9,15.9,0,0,0,.11-2.34C2878.74,1384.68,2869,1371.13,2853.6,1371.13Zm-20.41,28.4c.86-13.21,9.35-23.14,20.2-23.14,12.56,0,18.79,11.1,19.65,23.14Z"/><path class="cls-5" d="M2899.36,1389.48v-17h-5.27v59.6h5.27v-24.42c0-19.29,11.17-29.8,23.73-29.8h.54v-6.31C2912.67,1371.24,2903.76,1378.72,2899.36,1389.48Z"/><path class="cls-5" d="M2959.5,1350.33v9.93h2.9c.32,4.56-1.39,6.89-6,9.58l1.29,2.92c6.44-2.68,8.91-6.42,8.91-13.79v-8.64Z"/><path class="cls-5" d="M2940.17,1360.26h2.9c.32,4.56-1.4,6.89-6,9.58l1.29,2.92c6.45-2.68,8.92-6.42,8.92-13.79v-8.64h-7.09Z"/></svg>