<svg xmlns="http://www.w3.org/2000/svg" viewBox="0 0 673.25 274.07"><defs><style>.cls-1{fill:#b0e4f4;}.cls-2{fill:#db1c8b;}.cls-3{fill:#35b3e6;}.cls-4{font-size:26.54px;font-family:Gotham-Black, Gotham;font-weight:800;}.cls-10,.cls-4{fill:#fff;}.cls-5{letter-spacing:-0.02em;}.cls-6{letter-spacing:-0.01em;}.cls-7{letter-spacing:0em;}.cls-16,.cls-21,.cls-8{font-size:21.26px;}.cls-8{font-family:Gotham-Light, Gotham;font-weight:300;}.cls-9{letter-spacing:0.03em;}.cls-10{font-size:21.86px;}.cls-10,.cls-16,.cls-21{font-family:Gotham-Bold, Gotham;font-weight:700;}.cls-11{letter-spacing:-0.04em;}.cls-12{letter-spacing:-0.05em;}.cls-13{letter-spacing:-0.02em;}.cls-14{letter-spacing:-0.03em;}.cls-15{letter-spacing:0em;}.cls-17,.cls-21{letter-spacing:-0.01em;}.cls-18{letter-spacing:0em;}.cls-19{letter-spacing:-0.01em;}.cls-20{letter-spacing:-0.03em;}.cls-22{letter-spacing:-0.01em;}.cls-23{letter-spacing:-0.02em;}.cls-24{letter-spacing:0em;}.cls-25{letter-spacing:0.03em;}</style></defs><g id="Capa_2" data-name="Capa 2"><g id="Capa_1-2" data-name="Capa 1"><rect class="cls-1" x="349.43" y="46.21" width="323.82" height="40.12"/><path class="cls-2" d="M7,0H88.57a0,0,0,0,1,0,0V273.4a0,0,0,0,1,0,0H7a7,7,0,0,1-7-7V7A7,7,0,0,1,7,0Z"/><rect class="cls-3" x="94.86" width="248.37" height="86.33"/><path class="cls-1" d="M349.43,0H666.28a7,7,0,0,1,7,7V40.12a0,0,0,0,1,0,0H349.43a0,0,0,0,1,0,0V0A0,0,0,0,1,349.43,0Z"/><rect class="cls-1" x="349.43" y="93.53" width="323.82" height="40.12"/><rect class="cls-1" x="349.43" y="139.75" width="323.82" height="40.12"/><rect class="cls-1" x="349.43" y="187.73" width="323.82" height="40.12"/><path class="cls-1" d="M349.43,233.95H673.25a0,0,0,0,1,0,0v33.14a7,7,0,0,1-7,7H349.43a0,0,0,0,1,0,0V233.95a0,0,0,0,1,0,0Z"/><rect class="cls-3" x="94.86" y="187.06" width="248.37" height="86.33"/><rect class="cls-3" x="94.86" y="93.53" width="248.37" height="86.33"/><text class="cls-4" transform="translate(53.26 247.57) rotate(-90)"><tspan class="cls-5">C</tspan><tspan x="18.87" y="0">OMPETENCI</tspan><tspan class="cls-6" x="183.71" y="0">A</tspan><tspan class="cls-7" x="204.54" y="0">S</tspan></text><text class="cls-8" transform="translate(471.88 72.55)">“Sabe<tspan class="cls-9" x="60.96" y="0">r</tspan><tspan x="70.21" y="0">”</tspan></text><text class="cls-10" transform="translate(153.88 239.08)"><tspan class="cls-11">A</tspan><tspan x="16.28" y="0">CTITUDES</tspan></text><text class="cls-10" transform="translate(140.61 145.89)">HABILI<tspan class="cls-12" x="77.87" y="0">D</tspan><tspan x="93.87" y="0">ADES</tspan></text><text class="cls-10" transform="translate(120.15 52.01)"><tspan class="cls-13">C</tspan><tspan x="15.69" y="0">ONOCIMIEN</tspan><tspan class="cls-14" x="151.81" y="0">T</tspan><tspan class="cls-15" x="165.32" y="0">O</tspan><tspan x="183.79" y="0">S</tspan></text><text class="cls-16" transform="translate(443.91 26.68)"><tspan class="cls-17">L</tspan><tspan class="cls-18" x="12.95" y="0">o </tspan><tspan class="cls-19" x="33.44" y="0">c</tspan><tspan x="45.26" y="0">ogniti</tspan><tspan class="cls-20" x="108.62" y="0">v</tspan><tspan class="cls-18" x="120.74" y="0">o</tspan></text><text class="cls-16" transform="translate(461.72 120.75)"><tspan class="cls-17">L</tspan><tspan class="cls-18" x="12.95" y="0">o mo</tspan><tspan class="cls-19" x="67.75" y="0">t</tspan><tspan x="76.25" y="0">or</tspan></text><text class="cls-8" transform="translate(439.7 168.98)">“Saber ha<tspan class="cls-19" x="101.08" y="0">c</tspan><tspan x="112.9" y="0">e</tspan><tspan class="cls-9" x="125.31" y="0">r</tspan><tspan x="134.56" y="0">”</tspan></text><text class="cls-21" transform="translate(377.31 215.84)">L<tspan class="cls-18" x="12.95" y="0">o que se sien</tspan><tspan class="cls-22" x="153.88" y="0">t</tspan><tspan class="cls-18" x="162.38" y="0">e / quie</tspan><tspan class="cls-19" x="246.47" y="0">r</tspan><tspan class="cls-18" x="255.04" y="0">e</tspan></text><text class="cls-8" transform="translate(433.88 260.38)">“Que<tspan class="cls-23" x="52.23" y="0">r</tspan><tspan class="cls-24" x="60.2" y="0">er ha</tspan><tspan class="cls-19" x="112.73" y="0">c</tspan><tspan class="cls-24" x="124.54" y="0">e</tspan><tspan class="cls-25" x="136.96" y="0">r</tspan><tspan class="cls-24" x="146.2" y="0">”</tspan></text></g></g></svg>