<svg xmlns="http://www.w3.org/2000/svg" viewBox="0 0 769.79 211.26"><defs><style>.cls-1{fill:#db1c8b;}.cls-2{fill:#35b3e6;}.cls-3{fill:#1ebac8;}.cls-4{font-size:17.83px;font-family:Gotham-Black, Gotham;font-weight:800;}.cls-10,.cls-4{fill:#fff;}.cls-5{letter-spacing:-0.1em;}.cls-6{letter-spacing:-0.02em;}.cls-7{letter-spacing:-0.03em;}.cls-8{letter-spacing:-0.04em;}.cls-9{letter-spacing:-0.01em;}.cls-10{font-size:19.45px;font-family:Gotham-Bold, Gotham;font-weight:700;}.cls-11{letter-spacing:-0.01em;}.cls-12{letter-spacing:-0.02em;}.cls-13{letter-spacing:-0.02em;}.cls-14{letter-spacing:-0.01em;}</style></defs><g id="Capa_2" data-name="Capa 2"><g id="Capa_1-2" data-name="Capa 1"><path class="cls-1" d="M6.42,0H126.78a0,0,0,0,1,0,0V211.26a0,0,0,0,1,0,0H6.42A6.42,6.42,0,0,1,0,204.84V6.42A6.42,6.42,0,0,1,6.42,0Z"/><rect class="cls-2" x="131.81" width="317.01" height="103.06"/><path class="cls-3" d="M452.77,0H763.36a6.42,6.42,0,0,1,6.42,6.42v96.63a0,0,0,0,1,0,0h-317a0,0,0,0,1,0,0V0A0,0,0,0,1,452.77,0Z"/><rect class="cls-3" x="452.77" y="108.21" width="317.01" height="32.1"/><rect class="cls-3" x="452.77" y="143.68" width="317.01" height="32.1"/><path class="cls-3" d="M452.77,179.16h317a0,0,0,0,1,0,0v25.68a6.42,6.42,0,0,1-6.42,6.42H452.77a0,0,0,0,1,0,0v-32.1a0,0,0,0,1,0,0Z"/><rect class="cls-2" x="131.81" y="108.21" width="317.01" height="103.06"/><text class="cls-4" transform="translate(58 169.57) rotate(-90)">E<tspan class="cls-5" x="11.91" y="0">V</tspan><tspan x="23.67" y="0">A</tspan><tspan class="cls-6" x="37.84" y="0">L</tspan><tspan class="cls-7" x="48.48" y="0">U</tspan><tspan class="cls-8" x="61.5" y="0">A</tspan><tspan x="74.87" y="0">CIÓN </tspan><tspan x="-26.01" y="24.31">DE </tspan><tspan class="cls-6" x="4.89" y="24.31">C</tspan><tspan x="17.57" y="24.31">OMPETENCI</tspan><tspan class="cls-9" x="128.28" y="24.31">A</tspan><tspan x="142.27" y="24.31">S</tspan></text><text class="cls-10" transform="translate(167.46 60.11)"><tspan class="cls-11">C</tspan><tspan x="14.16" y="0">onocimien</tspan><tspan class="cls-12" x="117.45" y="0">t</tspan><tspan x="125.23" y="0">os </tspan><tspan class="cls-12" x="153.73" y="0">t</tspan><tspan x="161.51" y="0">eóri</tspan><tspan class="cls-12" x="200.34" y="0">c</tspan><tspan x="211.16" y="0">os</tspan></text><text class="cls-10" transform="translate(161.73 164.46)"><tspan class="cls-11">C</tspan><tspan x="14.16" y="0">onocimien</tspan><tspan class="cls-12" x="117.45" y="0">t</tspan><tspan x="125.23" y="0">os p</tspan><tspan class="cls-13" x="166.86" y="0">r</tspan><tspan x="174.5" y="0">ácti</tspan><tspan class="cls-14" x="211.06" y="0">c</tspan><tspan x="221.87" y="0">os</tspan></text><text class="cls-10" transform="translate(481.63 58.84)">Pruebas de <tspan class="cls-14" x="116.26" y="0">c</tspan><tspan x="127.07" y="0">onocimien</tspan><tspan class="cls-12" x="230.37" y="0">t</tspan><tspan x="238.15" y="0">os</tspan></text><text class="cls-10" transform="translate(551.09 130.6)">Obser<tspan class="cls-13" x="59.46" y="0">v</tspan><tspan x="70.65" y="0">ación</tspan><tspan x="22.3" y="35.65">Pruebas</tspan><tspan x="-2.91" y="71.3">Simulaciones</tspan></text></g></g></svg>