<svg id="Capa_1" data-name="Capa 1" xmlns="http://www.w3.org/2000/svg" viewBox="0 0 3401.57 933.53"><defs><style>.cls-1{fill:#d62a87;}.cls-2{fill:#37b3e6;}.cls-3{fill:#2ab7c6;}.cls-4,.cls-5{fill:#fff;}.cls-5{font-size:85.93px;font-family:Gotham-Bold, Gotham;font-weight:700;}.cls-6{letter-spacing:-0.01em;}.cls-7{letter-spacing:-0.01em;}.cls-8{letter-spacing:-0.02em;}.cls-9{letter-spacing:-0.02em;}</style></defs><path class="cls-1" d="M6.42,0H560.21a0,0,0,0,1,0,0V933.53a0,0,0,0,1,0,0H6.42A6.42,6.42,0,0,1,0,927.11V6.42A6.42,6.42,0,0,1,6.42,0Z"/><rect class="cls-2" x="582.47" width="1400.83" height="455.39"/><path class="cls-3" d="M2000.75,0h1394.4a6.42,6.42,0,0,1,6.42,6.42v449a0,0,0,0,1,0,0H2000.75a0,0,0,0,1,0,0V0A0,0,0,0,1,2000.75,0Z"/><rect class="cls-3" x="2000.75" y="478.14" width="1400.83" height="141.86"/><rect class="cls-3" x="2000.75" y="634.91" width="1400.83" height="141.86"/><path class="cls-3" d="M2000.75,791.67H3401.57a0,0,0,0,1,0,0V927.11a6.42,6.42,0,0,1-6.42,6.42H2000.75a0,0,0,0,1,0,0V791.67a0,0,0,0,1,0,0Z"/><rect class="cls-2" x="582.47" y="478.14" width="1400.83" height="455.39"/><path class="cls-4" d="M201.15,744.42V700.07h12.92v29.22h8.43V702.83h12.05v26.46h8.74V699.68h13v44.74Z"/><path class="cls-4" d="M201.15,696.13v-17l34.9-12.52L201.15,654v-16.7l55.53,22.37v14.18Z"/><path class="cls-4" d="M200.76,620.75V606l55.53-23.47v16.38l-9.92,3.94v21.35l9.92,3.94v16Zm33.71-13.39-15.59,6.15,15.59,6.22Z"/><path class="cls-4" d="M201.15,577.19V561.91H242.9v-26.7h13.39v42Z"/><path class="cls-4" d="M232.11,530.8h-31V515.36h30.64c8,0,11.74-3.93,11.74-10.16S240,495,232.19,495h-31V479.52h30.57c17.72,0,25.59,10.17,25.59,25.84S249.44,530.8,232.11,530.8Z"/><path class="cls-4" d="M200.76,453.61V438.88l55.53-23.47v16.38l-9.92,3.94v21.35l9.92,3.93v16Zm33.71-13.39-15.59,6.14,15.59,6.23Z"/><path class="cls-4" d="M228.88,415.41h-.16c-16.07,0-28.67-12.29-28.67-29,0-11.18,4.73-18.59,11.42-23.39l8.9,11.5c-3.86,3.15-6.46,6.69-6.46,12.05,0,7.72,6.62,13.15,14.66,13.15h.15c8.27,0,14.73-5.43,14.73-13.15,0-5.75-2.68-9.06-6.69-12.44l8.19-11.5c7.17,5.27,12.44,12.2,12.44,24.33A28,28,0,0,1,228.88,415.41Z"/><path class="cls-4" d="M201.15,355.63V340.35h55.14v15.28Z"/><path class="cls-4" d="M183.83,299.78l4.33-14.26,8.43,11.66v11.11Zm45,32.29h-.16c-15.83,0-28.67-12.76-28.67-29.77s12.76-29.61,28.52-29.61h.15c15.83,0,28.67,12.76,28.67,29.77S244.63,332.07,228.88,332.07Zm0-43.71h-.16c-8,0-14.88,5.67-14.88,14.1s6.77,14,14.73,14h.15c7.88,0,14.89-5.75,14.89-14.18S236.84,288.36,228.88,288.36Z"/><path class="cls-4" d="M201.15,264.81V250.55l29.15-22.68H201.15V212.74h55.14v13.32L226,249.68h30.25v15.13Z"/><path class="cls-4" d="M308.56,859.37V838c0-19.61,11.27-31,27.26-31H336c16,0,27.73,11.57,27.73,31.34v21ZM322,844.09h28.12v-6.22c0-9.21-5-15.28-13.94-15.28h-.16c-8.9,0-14,6.07-14,15.28Z"/><path class="cls-4" d="M308.56,799V754.69h12.92v29.23h8.43V757.45h12v26.47h8.74V754.3h13V799Z"/><path class="cls-4" d="M336.29,724.61h-.16c-16.07,0-28.67-12.29-28.67-29,0-11.18,4.73-18.59,11.42-23.39l8.9,11.5c-3.86,3.15-6.46,6.69-6.46,12,0,7.72,6.62,13.15,14.65,13.15h.16c8.27,0,14.73-5.43,14.73-13.15,0-5.75-2.68-9.06-6.69-12.45l8.19-11.5c7.17,5.28,12.44,12.21,12.44,24.34A28,28,0,0,1,336.29,724.61Z"/><path class="cls-4" d="M336.29,668.6h-.16c-15.83,0-28.67-12.76-28.67-29.77s12.76-29.62,28.51-29.62h.16C352,609.21,364.8,622,364.8,639S352,668.6,336.29,668.6Zm0-43.71h-.16c-8,0-14.88,5.67-14.88,14.1S328,653,336,653h.16C344,653,351,647.26,351,638.83S344.25,624.89,336.29,624.89Z"/><path class="cls-4" d="M308.56,601.34V585.19L329.91,572l-21.35-13.16V542.74H363.7v15.2H332L353.62,572v.31l-21.51,14H363.7v15Z"/><path class="cls-4" d="M308.56,533V509.26c0-13.86,7.09-22.84,19.3-22.84H328c13.07,0,19.93,10,19.93,23.63v7.64H363.7V533ZM336,510.36c0-5.35-2.83-8.74-7.24-8.74h-.16c-4.73,0-7.17,3.39-7.17,8.82v7.25H336Z"/><path class="cls-4" d="M308.56,480V435.61h12.92v29.23h8.43V438.37h12v26.47h8.74V435.22h13V480Z"/><path class="cls-4" d="M322,413.87v16.47H308.56V382.05H322v16.54H363.7v15.28Z"/><path class="cls-4" d="M308.56,375.36V331h12.92v29.22h8.43V333.77h12v26.46h8.74V330.62h13v44.74Z"/><path class="cls-4" d="M308.56,322.74V308.49l29.15-22.69H308.56V270.68H363.7V284l-30.25,23.63H363.7v15.12Z"/><path class="cls-4" d="M336.29,262.72h-.16c-16.07,0-28.67-12.29-28.67-29,0-11.19,4.73-18.59,11.42-23.4l8.9,11.5c-3.86,3.15-6.46,6.7-6.46,12,0,7.72,6.62,13.16,14.65,13.16h.16c8.27,0,14.73-5.44,14.73-13.16,0-5.75-2.68-9-6.69-12.44l8.19-11.5c7.17,5.28,12.44,12.21,12.44,24.34A28,28,0,0,1,336.29,262.72Z"/><path class="cls-4" d="M308.56,202.94V187.66H363.7v15.28Z"/><path class="cls-4" d="M308.17,158.52V143.79l55.53-23.48V136.7l-9.92,3.94V162l9.92,3.94v16Zm33.71-13.39-15.59,6.14,15.59,6.22Z"/><path class="cls-4" d="M355.51,119.92l-10.16-8.51c4.41-5.59,6.61-11.58,6.61-17.88,0-4.17-1.34-6.38-3.78-6.38H348c-2.37,0-3.47,1.81-5.36,9.38-2.68,11.65-5.91,20.79-17.25,20.79h-.16c-10.32,0-17.64-8.11-17.64-21.34,0-9.46,2.52-16.7,7.32-22.69l10.8,7.64a26.29,26.29,0,0,0-5.44,15.44c0,3.7,1.42,5.51,3.54,5.51H324c2.44,0,3.7-1.89,5.36-9.61,2.75-12.6,6.85-20.48,17.17-20.48h.16c11.26,0,18,8.9,18,22.29C364.65,103.93,361.57,113,355.51,119.92Z"/><path class="cls-4" d="M744.52,235.72v-.17c0-17.1,12.89-31.1,31.37-31.1,11.25,0,18.21,3.78,23.71,9.28l-8.42,9.71c-4.73-4.21-9.28-6.79-15.38-6.79-10.14,0-17.44,8.42-17.44,18.73v.17c0,10.31,7.13,18.9,17.44,18.9,6.87,0,11.08-2.66,15.81-7l8.42,8.51c-6.19,6.61-13,10.74-24.66,10.74C757.67,266.66,744.52,253,744.52,235.72Z"/><path class="cls-4" d="M806.13,242.85v-.17c0-13.23,10.66-24,25-24,14.17,0,24.83,10.48,24.83,23.8v.17c0,13.24-10.66,24-25,24C816.79,266.66,806.13,256.17,806.13,242.85Zm37,0v-.17c0-6.79-4.9-12.71-12.11-12.71-7.48,0-12,5.67-12,12.54v.17c0,6.79,4.9,12.72,12.12,12.72C838.61,255.4,843.08,249.73,843.08,242.85Z"/><path class="cls-4" d="M865.42,219.57h13.06v6.53c3-3.87,7-7.39,13.49-7.39,10,0,15.64,6.44,15.64,17.1v29.81H894.55V239.93c0-6.18-2.84-9.36-7.9-9.36s-8.17,3.18-8.17,9.36v25.69H865.42Z"/><path class="cls-4" d="M916.72,242.85v-.17c0-13.23,10.65-24,25-24,14.18,0,24.84,10.48,24.84,23.8v.17c0,13.24-10.66,24-25,24C927.37,266.66,916.72,256.17,916.72,242.85Zm36.95,0v-.17c0-6.79-4.9-12.71-12.12-12.71-7.47,0-11.94,5.67-11.94,12.54v.17c0,6.79,4.9,12.72,12.11,12.72C949.2,255.4,953.67,249.73,953.67,242.85Z"/><path class="cls-4" d="M973.77,242.85v-.17a23.65,23.65,0,0,1,24.15-24c8.68,0,14,2.92,18.39,7.73l-8,8.6c-3-3.1-5.76-5.07-10.49-5.07-6.53,0-11.17,5.67-11.17,12.54v.17c0,7.13,4.56,12.72,11.69,12.72,4.38,0,7.39-1.89,10.57-4.9l7.64,7.73c-4.46,4.9-9.62,8.43-18.81,8.43A23.57,23.57,0,0,1,973.77,242.85Z"/><path class="cls-4" d="M1025.33,202.9h13.75v11.6h-13.75Zm.34,16.67h13.06v46.05h-13.06Z"/><path class="cls-4" d="M1051,219.57h13.06v6.53c3-3.87,7-7.39,13.58-7.39,6.1,0,10.57,2.58,13,7.3,4-4.81,8.85-7.3,15.12-7.3,9.71,0,15.56,5.84,15.56,16.93v30h-13.06V239.93c0-6.18-2.75-9.36-7.65-9.36s-7.91,3.18-7.91,9.36v25.69h-13.06V239.93c0-6.18-2.75-9.36-7.64-9.36s-7.91,3.18-7.91,9.36v25.69H1051Z"/><path class="cls-4" d="M1132.91,202.9h13.75v11.6h-13.75Zm.34,16.67h13.06v46.05h-13.06Z"/><path class="cls-4" d="M1156.37,242.85v-.17c0-13.14,9.36-24,22.77-24,15.38,0,22.42,11.94,22.42,25,0,1-.08,2.15-.17,3.44h-32.05c1.29,5.93,5.41,9,11.26,9,4.38,0,7.47-1.37,11.17-4.72l7.47,6.61c-4.38,5.42-10.48,8.6-18.81,8.6C1166.59,266.66,1156.37,257,1156.37,242.85Zm32.48-3.86c-.78-5.84-4.21-9.8-9.71-9.8s-8.94,3.87-10,9.8Z"/><path class="cls-4" d="M1211.27,219.57h13.06v6.53c3-3.87,7-7.39,13.49-7.39,10,0,15.64,6.44,15.64,17.1v29.81H1240.4V239.93c0-6.18-2.83-9.36-7.9-9.36s-8.17,3.18-8.17,9.36v25.69h-13.06Z"/><path class="cls-4" d="M1267,252.56V230.74h-5.5V219.57h5.5V207.8H1280v11.77h10.83v11.17H1280v19.68c0,3,1.38,4.46,4.21,4.46a12.84,12.84,0,0,0,6.45-1.63v10.48a19.19,19.19,0,0,1-10.31,2.67C1272.45,266.4,1267,263.22,1267,252.56Z"/><path class="cls-4" d="M1296.94,242.85v-.17c0-13.23,10.66-24,25-24,14.17,0,24.83,10.48,24.83,23.8v.17c0,13.24-10.66,24-25,24C1307.6,266.66,1296.94,256.17,1296.94,242.85Zm37,0v-.17c0-6.79-4.9-12.71-12.12-12.71-7.47,0-11.94,5.67-11.94,12.54v.17c0,6.79,4.9,12.72,12.12,12.72C1329.42,255.4,1333.89,249.73,1333.89,242.85Z"/><path class="cls-4" d="M1352.62,259.52l5.59-8.59c5.07,3.7,10.14,5.5,14.52,5.5,3.78,0,5.5-1.37,5.5-3.44v-.17c0-2.83-4.47-3.69-9.54-5.33-6.44-1.8-13.75-4.89-13.75-13.83v-.17c0-9.37,7.56-14.61,16.84-14.61a32.11,32.11,0,0,1,17.19,5.33l-5,9c-4.55-2.66-9.1-4.29-12.46-4.29-3.17,0-4.81,1.37-4.81,3.17v.18c0,2.4,4.39,4,9.37,5.5,6.44,2.06,13.92,5.24,13.92,13.66v.17c0,10.22-7.65,14.86-17.62,14.86A32.21,32.21,0,0,1,1352.62,259.52Z"/><path class="cls-4" d="M1427.29,252.56V230.74h-5.5V219.57h5.5V207.8h13.06v11.77h10.83v11.17h-10.83v19.68c0,3,1.38,4.46,4.21,4.46a12.84,12.84,0,0,0,6.45-1.63v10.48a19.2,19.2,0,0,1-10.32,2.67C1432.79,266.4,1427.29,263.22,1427.29,252.56Z"/><path class="cls-4" d="M1457.28,242.85v-.17c0-13.14,9.36-24,22.77-24,15.38,0,22.42,11.94,22.42,25,0,1-.08,2.15-.17,3.44h-32c1.29,5.93,5.42,9,11.26,9,4.38,0,7.47-1.37,11.17-4.72l7.47,6.61c-4.38,5.42-10.48,8.6-18.81,8.6C1467.5,266.66,1457.28,257,1457.28,242.85Zm32.48-3.86c-.78-5.84-4.21-9.8-9.71-9.8s-8.94,3.87-10,9.8Z"/><path class="cls-4" d="M1510,242.85v-.17c0-13.23,10.66-24,25-24,14.17,0,24.83,10.48,24.83,23.8v.17c0,13.24-10.66,24-25,24C1520.61,266.66,1510,256.17,1510,242.85Zm37,0v-.17c0-6.79-4.9-12.71-12.12-12.71-7.47,0-11.94,5.67-11.94,12.54v.17c0,6.79,4.9,12.72,12.12,12.72C1542.43,255.4,1546.9,249.73,1546.9,242.85Zm-7.65-43.56,11.26,4.9-11.17,10.31h-9.63Z"/><path class="cls-4" d="M1569.24,219.57h13.06v9.28c2.66-6.27,6.87-10.48,14.69-10.14v13.66h-.68c-8.68,0-14,5.16-14,16.24v17h-13.06Z"/><path class="cls-4" d="M1605.42,202.9h13.74v11.6h-13.74Zm.34,16.67h13.06v46.05h-13.06Z"/><path class="cls-4" d="M1628.87,242.85v-.17a23.65,23.65,0,0,1,24.15-24c8.68,0,14,2.92,18.38,7.73l-8,8.6c-3-3.1-5.75-5.07-10.48-5.07-6.53,0-11.17,5.67-11.17,12.54v.17c0,7.13,4.56,12.72,11.69,12.72,4.38,0,7.39-1.89,10.57-4.9l7.64,7.73c-4.47,4.9-9.62,8.43-18.81,8.43A23.57,23.57,0,0,1,1628.87,242.85Z"/><path class="cls-4" d="M1676.65,242.85v-.17c0-13.23,10.65-24,25-24,14.18,0,24.83,10.48,24.83,23.8v.17c0,13.24-10.65,24-25,24C1687.3,266.66,1676.65,256.17,1676.65,242.85Zm36.95,0v-.17c0-6.79-4.9-12.71-12.12-12.71-7.48,0-11.94,5.67-11.94,12.54v.17c0,6.79,4.89,12.72,12.11,12.72C1709.13,255.4,1713.6,249.73,1713.6,242.85Z"/><path class="cls-4" d="M1732.33,259.52l5.58-8.59c5.07,3.7,10.14,5.5,14.52,5.5,3.79,0,5.5-1.37,5.5-3.44v-.17c0-2.83-4.46-3.69-9.53-5.33-6.45-1.8-13.75-4.89-13.75-13.83v-.17c0-9.37,7.56-14.61,16.84-14.61a32.1,32.1,0,0,1,17.18,5.33l-5,9c-4.55-2.66-9.11-4.29-12.46-4.29-3.18,0-4.81,1.37-4.81,3.17v.18c0,2.4,4.38,4,9.37,5.5,6.44,2.06,13.91,5.24,13.91,13.66v.17c0,10.22-7.64,14.86-17.61,14.86A32.21,32.21,0,0,1,1732.33,259.52Z"/><text class="cls-5" transform="translate(714.67 726.74)"><tspan class="cls-6">C</tspan><tspan x="62.55" y="0">onocimien</tspan><tspan class="cls-7" x="518.99" y="0">t</tspan><tspan x="553.36" y="0">os p</tspan><tspan class="cls-8" x="737.33" y="0">r</tspan><tspan x="771.1" y="0">ácti</tspan><tspan class="cls-9" x="932.64" y="0">c</tspan><tspan x="980.42" y="0">os</tspan></text><path class="cls-4" d="M2160.05,199.86h-24.57V260h13.23V242h10.05c13.49,0,24.32-7.13,24.32-21.14v-.17C2183.08,208.28,2174.4,199.86,2160.05,199.86Zm9.63,21.22c0,5.15-3.87,9.11-10.49,9.11h-10.48V211.8h10.23c6.61,0,10.74,3.18,10.74,9.11Z"/><path class="cls-4" d="M2204.56,223.23V214H2191.5V260h13.06V243c0-11.08,5.33-16.24,14-16.24h.69V213.09C2211.44,212.75,2207.23,217,2204.56,223.23Z"/><path class="cls-4" d="M2256.2,239.64c0,6.19-3.09,9.36-8.16,9.36s-7.9-3.17-7.9-9.36V214h-13.06v29.81c0,10.66,5.67,17.1,15.63,17.1,6.54,0,10.49-3.52,13.49-7.39V260h13.07V214H2256.2Z"/><path class="cls-4" d="M2301.49,213.09c-13.41,0-22.77,10.83-22.77,24v.17c0,14.09,10.22,23.8,24.06,23.8,8.33,0,14.43-3.18,18.81-8.59l-7.47-6.61c-3.7,3.35-6.79,4.72-11.17,4.72-5.84,0-10-3.09-11.26-9h32c.09-1.29.17-2.41.17-3.44C2323.91,225,2316.87,213.09,2301.49,213.09Zm-10,20.28c1-5.93,4.47-9.8,10-9.8s8.93,4,9.71,9.8Z"/><path class="cls-4" d="M2361,213.09c-6.87,0-11.17,3.09-14.35,7.47V197.28h-13.06V260h13.06v-6a17.71,17.71,0,0,0,14.35,6.87c10.92,0,21-8.42,21-23.8v-.17C2382,221.51,2371.77,213.09,2361,213.09Zm7.91,24c0,7.73-5.16,12.72-11.26,12.72s-11.17-5.07-11.17-12.72v-.17c0-7.65,5.07-12.72,11.17-12.72s11.26,5.07,11.26,12.72Z"/><path class="cls-4" d="M2410.7,213.43a41.84,41.84,0,0,0-17.87,3.7l3.26,10a32,32,0,0,1,12.72-2.49c6.53,0,9.88,2.92,9.88,8.42v.78a32.66,32.66,0,0,0-11.26-1.89c-10.91,0-18.55,4.72-18.55,14.69v.17c0,9.19,7.13,14.09,15.8,14.09,6.45,0,10.75-2.32,13.92-5.84v5h12.63V233.28c0-6.19-1.54-11.26-5-14.69S2417.92,213.43,2410.7,213.43Zm8.16,30.33c0,4.81-4,8.08-10.22,8.08-4.21,0-7.13-2.06-7.13-5.58v-.18c0-4.12,3.43-6.35,9-6.35a20.55,20.55,0,0,1,8.33,1.71Z"/><path class="cls-4" d="M2462.34,232.16c-5-1.54-9.36-3.09-9.36-5.5v-.17c0-1.8,1.63-3.18,4.81-3.18,3.35,0,7.9,1.64,12.46,4.3l5-9a32.1,32.1,0,0,0-17.18-5.33c-9.28,0-16.85,5.24-16.85,14.61V228c0,8.94,7.31,12,13.75,13.83,5.07,1.64,9.54,2.49,9.54,5.33v.17c0,2.06-1.72,3.44-5.5,3.44-4.38,0-9.45-1.81-14.52-5.5l-5.59,8.59a32.3,32.3,0,0,0,19.77,7c10,0,17.61-4.64,17.61-14.86v-.17C2476.26,237.4,2468.79,234.23,2462.34,232.16Z"/><path class="cls-4" d="M2544.66,220a17.71,17.71,0,0,0-14.35-6.87c-10.91,0-21,8.42-21,23.8v.17c0,15.38,10.23,23.8,21,23.8,6.87,0,11.17-3.09,14.35-7.47V260h13.06V197.28h-13.06Zm.17,17.1c0,7.65-5.07,12.72-11.17,12.72s-11.26-5.07-11.26-12.72v-.17c0-7.73,5.16-12.72,11.26-12.72s11.17,5.07,11.17,12.72Z"/><path class="cls-4" d="M2589.94,213.09c-13.4,0-22.77,10.83-22.77,24v.17c0,14.09,10.23,23.8,24.06,23.8,8.33,0,14.43-3.18,18.82-8.59l-7.48-6.61c-3.69,3.35-6.79,4.72-11.17,4.72-5.84,0-10-3.09-11.25-9h32c.09-1.29.18-2.41.18-3.44C2612.37,225,2605.32,213.09,2589.94,213.09Zm-10,20.28c1-5.93,4.47-9.8,10-9.8s8.94,4,9.71,9.8Z"/><path class="cls-4" d="M2670.2,249.78c-7.14,0-11.69-5.59-11.69-12.72v-.17c0-6.87,4.64-12.55,11.17-12.55,4.73,0,7.48,2,10.48,5.07l8-8.59c-4.38-4.81-9.71-7.73-18.38-7.73a23.65,23.65,0,0,0-24.15,24v.17a23.57,23.57,0,0,0,24,23.8c9.2,0,14.35-3.52,18.82-8.42l-7.65-7.73C2677.58,247.89,2674.58,249.78,2670.2,249.78Z"/><path class="cls-4" d="M2718.4,213.09c-14.35,0-25,10.74-25,24v.17c0,13.32,10.65,23.8,24.83,23.8,14.35,0,25-10.74,25-24v-.17C2743.23,223.57,2732.58,213.09,2718.4,213.09Zm11.94,24.14c0,6.88-4.46,12.55-11.94,12.55-7.22,0-12.11-5.93-12.11-12.72v-.17c0-6.87,4.46-12.55,11.94-12.55,7.22,0,12.11,5.93,12.11,12.72Z"/><path class="cls-4" d="M2779.24,213.09c-6.53,0-10.49,3.52-13.49,7.39V214h-13.06V260h13.06V234.31c0-6.18,3.09-9.36,8.16-9.36s7.9,3.18,7.9,9.36V260h13.06V230.19C2794.87,219.53,2789.2,213.09,2779.24,213.09Z"/><path class="cls-4" d="M2829,213.09c-14.35,0-25,10.74-25,24v.17c0,13.32,10.66,23.8,24.83,23.8,14.35,0,25-10.74,25-24v-.17C2853.82,223.57,2843.16,213.09,2829,213.09Zm11.94,24.14c0,6.88-4.47,12.55-11.94,12.55-7.22,0-12.12-5.93-12.12-12.72v-.17c0-6.87,4.47-12.55,11.94-12.55,7.22,0,12.12,5.93,12.12,12.72Z"/><path class="cls-4" d="M2885.61,249.78c-7.13,0-11.68-5.59-11.68-12.72v-.17c0-6.87,4.64-12.55,11.17-12.55,4.72,0,7.47,2,10.48,5.07l8-8.59c-4.38-4.81-9.71-7.73-18.39-7.73a23.64,23.64,0,0,0-24.14,24v.17a23.57,23.57,0,0,0,24,23.8c9.19,0,14.35-3.52,18.82-8.42l-7.65-7.73C2893,247.89,2890,249.78,2885.61,249.78Z"/><rect class="cls-4" x="2912.94" y="213.95" width="13.06" height="46.05"/><rect class="cls-4" x="2912.59" y="197.28" width="13.75" height="11.6"/><path class="cls-4" d="M2993,213.09c-6.27,0-11.09,2.49-15.13,7.3-2.4-4.72-6.87-7.3-13-7.3-6.61,0-10.57,3.52-13.57,7.39V214h-13.06V260h13.06V234.31c0-6.18,3-9.36,7.9-9.36s7.65,3.18,7.65,9.36V260H2980V234.31c0-6.18,3-9.36,7.9-9.36s7.65,3.18,7.65,9.36V260h13.06V230C3008.57,218.93,3002.73,213.09,2993,213.09Z"/><rect class="cls-4" x="3020.52" y="213.95" width="13.06" height="46.05"/><rect class="cls-4" x="3020.17" y="197.28" width="13.75" height="11.6"/><path class="cls-4" d="M3066.4,213.09c-13.4,0-22.77,10.83-22.77,24v.17c0,14.09,10.23,23.8,24.06,23.8,8.33,0,14.43-3.18,18.82-8.59l-7.48-6.61c-3.69,3.35-6.79,4.72-11.17,4.72-5.84,0-10-3.09-11.26-9h32.05c.09-1.29.18-2.41.18-3.44C3088.83,225,3081.78,213.09,3066.4,213.09Zm-10,20.28c1-5.93,4.47-9.8,10-9.8s8.94,4,9.71,9.8Z"/><path class="cls-4" d="M3125.09,213.09c-6.53,0-10.49,3.52-13.49,7.39V214h-13.06V260h13.06V234.31c0-6.18,3.09-9.36,8.16-9.36s7.9,3.18,7.9,9.36V260h13.07V230.19C3140.73,219.53,3135.05,213.09,3125.09,213.09Z"/><path class="cls-4" d="M3167.28,202.18h-13.06V214h-5.5v11.17h5.5v21.82c0,10.66,5.5,13.84,13.4,13.84a19.28,19.28,0,0,0,10.31-2.67V247.63a12.8,12.8,0,0,1-6.44,1.63c-2.84,0-4.21-1.46-4.21-4.47V225.12h10.82V214h-10.82Z"/><path class="cls-4" d="M3209.21,213.09c-14.35,0-25,10.74-25,24v.17c0,13.32,10.66,23.8,24.84,23.8,14.35,0,25-10.74,25-24v-.17C3234,223.57,3223.39,213.09,3209.21,213.09Zm11.94,24.14c0,6.88-4.47,12.55-11.94,12.55-7.22,0-12.12-5.93-12.12-12.72v-.17c0-6.87,4.47-12.55,11.95-12.55,7.21,0,12.11,5.93,12.11,12.72Z"/><path class="cls-4" d="M3263.34,232.16c-5-1.54-9.36-3.09-9.36-5.5v-.17c0-1.8,1.63-3.18,4.81-3.18,3.35,0,7.9,1.64,12.46,4.3l5-9a32.1,32.1,0,0,0-17.18-5.33c-9.28,0-16.85,5.24-16.85,14.61V228c0,8.94,7.31,12,13.75,13.83,5.07,1.64,9.54,2.49,9.54,5.33v.17c0,2.06-1.72,3.44-5.5,3.44-4.38,0-9.45-1.81-14.52-5.5l-5.59,8.59a32.3,32.3,0,0,0,19.77,7c10,0,17.61-4.64,17.61-14.86v-.17C3277.26,237.4,3269.79,234.23,3263.34,232.16Z"/><path class="cls-4" d="M2471.79,515.93c-18.56,0-32.05,14-32.05,31.11v.17c0,17.1,13.32,30.93,31.88,30.93s32.05-14,32.05-31.1v-.17C2503.67,529.77,2490.35,515.93,2471.79,515.93Zm18.05,31.28c0,10.31-7.39,18.73-18.05,18.73s-18.21-8.59-18.21-18.9v-.17c0-10.31,7.39-18.73,18-18.73s18.22,8.59,18.22,18.9Z"/><path class="cls-4" d="M2527.13,571.1a17.69,17.69,0,0,0,14.35,6.87c10.91,0,21-8.42,21-23.8V554c0-15.38-10.23-23.8-21-23.8-6.87,0-11.17,3.09-14.35,7.47V514.39h-13.06v62.72h13.06ZM2527,554c0-7.65,5.07-12.72,11.17-12.72s11.26,5.07,11.26,12.72v.17c0,7.73-5.16,12.72-11.26,12.72S2527,561.82,2527,554.17Z"/><path class="cls-4" d="M2588.57,567.92c-4.38,0-9.45-1.81-14.52-5.5l-5.59,8.59a32.27,32.27,0,0,0,19.76,7c10,0,17.62-4.64,17.62-14.86v-.18c0-8.42-7.48-11.6-13.92-13.66-5-1.54-9.37-3.09-9.37-5.5v-.17c0-1.8,1.64-3.18,4.81-3.18,3.36,0,7.91,1.63,12.46,4.3l5-9a32.11,32.11,0,0,0-17.19-5.33c-9.28,0-16.84,5.24-16.84,14.61v.17c0,8.93,7.31,12,13.75,13.83,5.07,1.63,9.54,2.49,9.54,5.33v.17C2594.07,566.54,2592.35,567.92,2588.57,567.92Z"/><path class="cls-4" d="M2637,578.14c8.34,0,14.44-3.18,18.82-8.59l-7.48-6.62c-3.69,3.35-6.79,4.73-11.17,4.73-5.84,0-10-3.09-11.25-9H2658c.08-1.29.17-2.41.17-3.44,0-13.06-7.05-25-22.43-25-13.4,0-22.77,10.82-22.77,24v.17C2613,568.43,2623.2,578.14,2637,578.14Zm-1.29-37.46c5.5,0,8.94,4,9.71,9.8h-19.68C2626.81,544.55,2630.24,540.68,2635.74,540.68Z"/><path class="cls-4" d="M2680.94,560.1c0-11.09,5.33-16.24,14-16.24h.69V530.2c-7.82-.35-12,3.86-14.69,10.14v-9.28h-13.06v46.05h13.06Z"/><polygon class="cls-4" points="2729.66 577.45 2747.79 531.06 2734.21 531.06 2723.82 561.9 2713.51 531.06 2699.67 531.06 2717.8 577.45 2729.66 577.45"/><path class="cls-4" d="M2772.28,530.54a41.84,41.84,0,0,0-17.87,3.7l3.26,10a32,32,0,0,1,12.72-2.49c6.53,0,9.88,2.92,9.88,8.42v.77A32.9,32.9,0,0,0,2769,549c-10.91,0-18.56,4.73-18.56,14.7v.17c0,9.19,7.14,14.09,15.81,14.09,6.45,0,10.74-2.32,13.92-5.84v5h12.63V550.39c0-6.19-1.54-11.26-5-14.69S2779.5,530.54,2772.28,530.54Zm8.16,30.33c0,4.81-4,8.08-10.22,8.08-4.21,0-7.13-2.06-7.13-5.59v-.17c0-4.12,3.43-6.36,9-6.36a20.55,20.55,0,0,1,8.33,1.72Z"/><path class="cls-4" d="M2837,562c-3.18,3-6.19,4.9-10.57,4.9-7.13,0-11.68-5.59-11.68-12.72V554c0-6.88,4.64-12.55,11.17-12.55,4.72,0,7.47,2,10.48,5.07l8-8.59c-4.38-4.81-9.71-7.73-18.39-7.73a23.64,23.64,0,0,0-24.14,24v.17a23.57,23.57,0,0,0,24,23.8c9.2,0,14.35-3.52,18.82-8.42Z"/><rect class="cls-4" x="2853.74" y="531.06" width="13.06" height="46.05"/><rect class="cls-4" x="2853.39" y="514.39" width="13.75" height="11.6"/><path class="cls-4" d="M2926.69,554.17V554c0-13.32-10.66-23.8-24.83-23.8-14.35,0-25,10.74-25,24v.17c0,13.32,10.66,23.8,24.83,23.8C2916,578.14,2926.69,567.4,2926.69,554.17Zm-12.89.17c0,6.88-4.47,12.55-11.94,12.55-7.22,0-12.12-5.93-12.12-12.72V554c0-6.88,4.47-12.55,11.94-12.55,7.22,0,12.12,5.93,12.12,12.72Z"/><polygon class="cls-4" points="2917.41 515.68 2906.15 510.78 2896.61 525.99 2906.24 525.99 2917.41 515.68"/><path class="cls-4" d="M2965.27,551.42v25.69h13.06V547.3c0-10.66-5.67-17.1-15.64-17.1-6.53,0-10.48,3.52-13.49,7.39v-6.53h-13.06v46.05h13.06V551.42c0-6.19,3.09-9.37,8.16-9.37S2965.27,545.23,2965.27,551.42Z"/><path class="cls-4" d="M2565.54,674.5H2541v60.14h13.23v-18h10.05c13.49,0,24.32-7.13,24.32-21.14v-.17C2588.57,682.92,2579.89,674.5,2565.54,674.5Zm9.62,21.22c0,5.16-3.86,9.11-10.48,9.11H2554.2V686.44h10.22c6.62,0,10.74,3.18,10.74,9.11Z"/><path class="cls-4" d="M2597,688.59v46h13.06v-17c0-11.08,5.33-16.24,14-16.24h.68V687.73c-7.82-.34-12,3.87-14.69,10.14v-9.28Z"/><path class="cls-4" d="M2674.75,734.64v-46h-13.06v25.69c0,6.19-3.09,9.37-8.16,9.37s-7.91-3.18-7.91-9.37V688.59h-13.06V718.4c0,10.66,5.67,17.1,15.64,17.1,6.53,0,10.48-3.52,13.49-7.39v6.53Z"/><path class="cls-4" d="M2729.4,712.73c0-13.06-7.05-25-22.43-25-13.4,0-22.77,10.83-22.77,24v.17c0,14.1,10.23,23.81,24.06,23.81,8.34,0,14.44-3.18,18.82-8.6l-7.48-6.61c-3.69,3.35-6.78,4.72-11.17,4.72-5.84,0-10-3.09-11.25-9h32.05C2729.31,714.88,2729.4,713.77,2729.4,712.73ZM2697,708c1-5.93,4.47-9.8,10-9.8s8.94,4,9.71,9.8Z"/><path class="cls-4" d="M2766.52,687.73c-6.87,0-11.17,3.09-14.35,7.48V671.92h-13.06v62.72h13.06v-6a17.71,17.71,0,0,0,14.35,6.87c10.91,0,21-8.42,21-23.8v-.17C2787.49,696.15,2777.26,687.73,2766.52,687.73Zm7.91,24c0,7.74-5.16,12.72-11.26,12.72S2752,719.35,2752,711.7v-.17c0-7.65,5.07-12.72,11.17-12.72s11.26,5.07,11.26,12.72Z"/><path class="cls-4" d="M2810.17,735.5c6.45,0,10.74-2.32,13.92-5.84v5h12.63V707.92c0-6.18-1.54-11.25-5-14.69s-8.34-5.16-15.55-5.16a41.88,41.88,0,0,0-17.88,3.7l3.27,10a31.86,31.86,0,0,1,12.72-2.5c6.53,0,9.88,2.93,9.88,8.42v.78a32.66,32.66,0,0,0-11.26-1.89c-10.91,0-18.56,4.72-18.56,14.69v.17C2794.36,730.61,2801.49,735.5,2810.17,735.5ZM2807,720.73c0-4.13,3.44-6.36,9-6.36a20.6,20.6,0,0,1,8.34,1.71v2.32c0,4.82-4,8.08-10.23,8.08-4.21,0-7.13-2.06-7.13-5.58Z"/><path class="cls-4" d="M2881.75,720.64v-.17c0-8.42-7.48-11.6-13.92-13.66-5-1.55-9.37-3.1-9.37-5.5v-.18c0-1.8,1.64-3.17,4.81-3.17,3.36,0,7.91,1.63,12.46,4.29l5-9a32.14,32.14,0,0,0-17.19-5.33c-9.28,0-16.84,5.24-16.84,14.61v.17c0,8.94,7.31,12,13.75,13.83,5.07,1.64,9.54,2.5,9.54,5.33V722c0,2.07-1.72,3.44-5.5,3.44-4.38,0-9.45-1.8-14.52-5.5l-5.59,8.59a32.27,32.27,0,0,0,19.76,7C2874.1,735.5,2881.75,730.86,2881.75,720.64Z"/><path class="cls-4" d="M2454,856.18c-10.4-2.75-13-3.87-13-7.91v-.17c0-3,2.58-5.24,7.73-5.24s10.23,2.23,15.64,5.93l6.88-10a34.81,34.81,0,0,0-22.34-7.65c-12.38,0-21.06,7.22-21.06,18.13v.17c0,11.86,7.74,15.38,19.94,18.39,10,2.49,12.11,4.3,12.11,7.65v.17c0,3.52-3.18,5.67-8.67,5.67-6.88,0-12.46-2.83-18-7.3l-7.82,9.36A37.7,37.7,0,0,0,2451,893c13,0,22.08-6.71,22.08-18.65v-.17C2473,863.74,2466.17,859.44,2454,856.18Z"/><rect class="cls-4" x="2483.44" y="829.45" width="13.75" height="11.6"/><rect class="cls-4" x="2483.78" y="846.12" width="13.06" height="46.05"/><path class="cls-4" d="M2563.86,845.26c-6.27,0-11.08,2.5-15.12,7.31-2.41-4.73-6.87-7.31-13-7.31-6.62,0-10.57,3.53-13.58,7.39v-6.53h-13.06v46.06h13.06V866.49c0-6.19,3-9.37,7.91-9.37s7.64,3.18,7.64,9.37v25.69h13.06V866.49c0-6.19,3-9.37,7.91-9.37s7.64,3.18,7.64,9.37v25.69h13.06v-30C2579.41,851.11,2573.57,845.26,2563.86,845.26Z"/><path class="cls-4" d="M2619.54,871.81c0,6.19-3.09,9.37-8.16,9.37s-7.9-3.18-7.9-9.37V846.12h-13.06v29.82c0,10.65,5.67,17.1,15.64,17.1,6.53,0,10.48-3.53,13.48-7.39v6.53h13.07V846.12h-13.07Z"/><rect class="cls-4" x="2644.89" y="829.45" width="13.06" height="62.72"/><path class="cls-4" d="M2689.32,845.61a41.89,41.89,0,0,0-17.88,3.69l3.27,10a32,32,0,0,1,12.72-2.49c6.53,0,9.88,2.92,9.88,8.42V866a32.66,32.66,0,0,0-11.26-1.89c-10.91,0-18.56,4.73-18.56,14.69v.17c0,9.2,7.13,14.1,15.81,14.1,6.45,0,10.74-2.32,13.92-5.85v5h12.63V865.46c0-6.19-1.54-11.26-5-14.7S2696.53,845.61,2689.32,845.61Zm8.16,30.33c0,4.81-4,8.07-10.23,8.07-4.21,0-7.13-2.06-7.13-5.58v-.17c0-4.13,3.44-6.36,9-6.36a20.6,20.6,0,0,1,8.34,1.72Z"/><path class="cls-4" d="M2743.45,882c-7.13,0-11.69-5.58-11.69-12.71v-.18c0-6.87,4.64-12.54,11.17-12.54,4.73,0,7.48,2,10.49,5.07l8-8.59c-4.38-4.82-9.71-7.74-18.39-7.74a23.65,23.65,0,0,0-24.14,24v.17a23.57,23.57,0,0,0,24,23.8c9.19,0,14.35-3.53,18.82-8.42l-7.65-7.73C2750.84,880.06,2747.83,882,2743.45,882Z"/><rect class="cls-4" x="2770.43" y="829.45" width="13.75" height="11.6"/><rect class="cls-4" x="2770.78" y="846.12" width="13.06" height="46.05"/><path class="cls-4" d="M2818.89,845.26c-14.35,0-25,10.74-25,24v.17c0,13.32,10.65,23.8,24.83,23.8,14.35,0,25-10.74,25-24v-.18C2843.72,855.75,2833.07,845.26,2818.89,845.26Zm12,24.15c0,6.87-4.47,12.54-12,12.54-7.21,0-12.11-5.93-12.11-12.71v-.18c0-6.87,4.47-12.54,11.94-12.54,7.22,0,12.12,5.93,12.12,12.72Z"/><path class="cls-4" d="M2879.73,845.26c-6.53,0-10.48,3.53-13.49,7.39v-6.53h-13.06v46.06h13.06V866.49c0-6.19,3.09-9.37,8.16-9.37s7.91,3.18,7.91,9.37v25.69h13.06V862.36C2895.37,851.71,2889.7,845.26,2879.73,845.26Z"/><path class="cls-4" d="M2927.24,845.26c-13.4,0-22.76,10.83-22.76,24v.17c0,14.09,10.22,23.8,24.05,23.8,8.34,0,14.44-3.18,18.82-8.59l-7.47-6.62c-3.7,3.35-6.79,4.73-11.17,4.73-5.85,0-10-3.1-11.26-9h32.05c.08-1.28.17-2.4.17-3.43C2949.67,857.21,2942.62,845.26,2927.24,845.26Zm-10,20.28c1-5.93,4.47-9.79,10-9.79s8.94,4,9.71,9.79Z"/><path class="cls-4" d="M2979.23,864.34c-5-1.55-9.37-3.09-9.37-5.5v-.17c0-1.81,1.64-3.18,4.82-3.18,3.35,0,7.9,1.63,12.46,4.29l5-9a32.11,32.11,0,0,0-17.19-5.33c-9.28,0-16.84,5.25-16.84,14.61v.17c0,8.94,7.31,12,13.75,13.84,5.07,1.63,9.54,2.49,9.54,5.32v.18c0,2.06-1.72,3.43-5.5,3.43-4.38,0-9.45-1.8-14.52-5.5l-5.59,8.6a32.3,32.3,0,0,0,19.77,7c10,0,17.61-4.64,17.61-14.87V878C2993.15,869.58,2985.67,866.4,2979.23,864.34Z"/></svg>